<svg xmlns="http://www.w3.org/2000/svg" width="26" height="26" fill="none"><g filter="url(#a)"><path fill="#00A100" d="M18.464 4.5 20.5 6.557c-2.14 2.162-4.89 5.863-8.217 11.08L11.094 19.5l-1.218-1.844c-1.28-1.936-2.738-3.28-4.376-4.06l1.229-2.63c1.577.751 2.996 1.875 4.257 3.358 2.935-4.476 5.42-7.745 7.478-9.824Z"/><path stroke="#fff" stroke-linejoin="round" stroke-width="2" d="M19.175 3.796a1 1 0 0 0-1.422 0c-1.956 1.977-4.25 4.955-6.897 8.912-1.115-1.114-2.347-2.002-3.697-2.645a1 1 0 0 0-1.336.48l-1.229 2.63a1 1 0 0 0 .476 1.325c1.437.685 2.767 1.887 3.972 3.71l1.218 1.843a1 1 0 0 0 1.678-.013l1.188-1.864c3.32-5.204 6.022-8.83 8.085-10.914a1 1 0 0 0 0-1.407l-2.036-2.056Z"/></g><defs><filter id="a" width="25" height="25" x=".5" y=".5" color-interpolation-filters="sRGB" filterUnits="userSpaceOnUse"><feFlood flood-opacity="0" result="BackgroundImageFix"/><feColorMatrix in="SourceAlpha" result="hardAlpha" values="0 0 0 0 0 0 0 0 0 0 0 0 0 0 0 0 0 0 127 0"/><feOffset dy="1"/><feGaussianBlur stdDeviation="1.5"/><feComposite in2="hardAlpha" operator="out"/><feColorMatrix values="0 0 0 0 0 0 0 0 0 0 0 0 0 0 0 0 0 0 0.12 0"/><feBlend in2="BackgroundImageFix" result="effect1_dropShadow_520_13770"/><feColorMatrix in="SourceAlpha" result="hardAlpha" values="0 0 0 0 0 0 0 0 0 0 0 0 0 0 0 0 0 0 127 0"/><feOffset dy="1"/><feGaussianBlur stdDeviation=".5"/><feComposite in2="hardAlpha" operator="out"/><feColorMatrix values="0 0 0 0 0 0 0 0 0 0 0 0 0 0 0 0 0 0 0.14 0"/><feBlend in2="effect1_dropShadow_520_13770" result="effect2_dropShadow_520_13770"/><feColorMatrix in="SourceAlpha" result="hardAlpha" values="0 0 0 0 0 0 0 0 0 0 0 0 0 0 0 0 0 0 127 0"/><feOffset dy="2"/><feGaussianBlur stdDeviation=".5"/><feComposite in2="hardAlpha" operator="out"/><feColorMatrix values="0 0 0 0 0 0 0 0 0 0 0 0 0 0 0 0 0 0 0.2 0"/><feBlend in2="effect2_dropShadow_520_13770" result="effect3_dropShadow_520_13770"/><feBlend in="SourceGraphic" in2="effect3_dropShadow_520_13770" result="shape"/></filter></defs></svg>