<svg xmlns="http://www.w3.org/2000/svg" width="30" height="30" fill="none"><g filter="url(#a)"><path fill="#00A100" d="M18.842 7.147a2.098 2.098 0 0 1 3.03 0 2.257 2.257 0 0 1 0 3.124c-1.772 1.827-4.06 5.216-6.8 10.122a2.11 2.11 0 0 1-3.626.145c-1.012-1.525-2.053-2.704-3.111-3.545-.937-.744-1.112-2.131-.39-3.098a2.1 2.1 0 0 1 3.006-.401c.692.55 1.36 1.186 2.008 1.909 2.232-3.758 4.181-6.502 5.883-8.256Z"/><path stroke="#fff" stroke-width="4" d="m7.091 18.56 1.244-1.567-1.244 1.567c.851.676 1.757 1.681 2.688 3.084 1.724 2.598 5.524 2.434 7.038-.275 2.73-4.887 4.913-8.08 6.49-9.705a4.257 4.257 0 0 0 0-5.91 4.098 4.098 0 0 0-5.9 0c-1.496 1.542-3.106 3.712-4.848 6.472-.12-.102-.242-.201-.364-.298a4.1 4.1 0 0 0-5.851.77c-1.362 1.822-1.048 4.435.747 5.861Z"/></g><defs><filter id="a" width="29" height="29" x=".5" y=".5" color-interpolation-filters="sRGB" filterUnits="userSpaceOnUse"><feFlood flood-opacity="0" result="BackgroundImageFix"/><feColorMatrix in="SourceAlpha" result="hardAlpha" values="0 0 0 0 0 0 0 0 0 0 0 0 0 0 0 0 0 0 127 0"/><feOffset dy="1"/><feGaussianBlur stdDeviation="1.5"/><feComposite in2="hardAlpha" operator="out"/><feColorMatrix values="0 0 0 0 0 0 0 0 0 0 0 0 0 0 0 0 0 0 0.12 0"/><feBlend in2="BackgroundImageFix" result="effect1_dropShadow_520_13829"/><feColorMatrix in="SourceAlpha" result="hardAlpha" values="0 0 0 0 0 0 0 0 0 0 0 0 0 0 0 0 0 0 127 0"/><feOffset dy="1"/><feGaussianBlur stdDeviation=".5"/><feComposite in2="hardAlpha" operator="out"/><feColorMatrix values="0 0 0 0 0 0 0 0 0 0 0 0 0 0 0 0 0 0 0.14 0"/><feBlend in2="effect1_dropShadow_520_13829" result="effect2_dropShadow_520_13829"/><feColorMatrix in="SourceAlpha" result="hardAlpha" values="0 0 0 0 0 0 0 0 0 0 0 0 0 0 0 0 0 0 127 0"/><feOffset dy="2"/><feGaussianBlur stdDeviation=".5"/><feComposite in2="hardAlpha" operator="out"/><feColorMatrix values="0 0 0 0 0 0 0 0 0 0 0 0 0 0 0 0 0 0 0.2 0"/><feBlend in2="effect2_dropShadow_520_13829" result="effect3_dropShadow_520_13829"/><feBlend in="SourceGraphic" in2="effect3_dropShadow_520_13829" result="shape"/></filter></defs></svg>