<svg xmlns="http://www.w3.org/2000/svg" width="30" height="30" fill="none"><g filter="url(#a)"><path fill="#73828F" d="M17.448 14.942c.858 1.515 1.527 2.574 1.997 3.161a2.09 2.09 0 1 1-3.265 2.613c-.484-.605-1.08-1.507-1.792-2.714l-3.319 3.319a2.091 2.091 0 0 1-2.957-2.957l4.167-4.167a230.136 230.136 0 0 1-2.395-4.67 2.09 2.09 0 1 1 3.74-1.87c.627 1.251 1.211 2.4 1.753 3.442l3.553-3.553a2.091 2.091 0 0 1 2.958 2.957l-4.44 4.439Z"/><path stroke="#fff" stroke-width="4" d="m15.414 6.762-1.79.894 1.79-.894a4.09 4.09 0 1 0-7.318 3.659c.613 1.227 1.19 2.36 1.73 3.402L6.697 16.95a4.091 4.091 0 0 0 0 5.785l1.4-1.399-1.4 1.399a4.091 4.091 0 0 0 5.786 0l1.553-1.553c.202.29.396.551.581.783a4.09 4.09 0 1 0 6.39-5.111c-.243-.303-.593-.823-1.055-1.588l3.349-3.35a4.091 4.091 0 0 0-5.786-5.785l1.415 1.415-1.415-1.415-1.61 1.61a290.17 290.17 0 0 1-.492-.98Z"/></g><defs><filter id="a" width="29" height="29.434" x=".5" y=".499" color-interpolation-filters="sRGB" filterUnits="userSpaceOnUse"><feFlood flood-opacity="0" result="BackgroundImageFix"/><feColorMatrix in="SourceAlpha" result="hardAlpha" values="0 0 0 0 0 0 0 0 0 0 0 0 0 0 0 0 0 0 127 0"/><feOffset dy="1"/><feGaussianBlur stdDeviation="1.5"/><feComposite in2="hardAlpha" operator="out"/><feColorMatrix values="0 0 0 0 0 0 0 0 0 0 0 0 0 0 0 0 0 0 0.12 0"/><feBlend in2="BackgroundImageFix" result="effect1_dropShadow_520_13825"/><feColorMatrix in="SourceAlpha" result="hardAlpha" values="0 0 0 0 0 0 0 0 0 0 0 0 0 0 0 0 0 0 127 0"/><feOffset dy="1"/><feGaussianBlur stdDeviation=".5"/><feComposite in2="hardAlpha" operator="out"/><feColorMatrix values="0 0 0 0 0 0 0 0 0 0 0 0 0 0 0 0 0 0 0.14 0"/><feBlend in2="effect1_dropShadow_520_13825" result="effect2_dropShadow_520_13825"/><feColorMatrix in="SourceAlpha" result="hardAlpha" values="0 0 0 0 0 0 0 0 0 0 0 0 0 0 0 0 0 0 127 0"/><feOffset dy="2"/><feGaussianBlur stdDeviation=".5"/><feComposite in2="hardAlpha" operator="out"/><feColorMatrix values="0 0 0 0 0 0 0 0 0 0 0 0 0 0 0 0 0 0 0.2 0"/><feBlend in2="effect2_dropShadow_520_13825" result="effect3_dropShadow_520_13825"/><feBlend in="SourceGraphic" in2="effect3_dropShadow_520_13825" result="shape"/></filter></defs></svg>