<svg xmlns="http://www.w3.org/2000/svg" width="24" height="24" fill="none"><g filter="url(#a)"><path fill="#F30000" d="m16.03 15.414-2.127 1.688c-.603-.747-1.39-1.97-2.369-3.678L7.26 17.667l-1.926-1.911 4.835-4.798A227.145 227.145 0 0 1 7.36 5.542l2.435-1.209c.872 1.731 1.669 3.274 2.387 4.626l4.56-4.524 1.925 1.91-5.133 5.095c1.079 1.924 1.914 3.254 2.495 3.974Z"/><path stroke="#fff" stroke-linejoin="round" stroke-width="2" d="M16.65 16.198a1 1 0 0 0 .158-1.411c-.461-.572-1.136-1.62-2.028-3.176l4.591-4.555a1 1 0 0 0 0-1.42l-1.925-1.91a1 1 0 0 0-1.41 0l-3.599 3.571a262.655 262.655 0 0 1-1.749-3.414 1 1 0 0 0-1.337-.445L6.915 4.646a1 1 0 0 0-.448 1.346c.9 1.786 1.722 3.379 2.468 4.78l-4.306 4.274a1 1 0 0 0 0 1.42l1.925 1.91a1 1 0 0 0 1.41 0l3.359-3.334c.697 1.163 1.298 2.064 1.801 2.688a1 1 0 0 0 1.4.156l2.127-1.688Z"/></g><defs><filter id="a" width="23.333" height="23.334" x=".333" y=".333" color-interpolation-filters="sRGB" filterUnits="userSpaceOnUse"><feFlood flood-opacity="0" result="BackgroundImageFix"/><feColorMatrix in="SourceAlpha" result="hardAlpha" values="0 0 0 0 0 0 0 0 0 0 0 0 0 0 0 0 0 0 127 0"/><feOffset dy="1"/><feGaussianBlur stdDeviation="1.5"/><feComposite in2="hardAlpha" operator="out"/><feColorMatrix values="0 0 0 0 0 0 0 0 0 0 0 0 0 0 0 0 0 0 0.12 0"/><feBlend in2="BackgroundImageFix" result="effect1_dropShadow_520_13766"/><feColorMatrix in="SourceAlpha" result="hardAlpha" values="0 0 0 0 0 0 0 0 0 0 0 0 0 0 0 0 0 0 127 0"/><feOffset dy="1"/><feGaussianBlur stdDeviation=".5"/><feComposite in2="hardAlpha" operator="out"/><feColorMatrix values="0 0 0 0 0 0 0 0 0 0 0 0 0 0 0 0 0 0 0.14 0"/><feBlend in2="effect1_dropShadow_520_13766" result="effect2_dropShadow_520_13766"/><feColorMatrix in="SourceAlpha" result="hardAlpha" values="0 0 0 0 0 0 0 0 0 0 0 0 0 0 0 0 0 0 127 0"/><feOffset dy="2"/><feGaussianBlur stdDeviation=".5"/><feComposite in2="hardAlpha" operator="out"/><feColorMatrix values="0 0 0 0 0 0 0 0 0 0 0 0 0 0 0 0 0 0 0.2 0"/><feBlend in2="effect2_dropShadow_520_13766" result="effect3_dropShadow_520_13766"/><feBlend in="SourceGraphic" in2="effect3_dropShadow_520_13766" result="shape"/></filter></defs></svg>