<svg xmlns="http://www.w3.org/2000/svg">
  <defs>
   <symbol fill="none" viewBox="0 0 30 30" id="loader" xmlns="http://www.w3.org/2000/svg">
   <path fill="var(--connect__button-bg)" fill-rule="evenodd" d="M27 15c0-6.627-5.373-12-12-12S3 8.373 3 15s5.373 12 12 12 12-5.373 12-12ZM6 15a9 9 0 1 1 18 0 9 9 0 0 1-18 0Z" clip-rule="evenodd"/>
    <circle cx="15" cy="15" r="10" stroke="var(--active-color)" stroke-dasharray="31.4 31.4" stroke-linecap="round" stroke-width="2">
        <animateTransform attributeName="transform" dur="1s" from="0 15 15" repeatCount="indefinite" to="360 15 15" type="rotate"/>
    </circle>
   </symbol>
    <symbol xmlns="http://www.w3.org/2000/svg" id="arrowDown" fill="none" viewBox="0 0 40 40">
      <path fill="var(--connect__icon-fill-color, #2d2d2d)" d="M9.41421 14.5858C8.63317 13.8047 7.36684 13.8047 6.58579 14.5858C5.80474 15.3668 5.80474 16.6332 6.58579 17.4142L18.5858 29.4142C19.3668 30.1953 20.6332 30.1953 21.4142 29.4142L33.4142 17.4142C34.1953 16.6332 34.1953 15.3668 33.4142 14.5858C32.6332 13.8047 31.3668 13.8047 30.5858 14.5858L20 25.1716L9.41421 14.5858Z" />
    </symbol>
    <symbol xmlns="http://www.w3.org/2000/svg" id="arrowUp" fill="none" viewBox="0 0 40 40">
      <path fill="var(--connect__icon-fill-color, #2d2d2d)" d="M9.41421 25.4142C8.63317 26.1953 7.36684 26.1953 6.58579 25.4142C5.80474 24.6332 5.80474 23.3668 6.58579 22.5858L18.5858 10.5858C19.3668 9.80474 20.6332 9.80474 21.4142 10.5858L33.4142 22.5858C34.1953 23.3668 34.1953 24.6332 33.4142 25.4142C32.6332 26.1953 31.3668 26.1953 30.5858 25.4142L20 14.8284L9.41421 25.4142Z" />
    </symbol>
    <symbol xmlns="http://www.w3.org/2000/svg" id="mic" fill="none" viewBox="0 0 40 40">
      <g clip-path="url(#clip0_717_2569)">
        <path fill="var(--connect__icon-fill-color, #2d2d2d)" d="M20 23C17.2 23 15 21.2 15 18.4V8.6C15.2 5.8 17.2 4 20 4C22.8 4 25 5.8 25 8.6V18.4C24.8 21.2 22.8 23 20 23Z" />
        <path fill="var(--connect__icon-fill-color, #2d2d2d)" d="M22 27H18V35H22V27Z" />
        <path fill="var(--connect__icon-fill-color, #2d2d2d)" d="M20 28C14.4 28 10 24 10 19C10 18.4 10.4 18 11 18C11.6 18 12 18.4 12 19C12 22.8 15.6 26 20 26C24.4 26 28 22.8 28 19C28 18.4 28.4 18 29 18C29.6 18 30 18.4 30 19C30 24 25.6 28 20 28Z" />
        <path fill="var(--connect__icon-fill-color, #2d2d2d)" d="M27 36H13C12.4 36 12 35.6 12 35C12 34.4 12.4 34 13 34H27C27.6 34 28 34.4 28 35C28 35.6 27.6 36 27 36Z" />
      </g>
      <defs>
        <clipPath id="clip0_717_2569">
          <rect width="20" height="32" fill="white" transform="translate(10 4)" />
        </clipPath>
      </defs>
    </symbol>
    <symbol xmlns="http://www.w3.org/2000/svg" id="pause" fill="none" viewBox="0 0 40 40">
      <path fill="var(--connect__icon-fill-color, #2d2d2d)" d="M16.4 8H11.6C10.64 8 10 8.68571 10 9.71429V30.2857C10 31.3143 10.64 32 11.6 32H16.4C17.36 32 18 31.3143 18 30.2857V9.71429C18 8.68571 17.36 8 16.4 8Z" />
      <path fill="var(--connect__icon-fill-color, #2d2d2d)" d="M28.4 8H23.6C22.64 8 22 8.68571 22 9.71429V30.2857C22 31.3143 22.64 32 23.6 32H28.4C29.36 32 30 31.3143 30 30.2857V9.71429C30 8.68571 29.36 8 28.4 8Z" />
    </symbol>
    <symbol xmlns="http://www.w3.org/2000/svg" id="play" fill="none" viewBox="0 0 40 40">
      <path fill="var(--connect__icon-fill-color, #2d2d2d)" d="M32 19.9991C32 19.4286 31.735 18.8931 31.2883 18.5658L14.6217 6.31513C14.115 5.94061 13.4483 5.89861 12.8967 6.19613C12.345 6.49889 12 7.09567 12 7.74846V32.2515C12 32.9043 12.345 33.5029 12.8967 33.8039C13.4483 34.1014 14.1133 34.0594 14.6217 33.6849L31.2883 21.4342C31.735 21.1087 32 20.5732 32 20.0026C32 20.0009 32 20.0009 32 19.9991C32 20.0009 32 20.0009 32 19.9991Z" />
    </symbol>
    <symbol xmlns="http://www.w3.org/2000/svg" id="color" fill="none" viewBox="0 0 30 30">
      <path fill="var(--connect__icon-fill-color, #2d2d2d)" d="M15.3077 27C10.7212 27 7 22.9688 7 18C7 13.725 12.6337 5.70469 14.2087 3.54844C14.4683 3.19688 14.8534 3 15.2687 3H15.3466C15.762 3 16.1471 3.19688 16.4067 3.54844C17.9817 5.70469 23.6154 13.725 23.6154 18C23.6154 22.9688 19.8942 27 15.3077 27ZM11.1538 18.75C11.1538 18.3375 10.8423 18 10.4615 18C10.0808 18 9.76923 18.3375 9.76923 18.75C9.76923 21.6516 11.937 24 14.6154 24C14.9962 24 15.3077 23.6625 15.3077 23.25C15.3077 22.8375 14.9962 22.5 14.6154 22.5C12.7029 22.5 11.1538 20.8219 11.1538 18.75Z" />
    </symbol>
    <symbol xmlns="http://www.w3.org/2000/svg" id="counter" fill="none" viewBox="0 0 30 30">
      <path fill="var(--connect__icon-fill-color, #2d2d2d)" fill-rule="evenodd" d="M15 4C8.92487 4 4 8.92487 4 15C4 21.0751 8.92487 26 15 26C21.0751 26 26 21.0751 26 15C26 8.92487 21.0751 4 15 4ZM20.4959 15.2293C20.4959 15.7754 20.9084 16.2223 21.4125 16.2223C21.9167 16.2223 22.3292 15.7754 22.3292 15.2293C22.3292 11.3874 19.4589 8.27787 15.9125 8.27787C15.4084 8.27787 14.9959 8.72476 14.9959 9.27093C14.9959 9.8171 15.4084 10.264 15.9125 10.264C18.4448 10.264 20.4959 12.4859 20.4959 15.2293Z" clip-rule="evenodd" />
    </symbol>
    <symbol xmlns="http://www.w3.org/2000/svg" id="drawToolOutline" fill="none" viewBox="0 0 30 30">
      <path fill="var(--connect__icon-fill-color, #2d2d2d)" fill-rule="evenodd" d="M26.6387 25.3997C23.5707 23.3501 19.5274 23.1052 14.6209 24.5126C10.3764 25.7301 7.1822 25.4673 4.91001 23.8875C4.28651 23.454 3.42965 23.6081 2.99615 24.2316C2.56265 24.8551 2.71668 25.7119 3.34017 26.1454C6.41028 28.28 10.464 28.5659 15.3791 27.156C19.6322 25.936 22.8368 26.167 25.1111 27.6864C25.7425 28.1082 26.5964 27.9383 27.0182 27.3069C27.4401 26.6754 27.2701 25.8216 26.6387 25.3997Z" clip-rule="evenodd" />
      <path fill="var(--connect__icon-fill-color, #2d2d2d)" d="M6.57303 20.5146L8.11493 20.7111L19.4969 11.9004L18.1638 10.1695L6.76721 18.9916L6.57303 20.5146ZM5.04121 22.8112C4.6973 22.7674 4.42209 22.6121 4.21557 22.3453C4.00924 22.0784 3.92801 21.7729 3.97187 21.4289L4.3232 18.6734C4.36477 18.3473 4.46591 18.0436 4.62663 17.7621C4.78715 17.4808 4.99577 17.2409 5.2525 17.0423L20.4719 5.27941C20.7229 5.09745 20.9922 4.96784 21.2798 4.89059C21.5672 4.81332 21.8611 4.79383 22.1614 4.83211C22.4573 4.86985 22.7393 4.96276 23.0073 5.11085C23.2751 5.25891 23.5021 5.45874 23.6883 5.71031L25.2216 7.70111C25.4188 7.94022 25.552 8.20876 25.6209 8.50673C25.6899 8.80452 25.7061 9.09677 25.6696 9.38348C25.6313 9.68384 25.5419 9.965 25.4016 10.227C25.2612 10.4891 25.0647 10.718 24.812 10.9136L9.62031 22.6735C9.36374 22.8722 9.07912 23.014 8.76644 23.0989C8.45393 23.1839 8.1347 23.2056 7.80875 23.1641L5.04121 22.8112ZM18.8192 11.0406L18.1638 10.1695L19.4969 11.9004L18.8192 11.0406Z" />
    </symbol>
    <symbol xmlns="http://www.w3.org/2000/svg" id="drawSizeXs" fill="none" viewBox="0 0 30 30">
      <circle cx="15" cy="15" r="2" fill="var(--connect__icon-fill-color, #2d2d2d)" />
    </symbol>
    <symbol xmlns="http://www.w3.org/2000/svg" id="drawSizeLg" fill="none" viewBox="0 0 30 30">
      <circle cx="15" cy="15" r="6" fill="var(--connect__icon-fill-color, #2d2d2d)" />
    </symbol>
    <symbol xmlns="http://www.w3.org/2000/svg" id="drawSizeMd" fill="none" viewBox="0 0 30 30">
      <circle cx="15" cy="15" r="4" fill="var(--connect__icon-fill-color, #2d2d2d)" />
    </symbol>
    <symbol xmlns="http://www.w3.org/2000/svg" id="lineArrow" fill="none" viewBox="0 0 30 30">
      <g clip-path="url(#clip0_2_135)">
        <path fill="var(--connect__icon-fill-color, #2d2d2d)" d="M23.3952 21.2761L10.8794 8.76027L19.5768 8.2653C20.4253 8.2653 21.0617 7.48748 20.991 6.70966C20.991 5.86114 20.2132 5.22474 19.4354 5.29545L7.41457 6.00256C7.27315 6.00256 7.06102 6.07327 6.91959 6.07327C6.91959 6.07327 6.91959 6.07327 6.84888 6.14398C6.63675 6.21469 6.56604 6.2854 6.42462 6.42682C6.2832 6.56824 6.21249 6.63895 6.14178 6.85108C6.14178 6.85108 6.14178 6.85108 6.07107 6.9218C6.00036 7.13393 5.92965 7.20464 6.00036 7.41677L5.29325 19.4376C5.29325 19.8618 5.43467 20.2861 5.71751 20.569C6.00036 20.8518 6.2832 20.9932 6.70746 20.9932C7.55599 20.9932 8.2631 20.4275 8.2631 19.579L8.75807 10.8816L21.2739 23.3974C21.8395 23.9631 22.8295 23.9631 23.3952 23.3974C23.9609 22.8317 23.9609 21.8417 23.3952 21.2761Z" />
      </g>
      <defs>
        <clipPath id="clip0_2_135">
          <rect width="30" height="30" fill="white" />
        </clipPath>
      </defs>
    </symbol>
    <symbol xmlns="http://www.w3.org/2000/svg" id="lineDashed" fill="none" viewBox="0 0 30 30">
      <path fill="var(--connect__icon-fill-color, #2d2d2d)" fill-rule="evenodd" d="M6.97526 5.9046C7.58024 5.33865 8.52946 5.37029 9.0954 5.97527L11.0264 8.03943L8.83558 10.0889L6.90459 8.02474C6.33864 7.41976 6.37029 6.47054 6.97526 5.9046ZM11.9978 9.07778L15.8597 13.2061L13.6689 15.2556L9.80694 11.1273L11.9978 9.07778ZM16.8311 14.2444L20.6931 18.3728L18.5022 20.4222L14.6403 16.2939L16.8311 14.2444ZM21.6644 19.4111L23.5954 21.4753C24.1614 22.0802 24.1297 23.0295 23.5247 23.5954C22.9198 24.1614 21.9705 24.1297 21.4046 23.5247L19.4736 21.4606L21.6644 19.4111Z" clip-rule="evenodd" />
    </symbol>
    <symbol xmlns="http://www.w3.org/2000/svg" id="lineSolid" fill="none" viewBox="0 0 30 30">
      <path fill="var(--connect__icon-fill-color, #2d2d2d)" fill-rule="evenodd" d="M6.97526 5.9046C7.58024 5.33865 8.52946 5.37029 9.0954 5.97527L23.5954 21.4753C24.1614 22.0802 24.1297 23.0295 23.5247 23.5954C22.9198 24.1614 21.9705 24.1297 21.4046 23.5247L6.90459 8.02474C6.33864 7.41976 6.37029 6.47054 6.97526 5.9046Z" clip-rule="evenodd" />
    </symbol>
    <symbol xmlns="http://www.w3.org/2000/svg" id="redo" fill="none" viewBox="0 0 30 30">
      <path fill="var(--connect__icon-fill-color, #2d2d2d)" d="M19.8135 5.31845C20.2343 5.31845 20.5896 5.46315 20.8792 5.75255C21.1686 6.04217 21.3133 6.39739 21.3133 6.81819C21.3133 7.239 21.1686 7.59422 20.8792 7.88384C20.5896 8.17324 20.2343 8.31794 19.8135 8.31794L11.8814 8.31794C10.5601 8.31794 9.4161 8.74556 8.44945 9.60079C7.4828 10.4562 6.99948 11.5196 6.99948 12.7908C6.99948 14.0618 7.4828 15.1263 8.44945 15.9844C9.4161 16.8423 10.5601 17.2712 11.8814 17.2712L19.9276 17.2712L17.7139 15.0579C17.4355 14.7792 17.2963 14.4295 17.2963 14.0087C17.2963 13.5879 17.4355 13.2383 17.7139 12.9599C17.9925 12.6812 18.3422 12.5419 18.7631 12.5419C19.1839 12.5419 19.5336 12.6812 19.8122 12.9599L24.5745 17.7139C24.7219 17.8616 24.8297 18.0255 24.8978 18.2057C24.9659 18.3856 25 18.5741 25 18.771C25 18.9679 24.9659 19.1563 24.8978 19.3363C24.8297 19.5164 24.7219 19.6804 24.5745 19.828L19.8122 24.5821C19.5336 24.8607 19.1839 25 18.7631 25C18.3422 25 17.9925 24.8607 17.7139 24.5821C17.4355 24.3036 17.2963 23.954 17.2963 23.5332C17.2963 23.1124 17.4355 22.7627 17.7139 22.4841L19.9276 20.2707L11.8814 20.2707C9.71824 20.2707 7.86395 19.5536 6.3185 18.1193C4.77283 16.6851 4 14.9114 4 12.7984C4 10.6856 4.77283 8.91069 6.3185 7.4738C7.86395 6.0369 9.71824 5.31845 11.8814 5.31845L19.8135 5.31845Z" />
    </symbol>
    <symbol xmlns="http://www.w3.org/2000/svg" id="undo" fill="none" viewBox="0 0 30 30">
      <path fill="var(--connect__icon-fill-color, #2d2d2d)" d="M9.07242 17.2712L17.1186 17.2712C18.4399 17.2712 19.5839 16.8436 20.5505 15.9884C21.5172 15.1329 22.0005 14.0696 22.0005 12.7984C22.0005 11.5274 21.5172 10.4628 20.5505 9.60475C19.5839 8.74687 18.4399 8.31794 17.1186 8.31794L9.18646 8.31794C8.76566 8.31794 8.41044 8.17324 8.12082 7.88384C7.83142 7.59422 7.68672 7.239 7.68672 6.81819C7.68672 6.39739 7.83142 6.04217 8.12082 5.75256C8.41044 5.46316 8.76566 5.31845 9.18646 5.31845L17.1186 5.31845C19.2818 5.31845 21.136 6.03558 22.6815 7.46984C24.2272 8.9041 25 10.6777 25 12.7908C25 14.9036 24.2272 16.6785 22.6815 18.1154C21.1361 19.5523 19.2818 20.2707 17.1186 20.2707L9.07242 20.2707L11.2861 22.4841C11.5645 22.7627 11.7037 23.1124 11.7037 23.5332C11.7037 23.954 11.5645 24.3036 11.2861 24.5821C11.0075 24.8607 10.6578 25 10.2369 25C9.81614 25 9.46642 24.8607 9.18778 24.5821L4.42553 19.828C4.27808 19.6804 4.1703 19.5164 4.10218 19.3363C4.03406 19.1563 4 18.9679 4 18.771C4 18.5741 4.03406 18.3856 4.10218 18.2057C4.1703 18.0255 4.27808 17.8616 4.42553 17.7139L9.18778 12.9599C9.46642 12.6813 9.81614 12.5419 10.2369 12.5419C10.6577 12.5419 11.0075 12.6812 11.2861 12.9599C11.5645 13.2383 11.7037 13.5879 11.7037 14.0087C11.7037 14.4295 11.5645 14.7792 11.2861 15.0579L9.07242 17.2712Z" />
    </symbol>
    <symbol xmlns="http://www.w3.org/2000/svg" id="shapesCircleOutline" fill="none" viewBox="0 0 30 30">
      <path fill="var(--connect__icon-fill-color, #2d2d2d)" fill-rule="evenodd" d="M27 15C27 8.37258 21.6274 3 15 3C8.37258 3 3 8.37258 3 15C3 21.6274 8.37258 27 15 27C21.6274 27 27 21.6274 27 15ZM6 15C6 10.0294 10.0294 6 15 6C19.9706 6 24 10.0294 24 15C24 19.9706 19.9706 24 15 24C10.0294 24 6 19.9706 6 15Z" clip-rule="evenodd" />
    </symbol>
    <symbol xmlns="http://www.w3.org/2000/svg" id="shapesCircleSolid" fill="none" viewBox="0 0 30 30">
      <circle cx="15" cy="15" r="11" fill="var(--connect__icon-fill-color, #2d2d2d)" />
    </symbol>
    <symbol xmlns="http://www.w3.org/2000/svg" id="shapes" fill="none" viewBox="0 0 30 30">
      <path fill="var(--connect__icon-fill-color, #2d2d2d)" d="M9.16903 11.6034L13.4223 4.60481C13.5464 4.39612 13.7038 4.24315 13.8945 4.14589C14.085 4.04863 14.2861 4 14.4979 4C14.7094 4 14.9107 4.04863 15.1015 4.14589C15.2924 4.24315 15.4499 4.39612 15.574 4.60481L19.8272 11.6034C19.9558 11.8147 20.0201 12.0366 20.0201 12.2691C20.0201 12.5017 19.9672 12.713 19.8616 12.903C19.7558 13.0929 19.6084 13.2469 19.4194 13.365C19.2304 13.4831 19.0098 13.5422 18.7578 13.5422H10.2385C9.98624 13.5422 9.7655 13.4836 9.57629 13.3664C9.38709 13.2492 9.23987 13.0947 9.13463 12.903C9.02902 12.7133 8.97622 12.5026 8.97622 12.2708C8.97622 12.0388 9.04049 11.8164 9.16903 11.6034ZM20.786 26C19.3379 26 18.1062 25.4893 17.091 24.4679C16.0758 23.4466 15.5682 22.2064 15.5682 20.7473C15.5682 19.2884 16.0755 18.0476 17.0901 17.0249C18.1048 16.0021 19.3369 15.4908 20.7866 15.4908C22.236 15.4908 23.4674 16.0019 24.4805 17.024C25.4935 18.0462 26 19.2875 26 20.7479C26 22.2081 25.493 23.4486 24.4791 24.4693C23.4654 25.4898 22.2344 26 20.786 26ZM4 24.1694V17.3214C4 16.9644 4.12179 16.6632 4.36537 16.4178C4.60895 16.1724 4.90793 16.0497 5.2623 16.0497H12.0665C12.4207 16.0497 12.7195 16.1724 12.9631 16.4178C13.2069 16.6632 13.3288 16.9644 13.3288 17.3214V24.1694C13.3288 24.5262 13.2069 24.8273 12.9631 25.0727C12.7195 25.3182 12.4207 25.441 12.0665 25.441H5.2623C4.90793 25.441 4.60895 25.3182 4.36537 25.0727C4.12179 24.8273 4 24.5262 4 24.1694ZM20.7874 23.4567C21.5376 23.4567 22.1731 23.1942 22.6939 22.6694C23.2149 22.1447 23.4754 21.5045 23.4754 20.7487C23.4754 19.9928 23.2149 19.3514 22.6939 18.8245C22.1731 18.2976 21.5376 18.0341 20.7874 18.0341C20.0371 18.0341 19.4004 18.2976 18.8773 18.8245C18.3543 19.3514 18.0928 19.9928 18.0928 20.7487C18.0928 21.5045 18.3543 22.1447 18.8773 22.6694C19.4004 23.1942 20.0371 23.4567 20.7874 23.4567ZM6.52459 22.8977H10.8042V18.5931H6.52459V22.8977ZM12.4868 10.9989H16.5095L14.4981 7.71129L12.4868 10.9989Z" />
    </symbol>
    <symbol xmlns="http://www.w3.org/2000/svg" id="shapesRectangleOutline" fill="none" viewBox="0 0 30 30">
      <path fill="var(--connect__icon-fill-color, #2d2d2d)" fill-rule="evenodd" d="M27 3H3V27H27V3ZM6 24V6H24V24H6Z" clip-rule="evenodd" />
    </symbol>
    <symbol xmlns="http://www.w3.org/2000/svg" id="shapesRectangleSolid" fill="none" viewBox="0 0 30 30">
      <rect width="20" height="20" x="5" y="5" fill="var(--connect__icon-fill-color, #2d2d2d)" />
    </symbol>
    <symbol xmlns="http://www.w3.org/2000/svg" id="shapesTriangleSolid" fill="none" viewBox="0 0 30 30">
      <path fill="var(--connect__icon-fill-color, #2d2d2d)" d="M15 6L25.3923 24H4.6077L15 6Z" />
    </symbol>
    <symbol xmlns="http://www.w3.org/2000/svg" id="shapesTriangleOutline" fill="none" viewBox="0 0 30 30">
      <path fill="var(--connect__icon-fill-color, #2d2d2d)" fill-rule="evenodd" d="M15 3L27.9904 25.5H2.00962L15 3ZM7.20577 22.5H22.7942L15 9L7.20577 22.5Z" clip-rule="evenodd" />
    </symbol>
    <symbol xmlns="http://www.w3.org/2000/svg" id="specialShapesHexagon" fill="none" viewBox="0 0 30 30">
      <path fill="var(--connect__icon-fill-color, #2d2d2d)" d="M8.4 25.9L4 12.7L15 5L26 12.7L21.6 25.9H8.4Z" />
    </symbol>
    <symbol xmlns="http://www.w3.org/2000/svg" id="specialShapesPentagon" fill="none" viewBox="0 0 30 30">
      <path fill="var(--connect__icon-fill-color, #2d2d2d)" d="M9.7 24.7308L4 14.8654L9.7 5H21.1L26.8 14.8654L21.1 24.7308H9.7Z" />
    </symbol>
    <symbol xmlns="http://www.w3.org/2000/svg" id="stampsCounterOutline" fill="none" viewBox="0 0 30 30">
      <path fill="var(--connect__icon-fill-color, #2d2d2d)" fill-rule="evenodd" d="M18.2527 7.5H7C6.17158 7.5 5.5 8.17157 5.5 9V20.2527C5.5 21.0811 6.17157 21.7527 7 21.7527H18.2527C19.0811 21.7527 19.7527 21.0811 19.7527 20.2527V9C19.7527 8.17158 19.0811 7.5 18.2527 7.5ZM7 5C4.79086 5 3 6.79087 3 9V20.2527C3 22.4618 4.79087 24.2527 7 24.2527H18.2527C20.4618 24.2527 22.2527 22.4618 22.2527 20.2527V9C22.2527 6.79086 20.4618 5 18.2527 5H7ZM12.5262 16.5386C13.6377 16.5386 14.5387 15.6376 14.5387 14.5262C14.5387 13.4148 13.6377 12.5138 12.5262 12.5138C11.4148 12.5138 10.5138 13.4148 10.5138 14.5262C10.5138 15.6376 11.4148 16.5386 12.5262 16.5386ZM12.5262 19.0386C15.0184 19.0386 17.0387 17.0184 17.0387 14.5262C17.0387 12.0341 15.0184 10.0138 12.5262 10.0138C10.0341 10.0138 8.01381 12.0341 8.01381 14.5262C8.01381 17.0184 10.0341 19.0386 12.5262 19.0386Z" clip-rule="evenodd" />
      <path fill="var(--connect__icon-fill-color, #2d2d2d)" d="M23.7912 10H25C26.1046 10 27 10.8954 27 12V17.6264C27 18.7309 26.1046 19.6264 25 19.6264H23.7912V10Z" />
    </symbol>
    <symbol xmlns="http://www.w3.org/2000/svg" id="stampsMeasureOutline" fill="none" viewBox="0 0 30 30">
      <path fill="var(--connect__icon-fill-color, #2d2d2d)" d="M11.4866 13.0294L14.0253 10.458L12.4819 8.89033L11.9829 9.38218C11.7511 9.61411 11.4675 9.73271 11.132 9.73796C10.7965 9.74321 10.5052 9.62229 10.2581 9.37521C10.011 9.12792 9.88747 8.83517 9.88747 8.49696C9.88747 8.15876 10.011 7.86601 10.2581 7.61872L10.7269 7.1496L9.43659 5.86557L6.87455 8.43696L11.4866 13.0294ZM21.5561 23.1304L24.1182 20.5663L22.8207 19.2677L22.3216 19.7368C22.0745 19.9841 21.7871 20.1066 21.4592 20.1041C21.1316 20.1017 20.8442 19.9769 20.5971 19.7296C20.3501 19.4823 20.2265 19.1934 20.2265 18.8628C20.2265 18.5323 20.3501 18.2434 20.5971 17.9961L21.0656 17.504L19.4919 15.952L16.9456 18.5001L21.5561 23.1304ZM5.73054 25.6469C5.34396 25.6469 5.01763 25.5139 4.75157 25.2478C4.4857 24.9815 4.35277 24.655 4.35277 24.2681V20.7421C4.35277 20.5564 4.38668 20.3793 4.45451 20.2108C4.52234 20.0423 4.62398 19.8903 4.75944 19.7547L9.60829 14.902L4.59441 9.88373C4.19814 9.48713 4 9.00245 4 8.42969C4 7.85692 4.19814 7.37224 4.59441 6.97565L7.98373 3.58359C8.38 3.187 8.86429 2.99254 9.43659 3.00022C10.0089 3.0079 10.4932 3.21003 10.8895 3.60662L15.9339 8.63182L20.4482 4.0909C20.7001 3.83876 20.9823 3.64966 21.2948 3.52359C21.6073 3.39752 21.9299 3.33448 22.2626 3.33448C22.5951 3.33448 22.9176 3.39631 23.2301 3.51995C23.5426 3.6436 23.8248 3.83149 24.0767 4.08363L25.8914 5.92285C26.1434 6.17498 26.3323 6.45864 26.4583 6.77381C26.5842 7.08899 26.6472 7.41295 26.6472 7.7457C26.6472 8.07865 26.5842 8.39766 26.4583 8.70274C26.3323 9.00781 26.1434 9.28641 25.8914 9.53855L21.3772 14.0725L26.4056 19.105C26.8019 19.5016 27 19.9862 27 20.559C27 21.1318 26.8019 21.6165 26.4056 22.0131L23.0163 25.4051C22.62 25.8017 22.1357 26 21.5634 26C20.9911 26 20.5068 25.8017 20.1105 25.4051L15.0749 20.3726L10.226 25.2327C10.0904 25.3682 9.93834 25.4712 9.76998 25.5415C9.60162 25.6118 9.42468 25.6469 9.23916 25.6469H5.73054ZM6.9996 22.998H8.70259L20.2613 11.4529L18.5353 9.71826L6.9996 21.2791V22.998ZM19.4135 10.5971L18.5353 9.71826L20.2613 11.4529L19.4135 10.5971Z" />
    </symbol>
    <symbol xmlns="http://www.w3.org/2000/svg" id="stampsCounterOutline" fill="none" viewBox="0 0 30 30">
      <path fill="var(--connect__icon-fill-color, #2d2d2d)" fill-rule="evenodd" d="M18.2527 7.5H7C6.17158 7.5 5.5 8.17157 5.5 9V20.2527C5.5 21.0811 6.17157 21.7527 7 21.7527H18.2527C19.0811 21.7527 19.7527 21.0811 19.7527 20.2527V9C19.7527 8.17158 19.0811 7.5 18.2527 7.5ZM7 5C4.79086 5 3 6.79087 3 9V20.2527C3 22.4618 4.79087 24.2527 7 24.2527H18.2527C20.4618 24.2527 22.2527 22.4618 22.2527 20.2527V9C22.2527 6.79086 20.4618 5 18.2527 5H7ZM12.5262 16.5386C13.6377 16.5386 14.5387 15.6376 14.5387 14.5262C14.5387 13.4148 13.6377 12.5138 12.5262 12.5138C11.4148 12.5138 10.5138 13.4148 10.5138 14.5262C10.5138 15.6376 11.4148 16.5386 12.5262 16.5386ZM12.5262 19.0386C15.0184 19.0386 17.0387 17.0184 17.0387 14.5262C17.0387 12.0341 15.0184 10.0138 12.5262 10.0138C10.0341 10.0138 8.01381 12.0341 8.01381 14.5262C8.01381 17.0184 10.0341 19.0386 12.5262 19.0386Z" clip-rule="evenodd" />
      <path fill="var(--connect__icon-fill-color, #2d2d2d)" d="M23.7912 10H25C26.1046 10 27 10.8954 27 12V17.6264C27 18.7309 26.1046 19.6264 25 19.6264H23.7912V10Z" />
    </symbol>
    <symbol xmlns="http://www.w3.org/2000/svg" id="stampsSpecialShapesOutline" fill="none" viewBox="0 0 30 30">
      <path fill="var(--connect__icon-fill-color, #2d2d2d)" stroke-width="2.5" d="M12.7426 6.55532L12.7428 6.55515L13.7855 5.18555L13.786 5.18493C14.4758 4.2801 15.5489 3.75 16.6875 3.75C18.2982 3.75 19.7153 4.80711 20.178 6.34784L20.1783 6.34861L20.8388 8.55334L20.8389 8.55361C21.1089 9.45563 21.7852 10.1795 22.6695 10.5102L22.67 10.5104L24.1469 11.0634L24.1506 11.0648C25.4092 11.5406 26.25 12.7462 26.25 14.0973C26.25 15.1144 25.7744 16.0775 24.9504 16.6909C24.9494 16.6916 24.9485 16.6923 24.9475 16.693L22.455 18.5637L22.4541 18.5644C21.9059 18.9751 21.6161 19.6442 21.6925 20.323L21.6929 20.326L21.7855 21.1673L12.7426 6.55532ZM12.7426 6.55532C12.2087 7.25685 11.326 7.60576 10.451 7.45706L10.4506 7.457L8.54768 7.13421C8.54757 7.13419 8.54747 7.13417 8.54737 7.13415C8.54722 7.13413 8.54708 7.13411 8.54693 7.13408C6.56271 6.79674 4.75 8.32787 4.75 10.3411C4.75 10.9762 4.9371 11.5938 5.27736 12.1192L5.27734 12.1192L5.28178 12.126L6.70065 14.2862C6.70099 14.2867 6.70134 14.2872 6.70169 14.2878C6.9519 14.6723 7.08418 15.1178 7.08418 15.5708C7.08418 16.1197 6.89069 16.6518 6.53786 17.0724L6.53633 17.0742L6.1207 17.5716L6.12068 17.5716L6.11489 17.5786C5.6234 18.1755 5.34375 18.9299 5.34375 19.7167C5.34375 21.7982 7.22908 23.3766 9.28177 23.0028L9.28211 23.0027L12.351 22.4429C12.3516 22.4428 12.3523 22.4427 12.3529 22.4426C12.7323 22.375 13.1221 22.4305 13.4639 22.6015L13.4726 22.6058L13.4813 22.61C13.5804 22.6576 13.679 22.72 13.7802 22.801L13.7804 22.8011M12.7426 6.55532L13.7804 22.8011M13.7804 22.8011L15.836 24.4452C15.8361 24.4453 15.8362 24.4454 15.8362 24.4454C16.4846 24.9641 17.298 25.25 18.1311 25.25C20.3235 25.25 22.0267 23.3443 21.7857 21.1685L13.7804 22.8011Z" />
    </symbol>
     <symbol xmlns="http://www.w3.org/2000/svg" id="add" fill="none" viewBox="0 0 40 40">
      <path fill="var(--connect__icon-fill-color, #2d2d2d)" d="M18.2779 21.0554H9.38875C8.99542 21.0554 8.66556 20.9219 8.39917 20.655C8.13306 20.3878 8 20.0567 8 19.6617C8 19.2669 8.13306 18.9376 8.39917 18.6738C8.66556 18.4099 8.99542 18.2779 9.38875 18.2779H18.2779V9.38875C18.2779 8.99542 18.4114 8.66556 18.6783 8.39917C18.9456 8.13306 19.2767 8 19.6717 8C20.0664 8 20.3957 8.13306 20.6596 8.39917C20.9235 8.66556 21.0554 8.99542 21.0554 9.38875V18.2779H29.9446C30.3379 18.2779 30.6678 18.4114 30.9342 18.6783C31.2003 18.9456 31.3333 19.2767 31.3333 19.6717C31.3333 20.0664 31.2003 20.3957 30.9342 20.6596C30.6678 20.9235 30.3379 21.0554 29.9446 21.0554H21.0554V29.9446C21.0554 30.3379 20.9219 30.6678 20.655 30.9342C20.3878 31.2003 20.0567 31.3333 19.6617 31.3333C19.2669 31.3333 18.9376 31.2003 18.6738 30.9342C18.4099 30.6678 18.2779 30.3379 18.2779 29.9446V21.0554Z" />
    </symbol>
    <symbol xmlns="http://www.w3.org/2000/svg" id="check" fill="none" viewBox="0 0 40 40">
      <path fill="var(--connect__icon-fill-color, #2d2d2d)" d="M15.8135 26.2083L30.6052 11.4167C30.8882 11.1389 31.2182 11 31.5952 11C31.9724 11 32.2999 11.1393 32.5777 11.4179C32.8554 11.6968 32.9943 12.0278 32.9943 12.4108C32.9943 12.7942 32.8554 13.1247 32.5777 13.4025L16.786 29.2083C16.5082 29.4861 16.184 29.625 15.8135 29.625C15.4432 29.625 15.1192 29.4861 14.8414 29.2083L7.39683 21.7638C7.11905 21.4849 6.9871 21.1535 7.00099 20.7696C7.01488 20.386 7.16127 20.0553 7.44016 19.7775C7.71877 19.4997 8.04974 19.3608 8.43308 19.3608C8.81641 19.3608 9.14696 19.4997 9.42474 19.7775L15.8135 26.2083Z" />
    </symbol>
    <symbol xmlns="http://www.w3.org/2000/svg" id="close" fill="none" viewBox="0 0 40 40">
      <path fill="var(--connect__icon-fill-color, #2d2d2d)" d="M19.9029 20.8475L11.3475 29.4029C11.0789 29.6715 10.7547 29.8058 10.375 29.8058C9.99556 29.8058 9.67153 29.6715 9.40292 29.4029C9.13431 29.1343 9 28.8103 9 28.4308C9 28.0511 9.13431 27.7269 9.40292 27.4583L17.9583 18.9029L9.40292 10.3475C9.13431 10.0789 9 9.75472 9 9.375C9 8.99556 9.13431 8.67153 9.40292 8.40292C9.67153 8.1343 9.99556 8 10.375 8C10.7547 8 11.0789 8.1343 11.3475 8.40292L19.9029 16.9583L28.4583 8.40292C28.7269 8.1343 29.0511 8 29.4308 8C29.8103 8 30.1343 8.1343 30.4029 8.40292C30.6715 8.67153 30.8058 8.99556 30.8058 9.375C30.8058 9.75472 30.6715 10.0789 30.4029 10.3475L21.8475 18.9029L30.4029 27.4583C30.6715 27.7269 30.8058 28.0511 30.8058 28.4308C30.8058 28.8103 30.6715 29.1343 30.4029 29.4029C30.1343 29.6715 29.8103 29.8058 29.4308 29.8058C29.0511 29.8058 28.7269 29.6715 28.4583 29.4029L19.9029 20.8475Z" />
    </symbol>
    <symbol xmlns="http://www.w3.org/2000/svg" id="collapse" fill="none" viewBox="0 0 40 40">
      <path fill="var(--connect__icon-fill-color, #2d2d2d)" fill-rule="evenodd" d="M6.5 23.4286C6.5 22.6001 7.17157 21.9286 8 21.9286H16.5714C17.3999 21.9286 18.0714 22.6001 18.0714 23.4286V32C18.0714 32.8284 17.3999 33.5 16.5714 33.5C15.743 33.5 15.0714 32.8284 15.0714 32V24.9286H8C7.17157 24.9286 6.5 24.257 6.5 23.4286Z" clip-rule="evenodd" />
      <path fill="var(--connect__icon-fill-color, #2d2d2d)" fill-rule="evenodd" d="M17.6321 22.3679C18.2179 22.9537 18.2179 23.9034 17.6321 24.4892L9.06066 33.0607C8.47487 33.6464 7.52513 33.6464 6.93934 33.0607C6.35355 32.4749 6.35355 31.5251 6.93934 30.9393L15.5108 22.3679C16.0966 21.7821 17.0463 21.7821 17.6321 22.3679Z" clip-rule="evenodd" />
      <path fill="var(--connect__icon-fill-color, #2d2d2d)" fill-rule="evenodd" d="M23.4286 6.5C24.257 6.5 24.9286 7.17157 24.9286 8V15.0714H32C32.8284 15.0714 33.5 15.743 33.5 16.5714C33.5 17.3999 32.8284 18.0714 32 18.0714H23.4286C22.6001 18.0714 21.9286 17.3999 21.9286 16.5714V8C21.9286 7.17157 22.6001 6.5 23.4286 6.5Z" clip-rule="evenodd" />
      <path fill="var(--connect__icon-fill-color, #2d2d2d)" fill-rule="evenodd" d="M33.0607 6.93934C33.6464 7.52513 33.6464 8.47487 33.0607 9.06066L24.4892 17.6321C23.9034 18.2179 22.9537 18.2179 22.3679 17.6321C21.7821 17.0463 21.7821 16.0966 22.3679 15.5108L30.9393 6.93934C31.5251 6.35355 32.4749 6.35355 33.0607 6.93934Z" clip-rule="evenodd" />
    </symbol>
    <symbol xmlns="http://www.w3.org/2000/svg" id="desmos" fill="none" viewBox="0 0 40 40">
      <path fill="var(--connect__icon-fill-color, #2d2d2d)" fill-rule="evenodd" d="M10.9808 3C8.785 3 7 4.84167 7 7.08V32.92C7 35.1583 8.79917 37 10.9808 37H29.9217C32.1175 37 33.9025 35.1583 33.9025 32.92V7.08C33.9025 4.84167 32.1033 3 29.9217 3H10.9808ZM11.7742 6.23H29.1425C30.0208 6.23 30.7575 6.98083 30.7575 7.8875V12.7325C30.7575 13.6392 30.0208 14.39 29.1425 14.39H11.7742C10.8958 14.39 10.1592 13.6392 10.1592 12.7325V7.8875C10.1592 6.98083 10.8958 6.23 11.7742 6.23ZM12.5675 15.92C13.885 15.92 14.9758 17.0392 14.9758 18.385C14.9758 19.7308 13.885 20.85 12.5675 20.85C11.25 20.85 10.1592 19.7308 10.1592 18.385C10.1592 17.0392 11.25 15.92 12.5675 15.92ZM20.4583 15.92C21.7758 15.92 22.8667 17.0392 22.8667 18.385C22.8667 19.7308 21.7758 20.85 20.4583 20.85C19.1408 20.85 18.05 19.7308 18.05 18.385C18.05 17.0392 19.1408 15.92 20.4583 15.92ZM28.3492 15.92C29.6667 15.92 30.7575 17.0392 30.7575 18.385C30.7575 19.7308 29.6667 20.85 28.3492 20.85C27.0317 20.85 25.9408 19.7308 25.9408 18.385C25.9408 17.0392 27.0317 15.92 28.3492 15.92ZM12.5675 22.38C13.885 22.38 14.9758 23.4992 14.9758 24.845C14.9758 26.1908 13.885 27.31 12.5675 27.31C11.25 27.31 10.1592 26.1908 10.1592 24.845C10.1592 23.4992 11.25 22.38 12.5675 22.38ZM20.4583 22.38C21.7758 22.38 22.8667 23.4992 22.8667 24.845C22.8667 26.1908 21.7758 27.31 20.4583 27.31C19.1408 27.31 18.05 26.1908 18.05 24.845C18.05 23.4992 19.1408 22.38 20.4583 22.38ZM28.3492 22.38C29.6667 22.38 30.7575 23.4992 30.7575 24.845V31.305C30.7575 32.665 29.6667 33.77 28.3492 33.77C27.0317 33.77 25.9408 32.6508 25.9408 31.305V24.845C25.9408 23.485 27.0317 22.38 28.3492 22.38ZM12.5675 28.84C13.885 28.84 14.9758 29.9592 14.9758 31.305C14.9758 32.6508 13.885 33.77 12.5675 33.77C11.25 33.77 10.1592 32.6508 10.1592 31.305C10.1592 29.9592 11.25 28.84 12.5675 28.84ZM20.4583 28.84C21.7758 28.84 22.8667 29.9592 22.8667 31.305C22.8667 32.6508 21.7758 33.77 20.4583 33.77C19.1408 33.77 18.05 32.6508 18.05 31.305C18.05 29.9592 19.1408 28.84 20.4583 28.84Z" clip-rule="evenodd" />
      <path fill="var(--connect__icon-fill-color, #2d2d2d)" fill-rule="evenodd" d="M18.9801 7.92383C19.2983 8.18901 19.3413 8.66193 19.0762 8.98014L16.5762 11.9801C16.4413 12.142 16.2445 12.2397 16.034 12.2492C15.8235 12.2588 15.6187 12.1793 15.4697 12.0303L14.1166 10.6772L12.624 12.916C12.3943 13.2607 11.9286 13.3538 11.584 13.124C11.2393 12.8943 11.1462 12.4286 11.376 12.084L13.376 9.08397C13.5006 8.89702 13.7025 8.77579 13.9261 8.75365C14.1497 8.73151 14.3714 8.81079 14.5303 8.96967L15.9496 10.3889L17.9238 8.01986C18.189 7.70165 18.6619 7.65866 18.9801 7.92383Z" clip-rule="evenodd" />
    </symbol>
    <symbol xmlns="http://www.w3.org/2000/svg" id="expand" fill="none" viewBox="0 0 40 40">
      <path fill="var(--connect__icon-fill-color, #2d2d2d)" fill-rule="evenodd" d="M8 21.9286C8.82843 21.9286 9.5 22.6001 9.5 23.4286V30.5H16.5714C17.3999 30.5 18.0714 31.1716 18.0714 32C18.0714 32.8284 17.3999 33.5 16.5714 33.5H8C7.17157 33.5 6.5 32.8284 6.5 32V23.4286C6.5 22.6001 7.17157 21.9286 8 21.9286Z" clip-rule="evenodd" />
      <path fill="var(--connect__icon-fill-color, #2d2d2d)" fill-rule="evenodd" d="M17.6321 22.3679C18.2179 22.9537 18.2179 23.9034 17.6321 24.4892L9.06066 33.0607C8.47487 33.6464 7.52513 33.6464 6.93934 33.0607C6.35355 32.4749 6.35355 31.5251 6.93934 30.9393L15.5108 22.3679C16.0966 21.7821 17.0463 21.7821 17.6321 22.3679Z" clip-rule="evenodd" />
      <path fill="var(--connect__icon-fill-color, #2d2d2d)" fill-rule="evenodd" d="M21.9286 8C21.9286 7.17157 22.6002 6.5 23.4286 6.5H32C32.8284 6.5 33.5 7.17157 33.5 8V16.5714C33.5 17.3999 32.8284 18.0714 32 18.0714C31.1716 18.0714 30.5 17.3999 30.5 16.5714V9.5H23.4286C22.6002 9.5 21.9286 8.82843 21.9286 8Z" clip-rule="evenodd" />
      <path fill="var(--connect__icon-fill-color, #2d2d2d)" fill-rule="evenodd" d="M33.0607 6.93934C33.6465 7.52513 33.6465 8.47487 33.0607 9.06066L24.4892 17.6321C23.9035 18.2179 22.9537 18.2179 22.3679 17.6321C21.7821 17.0463 21.7821 16.0966 22.3679 15.5108L30.9393 6.93934C31.5251 6.35355 32.4749 6.35355 33.0607 6.93934Z" clip-rule="evenodd" />
    </symbol>
    <symbol xmlns="http://www.w3.org/2000/svg" id="flag" fill="none" viewBox="0 0 40 40">
      <path fill="var(--connect__icon-fill-color, #2d2d2d)" d="M9.77792 19.3333V33.2779C9.77792 33.6712 9.64431 34.0011 9.37708 34.2675C9.10986 34.5336 8.77889 34.6667 8.38417 34.6667C7.98917 34.6667 7.65972 34.5336 7.39583 34.2675C7.13194 34.0011 7 33.6712 7 33.2779V4.38875C7 3.99542 7.13306 3.66556 7.39917 3.39917C7.66556 3.13306 7.99542 3 8.38875 3H31.5417C31.7975 3 32.0243 3.05917 32.2221 3.1775C32.4199 3.29583 32.5768 3.44958 32.6929 3.63875C32.8093 3.8282 32.885 4.03528 32.92 4.26C32.9547 4.48472 32.9165 4.7175 32.8054 4.95833L30.0279 11.1667L32.8054 17.375C32.9165 17.6158 32.9547 17.8486 32.92 18.0733C32.885 18.2981 32.8093 18.5051 32.6929 18.6946C32.5768 18.8838 32.4199 19.0375 32.2221 19.1558C32.0243 19.2742 31.7975 19.3333 31.5417 19.3333H9.77792ZM9.77792 16.5554H29.3888L27.4721 12.3054C27.3054 11.9513 27.2221 11.5717 27.2221 11.1667C27.2221 10.7617 27.3054 10.3821 27.4721 10.0279L29.3888 5.77792H9.77792V16.5554Z" />
    </symbol>
    <symbol xmlns="http://www.w3.org/2000/svg" id="groupActivity" fill="none" viewBox="0 0 40 40">
      <path fill="var(--connect__icon-fill-color, #2d2d2d)" d="M1.61125 27.9721C1.61125 27.009 1.85889 26.1317 2.35417 25.34C2.84945 24.5483 3.52764 23.9535 4.38875 23.5554C6.31486 22.6757 8.11584 22.0344 9.79167 21.6317C11.4675 21.2289 13.1851 21.0275 14.9446 21.0275C16.7038 21.0275 18.4167 21.2289 20.0833 21.6317C21.75 22.0344 23.5463 22.6757 25.4721 23.5554C26.3332 23.9535 27.0161 24.5483 27.5208 25.34C28.0256 26.1317 28.2779 27.009 28.2779 27.9721V29.3608C28.2779 30.1247 28.0058 30.7788 27.4617 31.3229C26.9178 31.8668 26.2639 32.1388 25.5 32.1388H4.38875C3.62486 32.1388 2.97097 31.8668 2.42709 31.3229C1.8832 30.7788 1.61125 30.1247 1.61125 29.3608V27.9721ZM35.6113 32.1388H30.3613C30.5557 31.6943 30.72 31.2429 30.8542 30.7846C30.9883 30.3263 31.0554 29.8517 31.0554 29.3608V27.8608C31.0554 26.2869 30.6735 24.956 29.9096 23.8679C29.1457 22.7799 28.0185 21.8608 26.5279 21.1108C28.2779 21.3147 29.926 21.6133 31.4721 22.0067C33.0185 22.4003 34.324 22.8794 35.3888 23.4442C36.3332 23.9814 37.0693 24.6226 37.5971 25.3679C38.1249 26.1132 38.3888 26.9442 38.3888 27.8608V29.3608C38.3888 30.1247 38.1168 30.7788 37.5729 31.3229C37.029 31.8668 36.3751 32.1388 35.6113 32.1388ZM14.9446 18.7775C13.1113 18.7775 11.5881 18.1711 10.375 16.9583C9.16195 15.7453 8.55542 14.2221 8.55542 12.3888C8.55542 10.5554 9.16195 9.03222 10.375 7.81917C11.5881 6.60639 13.1113 6 14.9446 6C16.7779 6 18.301 6.60639 19.5138 7.81917C20.7268 9.03222 21.3333 10.5554 21.3333 12.3888C21.3333 14.2221 20.7268 15.7453 19.5138 16.9583C18.301 18.1711 16.7779 18.7775 14.9446 18.7775ZM30.5 12.3888C30.5 14.2221 29.8935 15.7453 28.6804 16.9583C27.4676 18.1711 25.9446 18.7775 24.1113 18.7775C23.8057 18.7775 23.4492 18.7521 23.0417 18.7013C22.6342 18.6504 22.2776 18.574 21.9721 18.4721C22.6665 17.7129 23.1967 16.8147 23.5625 15.7775C23.9283 14.7406 24.1113 13.611 24.1113 12.3888C24.1113 11.1665 23.9283 10.0554 23.5625 9.05542C23.1967 8.05542 22.6665 7.13875 21.9721 6.30542C22.3054 6.20347 22.6619 6.12708 23.0417 6.07625C23.4214 6.02542 23.7779 6 24.1113 6C25.9446 6 27.4676 6.60639 28.6804 7.81917C29.8935 9.03222 30.5 10.5554 30.5 12.3888ZM4.38875 29.3608H25.5V27.9721C25.5 27.574 25.3865 27.1944 25.1596 26.8333C24.9329 26.4722 24.6482 26.2129 24.3054 26.0554C22.4721 25.2129 20.8471 24.6272 19.4304 24.2983C18.0138 23.9697 16.5185 23.8054 14.9446 23.8054C13.3704 23.8054 11.8704 23.9697 10.4446 24.2983C9.01847 24.6272 7.38875 25.2129 5.55542 26.0554C5.21292 26.2129 4.93292 26.4722 4.71542 26.8333C4.49764 27.1944 4.38875 27.574 4.38875 27.9721V29.3608ZM14.9446 16C15.9724 16 16.8311 15.655 17.5208 14.965C18.2106 14.2753 18.5554 13.4165 18.5554 12.3888C18.5554 11.361 18.2106 10.5022 17.5208 9.8125C16.8311 9.1225 15.9724 8.7775 14.9446 8.7775C13.9168 8.7775 13.0579 9.1225 12.3679 9.8125C11.6782 10.5022 11.3333 11.361 11.3333 12.3888C11.3333 13.4165 11.6782 14.2753 12.3679 14.965C13.0579 15.655 13.9168 16 14.9446 16Z" />
    </symbol>
    <symbol xmlns="http://www.w3.org/2000/svg" id="groupActivityVariant" fill="none" viewBox="0 0 40 40">
      <path fill="var(--connect__icon-fill-color, #2d2d2d)" d="M1.38875 30C0.995417 30 0.665556 29.8669 0.399167 29.6008C0.133056 29.3344 0 29.0046 0 28.6113V27.6529C0 26.5404 0.587917 25.635 1.76375 24.9367C2.93986 24.2381 4.485 23.8888 6.39917 23.8888C6.745 23.8888 7.07736 23.8957 7.39625 23.9096C7.71542 23.9235 8.02778 23.955 8.33333 24.0042C8.05556 24.52 7.84722 25.0493 7.70833 25.5921C7.56944 26.1351 7.5 26.7017 7.5 27.2917V30H1.38875ZM11.3888 30C10.9954 30 10.6656 29.8669 10.3992 29.6008C10.1331 29.3344 10 29.0046 10 28.6113V27.2917C10 26.4028 10.2431 25.5903 10.7292 24.8542C11.2153 24.1181 11.9028 23.4722 12.7917 22.9167C13.6806 22.3611 14.7431 21.9444 15.9792 21.6667C17.2153 21.3889 18.5556 21.25 20 21.25C21.4722 21.25 22.8264 21.3889 24.0625 21.6667C25.2986 21.9444 26.3611 22.3611 27.25 22.9167C28.1389 23.4722 28.8194 24.1181 29.2917 24.8542C29.7639 25.5903 30 26.4028 30 27.2917V28.6113C30 29.0046 29.8669 29.3344 29.6008 29.6008C29.3344 29.8669 29.0046 30 28.6112 30H11.3888ZM32.5 30V27.2917C32.5 26.6831 32.4375 26.1096 32.3125 25.5712C32.1875 25.0329 31.9907 24.5113 31.7221 24.0063C32.0276 23.9557 32.3371 23.9235 32.6504 23.9096C32.964 23.8957 33.2843 23.8888 33.6113 23.8888C35.5279 23.8888 37.0718 24.2315 38.2429 24.9171C39.4143 25.6026 40 26.5146 40 27.6529V28.6113C40 29.0046 39.8669 29.3344 39.6008 29.6008C39.3344 29.8669 39.0046 30 38.6113 30H32.5ZM12.8471 27.2221H27.1667V27.0554C27.0742 26.1851 26.3496 25.4629 24.9929 24.8888C23.6365 24.3149 21.9722 24.0279 20 24.0279C18.0278 24.0279 16.3635 24.3149 15.0071 24.8888C13.6504 25.4629 12.9304 26.1944 12.8471 27.0833V27.2221ZM6.37667 22.5C5.54222 22.5 4.82639 22.2008 4.22917 21.6025C3.63194 21.0042 3.33333 20.2849 3.33333 19.4446C3.33333 18.5926 3.6325 17.8704 4.23083 17.2779C4.82917 16.6851 5.54847 16.3888 6.38875 16.3888C7.24069 16.3888 7.96292 16.6851 8.55542 17.2779C9.14819 17.8704 9.44458 18.5967 9.44458 19.4567C9.44458 20.2911 9.14819 21.0069 8.55542 21.6042C7.96292 22.2014 7.23667 22.5 6.37667 22.5ZM33.5992 22.5C32.7644 22.5 32.0485 22.2008 31.4513 21.6025C30.854 21.0042 30.5554 20.2849 30.5554 19.4446C30.5554 18.5926 30.8547 17.8704 31.4533 17.2779C32.0517 16.6851 32.771 16.3888 33.6113 16.3888C34.4629 16.3888 35.1851 16.6851 35.7779 17.2779C36.3704 17.8704 36.6667 18.5967 36.6667 19.4567C36.6667 20.2911 36.3704 21.0069 35.7779 21.6042C35.1851 22.2014 34.4589 22.5 33.5992 22.5ZM20 20C18.6111 20 17.4306 19.5139 16.4583 18.5417C15.4861 17.5694 15 16.3889 15 15C15 13.5833 15.4861 12.3958 16.4583 11.4375C17.4306 10.4792 18.6111 10 20 10C21.4167 10 22.6042 10.4792 23.5625 11.4375C24.5208 12.3958 25 13.5833 25 15C25 16.3889 24.5208 17.5694 23.5625 18.5417C22.6042 19.5139 21.4167 20 20 20ZM20.0096 17.2221C20.6421 17.2221 21.169 17.0082 21.5904 16.5804C22.0115 16.1526 22.2221 15.6226 22.2221 14.9904C22.2221 14.3579 22.0101 13.831 21.5863 13.4096C21.1621 12.9885 20.6365 12.7779 20.0096 12.7779C19.3829 12.7779 18.8543 12.9899 18.4238 13.4137C17.9932 13.8379 17.7779 14.3635 17.7779 14.9904C17.7779 15.6171 17.9918 16.1457 18.4196 16.5763C18.8474 17.0068 19.3774 17.2221 20.0096 17.2221Z" />
    </symbol>
    <symbol xmlns="http://www.w3.org/2000/svg" id="info" fill="none" viewBox="0 0 40 40">
      <path fill="var(--connect__icon-fill-color, #2d2d2d)" d="M19.755 28C20.1497 28 20.479 27.8669 20.7429 27.6008C21.0068 27.3344 21.1388 27.0046 21.1388 26.6113V19.3888C21.1388 18.9954 21.0053 18.6656 20.7383 18.3992C20.4711 18.1331 20.14 18 19.745 18C19.3503 18 19.021 18.1331 18.7571 18.3992C18.4932 18.6656 18.3613 18.9954 18.3613 19.3888V26.6113C18.3613 27.0046 18.4947 27.3344 18.7617 27.6008C19.0289 27.8669 19.36 28 19.755 28ZM19.6663 14.8333C20.0832 14.8333 20.4329 14.6949 20.7154 14.4179C20.9976 14.1413 21.1388 13.7982 21.1388 13.3888C21.1388 12.9638 20.9978 12.6075 20.7158 12.32C20.4336 12.0325 20.084 11.8888 19.6671 11.8888C19.2501 11.8888 18.9004 12.0325 18.6179 12.32C18.3357 12.6075 18.1946 12.9638 18.1946 13.3888C18.1946 13.7982 18.3356 14.1413 18.6175 14.4179C18.8997 14.6949 19.2493 14.8333 19.6663 14.8333ZM19.6742 36.3333C17.3733 36.3333 15.2113 35.8958 13.1879 35.0208C11.1646 34.1458 9.3982 32.9538 7.88875 31.4446C6.37958 29.9351 5.1875 28.1681 4.3125 26.1433C3.4375 24.1186 3 21.9551 3 19.6529C3 17.3507 3.4375 15.1871 4.3125 13.1621C5.1875 11.1374 6.37958 9.375 7.88875 7.875C9.3982 6.375 11.1653 5.1875 13.19 4.3125C15.2147 3.4375 17.3782 3 19.6804 3C21.9826 3 24.1463 3.4375 26.1713 4.3125C28.196 5.1875 29.9583 6.375 31.4583 7.875C32.9583 9.375 34.1458 11.1389 35.0208 13.1667C35.8958 15.1944 36.3333 17.3586 36.3333 19.6592C36.3333 21.96 35.8958 24.1221 35.0208 26.1454C34.1458 28.1688 32.9583 29.9333 31.4583 31.4392C29.9583 32.945 28.1944 34.1372 26.1667 35.0158C24.1389 35.8942 21.9747 36.3333 19.6742 36.3333ZM19.6804 33.5554C23.5415 33.5554 26.8193 32.2036 29.5138 29.5C32.2082 26.7964 33.5554 23.514 33.5554 19.6529C33.5554 15.7918 32.21 12.514 29.5192 9.81958C26.8281 7.12514 23.5439 5.77792 19.6667 5.77792C15.8147 5.77792 12.5369 7.12333 9.83333 9.81417C7.12972 12.5053 5.77792 15.7894 5.77792 19.6667C5.77792 23.5186 7.12972 26.7964 9.83333 29.5C12.5369 32.2036 15.8193 33.5554 19.6804 33.5554Z" />
    </symbol>
    <symbol xmlns="http://www.w3.org/2000/svg" id="pause" fill="none" viewBox="0 0 40 40">
      <path fill="var(--connect__icon-fill-color, #2d2d2d)" d="M24.25 31.3333C23.4861 31.3333 22.8322 31.0614 22.2883 30.5175C21.7442 29.9733 21.4721 29.3193 21.4721 28.5554V10.7779C21.4721 10.014 21.7442 9.36 22.2883 8.81583C22.8322 8.27195 23.4861 8 24.25 8H28.5554C29.3193 8 29.9733 8.27195 30.5175 8.81583C31.0614 9.36 31.3333 10.014 31.3333 10.7779V28.5554C31.3333 29.3193 31.0614 29.9733 30.5175 30.5175C29.9733 31.0614 29.3193 31.3333 28.5554 31.3333H24.25ZM10.7779 31.3333C10.014 31.3333 9.36 31.0614 8.81583 30.5175C8.27194 29.9733 8 29.3193 8 28.5554V10.7779C8 10.014 8.27194 9.36 8.81583 8.81583C9.36 8.27195 10.014 8 10.7779 8H15.0833C15.8472 8 16.5011 8.27195 17.045 8.81583C17.5892 9.36 17.8613 10.014 17.8613 10.7779V28.5554C17.8613 29.3193 17.5892 29.9733 17.045 30.5175C16.5011 31.0614 15.8472 31.3333 15.0833 31.3333H10.7779ZM24.25 28.5554H28.5554V10.7779H24.25V28.5554ZM10.7779 28.5554H15.0833V10.7779H10.7779V28.5554Z" />
    </symbol>
    <symbol xmlns="http://www.w3.org/2000/svg" id="play" fill="none" viewBox="0 0 40 40">
      <path fill="var(--connect__icon-fill-color, #2d2d2d)" d="M11 28.6388V10.3888C11 9.97208 11.1394 9.63639 11.4183 9.38167C11.6975 9.12722 12.0231 9 12.395 9C12.5114 9 12.6332 9.01611 12.7604 9.04833C12.8876 9.08083 13.0092 9.12945 13.125 9.19417L27.4862 18.3471C27.699 18.4951 27.8587 18.6664 27.9654 18.8608C28.0718 19.0553 28.125 19.2729 28.125 19.5138C28.125 19.7546 28.0718 19.9722 27.9654 20.1667C27.8587 20.3611 27.699 20.5324 27.4862 20.6804L13.125 29.8333C13.0086 29.8981 12.8864 29.9467 12.7583 29.9792C12.6303 30.0114 12.5082 30.0275 12.3921 30.0275C12.0196 30.0275 11.6944 29.9003 11.4167 29.6458C11.1389 29.3911 11 29.0554 11 28.6388ZM13.7779 26.125L24.1667 19.5138L13.7779 12.9025V26.125Z" />
    </symbol>
    <symbol xmlns="http://www.w3.org/2000/svg" id="reduce" fill="none" viewBox="0 0 40 40">
      <path fill="var(--connect__icon-fill-color, #2d2d2d)" d="M9.38875 20.7775C8.99542 20.7775 8.66556 20.644 8.39917 20.3771C8.13306 20.1099 8 19.7788 8 19.3838C8 18.989 8.13306 18.6597 8.39917 18.3958C8.66556 18.1319 8.99542 18 9.38875 18H29.9446C30.3379 18 30.6678 18.1335 30.9342 18.4004C31.2003 18.6676 31.3333 18.9988 31.3333 19.3938C31.3333 19.7885 31.2003 20.1178 30.9342 20.3817C30.6678 20.6456 30.3379 20.7775 29.9446 20.7775H9.38875Z" />
    </symbol>
    <symbol xmlns="http://www.w3.org/2000/svg" id="renew" fill="none" viewBox="0 0 40 40">
      <path fill="var(--connect__icon-fill-color, #2d2d2d)" d="M9.77792 19.7638C9.77792 20.2824 9.81028 20.7893 9.875 21.2846C9.93972 21.7799 10.0415 22.2544 10.1804 22.7083C10.2824 23.0878 10.2639 23.4604 10.125 23.8263C9.98611 24.1921 9.74542 24.4536 9.40292 24.6108C9.05097 24.7775 8.69681 24.7844 8.34042 24.6317C7.98375 24.4789 7.74528 24.2219 7.625 23.8608C7.40278 23.185 7.24306 22.5092 7.14583 21.8333C7.04861 21.1572 7 20.4674 7 19.7638C7 16.0971 8.30556 12.9536 10.9167 10.3333C13.5278 7.71278 16.6667 6.4025 20.3333 6.4025H21.625L19.4304 4.20833C19.1804 3.95833 19.0554 3.65278 19.0554 3.29167C19.0554 2.93056 19.1804 2.625 19.4304 2.375C19.6804 2.125 19.9907 2 20.3613 2C20.7315 2 21.0417 2.125 21.2917 2.375L25.7638 6.81917C26.0415 7.09695 26.1804 7.42111 26.1804 7.79167C26.1804 8.16194 26.0415 8.48597 25.7638 8.76375L21.3196 13.2083C21.0696 13.4583 20.7547 13.5833 20.375 13.5833C19.9953 13.5833 19.6804 13.4583 19.4304 13.2083C19.1804 12.9583 19.0554 12.6435 19.0554 12.2638C19.0554 11.884 19.1804 11.5692 19.4304 11.3192L21.5696 9.18042H20.3333C17.4258 9.18042 14.9397 10.2151 12.875 12.2846C10.8103 14.354 9.77792 16.8471 9.77792 19.7638ZM30.8888 19.6804C30.8888 19.1618 30.8564 18.6549 30.7917 18.1596C30.7269 17.6643 30.6251 17.1806 30.4862 16.7083C30.3657 16.3286 30.3749 15.9558 30.5138 15.59C30.6526 15.2244 30.8935 14.9629 31.2362 14.8054C31.5879 14.6388 31.9374 14.6318 32.2846 14.7846C32.6318 14.9374 32.8657 15.1943 32.9862 15.5554C33.2268 16.2313 33.4004 16.9118 33.5071 17.5971C33.6135 18.2824 33.6667 18.9768 33.6667 19.6804C33.6667 23.3471 32.3611 26.4906 29.75 29.1108C27.1389 31.7314 24 33.0417 20.3333 33.0417H18.9863L21.1804 35.2358C21.4304 35.4858 21.5554 35.7914 21.5554 36.1525C21.5554 36.5136 21.4304 36.8192 21.1804 37.0692C20.9304 37.3192 20.6203 37.4442 20.25 37.4442C19.8797 37.4442 19.5696 37.3192 19.3196 37.0692L14.8471 32.625C14.5693 32.3472 14.4304 32.0231 14.4304 31.6525C14.4304 31.2822 14.5693 30.9582 14.8471 30.6804L19.3196 26.2083C19.5696 25.9583 19.8797 25.8333 20.25 25.8333C20.6203 25.8333 20.9304 25.9583 21.1804 26.2083C21.4304 26.4583 21.5554 26.7685 21.5554 27.1388C21.5554 27.509 21.4304 27.8192 21.1804 28.0692L18.9863 30.2638H20.3333C23.2408 30.2638 25.7269 29.229 27.7917 27.1596C29.8564 25.0901 30.8888 22.5971 30.8888 19.6804Z" />
    </symbol>
    <symbol xmlns="http://www.w3.org/2000/svg" id="soundMeter" fill="none" viewBox="0 0 40 40">
      <path fill="var(--connect__icon-fill-color, #2d2d2d)" d="M20.3333 28.4073L15.2083 33.5323C14.6806 34.0601 14.0254 34.324 13.2429 34.324C12.4604 34.324 11.8053 34.0601 11.2775 33.5323L5.79167 28.0186C5.26389 27.4908 5 26.838 5 26.0603C5 25.2825 5.26389 24.6297 5.79167 24.1019L10.875 18.9907V12.9215C10.875 12.301 11.1597 11.875 11.7292 11.6436C12.2986 11.4122 12.8008 11.514 13.2358 11.949L27.375 26.0465C27.81 26.4815 27.9049 26.9837 27.6596 27.5532C27.4143 28.1226 26.9814 28.4073 26.3608 28.4073H20.3333ZM22.9721 25.6298L13.6525 16.3657V20.1436L7.73583 26.0603L13.2221 31.5465L19.1388 25.6298H22.9721ZM28.8608 10.3798C27.0925 8.61123 25.0115 7.50012 22.6179 7.04651C20.2243 6.59262 17.8886 6.82873 15.6108 7.75484C15.2683 7.89373 14.9142 7.89596 14.5483 7.76151C14.1828 7.62735 13.9397 7.38901 13.8192 7.04651C13.6711 6.64818 13.6804 6.26151 13.8471 5.88651C14.0138 5.51151 14.2961 5.24998 14.6942 5.10193C17.4442 3.99082 20.2822 3.71998 23.2083 4.28943C26.1342 4.85887 28.6804 6.22693 30.8471 8.3936C32.9951 10.5417 34.3586 13.0625 34.9375 15.9561C35.5161 18.8497 35.2731 21.6668 34.2083 24.4073C34.06 24.8148 33.7914 25.1228 33.4025 25.3311C33.0136 25.5394 32.6156 25.5648 32.2083 25.4073C31.8472 25.2779 31.6088 25.0326 31.4929 24.6715C31.3771 24.3104 31.3933 23.9354 31.5417 23.5465C32.4489 21.2871 32.6664 18.9653 32.1942 16.5811C31.7219 14.1969 30.6108 12.1298 28.8608 10.3798ZM25.75 13.5323C26.3517 14.1343 26.8331 14.8172 27.1942 15.5811C27.5553 16.345 27.7868 17.1482 27.8888 17.9907C27.9351 18.3704 27.8171 18.6946 27.5346 18.9632C27.2521 19.2315 26.9211 19.3565 26.5417 19.3382C26.1711 19.3196 25.8493 19.176 25.5763 18.9073C25.3032 18.639 25.1296 18.3196 25.0554 17.949C24.9629 17.5046 24.8171 17.074 24.6179 16.6573C24.4188 16.2407 24.1479 15.8611 23.8054 15.5186C23.4629 15.1761 23.0833 14.896 22.6667 14.6782C22.25 14.4607 21.8147 14.3057 21.3608 14.2132C20.9719 14.139 20.6456 13.9723 20.3817 13.7132C20.1178 13.4537 19.9767 13.125 19.9583 12.7269C19.9397 12.3289 20.0786 11.991 20.375 11.7132C20.6711 11.4354 21.0275 11.3289 21.4442 11.3936C22.2497 11.5139 23.0229 11.7546 23.7638 12.1157C24.5046 12.4768 25.1667 12.949 25.75 13.5323Z" />
    </symbol>
    <symbol xmlns="http://www.w3.org/2000/svg" id="stop" fill="none" viewBox="0 0 40 40">
      <path fill="var(--connect__icon-fill-color, #2d2d2d)" d="M10 26.2221V11.7779C10 11.014 10.2719 10.36 10.8158 9.81583C11.36 9.27195 12.014 9 12.7779 9H27.2221C27.986 9 28.64 9.27195 29.1842 9.81583C29.7281 10.36 30 11.014 30 11.7779V26.2221C30 26.986 29.7281 27.64 29.1842 28.1842C28.64 28.7281 27.986 29 27.2221 29H12.7779C12.014 29 11.36 28.7281 10.8158 28.1842C10.2719 27.64 10 26.986 10 26.2221ZM12.7779 26.2221H27.2221V11.7779H12.7779V26.2221Z" />
    </symbol>
    <symbol xmlns="http://www.w3.org/2000/svg" id="stopwatch" fill="none" viewBox="0 0 40 40">
      <path fill="var(--connect__icon-fill-color, #2d2d2d)" d="M16.3888 4.77792C15.9954 4.77792 15.6656 4.64431 15.3992 4.37708C15.1331 4.10986 15 3.77889 15 3.38417C15 2.98917 15.1331 2.65972 15.3992 2.39583C15.6656 2.13194 15.9954 2 16.3888 2H23.6112C24.0046 2 24.3344 2.13361 24.6008 2.40083C24.8669 2.66778 25 2.99875 25 3.39375C25 3.78875 24.8669 4.11819 24.6008 4.38208C24.3344 4.64597 24.0046 4.77792 23.6112 4.77792H16.3888ZM20.005 23.3054C20.3997 23.3054 20.729 23.1724 20.9929 22.9062C21.2568 22.6401 21.3888 22.3103 21.3888 21.9167V14.9721C21.3888 14.5788 21.2553 14.2489 20.9883 13.9825C20.7211 13.7164 20.39 13.5833 19.995 13.5833C19.6003 13.5833 19.271 13.7164 19.0071 13.9825C18.7432 14.2489 18.6113 14.5788 18.6113 14.9721V21.9167C18.6113 22.3103 18.7447 22.6401 19.0117 22.9062C19.2789 23.1724 19.61 23.3054 20.005 23.3054ZM20 36.9721C17.9444 36.9721 16.0069 36.5763 14.1875 35.7846C12.3681 34.9929 10.7778 33.9165 9.41667 32.5554C8.05556 31.1943 6.97917 29.604 6.1875 27.7846C5.39583 25.9651 5 24.0276 5 21.9721C5 19.9165 5.39583 17.979 6.1875 16.1596C6.97917 14.3401 8.05556 12.7499 9.41667 11.3888C10.7778 10.0276 12.3681 8.95125 14.1875 8.15958C16.0069 7.36792 17.9444 6.97208 20 6.97208C21.8147 6.97208 23.5324 7.27306 25.1529 7.875C26.7732 8.47694 28.2407 9.32417 29.5554 10.4167L30.7779 9.19458C31.0462 8.92597 31.3703 8.79167 31.75 8.79167C32.1297 8.79167 32.4538 8.92597 32.7221 9.19458C32.9907 9.46292 33.125 9.78694 33.125 10.1667C33.125 10.5464 32.9907 10.8704 32.7221 11.1388L31.5 12.3612C32.5186 13.5649 33.3565 14.9583 34.0138 16.5417C34.6713 18.125 35 19.9351 35 21.9721C35 24.0276 34.6042 25.9651 33.8125 27.7846C33.0208 29.604 31.9444 31.1943 30.5833 32.5554C29.2222 33.9165 27.6319 34.9929 25.8125 35.7846C23.9931 36.5763 22.0556 36.9721 20 36.9721ZM20 34.1946C23.3889 34.1946 26.2732 33.0047 28.6529 30.625C31.0324 28.2453 32.2221 25.361 32.2221 21.9721C32.2221 18.5832 31.0324 15.699 28.6529 13.3196C26.2732 10.9399 23.3889 9.75 20 9.75C16.6111 9.75 13.7268 10.9399 11.3471 13.3196C8.96764 15.699 7.77792 18.5832 7.77792 21.9721C7.77792 25.361 8.96764 28.2453 11.3471 30.625C13.7268 33.0047 16.6111 34.1946 20 34.1946Z" />
    </symbol>
    <symbol xmlns="http://www.w3.org/2000/svg" id="studentPicker" fill="none" viewBox="0 0 40 40">
      <path fill="var(--connect__icon-fill-color, #2d2d2d)" d="M20.3333 18.7775C18.5 18.7775 16.9768 18.1711 15.7638 16.9583C14.551 15.7453 13.9446 14.2221 13.9446 12.3888C13.9446 10.5554 14.551 9.03222 15.7638 7.81917C16.9768 6.60639 18.5 6 20.3333 6C22.1667 6 23.6899 6.60639 24.9029 7.81917C26.1157 9.03222 26.7221 10.5554 26.7221 12.3888C26.7221 14.2221 26.1157 15.7453 24.9029 16.9583C23.6899 18.1711 22.1667 18.7775 20.3333 18.7775ZM7 29.3608V27.9721C7 26.9535 7.25694 26.0622 7.77083 25.2983C8.28472 24.5344 8.95375 23.9535 9.77792 23.5554C11.5926 22.7129 13.3657 22.081 15.0971 21.6596C16.8287 21.2382 18.5742 21.0275 20.3333 21.0275C22.0925 21.0275 23.8332 21.2428 25.5554 21.6733C27.2776 22.1039 29.0454 22.7331 30.8587 23.5608C31.7071 23.9614 32.3871 24.5421 32.8988 25.3029C33.4107 26.0638 33.6667 26.9535 33.6667 27.9721V29.3608C33.6667 30.1247 33.3947 30.7788 32.8508 31.3229C32.3067 31.8668 31.6526 32.1388 30.8888 32.1388H9.77792C9.01403 32.1388 8.36 31.8668 7.81583 31.3229C7.27194 30.7788 7 30.1247 7 29.3608ZM9.77792 29.3608H30.8888V27.9721C30.8888 27.574 30.7754 27.199 30.5487 26.8471C30.3218 26.4951 30.0371 26.2313 29.6946 26.0554C28.0093 25.2313 26.4213 24.6503 24.9304 24.3125C23.4399 23.9744 21.9075 23.8054 20.3333 23.8054C18.7592 23.8054 17.2175 23.9744 15.7083 24.3125C14.1992 24.6503 12.6112 25.2313 10.9446 26.0554C10.6018 26.2313 10.3217 26.4951 10.1042 26.8471C9.88667 27.199 9.77792 27.574 9.77792 27.9721V29.3608ZM20.3333 16C21.3611 16 22.2199 15.655 22.9096 14.965C23.5996 14.2753 23.9446 13.4165 23.9446 12.3888C23.9446 11.361 23.5996 10.5022 22.9096 9.8125C22.2199 9.1225 21.3611 8.7775 20.3333 8.7775C19.3056 8.7775 18.4468 9.1225 17.7571 9.8125C17.0671 10.5022 16.7221 11.361 16.7221 12.3888C16.7221 13.4165 17.0671 14.2753 17.7571 14.965C18.4468 15.655 19.3056 16 20.3333 16Z" />
    </symbol>
    <symbol xmlns="http://www.w3.org/2000/svg" id="timer" fill="none" viewBox="0 0 40 40">
      <path fill="var(--connect__icon-fill-color, #2d2d2d)" d="M21.1388 19.1113V12.3613C21.1388 11.9629 21.0068 11.6318 20.7429 11.3679C20.479 11.104 20.1481 10.9721 19.75 10.9721C19.3519 10.9721 19.021 11.104 18.7571 11.3679C18.4932 11.6318 18.3613 11.9629 18.3613 12.3613V19.6529C18.3613 19.8379 18.3936 20.0115 18.4583 20.1738C18.5231 20.3357 18.6203 20.4907 18.75 20.6388L24.5833 26.6113C24.8519 26.8982 25.1899 27.0371 25.5971 27.0279C26.0046 27.0185 26.3426 26.8796 26.6113 26.6113C26.8796 26.3426 27.0138 26.0093 27.0138 25.6113C27.0138 25.2129 26.8796 24.8796 26.6113 24.6113L21.1388 19.1113ZM19.6667 36.3333C17.3797 36.3333 15.2224 35.8958 13.1946 35.0208C11.1668 34.1458 9.3982 32.9538 7.88875 31.4446C6.37958 29.9351 5.1875 28.1665 4.3125 26.1388C3.4375 24.111 3 21.9536 3 19.6667C3 17.3797 3.4375 15.2224 4.3125 13.1946C5.1875 11.1668 6.37958 9.3982 7.88875 7.88875C9.3982 6.37958 11.1668 5.1875 13.1946 4.3125C15.2224 3.4375 17.3797 3 19.6667 3C21.9536 3 24.111 3.4375 26.1388 4.3125C28.1665 5.1875 29.9351 6.37958 31.4446 7.88875C32.9538 9.3982 34.1458 11.1668 35.0208 13.1946C35.8958 15.2224 36.3333 17.3797 36.3333 19.6667C36.3333 21.9536 35.8958 24.111 35.0208 26.1388C34.1458 28.1665 32.9538 29.9351 31.4446 31.4446C29.9351 32.9538 28.1665 34.1458 26.1388 35.0208C24.111 35.8958 21.9536 36.3333 19.6667 36.3333ZM19.6667 33.5554C23.4908 33.5554 26.7617 32.1967 29.4792 29.4792C32.1967 26.7617 33.5554 23.4908 33.5554 19.6667C33.5554 15.8425 32.1967 12.5717 29.4792 9.85417C26.7617 7.13667 23.4908 5.77792 19.6667 5.77792C15.8425 5.77792 12.5717 7.13667 9.85417 9.85417C7.13667 12.5717 5.77792 15.8425 5.77792 19.6667C5.77792 23.4908 7.13667 26.7617 9.85417 29.4792C12.5717 32.1967 15.8425 33.5554 19.6667 33.5554Z" />
    </symbol>
  </defs>
</svg>
