<svg xmlns="http://www.w3.org/2000/svg" id="absoluteValue" fill="none" viewBox="0 0 30 30"><path fill="var(--connect__icon-fill-color, #2d2d2d)" d="M20.302 24.478H9.687c-.47 0-.865-.162-1.186-.486a1.624 1.624 0 0 1-.481-1.189V7.194c0-.469.162-.865.485-1.189.324-.324.721-.485 1.19-.485H20.31c.47 0 .865.161 1.186.485.321.324.482.72.482 1.19v15.608c0 .469-.162.865-.486 1.19-.324.323-.72.485-1.19.485zM9.694 23.124h10.61c.093 0 .17-.03.23-.09s.09-.137.09-.23V7.193c0-.093-.03-.17-.09-.23a.312.312 0 0 0-.23-.09H9.693c-.093 0-.17.03-.23.09a.312.312 0 0 0-.09.23v15.61c0 .093.03.17.09.23s.137.09.23.09z"/><path fill="var(--connect__icon-fill-color, #2d2d2d)" fill-rule="evenodd" d="m3.84 26.977.068-24 1.25.003-.068 24-1.25-.003zm21 .047.068-24 1.25.003-.068 24-1.25-.003z" clip-rule="evenodd"/></svg>