<svg xmlns="http://www.w3.org/2000/svg" id="add" fill="none" viewBox="0 0 40 40">
  <path fill="var(--connect__icon-fill-color, #2d2d2d)" d="M18.278 21.055h-8.89c-.393 0-.722-.133-.989-.4A1.352 1.352 0 0 1 8 19.662c0-.395.133-.724.4-.988a1.35 1.35 0 0 1 .989-.396h8.889v-8.89c0-.393.133-.722.4-.989.268-.266.599-.399.994-.399.394 0 .724.133.988.4.264.266.395.595.395.989v8.889h8.89c.393 0 .723.133.99.4.265.268.398.599.398.994 0 .394-.133.724-.399.988a1.35 1.35 0 0 1-.99.395h-8.889v8.89c0 .393-.133.723-.4.99-.267.265-.598.398-.993.398s-.724-.133-.988-.399a1.35 1.35 0 0 1-.396-.99v-8.889Z"/>
</svg>