<svg xmlns="http://www.w3.org/2000/svg" id="add" viewBox="0 0 20 20" fill="none">
  <path d="M9.13896 10.5277H4.69438C4.49771 10.5277 4.33278 10.461 4.19958 10.3275C4.06653 10.1939 4 10.0283 4 9.83083C4 9.63347 4.06653 9.46882 4.19958 9.33688C4.33278 9.20493 4.49771 9.13896 4.69438 9.13896H9.13896V4.69438C9.13896 4.49771 9.20569 4.33278 9.33917 4.19958C9.47278 4.06653 9.63833 4 9.83583 4C10.0332 4 10.1978 4.06653 10.3298 4.19958C10.4617 4.33278 10.5277 4.49771 10.5277 4.69438V9.13896H14.9723C15.169 9.13896 15.3339 9.20569 15.4671 9.33917C15.6001 9.47278 15.6667 9.63833 15.6667 9.83583C15.6667 10.0332 15.6001 10.1978 15.4671 10.3298C15.3339 10.4617 15.169 10.5277 14.9723 10.5277H10.5277V14.9723C10.5277 15.169 10.461 15.3339 10.3275 15.4671C10.1939 15.6001 10.0283 15.6667 9.83083 15.6667C9.63347 15.6667 9.46882 15.6001 9.33688 15.4671C9.20493 15.3339 9.13896 15.169 9.13896 14.9723V10.5277Z" fill="var(--connect__icon-fill-color, #2d2d2d)"/>
</svg>