<?xml version='1.0' encoding='utf-8'?>
<svg xmlns:ns0="http://www.w3.org/2000/svg" xmlns="http://www.w3.org/2000/svg" fill="var(--connect__icon-fill-color, #2d2d2d)" viewBox="0 0 40 40"><ns0:path d="M10.0001 36C9.54013 36 9.07614 35.842 8.70015 35.518C7.86218 34.8 7.76418 33.5381 8.48416 32.7001L19.3659 20.0004L8.48216 7.30075C7.76218 6.46278 7.86018 5.20281 8.69815 4.48283C9.53613 3.76285 10.7981 3.85884 11.5181 4.69882L23.5178 18.6985C24.1597 19.4464 24.1597 20.5524 23.5178 21.3004L11.5181 35.3C11.1241 35.764 10.5621 36 10.0001 36Z" fill="currentcolor" />
            <ns0:path d="M21.9998 35.9998C21.5398 35.9998 21.0758 35.8418 20.6998 35.5178C19.8618 34.7999 19.7638 33.5379 20.4838 32.6999L31.3655 20.0002L20.4818 7.30057C19.7618 6.46259 19.8598 5.20263 20.6978 4.48265C21.5358 3.76267 22.7997 3.85866 23.5177 4.70064L35.5174 18.7003C36.1594 19.4483 36.1594 20.5542 35.5174 21.3022L23.5177 35.3018C23.1237 35.7638 22.5617 35.9998 21.9998 35.9998Z" fill="currentcolor" />
        </svg>