<svg xmlns="http://www.w3.org/2000/svg" id="arrowUp" viewBox="0 0 16 16" fill="none">
  <path d="M7.99987 7.19998L5.39987 9.79998C5.27765 9.9222 5.12209 9.98331 4.9332 9.98331C4.74431 9.98331 4.58876 9.9222 4.46654 9.79998C4.34431 9.67775 4.2832 9.5222 4.2832 9.33331C4.2832 9.14442 4.34431 8.98886 4.46654 8.86664L7.5332 5.79998C7.66654 5.66664 7.82209 5.59998 7.99987 5.59998C8.17765 5.59998 8.3332 5.66664 8.46654 5.79998L11.5332 8.86664C11.6554 8.98886 11.7165 9.14442 11.7165 9.33331C11.7165 9.5222 11.6554 9.67775 11.5332 9.79998C11.411 9.9222 11.2554 9.98331 11.0665 9.98331C10.8776 9.98331 10.7221 9.9222 10.5999 9.79998L7.99987 7.19998Z" fill="var(--connect__icon-fill-color, #2d2d2d)"/>
</svg>