<svg xmlns="http://www.w3.org/2000/svg" xmlns:ns0="http://www.w3.org/2000/svg" viewBox="0 0 40 40"><ns0:path fill="var(--connect__icon-fill-color, #2d2d2d)" d="M30.0004 35.9995C29.4365 35.9995 28.8765 35.7635 28.4805 35.2996L16.481 21.3001C15.839 20.5522 15.839 19.4462 16.481 18.6982L28.4805 4.69881C29.2005 3.85885 30.4644 3.76285 31.3004 4.48282C32.1384 5.20079 32.2363 6.46274 31.5164 7.30071L20.6348 20.0002L31.5184 32.6997C32.2363 33.5376 32.1404 34.7996 31.3024 35.5176C30.9244 35.8415 30.4624 35.9995 30.0004 35.9995Z"/><ns0:path fill="var(--connect__icon-fill-color, #2d2d2d)" d="M18.0009 36C17.437 36 16.877 35.764 16.481 35.3L4.48148 21.3006C3.83951 20.5526 3.83951 19.4467 4.48148 18.6987L16.481 4.69928C17.201 3.86131 18.4649 3.76532 19.3029 4.48329C20.1408 5.20326 20.2388 6.46321 19.5189 7.30117L8.63531 20.0007L19.5189 32.7001C20.2368 33.5381 20.1408 34.8001 19.3029 35.518C18.9249 35.842 18.4629 36 18.0009 36Z"/></svg>