<?xml version='1.0' encoding='utf-8'?>
<svg xmlns:ns0="http://www.w3.org/2000/svg" xmlns="http://www.w3.org/2000/svg" viewBox="0 0 40 40"><ns0:path d="M16 19.9992C16 19.5102 16.212 19.0512 16.5693 18.7707L29.9027 8.27011C30.308 7.9491 30.8413 7.91309 31.2827 8.16811C31.724 8.42762 32 8.93915 32 9.49868V30.5013C32 31.0609 31.724 31.5739 31.2827 31.8319C30.8413 32.0869 30.3093 32.0509 29.9027 31.7299L16.5693 21.2293C16.212 20.9503 16 20.4913 16 20.0022C16 20.0007 16 20.0007 16 19.9992C16 20.0007 16 20.0007 16 19.9992Z" fill="var(--connect__icon-fill-color, #2d2d2d)" />
            <ns0:path d="M10 32.0001C11.104 32.0001 12 31.3296 12 30.5001V9.50012C12 8.67062 11.104 8.00012 10 8.00012C8.896 8.00012 8 8.67062 8 9.50012V30.5001C8 31.3296 8.896 32.0001 10 32.0001Z" fill="var(--connect__icon-fill-color, #2d2d2d)" />
        </svg>