<?xml version='1.0' encoding='utf-8'?>
<svg xmlns:ns0="http://www.w3.org/2000/svg" xmlns="http://www.w3.org/2000/svg" fill="var(--connect__icon-fill-color, #2d2d2d)" viewBox="0 0 40 40"><ns0:path fill-rule="evenodd" clip-rule="evenodd" d="M34 8H6C4.89543 8 4 8.89543 4 10V30C4 31.1046 4.89543 32 6 32H24L31.952 38V32H34C35.1046 32 36 31.1046 36 30V10C36 8.89543 35.1046 8 34 8ZM16.828 26L16.24 23.762H12.356L11.752 26H8.19995L12.102 14H16.412L20.36 26H16.828ZM14.2779 15.9697C14.3319 16.2697 14.4459 16.7657 14.6159 17.4577C14.7879 18.1511 14.9339 18.7144 15.0539 19.1477L15.5679 21.1097H13.0259C13.5245 19.2351 13.8452 17.9791 13.9879 17.3417C14.1305 16.7044 14.2272 16.2471 14.2779 15.9697ZM30.148 24.38C28.886 25.5219 27.2166 26.1061 25.518 26H21.652V14.048H25.788C27.4039 13.9436 28.997 14.4722 30.23 15.522C31.3343 16.6507 31.9053 18.1965 31.8 19.772C31.9095 21.4703 31.3115 23.1382 30.148 24.38ZM24.8799 16.6561H25.8199C26.5674 16.5963 27.2999 16.8893 27.7999 17.4481C28.2865 18.1635 28.5144 19.0236 28.4459 19.8861C28.5153 20.8089 28.2738 21.7285 27.7599 22.4981C27.213 23.1048 26.4138 23.4208 25.5999 23.3521H24.8799V16.6561Z" fill="currentcolor" />
        </svg>