<svg xmlns="http://www.w3.org/2000/svg" xmlns:ns0="http://www.w3.org/2000/svg" viewBox="0 0 40 40"><ns0:path fill="var(--connect__icon-fill-color, #2d2d2d)" d="M24 19.9992C24 19.5102 23.788 19.0512 23.4307 18.7707L10.0973 8.27011C9.692 7.9491 9.15867 7.91309 8.71733 8.16811C8.276 8.42762 8 8.93915 8 9.49868V30.5013C8 31.0609 8.276 31.5739 8.71733 31.8319C9.15867 32.0869 9.69067 32.0509 10.0973 31.7299L23.4307 21.2293C23.788 20.9503 24 20.4913 24 20.0022C24 20.0007 24 20.0007 24 19.9992C24 20.0007 24 20.0007 24 19.9992Z"/><ns0:path fill="var(--connect__icon-fill-color, #2d2d2d)" d="M30 32.0001C28.896 32.0001 28 31.3296 28 30.5001V9.50012C28 8.67062 28.896 8.00012 30 8.00012C31.104 8.00012 32 8.67062 32 9.50012V30.5001C32 31.3296 31.104 32.0001 30 32.0001Z"/></svg>