<svg xmlns="http://www.w3.org/2000/svg" xmlns:ns0="http://www.w3.org/2000/svg" viewBox="0 0 40 40"><ns0:path fill="var(--connect__icon-fill-color, #2d2d2d)" d="M9.17569 26L16.2652 33.6803C16.8826 34.3492 18 33.9123 18 33.002V7.00201C18 6.0917 16.8826 5.65483 16.2652 6.32373L9.17941 14H4.98201C4.45576 14 4 14.4397 4 14.982V25.018C4 25.5442 4.43966 26 4.98201 26H9.17569Z"/><ns0:path fill="var(--connect__icon-fill-color, #2d2d2d)" d="M31.5467 16.3469C33.4944 18.3194 33.4944 21.5175 31.5467 23.49C29.599 25.4625 26.441 25.4625 24.4933 23.49C23.909 22.8983 22.9616 22.8983 22.3773 23.49C21.793 24.0818 21.793 25.0412 22.3773 25.633C25.4937 28.789 30.5463 28.789 33.6627 25.633C36.7791 22.4769 36.7791 17.36 33.6627 14.2039C31.1516 11.6609 27.3834 11.1669 24.384 12.7221L21.6919 8L20 17.1546L28.6744 20.248L25.8837 15.3528C27.7351 14.4644 30.015 14.7957 31.5467 16.3469Z"/></svg>