<svg xmlns="http://www.w3.org/2000/svg" viewBox="0 0 20 20" fill="none" id="backspace">
  <path d="M16.9981 14.1542V5.91711C16.9981 5.85795 16.9981 5.80063 16.9981 5.74146C16.9962 5.4937 16.8857 5.26998 16.676 5.12761C16.4817 4.99449 16.2682 5.00003 16.0472 5.00003H6.04438C5.89765 5.00003 5.75091 5.00003 5.60418 5.00003C5.36216 5.00188 5.13348 5.07954 4.95244 5.23855C4.89908 5.28477 4.85525 5.33839 4.80952 5.39016C4.28927 5.97628 3.76903 6.56055 3.25069 7.14667C2.65803 7.81414 2.06537 8.48161 1.47271 9.14909C1.2993 9.34508 1.07634 9.54846 1.02107 9.80916C0.956281 10.1013 1.04394 10.3694 1.24213 10.5931C1.29549 10.6541 1.34885 10.7133 1.4022 10.7743C1.9739 11.4178 2.5475 12.063 3.1192 12.7065C3.66612 13.3222 4.21305 13.9379 4.75997 14.5536C4.8019 14.6017 4.84382 14.6497 4.88765 14.6959C5.06678 14.8919 5.32214 14.9955 5.59084 14.9992C5.7147 15.001 5.83857 14.9992 5.96244 14.9992H16.2435C16.2492 14.9992 16.253 14.9992 16.2587 14.9992C16.2644 14.9992 16.2701 14.9992 16.2759 14.9992H16.2778C16.6798 14.9788 16.9905 14.6719 17 14.2781C16.9981 14.2356 16.9981 14.1949 16.9981 14.1542ZM11.5003 10.2696C11.9805 10.7355 12.4607 11.2014 12.939 11.6655C13.1658 11.8855 13.1487 12.2294 12.939 12.4495C12.7294 12.6695 12.3426 12.6547 12.131 12.4495C11.9557 12.2794 11.7804 12.1093 11.6051 11.9392C11.2068 11.5527 10.8104 11.1681 10.4121 10.7817C10.3188 10.8705 10.2273 10.9611 10.1339 11.0517C9.6537 11.5176 9.17347 11.9835 8.69324 12.4476C8.46647 12.6676 8.11393 12.651 7.88525 12.4476C7.65847 12.2442 7.67372 11.8689 7.88525 11.6637L8.41121 11.1534C8.80758 10.7669 9.20587 10.3823 9.60415 9.99591C9.51077 9.90531 9.4193 9.81656 9.32592 9.72596L7.88715 8.33C7.66038 8.10997 7.67753 7.76607 7.88715 7.54604C8.09677 7.32602 8.48362 7.34081 8.69515 7.54604C8.87047 7.71615 9.04579 7.88625 9.22111 8.05635C9.61939 8.44279 10.0158 8.82737 10.4141 9.2138C10.5074 9.1232 10.5989 9.03445 10.6923 8.94385C11.1725 8.47792 11.6527 8.01198 12.131 7.54789C12.3578 7.32787 12.7123 7.34451 12.939 7.54789C13.1658 7.75128 13.1506 8.12661 12.939 8.33185C12.7637 8.50195 12.5884 8.67206 12.4131 8.84216C12.0148 9.22674 11.6184 9.61317 11.2201 9.99961L11.5003 10.2696Z" fill="var(--connect__icon-fill-color, #2d2d2d)"/>
</svg>