<svg xmlns="http://www.w3.org/2000/svg" xmlns:ns0="http://www.w3.org/2000/svg" viewBox="0 0 40 40"><ns0:path fill="var(--connect__icon-fill-color, #2d2d2d)" fill-rule="evenodd" d="M27.1217 18.6328C29.0518 17.2176 30.2461 14.8567 29.957 12.2176C29.5619 8.61096 26.2865 5.99998 22.6583 6H8V8L10.8944 9.44722C11.572 9.786 12 10.4785 12 11.2361V28.7639C12 29.5215 11.572 30.214 10.8944 30.5528L8 32V34H23.6453C27.853 34 31.6061 30.9051 31.9691 26.7131C32.2818 23.1015 30.1927 19.9358 27.1217 18.6328ZM18 10H20C22.2091 10 24 11.7908 24 14C24 16.2091 22.2091 18 20 18H18V10ZM18 22V30H22C24.2091 30 26 28.2091 26 26C26 23.7908 24.2091 22 22 22H18Z" clip-rule="evenodd"/></svg>