<svg viewBox="0 0 30 30" id="braces" fill="none" xmlns="http://www.w3.org/2000/svg"><path d="M20.302 24.478H9.687c-.47 0-.865-.162-1.186-.486a1.624 1.624 0 0 1-.481-1.189V7.194c0-.469.162-.865.485-1.189.324-.324.721-.485 1.19-.485H20.31c.47 0 .865.161 1.186.485.321.324.482.72.482 1.19v15.608c0 .469-.162.865-.486 1.19-.324.323-.72.485-1.19.485zM9.694 23.124h10.61c.093 0 .17-.03.23-.09s.09-.137.09-.23V7.193c0-.093-.03-.17-.09-.23a.312.312 0 0 0-.23-.09H9.693c-.093 0-.17.03-.23.09a.312.312 0 0 0-.09.23v15.61c0 .093.03.17.09.23s.137.09.23.09zM23.28 25.75v-1.175h.65c1.35 0 1.7-.65 1.7-2.275 0-1.525-.126-2.825-.126-4.525 0-1.6.4-2.425 1.475-2.725v-.1c-1.075-.3-1.475-1.1-1.475-2.725 0-1.7.125-3 .125-4.525 0-1.625-.35-2.275-1.7-2.275h-.65V4.25h1.1c2 0 2.925.75 2.925 3.325 0 1.825-.225 3.15-.225 4.85 0 .95.475 1.9 2.15 1.925v1.3c-1.675.025-2.15.975-2.15 1.95 0 1.675.225 3 .225 4.825 0 2.575-.925 3.325-2.925 3.325h-1.1zM5.621 25.75c-1.975 0-2.925-.75-2.925-3.325 0-1.825.225-3.15.225-4.825 0-.975-.45-1.925-2.15-1.95v-1.3c1.7-.025 2.15-.975 2.15-1.925 0-1.7-.225-3.025-.225-4.85 0-2.575.95-3.325 2.925-3.325h1.125v1.175h-.675c-1.35 0-1.7.65-1.7 2.275 0 1.525.15 2.825.15 4.525 0 1.625-.425 2.425-1.5 2.725v.1c1.075.3 1.5 1.125 1.5 2.725 0 1.7-.15 3-.15 4.525 0 1.625.35 2.275 1.7 2.275h.675v1.175H5.621z" fill="var(--connect__icon-fill-color, #2d2d2d)"/></svg>