<svg xmlns="http://www.w3.org/2000/svg"  viewBox="0 0 20 20" fill="none" id="calculator">
  <path d="M7.5 14H8.5V12.5H10V11.5H8.5V10H7.5V11.5H6V12.5H7.5V14ZM11 13.25H14V12.25H11V13.25ZM11 11.75H14V10.75H11V11.75ZM11.4375 9.52083L12.5 8.47917L13.5625 9.54167L14.2708 8.83333L13.2083 7.77083L14.2708 6.70833L13.5625 6L12.5 7.0625L11.4375 6L10.7292 6.70833L11.7917 7.75L10.7292 8.8125L11.4375 9.52083ZM6 8.27083H9V7.27083H6V8.27083ZM4.5 17C4.0875 17 3.73437 16.8531 3.44062 16.5594C3.14687 16.2656 3 15.9125 3 15.5V4.5C3 4.0875 3.14687 3.73438 3.44062 3.44063C3.73437 3.14688 4.0875 3 4.5 3H15.5C15.9125 3 16.2656 3.14688 16.5594 3.44063C16.8531 3.73438 17 4.0875 17 4.5V15.5C17 15.9125 16.8531 16.2656 16.5594 16.5594C16.2656 16.8531 15.9125 17 15.5 17H4.5ZM4.5 15.5H15.5V4.5H4.5V15.5Z" fill="var(--connect__icon-fill-color, #2d2d2d)"/>
</svg>