<?xml version='1.0' encoding='utf-8'?>
<svg xmlns:ns0="http://www.w3.org/2000/svg" xmlns="http://www.w3.org/2000/svg" viewBox="0 0 40 40"><ns0:g clip-path="url(#clip0_788_4254)">
                <ns0:path d="M36 5H32.5V2.5C32.5 1.16667 31.3333 0 30 0C28.6667 0 27.5 1.16667 27.5 2.5V5H12.5V2.5C12.5 1.16667 11.3333 0 10 0C8.66667 0 7.5 1.16667 7.5 2.5V5H4C1.83333 5 0 6.66667 0 8.66667V36.3333C0 38.3333 1.83333 40 4 40H36C38.1667 40 40 38.3333 40 36.3333V8.66667C40 6.66667 38.1667 5 36 5ZM35 35H5V15H35V35Z" fill="var(--connect__icon-fill-color, #2d2d2d)" />
                <ns0:path d="M11.3333 25C13.3583 25 15 23.3583 15 21.3333C15 19.3082 13.3583 17.6666 11.3333 17.6666C9.30825 17.6666 7.66663 19.3082 7.66663 21.3333C7.66663 23.3583 9.30825 25 11.3333 25Z" fill="var(--connect__icon-fill-color, #2d2d2d)" />
            </ns0:g>
            <ns0:defs>
                <ns0:clipPath id="clip0_788_4254">
                    <ns0:rect width="40" height="40" fill="white" />
                </ns0:clipPath>
            </ns0:defs>
        </svg>