<svg viewBox="0 0 30 30" id="cent" fill="none" xmlns="http://www.w3.org/2000/svg"><path d="M15.97 20.043c-.92 0-1.733-.186-2.44-.56a4.316 4.316 0 0 1-1.68-1.64c-.4-.72-.6-1.593-.6-2.62 0-1.026.22-1.9.66-2.62a4.202 4.202 0 0 1 1.76-1.62 5.212 5.212 0 0 1 2.4-.56c.653 0 1.207.114 1.66.34.467.227.867.5 1.2.82l-.8 1.04a3.194 3.194 0 0 0-.92-.62 2.513 2.513 0 0 0-1.06-.22c-.653 0-1.227.147-1.72.44-.493.28-.873.68-1.14 1.2-.267.507-.4 1.107-.4 1.8 0 1.04.287 1.874.86 2.5.587.627 1.373.94 2.36.94a2.78 2.78 0 0 0 1.26-.28 4.63 4.63 0 0 0 1.02-.66l.72 1.04a4.81 4.81 0 0 1-1.46.94 4.252 4.252 0 0 1-1.68.34zm-.7 2.04V8.363h1.04v13.72h-1.04z" fill="var(--connect__icon-fill-color, #2d2d2d)"/></svg>