<svg xmlns="http://www.w3.org/2000/svg" id="check" viewBox="0 0 20 20" fill="none">
  <path d="M7.90675 13.1042L15.3026 5.70833C15.4441 5.56944 15.6091 5.5 15.7976 5.5C15.9862 5.5 16.1499 5.56965 16.2888 5.70896C16.4277 5.8484 16.4972 6.01389 16.4972 6.20542C16.4972 6.39708 16.4277 6.56236 16.2888 6.70125L8.393 14.6042C8.25411 14.7431 8.09202 14.8125 7.90675 14.8125C7.72161 14.8125 7.55959 14.7431 7.4207 14.6042L3.69841 10.8819C3.55952 10.7424 3.49355 10.5767 3.5005 10.3848C3.50744 10.193 3.58063 10.0276 3.72008 9.88875C3.85938 9.74986 4.02487 9.68042 4.21654 9.68042C4.4082 9.68042 4.57348 9.74986 4.71237 9.88875L7.90675 13.1042Z" fill="var(--connect__icon-fill-color, #2d2d2d)"/>
</svg>