<svg xmlns="http://www.w3.org/2000/svg" id="clock" viewBox="0 0 20 20" fill="none">
  <path d="M10.6562 9.45312V6.28125C10.6562 6.09531 10.5937 5.93945 10.4687 5.81367C10.3436 5.68789 10.1887 5.625 10.0038 5.625C9.81898 5.625 9.66276 5.68789 9.53516 5.81367C9.40755 5.93945 9.34375 6.09531 9.34375 6.28125V9.72656C9.34375 9.82378 9.36198 9.91189 9.39844 9.99089C9.4349 10.0699 9.48351 10.1398 9.54427 10.2005L11.9842 12.6405C12.1197 12.776 12.2756 12.8407 12.4518 12.8346C12.628 12.8286 12.783 12.7587 12.9167 12.625C13.0503 12.4913 13.1172 12.3364 13.1172 12.1602C13.1172 11.9839 13.0483 11.8275 12.9105 11.6908L10.6562 9.45312ZM10 17C9.03531 17 8.12878 16.8177 7.28039 16.4531C6.43201 16.0885 5.6888 15.5872 5.05078 14.9492C4.41276 14.3112 3.91146 13.5671 3.54688 12.7169C3.18229 11.8667 3 10.9582 3 9.99161C3 9.02498 3.18229 8.11632 3.54688 7.26562C3.91146 6.41493 4.41276 5.67361 5.05078 5.04167C5.6888 4.40972 6.43292 3.91146 7.28312 3.54688C8.13333 3.18229 9.04175 3 10.0084 3C10.975 3 11.8837 3.18375 12.7346 3.55125C13.5853 3.91875 14.3253 4.4175 14.9547 5.0475C15.584 5.6775 16.0822 6.41833 16.4493 7.27C16.8164 8.12167 17 9.03167 17 10C17 10.9647 16.8177 11.8712 16.4531 12.7196C16.0885 13.568 15.5903 14.3112 14.9583 14.9492C14.3264 15.5872 13.5843 16.0885 12.732 16.4531C11.8797 16.8177 10.9691 17 10 17ZM10.0087 15.6875C11.5822 15.6875 12.922 15.1315 14.0283 14.0195C15.1344 12.9076 15.6875 11.5648 15.6875 9.99125C15.6875 8.41783 15.1344 7.07799 14.0283 5.97172C12.922 4.86557 11.5822 4.3125 10.0087 4.3125C8.43521 4.3125 7.09245 4.86557 5.98047 5.97172C4.86849 7.07799 4.3125 8.41783 4.3125 9.99125C4.3125 11.5648 4.86849 12.9076 5.98047 14.0195C7.09245 15.1315 8.43521 15.6875 10.0087 15.6875Z" fill="var(--connect__icon-fill-color, #2d2d2d)"/>
</svg>