<?xml version='1.0' encoding='utf-8'?>
<svg xmlns:ns0="http://www.w3.org/2000/svg" xmlns="http://www.w3.org/2000/svg" fill="var(--connect__icon-fill-color, #2d2d2d)" viewBox="0 0 40 40"><ns0:path fill-rule="evenodd" clip-rule="evenodd" d="M34 8H6C4.89543 8 4 8.89543 4 10V30C4 31.1046 4.89543 32 6 32H34C35.1046 32 36 31.1046 36 30V10C36 8.89543 35.1046 8 34 8ZM15.962 23.514C16.4846 23.516 17.0047 23.4419 17.506 23.294C18.0128 23.1416 18.5114 22.9634 19 22.76V25.5C17.9263 25.9591 16.7676 26.1861 15.6 26.166C14.055 26.2668 12.5417 25.696 11.448 24.6C10.4019 23.3193 9.88403 21.6876 10 20.038C9.97563 18.9069 10.216 17.7857 10.702 16.764C11.1404 15.8559 11.8432 15.1016 12.718 14.6C13.6649 14.0762 14.7342 13.8139 15.816 13.84C17.1025 13.8389 18.3727 14.1281 19.532 14.686L18.532 17.238C18.1004 17.0343 17.6562 16.8586 17.202 16.712C16.7404 16.5685 16.2594 16.4969 15.776 16.5C15.0518 16.4786 14.3691 16.8374 13.976 17.446C13.5033 18.2329 13.2775 19.1435 13.328 20.06C13.3293 22.364 14.2073 23.5154 15.962 23.514ZM28.4079 23.294C27.9073 23.4417 27.3879 23.5158 26.8659 23.514C25.11 23.5153 24.2313 22.364 24.2299 20.06C24.1795 19.1435 24.4052 18.2328 24.878 17.446C25.271 16.8374 25.9537 16.4786 26.6779 16.5C27.1614 16.4969 27.6423 16.5684 28.104 16.712C28.5581 16.8586 29.0024 17.0343 29.434 17.238L30.434 14.686C29.2747 14.1281 28.0045 13.8389 26.718 13.84C25.6368 13.8141 24.5682 14.0764 23.622 14.6C22.7458 15.1018 22.0412 15.8559 21.6 16.764C21.1138 17.7891 20.8748 18.9138 20.902 20.048C20.7886 21.6942 21.3063 23.3218 22.35 24.6C23.4456 25.6979 24.9623 26.2688 26.51 26.166C27.6775 26.1856 28.8361 25.9586 29.91 25.5V22.76C29.4187 22.9636 28.9174 23.1418 28.4079 23.294Z" fill="currentcolor" />
        </svg>