<svg xmlns="http://www.w3.org/2000/svg" id="close" fill="none" viewBox="0 0 40 40">
  <path fill="var(--connect__icon-fill-color, #2d2d2d)" d="m19.903 20.848-8.555 8.555a1.325 1.325 0 0 1-.973.403c-.38 0-.703-.134-.972-.403A1.325 1.325 0 0 1 9 28.43c0-.38.134-.704.403-.973l8.555-8.555-8.555-8.555A1.325 1.325 0 0 1 9 9.374c0-.38.134-.703.403-.972S9.996 8 10.375 8c.38 0 .704.134.973.403l8.555 8.555 8.555-8.555c.269-.269.593-.403.973-.403s.703.134.972.403.403.593.403.972c0 .38-.134.704-.403.973l-8.555 8.555 8.555 8.555c.269.269.403.593.403.973s-.134.703-.403.972a1.325 1.325 0 0 1-.972.403c-.38 0-.704-.134-.973-.403l-8.555-8.555Z"/>
</svg>