<svg xmlns="http://www.w3.org/2000/svg" id="close" viewBox="0 0 20 20" fill="none">
  <path d="M9.95146 10.4237L5.67375 14.7015C5.53944 14.8358 5.37736 14.9029 5.1875 14.9029C4.99778 14.9029 4.83576 14.8358 4.70146 14.7015C4.56715 14.5672 4.5 14.4051 4.5 14.2154C4.5 14.0256 4.56715 13.8635 4.70146 13.7292L8.97917 9.45146L4.70146 5.17375C4.56715 5.03944 4.5 4.87736 4.5 4.6875C4.5 4.49778 4.56715 4.33576 4.70146 4.20146C4.83576 4.06715 4.99778 4 5.1875 4C5.37736 4 5.53944 4.06715 5.67375 4.20146L9.95146 8.47917L14.2292 4.20146C14.3635 4.06715 14.5256 4 14.7154 4C14.9051 4 15.0672 4.06715 15.2015 4.20146C15.3358 4.33576 15.4029 4.49778 15.4029 4.6875C15.4029 4.87736 15.3358 5.03944 15.2015 5.17375L10.9237 9.45146L15.2015 13.7292C15.3358 13.8635 15.4029 14.0256 15.4029 14.2154C15.4029 14.4051 15.3358 14.5672 15.2015 14.7015C15.0672 14.8358 14.9051 14.9029 14.7154 14.9029C14.5256 14.9029 14.3635 14.8358 14.2292 14.7015L9.95146 10.4237Z" fill="var(--connect__icon-fill-color, #2d2d2d)"/>
</svg>