<svg xmlns="http://www.w3.org/2000/svg" xmlns:ns0="http://www.w3.org/2000/svg" viewBox="0 0 30 30"><ns0:path fill="var(--connect__icon-fill-color, #2d2d2d)" fill-rule="evenodd" d="M17.1392 15L23.5569 21.4177C24.1477 22.0084 24.1477 22.9662 23.5569 23.5569C22.9662 24.1477 22.0084 24.1477 21.4177 23.5569L15 17.1392L8.58229 23.5569C7.99155 24.1477 7.03378 24.1477 6.44305 23.5569C5.85232 22.9662 5.85232 22.0084 6.44305 21.4177L12.8608 15L6.44305 8.58229C5.85232 7.99155 5.85232 7.03378 6.44305 6.44305C7.03378 5.85232 7.99155 5.85232 8.58229 6.44305L15 12.8608L21.4177 6.44305C22.0084 5.85232 22.9662 5.85232 23.5569 6.44305C24.1477 7.03378 24.1477 7.99155 23.5569 8.58229L17.1392 15Z" clip-rule="evenodd"/></svg>