<svg xmlns="http://www.w3.org/2000/svg" fill="none" viewBox="0 0 20 20" id="collapseLeftOutline">
    <path fill="var(--connect__icon-fill-color, #2d2d2d)" fill-rule="evenodd"
        d="M4 5h12c.5523 0 1 .44772 1 1v8c0 .5523-.4477 1-1 1H4c-.55228 0-1-.4477-1-1V6c0-.55228.44772-1 1-1Zm12-1c1.1046 0 2 .89543 2 2v8c0 1.1046-.8954 2-2 2H4c-1.10457 0-2-.8954-2-2V6c0-1.10457.89543-2 2-2h12Z"
        clip-rule="evenodd" />
    <path fill="var(--connect__icon-fill-color, #2d2d2d)"
        d="M12.5 4H4c-1.10457 0-2 .89543-2 2v8c0 1.1046.89543 2 2 2h8.5V4Z" />
    <path fill="#fff" fill-rule="evenodd"
        d="M10.0003 10.5H5.00034v-1h4.99996c.2762 0 .5.22386.5.5 0 .2761-.2238.5-.5.5Z"
        clip-rule="evenodd" />
    <path fill="#fff" fill-rule="evenodd"
        d="M7.47499 7.52647c.19526.19526.19526.51184 0 .7071L5.70722 10.0013l1.76777 1.7678c.19526.1953.19526.5119 0 .7071-.19526.1953-.51184.1953-.70711 0l-2.12132-2.1213c-.19526-.1953-.19526-.51185 0-.70711l2.12132-2.12132c.19527-.19527.51185-.19527.70711 0Z"
        clip-rule="evenodd" />
</svg>