<svg xmlns="http://www.w3.org/2000/svg" id="collapse"  viewBox="0 0 20 20" fill="none">
  <path d="M6.43934 12.5H4.75C4.5375 12.5 4.35938 12.4285 4.21563 12.2856C4.07188 12.1427 4 11.9656 4 11.7544C4 11.5431 4.07188 11.3646 4.21563 11.2188C4.35938 11.0729 4.5375 11 4.75 11H8.25C8.4625 11 8.64062 11.0719 8.78438 11.2156C8.92813 11.3594 9 11.5375 9 11.75V15.25C9 15.4625 8.92854 15.6406 8.78562 15.7844C8.64271 15.9281 8.46562 16 8.25437 16C8.04313 16 7.86458 15.9281 7.71875 15.7844C7.57292 15.6406 7.5 15.4625 7.5 15.25V13.5607L5.53033 15.5303C5.23744 15.8232 4.76256 15.8232 4.46967 15.5303C4.17678 15.2374 4.17678 14.7626 4.46967 14.4697L6.43934 12.5Z" fill="var(--connect__icon-fill-color, #2d2d2d)"/>
  <path d="M12.5 6.43934L14.4697 4.46967C14.7626 4.17678 15.2374 4.17678 15.5303 4.46967C15.8232 4.76256 15.8232 5.23744 15.5303 5.53033L13.5607 7.5H15.25C15.4625 7.5 15.6406 7.57146 15.7844 7.71437C15.9281 7.85729 16 8.03437 16 8.24562C16 8.45687 15.9281 8.63542 15.7844 8.78125C15.6406 8.92708 15.4625 9 15.25 9H11.75C11.5375 9 11.3594 8.92813 11.2156 8.78438C11.0719 8.64063 11 8.4625 11 8.25V4.75C11 4.5375 11.0715 4.35937 11.2144 4.21562C11.3573 4.07187 11.5344 4 11.7456 4C11.9569 4 12.1354 4.07187 12.2812 4.21562C12.4271 4.35937 12.5 4.5375 12.5 4.75V6.43934Z" fill="var(--connect__icon-fill-color, #2d2d2d)"/>
</svg>