<svg viewBox="0 0 30 30" id="colon" fill="none" xmlns="http://www.w3.org/2000/svg"><path d="M14.997 14.02c-.32 0-.6-.113-.84-.34-.24-.24-.36-.54-.36-.9 0-.387.12-.693.36-.92.24-.24.52-.36.84-.36.333 0 .613.12.84.36.227.227.34.533.34.92 0 .36-.113.66-.34.9-.227.227-.507.34-.84.34zm0 7.22c-.32 0-.6-.113-.84-.34-.24-.24-.36-.54-.36-.9 0-.387.12-.693.36-.92.24-.24.52-.36.84-.36.333 0 .613.12.84.36.227.227.34.533.34.92 0 .36-.113.66-.34.9-.227.227-.507.34-.84.34z" fill="var(--connect__icon-fill-color, #2d2d2d)"/></svg>