<?xml version='1.0' encoding='utf-8'?>
<svg xmlns:ns0="http://www.w3.org/2000/svg" xmlns="http://www.w3.org/2000/svg" fill="var(--connect__icon-fill-color, #2d2d2d)" viewBox="0 0 30 30"><ns0:path d="M14.5 25C10.3594 25 7 21.6406 7 17.5C7 13.9375 12.0859 7.25391 13.5078 5.45703C13.7422 5.16406 14.0898 5 14.4648 5H14.5352C14.9102 5 15.2578 5.16406 15.4922 5.45703C16.9141 7.25391 22 13.9375 22 17.5C22 21.6406 18.6406 25 14.5 25ZM10.75 18.125C10.75 17.7812 10.4688 17.5 10.125 17.5C9.78125 17.5 9.5 17.7812 9.5 18.125C9.5 20.543 11.457 22.5 13.875 22.5C14.2188 22.5 14.5 22.2188 14.5 21.875C14.5 21.5312 14.2188 21.25 13.875 21.25C12.1484 21.25 10.75 19.8516 10.75 18.125Z" fill="var(--connect__icon-fill-color, #a6a6a6)" />
        </svg>