<?xml version='1.0' encoding='utf-8'?>
<svg xmlns:ns0="http://www.w3.org/2000/svg" xmlns="http://www.w3.org/2000/svg" fill="var(--connect__icon-fill-color, #2d2d2d)" viewBox="0 0 40 40"><ns0:path d="M7 29.9771H33C34.7 29.9771 36 31.2771 36 32.9771C36 34.6771 34.7 35.9771 33 35.9771H7C5.3 35.9771 4 34.6771 4 32.9771C4 31.2771 5.3 29.9771 7 29.9771Z" fill="#E60000" />
            <ns0:path fill-rule="evenodd" clip-rule="evenodd" d="M30.4 9.27707C27 7.87707 24 8.67707 21.4 9.47707C19.2 10.0771 17.4 10.6771 16.2 9.27707C15.8 8.67707 16 8.07707 16.2 7.27707C16.4 6.27707 16.8 5.47707 16.2 4.67707C15.4 3.67707 13.2 3.87707 12 4.67707C8.4 7.07707 6 10.8771 6 15.2771C6 22.4771 12 28.4771 22 28.0771C30 27.7771 33.4 20.8771 33.8 18.9771C34.2 17.0771 34.8 11.2771 30.4 9.27707ZM11.8 17.0771C10.4 17.0771 9.4 16.2771 9.4 14.8771C9.4 13.4771 10.4 12.6771 11.8 12.6771C13.2 12.6771 14.2 13.4771 14.2 14.8771C14.2 16.2771 13.2 17.0771 11.8 17.0771ZM13 21.4771C13 22.6771 14 23.6771 15.4 23.6771C16.8 23.6771 17.8 22.8771 17.8 21.4771C17.8 20.2771 16.8 19.2771 15.4 19.2771C14 19.2771 13 20.2771 13 21.4771ZM23 25.4771C21.6 25.4771 20.6 24.6771 20.6 23.2771C20.6 22.0771 21.6 21.0771 23 21.0771C24.4 21.0771 25.4 21.8771 25.4 23.2771C25.4 24.6771 24.4 25.4771 23 25.4771ZM23.6 16.0771C23.6 17.8771 25.2 19.2771 27.2 19.2771C29.2 19.2771 30.8 17.8771 30.8 16.0771C30.8 14.2771 29.2 12.8771 27.2 12.8771C25.2 12.8771 23.6 14.2771 23.6 16.0771Z" fill="currentcolor" />
        </svg>