<?xml version='1.0' encoding='utf-8'?>
<svg xmlns:ns0="http://www.w3.org/2000/svg" xmlns="http://www.w3.org/2000/svg" fill="var(--connect__icon-fill-color, #2d2d2d)" viewBox="0 0 30 30"><ns0:path fill-rule="evenodd" clip-rule="evenodd" d="M15 24C19.9706 24 24 19.9706 24 15C24 10.0294 19.9706 6 15 6C10.0294 6 6 10.0294 6 15C6 19.9706 10.0294 24 15 24ZM10.5 14.8125C10.5 14.3656 10.1625 14 9.75 14C9.3375 14 9 14.3656 9 14.8125C9 17.9559 11.3484 20.5 14.25 20.5C14.6625 20.5 15 20.1344 15 19.6875C15 19.2406 14.6625 18.875 14.25 18.875C12.1781 18.875 10.5 17.057 10.5 14.8125Z" fill="var(--connect__icon-fill-color, #a6a6a6)" />
        </svg>