<svg xmlns="http://www.w3.org/2000/svg" id="color" viewBox="0 0 20 20" fill="none">
  <path d="M10.205 18C7.14727 18 4.6665 15.3125 4.6665 12C4.6665 9.15 8.42227 3.80313 9.47227 2.36563C9.64535 2.13125 9.90208 2 10.179 2H10.2309C10.5078 2 10.7646 2.13125 10.9377 2.36563C11.9877 3.80313 15.7434 9.15 15.7434 12C15.7434 15.3125 13.2627 18 10.205 18ZM7.43573 12.5C7.43573 12.225 7.22804 12 6.9742 12C6.72035 12 6.51266 12.225 6.51266 12.5C6.51266 14.4344 7.95785 16 9.74343 16C9.99727 16 10.205 15.775 10.205 15.5C10.205 15.225 9.99727 15 9.74343 15C8.46843 15 7.43573 13.8813 7.43573 12.5Z" fill="var(--connect__icon-fill-color, #2d2d2d)"/>
</svg>