<svg width="30" height="30" viewBox="0 0 30 30" fill="none" xmlns="http://www.w3.org/2000/svg">
<path d="M15.3077 27C10.7212 27 7 22.9688 7 18C7 13.725 12.6337 5.70469 14.2087 3.54844C14.4683 3.19688 14.8534 3 15.2687 3H15.3466C15.762 3 16.1471 3.19688 16.4067 3.54844C17.9817 5.70469 23.6154 13.725 23.6154 18C23.6154 22.9688 19.8942 27 15.3077 27ZM11.1538 18.75C11.1538 18.3375 10.8423 18 10.4615 18C10.0808 18 9.76923 18.3375 9.76923 18.75C9.76923 21.6516 11.937 24 14.6154 24C14.9962 24 15.3077 23.6625 15.3077 23.25C15.3077 22.8375 14.9962 22.5 14.6154 22.5C12.7029 22.5 11.1538 20.8219 11.1538 18.75Z" fill="#2D2D2D"/>
</svg>
