<svg xmlns="http://www.w3.org/2000/svg" fill="none" viewBox="0 0 20 20" id="commonError">
    <g clip-path="url(#a)">
        <path fill="var(--connect__icon-fill-color, #2d2d2d)"
            d="M10 18c4.4183 0 8-3.5817 8-8 0-4.41828-3.5817-8-8-8-4.41828 0-8 3.58172-8 8 0 4.4183 3.58172 8 8 8Z" />
        <path fill="#fff" fill-rule="evenodd"
            d="M10.5696 4.74546c-.2368-.4736-.90881-.4736-1.14561 0l-4.0832 8.16644c-.2112.4224.096.928.5696.928h8.16641c.4736 0 .7872-.4992.5696-.928l-4.0832-8.16644h.0064ZM6.26239 12.9887l3.7376-7.48164 3.73761 7.48164H6.26239Zm3.7376-.768c-.3328 0-.5888-.256-.5888-.5888s.256-.5888.5888-.5888c.33281 0 .58881.256.58881.5888s-.256.5888-.58881.5888Zm.58881-4.08964c-.0256-.2112-.3328-.3712-.5824-.3712-.26881 0-.58881.1856-.58881.416l.096 1.90724v.0512c.032.2112.2368.3712.4864.3712.26881 0 .48641-.1856.48641-.416l.096-1.90724v-.0512h.0064Z"
            clip-rule="evenodd" />
    </g>
    <defs>
        <clipPath id="a">
            <path fill="#fff" d="M0 0h20v20H0z" />
        </clipPath>
    </defs>
</svg>