<svg xmlns="http://www.w3.org/2000/svg" viewBox="0 0 20 20" fill="none" id="commonError">
    <g clip-path="url(#a)">
        <path fill="#CC00C0" d="M10 18a8 8 0 1 0 0-16 8 8 0 0 0 0 16Z" />
        <path fill="#fff" fill-rule="evenodd"
            d="M10.57 4.745a.64.64 0 0 0-1.146 0l-4.083 8.167a.642.642 0 0 0 .57.928h8.166c.473 0 .787-.5.57-.928l-4.084-8.167h.007ZM6.262 12.99 10 5.507l3.738 7.482H6.262ZM10 12.22a.58.58 0 0 1-.589-.59.58.58 0 0 1 .589-.588.58.58 0 0 1 .589.589.58.58 0 0 1-.589.589Zm.589-4.09c-.026-.211-.333-.371-.583-.371-.268 0-.588.185-.588.416l.096 1.907v.051c.032.211.236.371.486.371.269 0 .486-.185.486-.416l.096-1.907v-.05h.007Z"
            clip-rule="evenodd" />
    </g>
    <defs>
        <clipPath id="a">
            <path fill="#fff" d="M0 0h20v20H0z" />
        </clipPath>
    </defs>
</svg>