<?xml version='1.0' encoding='utf-8'?>
<svg xmlns:ns0="http://www.w3.org/2000/svg" xmlns="http://www.w3.org/2000/svg" viewBox="0 0 32 33"><ns0:g id="Feedback / Correct">
                <ns0:g id="5-8 Correct (Stroke)" filter="url(#filter0_ddd_2025_6409)">
                    <ns0:path fill-rule="evenodd" clip-rule="evenodd" d="M23.2856 3.00003C24.0865 3.00003 24.8542 3.3203 25.4177 3.88952L28.1322 6.63181C29.2894 7.80087 29.2894 9.68377 28.1322 10.8528C25.5118 13.5 21.9859 18.2108 17.5737 25.1283L15.9887 27.6133C15.4423 28.4699 14.4996 28.9917 13.4837 28.9999C12.4678 29.0082 11.5167 28.5017 10.9566 27.6541L9.3317 25.1955C7.85059 22.9543 6.2903 21.5894 4.70935 20.8359C3.222 20.127 2.58475 18.3512 3.28198 16.8583L4.92008 13.3509C5.25849 12.6263 5.87221 12.0668 6.62494 11.7967C7.37768 11.5266 8.2071 11.5682 8.92902 11.9123C10.3264 12.5783 11.6291 13.4186 12.8389 14.4179C15.9476 9.88149 18.7164 6.35153 21.1535 3.88952C21.717 3.3203 22.4847 3.00003 23.2856 3.00003ZM15.0382 16.517C14.4772 17.3412 13.9027 18.2016 13.3147 19.0983C12.6301 18.2929 11.9104 17.567 11.1556 16.9218C10.8501 16.6606 10.5389 16.4126 10.2219 16.1779C9.39927 15.5689 8.53804 15.0493 7.63824 14.6204L6.00014 18.1278C8.10456 19.1308 9.98648 20.8304 11.6472 23.2625C11.7099 23.3544 11.7724 23.4474 11.8345 23.5414L13.4594 26L15.0444 23.515C15.105 23.4201 15.1654 23.3256 15.2256 23.2314C19.5807 16.4254 23.1849 11.5864 26.0001 8.74232L23.2856 6.00003C22.6412 6.65097 21.9654 7.38948 21.2577 8.21582C19.405 10.3793 17.3339 13.1448 15.0382 16.517Z" fill="white" />
                </ns0:g>
                <ns0:path id="5-8 Correct" d="M23.2855 6L26 8.74229C23.1458 11.6257 19.4807 16.5596 15.0443 23.515L13.4592 26L11.8344 23.5414C10.1283 20.9598 8.18395 19.1687 6 18.1278L7.6381 14.6204C9.7412 15.6228 11.6336 17.1208 13.3146 19.0982C17.2275 13.1309 20.5418 8.77167 23.2855 6Z" fill="#00AD00" />
            </ns0:g>
            <ns0:defs>
                <ns0:filter id="filter0_ddd_2025_6409" x="-0.000549316" y="1.00003" width="32.0007" height="32" filterUnits="userSpaceOnUse" color-interpolation-filters="sRGB">
                    <ns0:feFlood flood-opacity="0" result="BackgroundImageFix" />
                    <ns0:feColorMatrix in="SourceAlpha" type="matrix" values="0 0 0 0 0 0 0 0 0 0 0 0 0 0 0 0 0 0 127 0" result="hardAlpha" />
                    <ns0:feOffset dy="1" />
                    <ns0:feGaussianBlur stdDeviation="1.5" />
                    <ns0:feComposite in2="hardAlpha" operator="out" />
                    <ns0:feColorMatrix type="matrix" values="0 0 0 0 0 0 0 0 0 0 0 0 0 0 0 0 0 0 0.12 0" />
                    <ns0:feBlend mode="normal" in2="BackgroundImageFix" result="effect1_dropShadow_2025_6409" />
                    <ns0:feColorMatrix in="SourceAlpha" type="matrix" values="0 0 0 0 0 0 0 0 0 0 0 0 0 0 0 0 0 0 127 0" result="hardAlpha" />
                    <ns0:feOffset dy="1" />
                    <ns0:feGaussianBlur stdDeviation="0.5" />
                    <ns0:feComposite in2="hardAlpha" operator="out" />
                    <ns0:feColorMatrix type="matrix" values="0 0 0 0 0 0 0 0 0 0 0 0 0 0 0 0 0 0 0.14 0" />
                    <ns0:feBlend mode="normal" in2="effect1_dropShadow_2025_6409" result="effect2_dropShadow_2025_6409" />
                    <ns0:feColorMatrix in="SourceAlpha" type="matrix" values="0 0 0 0 0 0 0 0 0 0 0 0 0 0 0 0 0 0 127 0" result="hardAlpha" />
                    <ns0:feOffset dy="2" />
                    <ns0:feGaussianBlur stdDeviation="0.5" />
                    <ns0:feComposite in2="hardAlpha" operator="out" />
                    <ns0:feColorMatrix type="matrix" values="0 0 0 0 0 0 0 0 0 0 0 0 0 0 0 0 0 0 0.2 0" />
                    <ns0:feBlend mode="normal" in2="effect2_dropShadow_2025_6409" result="effect3_dropShadow_2025_6409" />
                    <ns0:feBlend mode="normal" in="SourceGraphic" in2="effect3_dropShadow_2025_6409" result="shape" />
                </ns0:filter>
            </ns0:defs>
        </svg>