<svg xmlns="http://www.w3.org/2000/svg" id="counter" viewBox="0 0 20 20" fill="none">
  <path fill-rule="evenodd" clip-rule="evenodd" d="M10.0002 2.66665C5.95007 2.66665 2.66683 5.94989 2.66683 9.99998C2.66683 14.0501 5.95008 17.3333 10.0002 17.3333C14.0503 17.3333 17.3335 14.0501 17.3335 9.99998C17.3335 5.94989 14.0502 2.66665 10.0002 2.66665ZM13.6641 10.1528C13.6641 10.5169 13.9391 10.8149 14.2752 10.8149C14.6113 10.8149 14.8863 10.5169 14.8863 10.1528C14.8863 7.59155 12.9727 5.51856 10.6085 5.51856C10.2724 5.51856 9.9974 5.81648 9.9974 6.1806C9.9974 6.54471 10.2724 6.84264 10.6085 6.84264C12.2967 6.84264 13.6641 8.32394 13.6641 10.1528Z" fill="var(--connect__icon-fill-color, #2d2d2d)"/>
</svg>