<svg width="30" height="30" viewBox="0 0 30 30" fill="none" xmlns="http://www.w3.org/2000/svg">
<path fill-rule="evenodd" clip-rule="evenodd" d="M15 4C8.92487 4 4 8.92487 4 15C4 21.0751 8.92487 26 15 26C21.0751 26 26 21.0751 26 15C26 8.92487 21.0751 4 15 4ZM20.4959 15.2293C20.4959 15.7754 20.9084 16.2223 21.4125 16.2223C21.9167 16.2223 22.3292 15.7754 22.3292 15.2293C22.3292 11.3874 19.4589 8.27787 15.9125 8.27787C15.4084 8.27787 14.9959 8.72476 14.9959 9.27093C14.9959 9.8171 15.4084 10.264 15.9125 10.264C18.4448 10.264 20.4959 12.4859 20.4959 15.2293Z" fill="#2D2D2D"/>
</svg>
