<svg viewBox="0 0 30 30" id="degree" fill="none" xmlns="http://www.w3.org/2000/svg"><path d="M19.219 10.732c0 .534.189.993.566 1.377.384.378.843.567 1.377.567.54 0 1-.189 1.377-.567.378-.384.566-.843.566-1.377 0-.54-.188-.999-.566-1.377a1.874 1.874 0 0 0-1.377-.566c-.534 0-.993.189-1.377.566a1.874 1.874 0 0 0-.566 1.377zm-.899 0c0-.787.277-1.458.83-2.011a2.74 2.74 0 0 1 2.012-.83 2.74 2.74 0 0 1 2.012.83c.56.553.84 1.224.84 2.011 0 .788-.28 1.462-.84 2.022a2.74 2.74 0 0 1-2.012.83 2.74 2.74 0 0 1-2.012-.83 2.772 2.772 0 0 1-.83-2.022zM12.969 14.377c0-.469-.108-.814-.322-1.035a1.048 1.048 0 0 0-.782-.332c-1.061 0-2.047.814-2.959 2.441-.8 1.433-1.2 2.666-1.2 3.701 0 .521.11.902.331 1.143.228.234.508.351.84.351.983 0 1.93-.79 2.842-2.373.833-1.438 1.25-2.737 1.25-3.896zm-1.221-1.807c.514 0 .912.134 1.192.4.15.144.266.333.351.567l.049.137.215-.742a.627.627 0 0 1 .068-.166c.02-.033.065-.053.137-.059l1.103-.127c.059 0 .091.013.098.04.013.019.013.058 0 .116a4.333 4.333 0 0 0-.059.205l-.058.205-.899 3.497c-.195.761-.361 1.419-.498 1.972-.24 1.003-.361 1.576-.361 1.719 0 .091.023.16.068.205a.3.3 0 0 0 .186.059c.058 0 .12-.02.185-.059a1.83 1.83 0 0 0 .254-.176l.166-.136.176-.157.234-.234.606-.625.234.205c-.677.866-1.22 1.455-1.63 1.768-.41.306-.801.459-1.172.459a.688.688 0 0 1-.567-.254 1.01 1.01 0 0 1-.195-.635c0-.235.042-.57.127-1.006a16.2 16.2 0 0 1 .264-1.113c-.118.195-.316.481-.596.86a6.8 6.8 0 0 1-1.016 1.083c-.475.423-.93.723-1.367.899a2.98 2.98 0 0 1-.977.175c-.527 0-1.005-.215-1.435-.644-.43-.436-.645-1.052-.645-1.846 0-1.367.612-2.793 1.836-4.277 1.263-1.543 2.572-2.315 3.926-2.315z" fill="var(--connect__icon-fill-color, #2d2d2d)"/></svg>