<svg xmlns="http://www.w3.org/2000/svg" id="desmos" fill="none" viewBox="0 0 40 40">
  <path fill="var(--connect__icon-fill-color, #2d2d2d)" fill-rule="evenodd" d="M10.98 3C8.786 3 7 4.842 7 7.08v25.84C7 35.158 8.8 37 10.98 37h18.942c2.195 0 3.98-1.842 3.98-4.08V7.08c0-2.238-1.799-4.08-3.98-4.08H10.98Zm.794 3.23h17.368c.879 0 1.616.75 1.616 1.657v4.846c0 .906-.737 1.657-1.616 1.657H11.774c-.878 0-1.615-.75-1.615-1.658V7.888c0-.907.737-1.658 1.615-1.658Zm.794 9.69c1.317 0 2.408 1.12 2.408 2.465 0 1.346-1.091 2.465-2.409 2.465-1.317 0-2.408-1.12-2.408-2.465 0-1.346 1.091-2.465 2.409-2.465Zm7.89 0c1.318 0 2.409 1.12 2.409 2.465 0 1.346-1.091 2.465-2.409 2.465-1.317 0-2.408-1.12-2.408-2.465 0-1.346 1.09-2.465 2.408-2.465Zm7.891 0c1.318 0 2.409 1.12 2.409 2.465 0 1.346-1.091 2.465-2.409 2.465-1.317 0-2.408-1.12-2.408-2.465 0-1.346 1.09-2.465 2.408-2.465Zm-15.781 6.46c1.317 0 2.408 1.12 2.408 2.465 0 1.346-1.091 2.465-2.409 2.465-1.317 0-2.408-1.12-2.408-2.465 0-1.346 1.091-2.465 2.409-2.465Zm7.89 0c1.318 0 2.409 1.12 2.409 2.465 0 1.346-1.091 2.465-2.409 2.465-1.317 0-2.408-1.12-2.408-2.465 0-1.346 1.09-2.465 2.408-2.465Zm7.891 0c1.318 0 2.409 1.12 2.409 2.465v6.46c0 1.36-1.091 2.465-2.409 2.465-1.317 0-2.408-1.12-2.408-2.465v-6.46c0-1.36 1.09-2.465 2.408-2.465Zm-15.781 6.46c1.317 0 2.408 1.12 2.408 2.465 0 1.346-1.091 2.465-2.409 2.465-1.317 0-2.408-1.12-2.408-2.465 0-1.346 1.091-2.465 2.409-2.465Zm7.89 0c1.318 0 2.409 1.12 2.409 2.465 0 1.346-1.091 2.465-2.409 2.465-1.317 0-2.408-1.12-2.408-2.465 0-1.346 1.09-2.465 2.408-2.465Z" clip-rule="evenodd"/>
  <path fill="var(--connect__icon-fill-color, #2d2d2d)" fill-rule="evenodd" d="M18.98 7.924a.75.75 0 0 1 .096 1.056l-2.5 3a.75.75 0 0 1-1.106.05l-1.353-1.353-1.493 2.239a.75.75 0 1 1-1.248-.832l2-3a.75.75 0 0 1 1.154-.114l1.42 1.419 1.974-2.37a.75.75 0 0 1 1.056-.095Z" clip-rule="evenodd"/>
</svg>