<svg xmlns="http://www.w3.org/2000/svg" id="desmos" viewBox="0 0 20 20" fill="none">
  <path fill-rule="evenodd" clip-rule="evenodd" d="M5.77567 2C4.79621 2 4 2.86667 4 3.92V16.08C4 17.1333 4.80253 18 5.77567 18H14.2243C15.2038 18 16 17.1333 16 16.08V3.92C16 2.86667 15.1975 2 14.2243 2H5.77567ZM6.12954 3.52H13.8768C14.2686 3.52 14.5972 3.87333 14.5972 4.3V6.58C14.5972 7.00667 14.2686 7.36 13.8768 7.36H6.12954C5.73776 7.36 5.40916 7.00667 5.40916 6.58V4.3C5.40916 3.87333 5.73776 3.52 6.12954 3.52ZM6.48341 8.08C7.07109 8.08 7.55766 8.60667 7.55766 9.24C7.55766 9.87333 7.07109 10.4 6.48341 10.4C5.89573 10.4 5.40916 9.87333 5.40916 9.24C5.40916 8.60667 5.89573 8.08 6.48341 8.08ZM10.0032 8.08C10.5908 8.08 11.0774 8.60667 11.0774 9.24C11.0774 9.87333 10.5908 10.4 10.0032 10.4C9.41548 10.4 8.92891 9.87333 8.92891 9.24C8.92891 8.60667 9.41548 8.08 10.0032 8.08ZM13.5229 8.08C14.1106 8.08 14.5972 8.60667 14.5972 9.24C14.5972 9.87333 14.1106 10.4 13.5229 10.4C12.9352 10.4 12.4487 9.87333 12.4487 9.24C12.4487 8.60667 12.9352 8.08 13.5229 8.08ZM6.48341 11.12C7.07109 11.12 7.55766 11.6467 7.55766 12.28C7.55766 12.9133 7.07109 13.44 6.48341 13.44C5.89573 13.44 5.40916 12.9133 5.40916 12.28C5.40916 11.6467 5.89573 11.12 6.48341 11.12ZM10.0032 11.12C10.5908 11.12 11.0774 11.6467 11.0774 12.28C11.0774 12.9133 10.5908 13.44 10.0032 13.44C9.41548 13.44 8.92891 12.9133 8.92891 12.28C8.92891 11.6467 9.41548 11.12 10.0032 11.12ZM13.5229 11.12C14.1106 11.12 14.5972 11.6467 14.5972 12.28V15.32C14.5972 15.96 14.1106 16.48 13.5229 16.48C12.9352 16.48 12.4487 15.9533 12.4487 15.32V12.28C12.4487 11.64 12.9352 11.12 13.5229 11.12ZM6.48341 14.16C7.07109 14.16 7.55766 14.6867 7.55766 15.32C7.55766 15.9533 7.07109 16.48 6.48341 16.48C5.89573 16.48 5.40916 15.9533 5.40916 15.32C5.40916 14.6867 5.89573 14.16 6.48341 14.16ZM10.0032 14.16C10.5908 14.16 11.0774 14.6867 11.0774 15.32C11.0774 15.9533 10.5908 16.48 10.0032 16.48C9.41548 16.48 8.92891 15.9533 8.92891 15.32C8.92891 14.6867 9.41548 14.16 10.0032 14.16Z" fill="var(--connect__icon-fill-color, #2d2d2d)"/>
  <path fill-rule="evenodd" clip-rule="evenodd" d="M9.3438 4.3171C9.48574 4.44189 9.50492 4.66444 9.38664 4.81418L8.2715 6.22595C8.21133 6.30213 8.12355 6.34808 8.02966 6.35258C7.93576 6.35707 7.8444 6.31969 7.77794 6.24957L7.17438 5.61281L6.50863 6.66636C6.40614 6.82855 6.19844 6.87238 6.04471 6.76425C5.89097 6.65613 5.84943 6.437 5.95192 6.27481L6.84403 4.86305C6.89963 4.77507 6.98968 4.71802 7.08942 4.7076C7.18916 4.69718 7.28807 4.73449 7.35894 4.80926L7.99202 5.47715L8.87263 4.36229C8.99092 4.21254 9.20186 4.19231 9.3438 4.3171Z" fill="var(--connect__icon-fill-color, #2d2d2d)"/>
</svg>

