<svg viewBox="0 0 30 30" id="division" fill="none" xmlns="http://www.w3.org/2000/svg"><path d="M10.71 15.503v-1.24h8.58v1.24h-8.58zm4.3 4.06c-.306 0-.566-.1-.78-.3-.212-.2-.32-.46-.32-.78 0-.307.108-.56.32-.76.214-.2.474-.3.78-.3.308 0 .56.1.76.3.214.2.32.453.32.76 0 .32-.106.58-.32.78-.2.2-.452.3-.76.3zm0-7.2c-.306 0-.566-.1-.78-.3-.212-.2-.32-.46-.32-.78 0-.307.108-.56.32-.76.214-.2.474-.3.78-.3.308 0 .56.1.76.3.214.2.32.453.32.76 0 .32-.106.58-.32.78-.2.2-.452.3-.76.3z" fill="var(--connect__icon-fill-color, #2d2d2d)"/></svg>