<svg viewBox="0 0 30 30" id="dollar" fill="none" xmlns="http://www.w3.org/2000/svg"><path d="M15.01 21.24c-.76 0-1.486-.14-2.18-.42-.68-.294-1.24-.694-1.68-1.2l.78-1.02c.414.386.874.7 1.38.94a4.21 4.21 0 0 0 1.7.34c.734 0 1.287-.2 1.66-.6.374-.4.56-.928.56-1.58 0-.468-.133-.868-.4-1.2a3.786 3.786 0 0 0-1.04-.88c-.426-.268-.88-.528-1.36-.78a15.323 15.323 0 0 1-1.34-.86 3.995 3.995 0 0 1-1.04-1.08c-.266-.414-.4-.92-.4-1.52 0-.668.147-1.254.44-1.76a3.16 3.16 0 0 1 1.26-1.18c.547-.294 1.174-.44 1.88-.44.774 0 1.427.146 1.96.44a4.66 4.66 0 0 1 1.4 1.14l-.88.9a3.119 3.119 0 0 0-1.06-.82c-.386-.188-.853-.28-1.4-.28-.6 0-1.08.18-1.44.54-.36.346-.54.806-.54 1.38 0 .426.134.792.4 1.1.267.306.614.586 1.04.84.427.24.874.486 1.34.74.48.252.934.54 1.36.86.427.306.774.68 1.04 1.12.267.44.4.98.4 1.62 0 .732-.16 1.372-.48 1.92a3.35 3.35 0 0 1-1.34 1.28c-.573.306-1.246.46-2.02.46zm-.46 1.96v-2.54h1.2v2.54h-1.2zm0-14.58V6.04h1.2v2.58h-1.2z" fill="var(--connect__icon-fill-color, #2d2d2d)"/></svg>