<svg width="30" height="30" viewBox="0 0 30 30" fill="none" xmlns="http://www.w3.org/2000/svg">
<path fill-rule="evenodd" clip-rule="evenodd" d="M26.6387 25.3997C23.5707 23.3501 19.5274 23.1052 14.6209 24.5126C10.3764 25.7301 7.1822 25.4673 4.91001 23.8875C4.28651 23.454 3.42965 23.6081 2.99615 24.2316C2.56265 24.8551 2.71668 25.7119 3.34017 26.1454C6.41028 28.28 10.464 28.5659 15.3791 27.156C19.6322 25.936 22.8368 26.167 25.1111 27.6864C25.7425 28.1082 26.5964 27.9383 27.0182 27.3069C27.4401 26.6754 27.2701 25.8216 26.6387 25.3997Z" fill="#2D2D2D"/>
<path d="M6.57303 20.5146L8.11493 20.7111L19.4969 11.9004L18.1638 10.1695L6.76721 18.9916L6.57303 20.5146ZM5.04121 22.8112C4.6973 22.7674 4.42209 22.6121 4.21557 22.3453C4.00924 22.0784 3.92801 21.7729 3.97187 21.4289L4.3232 18.6734C4.36477 18.3473 4.46591 18.0436 4.62663 17.7621C4.78715 17.4808 4.99577 17.2409 5.2525 17.0423L20.4719 5.27941C20.7229 5.09745 20.9922 4.96784 21.2798 4.89059C21.5672 4.81332 21.8611 4.79383 22.1614 4.83211C22.4573 4.86985 22.7393 4.96276 23.0073 5.11085C23.2751 5.25891 23.5021 5.45874 23.6883 5.71031L25.2216 7.70111C25.4188 7.94022 25.552 8.20876 25.6209 8.50673C25.6899 8.80452 25.7061 9.09677 25.6696 9.38348C25.6313 9.68384 25.5419 9.965 25.4016 10.227C25.2612 10.4891 25.0647 10.718 24.812 10.9136L9.62031 22.6735C9.36374 22.8722 9.07912 23.014 8.76644 23.0989C8.45393 23.1839 8.1347 23.2056 7.80875 23.1641L5.04121 22.8112ZM18.8192 11.0406L18.1638 10.1695L19.4969 11.9004L18.8192 11.0406Z" fill="#2D2D2D"/>
</svg>
