<svg xmlns="http://www.w3.org/2000/svg" id="drawTool" fill="none" viewBox="0 0 30 30">
  <path fill="var(--connect__icon-fill-color, #2d2d2d)" fill-rule="evenodd" d="M26.639 25.4c-3.068-2.05-7.112-2.295-12.018-.887-4.245 1.217-7.439.954-9.711-.626a1.375 1.375 0 0 0-1.57 2.258c3.07 2.135 7.124 2.42 12.04 1.011 4.252-1.22 7.457-.989 9.731.53A1.375 1.375 0 0 0 26.64 25.4Z" clip-rule="evenodd"/>
  <path fill="var(--connect__icon-fill-color, #2d2d2d)" d="m6.573 20.515 1.542.196 11.382-8.81-1.333-1.732-11.397 8.823-.194 1.523ZM5.041 22.81a1.191 1.191 0 0 1-.825-.466 1.195 1.195 0 0 1-.244-.916l.351-2.756a2.443 2.443 0 0 1 .93-1.63L20.471 5.278c.25-.182.52-.311.808-.388a2.25 2.25 0 0 1 .881-.059c.296.038.578.13.846.279.268.148.495.348.681.6l1.534 1.99c.197.24.33.508.399.806a2.42 2.42 0 0 1-.22 1.72c-.14.262-.336.491-.589.687L9.62 22.674a2.44 2.44 0 0 1-1.812.49l-2.767-.353Zm13.778-11.77-.655-.872 1.333 1.731-.678-.86Z"/>
</svg>

