<svg xmlns="http://www.w3.org/2000/svg" id="draw" viewBox="0 0 20 20" fill="none">
  <path d="M4.38197 13.6764L5.4099 13.8074L12.9979 7.93356L12.1091 6.77965L4.51142 12.661L4.38197 13.6764ZM3.36075 15.2075C3.13148 15.1782 2.94801 15.0747 2.81032 14.8968C2.67277 14.7189 2.61862 14.5153 2.64786 14.2859L2.88208 12.4489C2.90979 12.2315 2.97722 12.029 3.08437 11.8414C3.19138 11.6538 3.33046 11.4939 3.50161 11.3615L13.6479 3.51959C13.8152 3.39828 13.9947 3.31187 14.1865 3.26037C14.3781 3.20886 14.574 3.19587 14.7742 3.22139C14.9715 3.24654 15.1595 3.30848 15.3381 3.40721C15.5167 3.50592 15.668 3.63914 15.7922 3.80685L16.8143 5.13405C16.9458 5.29346 17.0346 5.47249 17.0806 5.67113C17.1265 5.86966 17.1374 6.06449 17.113 6.25563C17.0875 6.45587 17.0279 6.64331 16.9343 6.81796C16.8408 6.99273 16.7097 7.14532 16.5413 7.27573L6.41349 15.1156C6.24244 15.2481 6.05269 15.3427 5.84424 15.3992C5.6359 15.4559 5.42307 15.4704 5.20578 15.4427L3.36075 15.2075ZM12.5461 7.36041L12.1091 6.77965L12.9979 7.93356L12.5461 7.36041Z" fill="var(--connect__icon-fill-color, #2d2d2d)"/>
  <path fill-rule="evenodd" clip-rule="evenodd" d="M17.7588 16.9332C15.7135 15.5668 13.018 15.4035 9.74694 16.3418C6.91727 17.1534 4.78782 16.9783 3.27303 15.9251C2.85736 15.6361 2.28612 15.7388 1.99712 16.1544C1.70812 16.5701 1.81081 17.1413 2.22647 17.4303C4.27321 18.8534 6.97566 19.0439 10.2524 18.104C13.0878 17.2907 15.2242 17.4447 16.7404 18.4576C17.1614 18.7389 17.7306 18.6256 18.0118 18.2046C18.2931 17.7837 18.1798 17.2144 17.7588 16.9332Z" fill="var(--connect__icon-fill-color, #2d2d2d)"/>
</svg>