<?xml version='1.0' encoding='utf-8'?>
<svg xmlns:ns0="http://www.w3.org/2000/svg" xmlns="http://www.w3.org/2000/svg" viewBox="0 0 30 30"><ns0:path d="M7.32193 22.627C9.31217 24.0107 11.9567 24.2096 15.2069 23.2773C18.0644 22.4577 20.259 22.6007 21.8334 23.6526C22.1779 23.8827 22.6436 23.79 22.8737 23.4456C23.1038 23.1011 23.0111 22.6354 22.6667 22.4053C20.6777 21.0765 18.0389 20.9045 14.7933 21.8355C11.9403 22.6539 9.75147 22.4893 8.17821 21.3954C7.83811 21.159 7.37073 21.243 7.13428 21.5831C6.89782 21.9232 6.98184 22.3905 7.32193 22.627Z" fill="var(--connect__icon-fill-color, #2d2d2d)" />
            <ns0:path d="M13.5813 9.84375L7.24375 16.1812C7.08125 16.3437 7 16.5062 7 16.75V19.1875C7 19.675 7.325 20 7.8125 20H10.25C10.4938 20 10.6562 19.9187 10.8187 19.7562L17.1562 13.4187L13.5813 9.84375Z" fill="var(--connect__icon-fill-color, #2d2d2d)" />
            <ns0:path d="M19.7562 9.68125L17.3187 7.24375C16.9937 6.91875 16.5062 6.91875 16.1812 7.24375L14.7188 8.70625L18.2937 12.2812L19.7562 10.8187C20.0812 10.4937 20.0812 10.0062 19.7562 9.68125Z" fill="var(--connect__icon-fill-color, #2d2d2d)" />
        </svg>