<svg viewBox="0 0 30 30" id="eight" fill="none" xmlns="http://www.w3.org/2000/svg"><path d="M15.018 21.623c-.8 0-1.52-.147-2.16-.44-.627-.307-1.12-.727-1.48-1.26a3.144 3.144 0 0 1-.54-1.8c0-.56.113-1.053.34-1.48.24-.44.54-.82.9-1.14a5.95 5.95 0 0 1 1.16-.82v-.08a5.655 5.655 0 0 1-1.24-1.22c-.36-.48-.54-1.053-.54-1.72 0-.654.16-1.227.48-1.72.32-.494.747-.874 1.28-1.14.547-.28 1.167-.42 1.86-.42 1.107 0 1.98.32 2.62.96.653.626.98 1.44.98 2.44 0 .44-.093.86-.28 1.26-.187.387-.413.74-.68 1.06-.267.306-.533.56-.8.76v.08c.373.213.727.466 1.06.76.347.293.627.646.84 1.06.213.4.32.886.32 1.46 0 .627-.173 1.2-.52 1.72-.333.506-.813.913-1.44 1.22-.613.306-1.333.46-2.16.46zm.9-7.2c.44-.387.773-.793 1-1.22.227-.427.34-.873.34-1.34 0-.413-.087-.787-.26-1.12a1.96 1.96 0 0 0-.76-.82c-.333-.214-.733-.32-1.2-.32-.587 0-1.08.193-1.48.58-.387.373-.58.867-.58 1.48 0 .506.133.926.4 1.26.28.333.64.62 1.08.86.453.226.94.44 1.46.64zm-.86 5.98c.493 0 .927-.093 1.3-.28.373-.187.667-.447.88-.78.213-.347.32-.74.32-1.18 0-.547-.16-.994-.48-1.34-.32-.347-.74-.64-1.26-.88a27.299 27.299 0 0 0-1.72-.76 5.001 5.001 0 0 0-1.28 1.2c-.333.466-.5.993-.5 1.58 0 .466.12.886.36 1.26.24.36.567.646.98.86.413.213.88.32 1.4.32z" fill="var(--connect__icon-fill-color, #2d2d2d)"/></svg>