<?xml version='1.0' encoding='utf-8'?>
<svg xmlns:ns0="http://www.w3.org/2000/svg" xmlns="http://www.w3.org/2000/svg" fill="var(--connect__icon-fill-color, #2d2d2d)" viewBox="0 0 40 40"><ns0:path d="M32.727 12.0649L26.1951 5.39969C24.3288 3.53344 21.3961 3.53344 19.6632 5.39969L5.39969 19.6632C3.53344 21.5294 3.53344 24.4621 5.39969 26.1951L11.9316 32.727C12.8647 33.6601 13.9311 34.06 15.2642 34.06C16.5972 34.06 17.6636 33.5268 18.5968 32.727L32.727 18.5968C33.6601 17.6636 34.06 16.5972 34.06 15.2642C34.06 14.0644 33.5268 12.998 32.727 12.0649ZM15.6641 29.9276C15.5308 30.0609 15.2642 30.0609 15.1309 30.0609C14.9976 30.0609 14.8643 30.0609 14.5977 29.9276L8.19907 23.3957C7.93246 23.1291 7.93246 22.7292 8.19907 22.4626L14.0644 16.5972L21.6628 24.0622L15.6641 29.9276Z" fill="currentcolor" />
            <ns0:path d="M31.5273 32.327H16.1974L12.1982 32.9935L15.6641 36.3261H31.5273C32.5937 36.3261 33.5268 35.393 33.5268 34.3266C33.5268 33.2602 32.727 32.327 31.5273 32.327Z" fill="currentcolor" />
        </svg>