<svg viewBox="0 0 20 20" fill="none" xmlns="http://www.w3.org/2000/svg" id="expandLeftFilled">
<path fill-rule="evenodd" clip-rule="evenodd" d="M15 15H13L13 5H15C16.1046 5 17 5.89543 17 7L17 13C17 14.1046 16.1046 15 15 15ZM3 7C3 5.89543 4.00736 5 5.25 5H12V15H5.25C4.00736 15 3 14.1046 3 13V7ZM8.20864 8.68285C8.37161 8.52664 8.37161 8.27337 8.20865 8.11716C8.04569 7.96095 7.78148 7.96095 7.61852 8.11716L6.24445 9.43429C5.91853 9.74671 5.91852 10.2532 6.24444 10.5657L7.61852 11.8828C7.78147 12.0391 8.04568 12.0391 8.20864 11.8828C8.37161 11.7266 8.37161 11.4734 8.20865 11.3172L7.25187 10.4H9.58272C9.81317 10.4 10 10.2209 10 10C10 9.77909 9.81317 9.6 9.58272 9.6H7.25184L8.20864 8.68285Z"  fill="var(--connect__icon-fill-color, #2d2d2d)"/>
</svg>
