<svg xmlns="http://www.w3.org/2000/svg" fill="none" viewBox="0 0 20 20" id="expandRightOutline">
    <path fill="var(--connect__icon-fill-color, #2d2d2d)" fill-rule="evenodd"
        d="M7.5 15V5H16c.5523 0 1 .44772 1 1v8c0 .5523-.4477 1-1 1H7.5Zm0-11H4c-1.10457 0-2 .89543-2 2v8c0 1.1046.89543 2 2 2h12c1.1046 0 2-.8954 2-2V6c0-1.10457-.8954-2-2-2H7.5Zm4.7751 4.23356c-.1952-.19526-.1952-.51185 0-.70711.1953-.19526.5119-.19526.7071 0l2.1214 2.12132c.1952.19526.1952.51183 0 .70713l-2.1214 2.1213c-.1952.1953-.5118.1953-.7071 0-.1952-.1953-.1952-.5118 0-.7071L13.5442 10.5H9.74977c-.27614 0-.5-.2239-.5-.50001 0-.27615.22386-.5.5-.5h3.79183l-1.2665-1.26643Z"
        clip-rule="evenodd" />
</svg>