<svg viewBox="0 0 20 20" fill="none" xmlns="http://www.w3.org/2000/svg" id="expandRightFilled">
<path fill-rule="evenodd" clip-rule="evenodd" d="M5 15H7L7 5H5C3.89543 5 3 5.89543 3 7V13C3 14.1046 3.89543 15 5 15ZM17 7C17 5.89543 15.9926 5 14.75 5H8V15H14.75C15.9926 15 17 14.1046 17 13V7ZM11.7914 8.68285C11.6284 8.52664 11.6284 8.27337 11.7913 8.11716C11.9543 7.96095 12.2185 7.96095 12.3815 8.11716L13.7556 9.43429C14.0815 9.74671 14.0815 10.2532 13.7556 10.5657L12.3815 11.8828C12.2185 12.0391 11.9543 12.0391 11.7914 11.8828C11.6284 11.7266 11.6284 11.4734 11.7913 11.3172L12.7481 10.4H10.4173C10.1868 10.4 10 10.2209 10 10C10 9.77909 10.1868 9.6 10.4173 9.6H12.7482L11.7914 8.68285Z"  fill="var(--connect__icon-fill-color, #2d2d2d)"/>
</svg>
