<svg xmlns="http://www.w3.org/2000/svg" id="expand" viewBox="0 0 14 14" fill="none">
  <path fill-rule="evenodd" clip-rule="evenodd" d="M1 7.96429C1.41421 7.96429 1.75 8.30007 1.75 8.71428V12.25H5.28571C5.69993 12.25 6.03571 12.5858 6.03571 13C6.03571 13.4142 5.69993 13.75 5.28571 13.75H1C0.585786 13.75 0.25 13.4142 0.25 13V8.71428C0.25 8.30007 0.585786 7.96429 1 7.96429Z" fill="var(--connect__icon-fill-color, #2d2d2d)" />
  <path fill-rule="evenodd" clip-rule="evenodd" d="M5.81604 8.18396C6.10894 8.47685 6.10894 8.95172 5.81604 9.24462L1.53033 13.5303C1.23744 13.8232 0.762563 13.8232 0.46967 13.5303C0.176777 13.2374 0.176777 12.7626 0.46967 12.4697L4.75538 8.18396C5.04828 7.89106 5.52315 7.89106 5.81604 8.18396Z" fill="var(--connect__icon-fill-color, #2d2d2d)" />
  <path fill-rule="evenodd" clip-rule="evenodd" d="M7.96429 1C7.96429 0.585786 8.30008 0.25 8.71429 0.25H13C13.4142 0.25 13.75 0.585786 13.75 1V5.28571C13.75 5.69993 13.4142 6.03571 13 6.03571C12.5858 6.03571 12.25 5.69993 12.25 5.28571V1.75H8.71429C8.30008 1.75 7.96429 1.41421 7.96429 1Z" fill="var(--connect__icon-fill-color, #2d2d2d)" />
  <path fill-rule="evenodd" clip-rule="evenodd" d="M13.5303 0.46967C13.8232 0.762563 13.8232 1.23744 13.5303 1.53033L9.24462 5.81604C8.95173 6.10894 8.47685 6.10894 8.18396 5.81604C7.89107 5.52315 7.89107 5.04828 8.18396 4.75538L12.4697 0.46967C12.7626 0.176777 13.2374 0.176777 13.5303 0.46967Z" fill="var(--connect__icon-fill-color, #2d2d2d)" />
</svg>