<svg viewBox="0 0 20 20" fill="none" xmlns="http://www.w3.org/2000/svg" id="expandRightOutline">
<path fill-rule="evenodd" clip-rule="evenodd" d="M8 14L8 6H14.8462C15.4409 6 15.9231 6.44772 15.9231 7V13C15.9231 13.5523 15.4409 14 14.8462 14H8ZM8 5H5.15385C5.15336 5 5.15287 5 5.15238 5H5C3.89543 5 3 5.89543 3 7V13C3 14.1046 3.89543 15 5 15H5.15384H8H14.8462C16.0357 15 17 14.1046 17 13V7C17 5.89543 16.0357 5 14.8462 5H8ZM11.7914 8.68285C11.6284 8.52664 11.6284 8.27337 11.7913 8.11716C11.9543 7.96095 12.2185 7.96095 12.3815 8.11716L13.7555 9.43429C14.0815 9.74671 14.0815 10.2532 13.7556 10.5657L12.3815 11.8828C12.2185 12.0391 11.9543 12.0391 11.7914 11.8828C11.6284 11.7266 11.6284 11.4734 11.7913 11.3172L12.7481 10.4H10.4173C10.1868 10.4 10 10.2209 10 10C10 9.77909 10.1868 9.6 10.4173 9.6H12.7482L11.7914 8.68285Z" fill="var(--connect__icon-fill-color, #2d2d2d)" />
</svg>
