<svg xmlns="http://www.w3.org/2000/svg" id="expand" viewBox="0 0 20 20" fill="none">
  <path d="M13.4393 5.5L11.75 5.5C11.5375 5.5 11.3594 5.42854 11.2156 5.28562C11.0719 5.14271 11 4.96562 11 4.75437C11 4.54313 11.0719 4.36458 11.2156 4.21875C11.3594 4.07292 11.5375 4 11.75 4H15.25C15.4625 4 15.6406 4.07187 15.7844 4.21562C15.9281 4.35938 16 4.5375 16 4.75V8.25C16 8.4625 15.9285 8.64062 15.7856 8.78437C15.6427 8.92812 15.4656 9 15.2544 9C15.0431 9 14.8646 8.92812 14.7188 8.78437C14.5729 8.64062 14.5 8.4625 14.5 8.25V6.56066L12.5303 8.53033C12.2374 8.82322 11.7626 8.82322 11.4697 8.53033C11.1768 8.23744 11.1768 7.76256 11.4697 7.46967L13.4393 5.5Z" fill="var(--connect__icon-fill-color, #2d2d2d)"/>
  <path d="M8.53033 12.5303C8.82322 12.2374 8.82322 11.7626 8.53033 11.4697C8.23744 11.1768 7.76256 11.1768 7.46967 11.4697L5.5 13.4393V11.75C5.5 11.5375 5.42708 11.3594 5.28125 11.2156C5.13542 11.0719 4.95688 11 4.74563 11C4.53438 11 4.35729 11.0719 4.21437 11.2156C4.07146 11.3594 4 11.5375 4 11.75V15.25C4 15.4625 4.07188 15.6406 4.21563 15.7844C4.35938 15.9281 4.5375 16 4.75 16H8.25C8.4625 16 8.64062 15.9271 8.78438 15.7812C8.92813 15.6354 9 15.4569 9 15.2456C9 15.0344 8.92813 14.8573 8.78438 14.7144C8.64062 14.5715 8.4625 14.5 8.25 14.5H6.56066L8.53033 12.5303Z" fill="var(--connect__icon-fill-color, #2d2d2d)"/>
</svg>