<svg viewBox="0 0 20 20" fill="none" xmlns="http://www.w3.org/2000/svg" id="expandLeftOutline"> 
<path fill-rule="evenodd" clip-rule="evenodd" d="M12 6H5.15385C4.55908 6 4.07692 6.44772 4.07692 7V13C4.07692 13.5523 4.55908 14 5.15384 14H12L12 6ZM12 5H5.15385C3.96431 5 3 5.89543 3 7V13C3 14.1046 3.96431 15 5.15384 15H12H14.8462H15C16.1013 15 16.9947 14.1098 17 13.0097C17 13.0065 17 13.0032 17 13V7C17 6.99676 17 6.99353 17 6.9903C16.9947 5.89019 16.1013 5 15 5H14.8476C14.8471 5 14.8466 5 14.8462 5H12ZM8.20864 8.68285C8.3716 8.52664 8.37161 8.27337 8.20865 8.11716C8.04569 7.96095 7.78148 7.96095 7.61852 8.11716L6.24445 9.43429C5.91853 9.74671 5.91852 10.2532 6.24444 10.5657L7.61852 11.8828C7.78147 12.0391 8.04568 12.0391 8.20864 11.8828C8.3716 11.7266 8.37161 11.4734 8.20865 11.3172L7.25187 10.4H9.58271C9.81317 10.4 10 10.2209 10 10C10 9.77909 9.81317 9.6 9.58271 9.6H7.25184L8.20864 8.68285Z"  fill="var(--connect__icon-fill-color, #2d2d2d)"/>
</svg>
