<svg xmlns="http://www.w3.org/2000/svg" id="expand" fill="none" viewBox="0 0 40 40">
  <path fill="var(--connect__icon-fill-color, #2d2d2d)" fill-rule="evenodd" d="M8 21.929a1.5 1.5 0 0 1 1.5 1.5V30.5h7.071a1.5 1.5 0 1 1 0 3H8A1.5 1.5 0 0 1 6.5 32v-8.571a1.5 1.5 0 0 1 1.5-1.5Z" clip-rule="evenodd"/>
  <path fill="var(--connect__icon-fill-color, #2d2d2d)" fill-rule="evenodd" d="M17.632 22.368a1.5 1.5 0 0 1 0 2.121l-8.571 8.572a1.5 1.5 0 0 1-2.122-2.122l8.572-8.571a1.5 1.5 0 0 1 2.121 0ZM21.929 8a1.5 1.5 0 0 1 1.5-1.5H32A1.5 1.5 0 0 1 33.5 8v8.571a1.5 1.5 0 1 1-3 0V9.5h-7.071a1.5 1.5 0 0 1-1.5-1.5Z" clip-rule="evenodd"/>
  <path fill="var(--connect__icon-fill-color, #2d2d2d)" fill-rule="evenodd" d="M33.06 6.94a1.5 1.5 0 0 1 0 2.12l-8.57 8.572a1.5 1.5 0 1 1-2.122-2.121l8.571-8.572a1.5 1.5 0 0 1 2.122 0Z" clip-rule="evenodd"/>
</svg>