<svg viewBox="0 0 30 30" id="exponent" fill="none" xmlns="http://www.w3.org/2000/svg"><path d="M19.786 6.43c.024-.086.04-.162.047-.229.012-.07.018-.129.018-.176 0-.05-.014-.1-.041-.146-.024-.05-.082-.09-.176-.117a.738.738 0 0 0-.14-.018 69.464 69.464 0 0 0-.417-.023v-.205c.125-.02.26-.037.405-.053.148-.016.347-.043.597-.082a9.35 9.35 0 0 0 .352-.076c.21-.047.361-.07.451-.07.02 0 .037.007.053.023.02.015.029.039.029.07l-.012.076-1.166 4.43c.352-.5.65-.863.897-1.09.43-.394.873-.592 1.33-.592.43 0 .773.143 1.031.428.262.281.393.63.393 1.049 0 .973-.424 1.883-1.272 2.73-.824.825-1.677 1.237-2.56 1.237a2.31 2.31 0 0 1-1.108-.27c-.336-.176-.49-.316-.463-.422l1.752-6.474zm-.123 6.89c.692 0 1.338-.449 1.94-1.347.543-.809.814-1.55.814-2.221 0-.305-.08-.547-.24-.727a.767.767 0 0 0-.604-.275c-.62 0-1.214.555-1.78 1.664-.493.965-.74 1.766-.74 2.402 0 .153.05.276.147.37.098.09.252.134.463.134zM13.545 14.408c0-.468-.107-.814-.322-1.035a1.049 1.049 0 0 0-.782-.332c-1.06 0-2.047.814-2.959 2.441-.8 1.433-1.2 2.666-1.2 3.702 0 .52.11.901.331 1.142.228.235.508.352.84.352.983 0 1.93-.791 2.842-2.373.833-1.44 1.25-2.738 1.25-3.897zm-1.22-1.806c.514 0 .91.133 1.19.4.15.143.268.332.352.566l.049.137.215-.742a.626.626 0 0 1 .068-.166c.02-.033.065-.052.137-.059l1.104-.127c.058 0 .09.013.097.04.013.019.013.058 0 .117a4.184 4.184 0 0 0-.059.205l-.058.205-.899 3.496c-.195.762-.36 1.42-.498 1.973-.24 1.002-.36 1.575-.36 1.718 0 .091.022.16.067.205a.3.3 0 0 0 .186.059c.059 0 .12-.02.186-.059.071-.039.156-.097.253-.175l.166-.137.176-.156.235-.235.605-.625.234.205c-.677.866-1.22 1.455-1.63 1.768-.41.306-.801.459-1.172.459a.688.688 0 0 1-.567-.254 1.01 1.01 0 0 1-.195-.635c0-.234.042-.57.127-1.006.091-.442.179-.814.264-1.113-.118.195-.316.482-.596.86a6.8 6.8 0 0 1-1.016 1.083c-.475.424-.93.723-1.367.899a2.981 2.981 0 0 1-.976.176c-.528 0-1.006-.215-1.436-.645-.43-.436-.644-1.051-.644-1.846 0-1.367.611-2.793 1.835-4.277 1.263-1.543 2.572-2.314 3.926-2.314z" fill="var(--connect__icon-fill-color, #2d2d2d)"/></svg>