<svg viewBox="0 0 30 30" id="five" fill="none" xmlns="http://www.w3.org/2000/svg"><path d="M14.928 21.5c-.68 0-1.28-.08-1.8-.24a5.374 5.374 0 0 1-1.36-.66 7.303 7.303 0 0 1-1.02-.84l.8-1.08c.387.373.833.713 1.34 1.02.507.293 1.133.44 1.88.44.52 0 .987-.12 1.4-.36.427-.24.767-.573 1.02-1 .253-.44.38-.96.38-1.56 0-.88-.247-1.567-.74-2.06-.493-.493-1.153-.74-1.98-.74-.427 0-.8.067-1.12.2-.32.133-.673.327-1.06.58l-.88-.56.42-6.14h6.38v1.42h-4.94l-.34 3.78a5.37 5.37 0 0 1 .92-.38 3.57 3.57 0 0 1 1.04-.14c.733 0 1.4.14 2 .42.6.28 1.073.72 1.42 1.32.36.587.54 1.34.54 2.26 0 .92-.207 1.707-.62 2.36-.4.64-.927 1.127-1.58 1.46-.653.333-1.353.5-2.1.5z" fill="var(--connect__icon-fill-color, #2d2d2d)"/></svg>