<svg xmlns="http://www.w3.org/2000/svg" id="flag" fill="none" viewBox="0 0 40 40">
  <path fill="var(--connect__icon-fill-color, #2d2d2d)" d="M9.778 19.333v13.945c0 .393-.134.723-.4.99-.268.266-.6.399-.994.399-.395 0-.724-.133-.988-.4a1.35 1.35 0 0 1-.396-.99V4.39c0-.394.133-.723.4-.99.266-.266.595-.399.989-.399h23.153c.255 0 .482.06.68.178.198.118.355.272.47.46.117.19.193.397.228.622.035.225-.004.458-.115.698l-2.777 6.209 2.777 6.208c.111.24.15.474.115.698-.035.225-.11.432-.227.622a1.354 1.354 0 0 1-.47.46 1.299 1.299 0 0 1-.681.178H9.778Zm0-2.778h19.61l-1.916-4.25a2.64 2.64 0 0 1-.25-1.138c0-.405.083-.785.25-1.14l1.917-4.25H9.778v10.778Z"/>
</svg>