<svg xmlns="http://www.w3.org/2000/svg" id="flag" viewBox="0 0 20 20" fill="none">
  <path d="M4.88896 9.66667V16.639C4.88896 16.8356 4.82215 17.0006 4.68854 17.1337C4.55493 17.2668 4.38944 17.3333 4.19208 17.3333C3.99458 17.3333 3.82986 17.2668 3.69792 17.1337C3.56597 17.0006 3.5 16.8356 3.5 16.639V2.19438C3.5 1.99771 3.56653 1.83278 3.69958 1.69958C3.83278 1.56653 3.99771 1.5 4.19438 1.5H15.7708C15.8988 1.5 16.0122 1.52958 16.111 1.58875C16.2099 1.64792 16.2884 1.72479 16.3465 1.81938C16.4047 1.9141 16.4425 2.01764 16.46 2.13C16.4774 2.24236 16.4583 2.35875 16.4027 2.47917L15.014 5.58333L16.4027 8.6875C16.4583 8.80792 16.4774 8.92431 16.46 9.03667C16.4425 9.14903 16.4047 9.25257 16.3465 9.34729C16.2884 9.44188 16.2099 9.51875 16.111 9.57792C16.0122 9.63708 15.8988 9.66667 15.7708 9.66667H4.88896ZM4.88896 8.27771H14.6944L13.736 6.15271C13.6527 5.97563 13.611 5.78583 13.611 5.58333C13.611 5.38083 13.6527 5.19104 13.736 5.01396L14.6944 2.88896H4.88896V8.27771Z" fill="var(--connect__icon-fill-color, #2d2d2d)"/>
</svg>