<?xml version='1.0' encoding='utf-8'?>
<svg xmlns:ns0="http://www.w3.org/2000/svg" xmlns="http://www.w3.org/2000/svg" viewBox="0 0 40 40"><ns0:path fill-rule="evenodd" clip-rule="evenodd" d="M17.9158 10C16.8109 10 15.9153 10.8957 15.9153 12.0005C15.9153 13.1054 16.8109 14.0011 17.9158 14.0011C21.4992 14.0011 24.6449 14.8353 26.8254 16.0812C29.0624 17.3595 29.919 18.8207 29.919 20.0027C29.919 21.1847 29.0624 22.6458 26.8254 23.9241C24.6449 25.17 21.4992 26.0042 17.9158 26.0042C17.3769 26.0042 16.8467 25.9853 16.3273 25.9488L18.0199 19.6862L6 24.7268L13.8443 35.1361L15.2666 29.8733C16.1292 29.9602 17.0143 30.0053 17.9158 30.0053C22.0665 30.0053 25.9225 29.0482 28.8105 27.398C31.6418 25.7801 33.92 23.2401 33.92 20.0027C33.92 16.7652 31.6418 14.2252 28.8105 12.6074C25.9225 10.9571 22.0665 10 17.9158 10Z" fill="var(--connect__icon-fill-color, #2d2d2d)" />
        </svg>