<svg viewBox="0 0 30 30" id="fraction" fill="none" xmlns="http://www.w3.org/2000/svg"><path fill-rule="evenodd" clip-rule="evenodd" d="M11.897 1.41c-.306 0-.57.108-.784.323-.213.215-.32.481-.32.79v9.205c0 .309.106.574.318.79.212.215.475.323.781.323h6.212c.307 0 .57-.108.784-.323.213-.215.32-.481.32-.79V2.523c0-.309-.106-.574-.317-.79a1.059 1.059 0 0 0-.782-.323h-6.212zm-.064 10.318V2.523c0-.026.007-.038.017-.048.009-.01.021-.016.047-.016h6.208c.025 0 .037.007.047.016.01.01.016.022.016.048v9.205c0 .026-.007.038-.016.047-.01.01-.022.017-.047.017h-6.208c-.026 0-.038-.007-.047-.017-.01-.009-.017-.021-.017-.047zM22.5 15.504h-15v-1.008h15v1.008zM11.897 17.16c-.306 0-.57.108-.784.323-.213.215-.32.481-.32.79v9.205c0 .308.106.574.318.79.212.215.475.323.781.323h6.212c.307 0 .57-.108.784-.323.213-.215.32-.481.32-.79v-9.205c0-.309-.106-.574-.317-.79a1.059 1.059 0 0 0-.782-.323h-6.212zm-.064 10.318v-9.205c0-.026.007-.038.017-.048.009-.01.021-.016.047-.016h6.208c.025 0 .037.007.047.016.01.01.016.022.016.048v9.205c0 .026-.007.038-.016.047-.01.01-.022.017-.047.017h-6.208c-.026 0-.038-.007-.047-.017-.01-.009-.017-.021-.017-.047z" fill="var(--connect__icon-fill-color, #2d2d2d)"/></svg>