<svg viewBox="0 0 20 20" fill="none" xmlns="http://www.w3.org/2000/svg" id="fullRightOutline">
<path fill-rule="evenodd" clip-rule="evenodd" d="M5.5 6H14.5C15.0523 6 15.5 6.44772 15.5 7V13C15.5 13.5523 15.0523 14 14.5 14H5.5C4.94772 14 4.5 13.5523 4.5 13V7C4.5 6.44772 4.94772 6 5.5 6ZM3.5 7C3.5 5.89543 4.39543 5 5.5 5H14.5C15.6046 5 16.5 5.89543 16.5 7V13C16.5 14.1046 15.6046 15 14.5 15H5.5C4.39543 15 3.5 14.1046 3.5 13V7ZM9.79135 8.11716C9.62839 8.27337 9.62839 8.52664 9.79135 8.68285L10.7482 9.6H8.41728C8.18682 9.6 8 9.77909 8 10C8 10.2209 8.18682 10.4 8.41728 10.4H10.7481L9.79135 11.3172C9.62839 11.4734 9.62839 11.7266 9.79135 11.8828C9.95432 12.0391 10.2185 12.0391 10.3815 11.8828L11.7556 10.5657C12.0815 10.2532 12.0815 9.74671 11.7556 9.43429L10.3815 8.11716C10.2185 7.96095 9.95431 7.96095 9.79135 8.11716Z"  fill="var(--connect__icon-fill-color, #2d2d2d)"/>
</svg>
