<svg viewBox="0 0 20 20" fill="none" xmlns="http://www.w3.org/2000/svg" id="fullLeftFilled">
<path fill-rule="evenodd" clip-rule="evenodd" d="M5 5C3.89543 5 3 5.89543 3 7V13C3 14.1046 3.89543 15 5 15H15C16.1046 15 17 14.1046 17 13V7C17 5.89543 16.1046 5 15 5H5ZM10.2086 8.11716C10.3716 8.27337 10.3716 8.52664 10.2086 8.68285L9.25184 9.6H11.5827C11.8132 9.6 12 9.77909 12 10C12 10.2209 11.8132 10.4 11.5827 10.4H9.25187L10.2086 11.3172C10.3716 11.4734 10.3716 11.7266 10.2086 11.8828C10.0457 12.0391 9.78147 12.0391 9.61852 11.8828L8.24444 10.5657C7.91852 10.2532 7.91853 9.74671 8.24445 9.43429L9.61852 8.11716C9.78148 7.96095 10.0457 7.96095 10.2086 8.11716Z"  fill="var(--connect__icon-fill-color, #2d2d2d)"/>
</svg>
