<svg viewBox="0 0 20 20" fill="none" xmlns="http://www.w3.org/2000/svg" id="fullLeftOutline">
<path fill-rule="evenodd" clip-rule="evenodd" d="M5.5 6H14.5C15.0523 6 15.5 6.44772 15.5 7V13C15.5 13.5523 15.0523 14 14.5 14H5.5C4.94772 14 4.5 13.5523 4.5 13V7C4.5 6.44772 4.94772 6 5.5 6ZM3.5 7C3.5 5.89543 4.39543 5 5.5 5H14.5C15.6046 5 16.5 5.89543 16.5 7V13C16.5 14.1046 15.6046 15 14.5 15H5.5C4.39543 15 3.5 14.1046 3.5 13V7ZM10.2087 8.11716C10.3716 8.27337 10.3716 8.52664 10.2086 8.68285L9.25184 9.6H11.5827C11.8132 9.6 12 9.77909 12 10C12 10.2209 11.8132 10.4 11.5827 10.4H9.25187L10.2087 11.3172C10.3716 11.4734 10.3716 11.7266 10.2086 11.8828C10.0457 12.0391 9.78147 12.0391 9.61852 11.8828L8.24444 10.5657C7.91852 10.2532 7.91853 9.74671 8.24445 9.43429L9.61852 8.11716C9.78148 7.96095 10.0457 7.96095 10.2087 8.11716Z"  fill="var(--connect__icon-fill-color, #2d2d2d)"/>
</svg>
