<svg viewBox="0 0 20 20" fill="none" xmlns="http://www.w3.org/2000/svg" id="fullRightFilled">
<path fill-rule="evenodd" clip-rule="evenodd" d="M15 5C16.1046 5 17 5.89543 17 7V13C17 14.1046 16.1046 15 15 15H5C3.89543 15 3 14.1046 3 13V7C3 5.89543 3.89543 5 5 5H15ZM9.79135 8.11716C9.62839 8.27337 9.62839 8.52664 9.79135 8.68284L10.7482 9.6H8.41728C8.18682 9.6 8 9.77909 8 10C8 10.2209 8.18682 10.4 8.41728 10.4H10.7481L9.79135 11.3172C9.62839 11.4734 9.62839 11.7266 9.79135 11.8828C9.95432 12.0391 10.2185 12.0391 10.3815 11.8828L11.7556 10.5657C12.0815 10.2532 12.0815 9.74671 11.7556 9.43429L10.3815 8.11716C10.2185 7.96095 9.95431 7.96095 9.79135 8.11716Z"  fill="var(--connect__icon-fill-color, #2d2d2d)"/>
</svg>
