<svg viewBox="0 0 30 30" id="functionComposition" fill="none" xmlns="http://www.w3.org/2000/svg"><path d="M15.004 19.542c-.92 0-1.74-.207-2.46-.62a4.57 4.57 0 0 1-1.7-1.68c-.4-.72-.6-1.527-.6-2.42 0-.894.2-1.694.6-2.4.414-.72.98-1.287 1.7-1.7.72-.414 1.54-.62 2.46-.62.92 0 1.74.206 2.46.62.72.413 1.28.98 1.68 1.7.414.706.62 1.506.62 2.4 0 .893-.206 1.7-.62 2.42a4.42 4.42 0 0 1-1.68 1.68c-.72.413-1.54.62-2.46.62zm0-1c.694 0 1.313-.16 1.86-.48.547-.32.973-.76 1.28-1.32.32-.56.48-1.2.48-1.92s-.16-1.36-.48-1.92c-.306-.56-.733-1-1.28-1.32-.547-.32-1.167-.48-1.86-.48-.693 0-1.313.16-1.86.48-.546.32-.98.76-1.3 1.32-.306.56-.46 1.2-.46 1.92s.153 1.36.46 1.92c.32.56.754 1 1.3 1.32.547.32 1.167.48 1.86.48z" fill="var(--connect__icon-fill-color, #2d2d2d)"/></svg>