<svg xmlns="http://www.w3.org/2000/svg" xmlns:ns0="http://www.w3.org/2000/svg" viewBox="0 0 40 40"><ns0:path fill="var(--connect__icon-fill-color, #2d2d2d)" d="M36.368 20.327C36.368 11.3238 28.8903 4 19.684 4C10.4735 4 3 11.3153 3 20.327C3 24.1529 4.07115 27.4002 6.17878 30H3.67389V34H11.6635C13.7155 34 14.4366 31.2788 12.654 30.2625C8.84093 28.0888 7 24.8639 7 20.327C7 13.5438 12.6637 8 19.684 8C26.6996 8 32.368 13.5518 32.368 20.327C32.368 24.8573 30.5315 28.0838 26.7286 30.2652C24.9511 31.2848 25.6746 34 27.7238 34H35.6739V30H33.1924C35.298 27.3977 36.368 24.1505 36.368 20.327Z"/></svg>