<svg viewBox="0 0 280 234" fill="none" xmlns="http://www.w3.org/2000/svg">
    <g clip-path="url(#clip0_4667_32368)">
        <mask id="mask0_4667_32368" style="mask-type:luminance" maskUnits="userSpaceOnUse" x="-1"
            y="0" width="282" height="234">
            <path d="M280.099 0H-0.0986328V234H280.099V0Z" fill="white"></path>
        </mask>
        <g mask="url(#mask0_4667_32368)">

            <mask id="mask1_4667_32368" style="mask-type:luminance" maskUnits="userSpaceOnUse"
                x="-1" y="0" width="282" height="176">
                <path d="M280.099 0H-0.0986328V175.751H280.099V0Z" fill="white"></path>
            </mask>
            <g mask="url(#mask1_4667_32368)">
                <path
                    d="M207.252 52.4311C210.966 54.8404 212.045 59.8378 209.662 63.593C207.279 67.3482 202.337 68.4391 198.623 66.0297C194.909 63.6204 193.83 58.623 196.213 54.8678C198.596 51.1126 203.538 50.0217 207.252 52.4311Z"
                    fill="#C16651"></path>
                <path d="M176.828 96.2599L192.121 72.1598L201.086 58.0341" stroke="#C16651"
                    stroke-width="11.6496" stroke-linejoin="round"></path>
                <path d="M157.818 119.781L176.827 96.2595L192.121 72.1595" stroke="#FFF36A"
                    stroke-width="11.8094" stroke-linejoin="round"></path>
                <path
                    d="M202.231 69.6183C201.907 70.1283 201.245 70.2745 200.74 69.9473L190.653 63.4034C190.149 63.0762 190.004 62.4065 190.328 61.8965C190.651 61.3866 191.314 61.2404 191.818 61.5676L201.905 68.1114C202.376 68.4168 202.554 69.1084 202.231 69.6183Z"
                    fill="url(#paint0_linear_4667_32368)"></path>
                <path
                    d="M199.991 72.1007C199.84 72.3387 199.509 72.4118 199.273 72.2591L189.186 65.7152C188.951 65.5625 188.878 65.2277 189.029 64.9897C189.181 64.7517 189.512 64.6786 189.747 64.8313L199.834 71.3752C200.07 71.5279 200.142 71.8627 199.991 72.1007Z"
                    fill="url(#paint1_linear_4667_32368)"></path>
                <path
                    d="M198.915 71.4026C199.142 71.0459 199.611 70.9423 199.964 71.1712C200.317 71.4 200.419 71.8748 200.193 72.2315C199.967 72.5883 199.497 72.6919 199.144 72.463C198.791 72.2341 198.689 71.7594 198.915 71.4026Z"
                    fill="url(#paint2_linear_4667_32368)"></path>
                <path
                    d="M197.402 70.421C197.629 70.0642 198.098 69.9606 198.451 70.1895C198.804 70.4184 198.906 70.8931 198.68 71.2498C198.454 71.6066 197.984 71.7102 197.631 71.4813C197.278 71.2524 197.176 70.7777 197.402 70.421Z"
                    fill="url(#paint3_linear_4667_32368)"></path>
                <path
                    d="M195.922 69.4614C196.149 69.1046 196.618 69.001 196.971 69.2299C197.324 69.4588 197.426 69.9335 197.2 70.2903C196.974 70.647 196.504 70.7506 196.151 70.5217C195.798 70.2929 195.696 69.8181 195.922 69.4614Z"
                    fill="url(#paint4_linear_4667_32368)"></path>
                <path
                    d="M194.409 68.4797C194.636 68.1229 195.105 68.0193 195.458 68.2482C195.811 68.4771 195.913 68.9518 195.687 69.3086C195.461 69.6653 194.991 69.7689 194.638 69.5401C194.285 69.3112 194.183 68.8364 194.409 68.4797Z"
                    fill="url(#paint5_linear_4667_32368)"></path>
                <path
                    d="M192.93 67.52C193.157 67.1632 193.626 67.0596 193.979 67.2885C194.332 67.5174 194.435 67.9921 194.208 68.3488C193.982 68.7056 193.512 68.8092 193.159 68.5803C192.807 68.3514 192.704 67.8767 192.93 67.52Z"
                    fill="url(#paint6_linear_4667_32368)"></path>
                <path
                    d="M191.417 66.5383C191.644 66.1815 192.113 66.0779 192.466 66.3068C192.819 66.5357 192.921 67.0104 192.695 67.3672C192.469 67.7239 191.999 67.8275 191.646 67.5986C191.293 67.3698 191.191 66.895 191.417 66.5383Z"
                    fill="url(#paint7_linear_4667_32368)"></path>
                <path
                    d="M189.937 65.5786C190.164 65.2218 190.633 65.1182 190.986 65.3471C191.339 65.5759 191.441 66.0507 191.215 66.4074C190.989 66.7642 190.519 66.8678 190.166 66.6389C189.813 66.41 189.711 65.9353 189.937 65.5786Z"
                    fill="url(#paint8_linear_4667_32368)"></path>
                <path
                    d="M188.424 64.597C188.651 64.2402 189.12 64.1366 189.473 64.3655C189.826 64.5944 189.928 65.0691 189.702 65.4259C189.476 65.7826 189.006 65.8863 188.653 65.6574C188.3 65.4285 188.198 64.9537 188.424 64.597Z"
                    fill="url(#paint9_linear_4667_32368)"></path>
                <path d="M196.963 75.301L187.279 69.0191" stroke="#D3C208" stroke-width="4.49551"
                    stroke-linecap="round" stroke-linejoin="round"></path>
                <path
                    d="M70.9419 53.969C67.2545 56.4198 66.2302 61.4289 68.6542 65.1571C71.0782 68.8854 76.0325 69.921 79.7199 67.4702C83.4074 65.0194 84.4316 60.0103 82.0076 56.282C79.5837 52.5537 74.6294 51.5181 70.9419 53.969Z"
                    fill="#C16651"></path>
                <path d="M101.826 97.4275L86.287 73.5271L77.1687 59.5028" stroke="#C16651"
                    stroke-width="11.6496" stroke-linejoin="round"></path>
                <path d="M122.192 119.757L101.826 97.4273L86.2871 73.5269" stroke="#FFF36A"
                    stroke-width="11.8094" stroke-linejoin="round"></path>
                <path d="M81.4797 76.7224L91.0943 70.3323" stroke="#D3C208" stroke-width="4.49551"
                    stroke-linecap="round" stroke-linejoin="round"></path>
                <path
                    d="M153.271 116.024C155.323 113.484 159.023 113.108 161.534 115.183C164.046 117.258 164.418 120.999 162.366 123.538C160.314 126.077 156.614 126.454 154.102 124.379C151.591 122.304 151.218 118.563 153.271 116.024Z"
                    fill="#FFF36A"></path>
                <path
                    d="M126.532 115.755C124.332 113.345 120.617 113.193 118.233 115.417C115.849 117.64 115.699 121.397 117.899 123.807C120.098 126.217 123.813 126.369 126.197 124.145C128.581 121.922 128.731 118.165 126.532 115.755Z"
                    fill="#FFF36A"></path>
                <path d="M133.3 159.608L133.35 197.9L133.268 240.427" stroke="#009CFE"
                    stroke-width="12.4734" stroke-linejoin="round"></path>
                <path
                    d="M139.536 159.611C139.534 163.075 136.756 165.881 133.331 165.88C129.905 165.879 127.13 163.07 127.131 159.606C127.132 156.143 129.91 153.337 133.336 153.338C136.761 153.339 139.537 156.148 139.536 159.611Z"
                    fill="#009CFE"></path>
                <path d="M146.699 159.608L146.714 197.9L146.731 240.427" stroke="#009CFE"
                    stroke-width="12.4734" stroke-linejoin="round"></path>
                <path
                    d="M152.901 159.608C152.903 163.072 150.127 165.88 146.702 165.882C143.276 165.883 140.498 163.077 140.497 159.613C140.495 156.15 143.271 153.341 146.697 153.34C150.122 153.339 152.9 156.145 152.901 159.608Z"
                    fill="#009CFE"></path>
                <path
                    d="M117.349 134.807C117.349 129.799 111.863 117.192 108.504 113.511L113.144 109.183L125.499 119.337L125.499 134.807L117.349 134.807Z"
                    fill="#FFF36A"></path>
                <path
                    d="M162.653 134.807C162.653 129.799 167.978 116.595 171.113 112.716L166.225 108.678L154.503 119.337L154.503 134.807L162.653 134.807Z"
                    fill="#FFF36A"></path>
                <path
                    d="M140.08 105.239C152.568 105.239 162.692 108.766 162.692 113.116C162.692 117.466 152.568 120.993 140.08 120.993C127.592 120.993 117.468 117.466 117.468 113.116C117.468 108.766 127.592 105.239 140.08 105.239Z"
                    fill="#FFF36A"></path>
                <path
                    d="M119.785 146.239L160.255 146.239L160.255 148.016C160.255 159.326 151.186 168.495 140 168.495C128.814 168.495 119.745 159.326 119.745 148.016L119.785 146.239Z"
                    fill="#009CFE"></path>
                <path
                    d="M160.295 155.327L119.785 155.327L119.785 126.244C119.785 117.317 126.976 110.047 135.805 110.047L144.235 110.047C153.064 110.047 160.255 117.317 160.255 126.244L160.295 155.327Z"
                    fill="#FFF7C7"></path>
                <path
                    d="M148.31 117.52L131.73 117.52C127.416 117.52 123.94 114.005 123.94 109.643C123.94 105.281 127.416 101.766 131.73 101.766L148.31 101.766C152.624 101.766 156.1 105.281 156.1 109.643C156.1 114.005 152.624 117.52 148.31 117.52Z"
                    fill="#54B7FF"></path>
                <path
                    d="M126.337 112.631C127.057 115.539 135.007 120.725 135.486 122.502C136.285 125.619 132.05 129.571 135.206 129.167C141.279 128.359 148.031 122.22 154.223 107.784C154.223 107.784 148.11 115.35 140.68 116.4C131.171 117.773 126.337 112.631 126.337 112.631Z"
                    fill="#26A8FF"></path>
                <path
                    d="M142.318 158.186L159.936 158.155C161.454 158.155 162.653 156.781 162.653 155.125L162.653 112.915C162.653 111.784 161.854 110.895 160.855 110.895L156.261 110.895L142.278 120.67L142.278 158.186L142.318 158.186Z"
                    fill="#FFF36A"></path>
                <path
                    d="M142.717 120.063C143.688 120.063 144.475 120.859 144.475 121.841C144.475 122.822 143.688 123.618 142.717 123.618C141.746 123.618 140.959 122.822 140.959 121.841C140.959 120.859 141.746 120.063 142.717 120.063Z"
                    fill="#FFF36A"></path>
                <path d="M142.757 121.841L144.869 132.824" stroke="#D3C208" stroke-width="2.85168"
                    stroke-linecap="round" stroke-linejoin="round"></path>
                <path d="M142.757 157.579L142.717 159.316" stroke="#D3C208" stroke-width="2.85167"
                    stroke-linecap="round" stroke-linejoin="round"></path>
                <path
                    d="M137.243 120.063C138.214 120.063 139.001 120.859 139.001 121.841C139.001 122.822 138.214 123.618 137.243 123.618C136.272 123.618 135.485 122.822 135.485 121.841C135.485 120.859 136.272 120.063 137.243 120.063Z"
                    fill="#FFF36A"></path>
                <path
                    d="M137.763 156.61C137.763 157.499 137.043 158.186 136.204 158.186L120.144 158.155C118.626 158.155 117.428 156.781 117.428 155.125L117.428 112.915C117.428 111.784 118.227 110.895 119.226 110.895L123.82 110.895L137.803 120.67L137.803 156.61L137.763 156.61Z"
                    fill="#FFF36A"></path>
                <path d="M137.243 121.841L135.132 132.824" stroke="#D3C208" stroke-width="2.85168"
                    stroke-linecap="round" stroke-linejoin="round"></path>
                <path
                    d="M140.04 27.6244C125.357 27.6244 112.349 40.0406 108.359 57.8358C106.404 63.3361 107.322 79.3922 109.357 84.3668C111.751 92.051 115.821 98.6029 121.207 103.335C126.753 108.228 133.257 110.817 140.04 110.817C158.195 110.817 172.958 92.1724 172.958 69.2409C172.958 46.2689 158.195 27.6244 140.04 27.6244Z"
                    fill="#54B7FF"></path>
                <path
                    d="M155.123 32.235C155.123 32.235 128.27 25.8853 117.177 39.3126C117.177 39.3126 124.559 28.0693 138.404 27.2604C148.26 26.7346 155.123 32.235 155.123 32.235Z"
                    fill="#26A8FF"></path>
                <path
                    d="M140.479 102.162C124.958 102.162 112.389 89.4223 112.389 73.6897L112.389 60.4242C112.389 44.6916 124.958 31.9519 140.479 31.9519C156 31.9519 168.569 44.6916 168.569 60.4242L168.569 73.6897C168.569 89.4223 156 102.162 140.479 102.162Z"
                    fill="#C16651"></path>
                <path
                    d="M129.51 58.2825C134.83 58.2825 139.143 62.6541 139.143 68.0467C139.143 73.4393 134.83 77.8109 129.51 77.8109C124.19 77.8109 119.877 73.4393 119.877 68.0467C119.877 62.6541 124.19 58.2825 129.51 58.2825Z"
                    fill="white"></path>
                <path
                    d="M129.51 58.2825C134.83 58.2825 139.143 62.6541 139.143 68.0467C139.143 73.4393 134.83 77.8109 129.51 77.8109C124.19 77.8109 119.877 73.4393 119.877 68.0467C119.877 62.6541 124.19 58.2825 129.51 58.2825Z"
                    stroke="#C16651" stroke-width="0.373591"></path>
                <path
                    d="M151.329 58.2825C156.649 58.2825 160.962 62.6541 160.962 68.0467C160.962 73.4393 156.649 77.8109 151.329 77.8109C146.009 77.8109 141.696 73.4393 141.696 68.0467C141.696 62.6541 146.009 58.2825 151.329 58.2825Z"
                    fill="white"></path>
                <path
                    d="M151.329 58.2825C156.649 58.2825 160.962 62.6541 160.962 68.0467C160.962 73.4393 156.649 77.8109 151.329 77.8109C146.009 77.8109 141.696 73.4393 141.696 68.0467C141.696 62.6541 146.009 58.2825 151.329 58.2825Z"
                    stroke="#C16651" stroke-width="0.373591"></path>
            </g>
            <mask id="mask2_4667_32368" style="mask-type:luminance" maskUnits="userSpaceOnUse"
                x="119" y="58" width="21" height="20">
                <path
                    d="M129.51 58.2823C134.83 58.2823 139.143 62.6539 139.143 68.0466C139.143 73.4392 134.83 77.8108 129.51 77.8108C124.19 77.8108 119.877 73.4392 119.877 68.0466C119.877 62.6539 124.19 58.2823 129.51 58.2823Z"
                    fill="white"></path>
            </mask>
            <g mask="url(#mask2_4667_32368)">
                <mask id="mask3_4667_32368" style="mask-type:luminance" maskUnits="userSpaceOnUse"
                    x="-1" y="0" width="282" height="176">
                    <path d="M280.099 0H-0.0986328V175.751H280.099V0Z" fill="white"></path>
                </mask>
                <g mask="url(#mask3_4667_32368)">
                    <path
                        d="M132.293 62.9163C135.291 62.9163 137.722 65.3799 137.722 68.419C137.722 71.4581 135.291 73.9217 132.293 73.9217C129.295 73.9217 126.864 71.4581 126.864 68.419C126.864 65.3799 129.295 62.9163 132.293 62.9163Z"
                        fill="#784B00"></path>
                </g>
            </g>
            <mask id="mask4_4667_32368" style="mask-type:luminance" maskUnits="userSpaceOnUse"
                x="141" y="58" width="20" height="20">
                <path
                    d="M151.329 58.2823C156.649 58.2823 160.962 62.6539 160.962 68.0466C160.962 73.4392 156.649 77.8108 151.329 77.8108C146.009 77.8108 141.696 73.4392 141.696 68.0466C141.696 62.6539 146.009 58.2823 151.329 58.2823Z"
                    fill="white"></path>
            </mask>
            <g mask="url(#mask4_4667_32368)">
                <mask id="mask5_4667_32368" style="mask-type:luminance" maskUnits="userSpaceOnUse"
                    x="-1" y="0" width="282" height="176">
                    <path d="M280.099 0H-0.0986328V175.751H280.099V0Z" fill="white"></path>
                </mask>
                <g mask="url(#mask5_4667_32368)">
                    <path
                        d="M149.288 62.9163C152.286 62.9163 154.717 65.3799 154.717 68.419C154.717 71.4581 152.286 73.9217 149.288 73.9217C146.29 73.9217 143.859 71.4581 143.859 68.419C143.859 65.3799 146.29 62.9163 149.288 62.9163Z"
                        fill="#784B00"></path>
                </g>
            </g>
            <mask id="mask6_4667_32368" style="mask-type:luminance" maskUnits="userSpaceOnUse"
                x="119" y="58" width="21" height="20">
                <path
                    d="M129.51 58.2823C134.83 58.2823 139.143 62.6539 139.143 68.0466C139.143 73.4392 134.83 77.8108 129.51 77.8108C124.19 77.8108 119.877 73.4392 119.877 68.0466C119.877 62.6539 124.19 58.2823 129.51 58.2823Z"
                    fill="white"></path>
            </mask>
            <g mask="url(#mask6_4667_32368)">
                <mask id="mask7_4667_32368" style="mask-type:luminance" maskUnits="userSpaceOnUse"
                    x="-1" y="0" width="282" height="176">
                    <path d="M280.099 0H-0.0986328V175.751H280.099V0Z" fill="white"></path>
                </mask>
                <g mask="url(#mask7_4667_32368)">
                    <path fill-rule="evenodd" clip-rule="evenodd"
                        d="M163.251 59.2203C147.867 55.5041 131.836 55.5154 116.455 59.2579C116.507 54.8685 116.563 50.4753 116.615 46.0859C132 42.3698 148.03 42.3811 163.411 46.1235C163.359 50.4904 163.303 54.8534 163.251 59.2203Z"
                        fill="#9A483A"></path>
                </g>
            </g>
            <mask id="mask8_4667_32368" style="mask-type:luminance" maskUnits="userSpaceOnUse"
                x="141" y="58" width="20" height="20">
                <path
                    d="M151.329 58.2823C156.649 58.2823 160.962 62.6539 160.962 68.0466C160.962 73.4392 156.649 77.8108 151.329 77.8108C146.009 77.8108 141.696 73.4392 141.696 68.0466C141.696 62.6539 146.009 58.2823 151.329 58.2823Z"
                    fill="white"></path>
            </mask>
            <g mask="url(#mask8_4667_32368)">
                <mask id="mask9_4667_32368" style="mask-type:luminance" maskUnits="userSpaceOnUse"
                    x="-1" y="0" width="282" height="176">
                    <path d="M280.099 0H-0.0986328V175.751H280.099V0Z" fill="white"></path>
                </mask>
                <g mask="url(#mask9_4667_32368)">
                    <path fill-rule="evenodd" clip-rule="evenodd"
                        d="M163.251 59.2203C147.867 55.5041 131.836 55.5154 116.455 59.2579C116.507 54.8685 116.563 50.4753 116.615 46.0859C132 42.3698 148.03 42.3811 163.411 46.1235C163.359 50.4904 163.303 54.8534 163.251 59.2203Z"
                        fill="#9A483A"></path>
                </g>
            </g>
            <mask id="mask10_4667_32368" style="mask-type:luminance" maskUnits="userSpaceOnUse"
                x="119" y="58" width="21" height="20">
                <path
                    d="M129.51 58.2823C134.83 58.2823 139.143 62.6539 139.143 68.0466C139.143 73.4392 134.83 77.8108 129.51 77.8108C124.19 77.8108 119.877 73.4392 119.877 68.0466C119.877 62.6539 124.19 58.2823 129.51 58.2823Z"
                    fill="white"></path>
            </mask>
            <g mask="url(#mask10_4667_32368)">
                <mask id="mask11_4667_32368" style="mask-type:luminance" maskUnits="userSpaceOnUse"
                    x="-1" y="0" width="282" height="176">
                    <path d="M280.099 0H-0.0986328V175.751H280.099V0Z" fill="white"></path>
                </mask>
                <g mask="url(#mask11_4667_32368)">
                    <path fill-rule="evenodd" clip-rule="evenodd"
                        d="M163.251 59.2203C147.867 55.5041 131.836 55.5154 116.455 59.2579C116.507 54.8685 116.563 50.4753 116.615 46.0859C132 42.3698 148.03 42.3811 163.411 46.1235C163.359 50.4904 163.303 54.8534 163.251 59.2203Z"
                        fill="#C16651"></path>
                </g>
            </g>
            <mask id="mask12_4667_32368" style="mask-type:luminance" maskUnits="userSpaceOnUse"
                x="141" y="58" width="20" height="20">
                <path
                    d="M151.329 58.2823C156.649 58.2823 160.962 62.6539 160.962 68.0466C160.962 73.4392 156.649 77.8108 151.329 77.8108C146.009 77.8108 141.696 73.4392 141.696 68.0466C141.696 62.6539 146.009 58.2823 151.329 58.2823Z"
                    fill="white"></path>
            </mask>
            <g mask="url(#mask12_4667_32368)">
                <mask id="mask13_4667_32368" style="mask-type:luminance" maskUnits="userSpaceOnUse"
                    x="-1" y="0" width="282" height="176">
                    <path d="M280.099 0H-0.0986328V175.751H280.099V0Z" fill="white"></path>
                </mask>
                <g mask="url(#mask13_4667_32368)">
                    <path fill-rule="evenodd" clip-rule="evenodd"
                        d="M163.251 59.2203C147.867 55.5041 131.836 55.5154 116.455 59.2579C116.507 54.8685 116.563 50.4753 116.615 46.0859C132 42.3698 148.03 42.3811 163.411 46.1235C163.359 50.4904 163.303 54.8534 163.251 59.2203Z"
                        fill="#C16651"></path>
                </g>
            </g>
            <mask id="mask14_4667_32368" style="mask-type:luminance" maskUnits="userSpaceOnUse"
                x="-1" y="0" width="282" height="176">
                <path d="M280.099 0H-0.0986328V175.751H280.099V0Z" fill="white"></path>
            </mask>
            <g mask="url(#mask14_4667_32368)">
                <path
                    d="M151.329 57.9064C156.854 57.9064 161.333 62.4464 161.333 68.0467C161.333 73.6471 156.854 78.1871 151.329 78.1871C145.804 78.1871 141.325 73.6471 141.325 68.0467C141.325 62.4464 145.804 57.9064 151.329 57.9064Z"
                    stroke="#C16651" stroke-width="0.747182"></path>
                <path
                    d="M129.51 57.9064C135.035 57.9064 139.514 62.4464 139.514 68.0467C139.514 73.6471 135.035 78.1871 129.51 78.1871C123.985 78.1871 119.506 73.6471 119.506 68.0467C119.506 62.4464 123.985 57.9064 129.51 57.9064Z"
                    stroke="#C16651" stroke-width="0.747182"></path>
                <path
                    d="M138.932 80.6619L144.198 80.1955C146.09 80.0263 147.489 78.3375 147.322 76.4192C147.155 74.501 145.489 73.083 143.597 73.2522L138.331 73.7186L138.932 80.6619Z"
                    fill="#9B483B"></path>
                <path
                    d="M138.843 80.9328L142.691 80.1617C144.479 79.8044 145.715 78.2735 145.57 76.6035C145.426 74.9298 143.945 73.6434 142.123 73.6058L138.201 73.5231L138.843 80.9328Z"
                    fill="#C16651"></path>
                <path
                    d="M138.936 89.8041C135.815 89.2888 133.7 86.3062 134.208 83.1429L134.286 82.654C134.36 82.1989 134.821 81.9243 135.247 82.0747C136.301 82.4509 138.223 83.079 140.153 83.3987C142.138 83.7259 143.849 83.7335 144.832 83.6958C145.292 83.677 145.652 84.0908 145.578 84.5534L145.504 85.0123C144.999 88.1755 142.056 90.3194 138.936 89.8041Z"
                    fill="black"></path>
                <path
                    d="M139.848 89.586C139.559 89.586 139.266 89.5635 138.98 89.5146C136.984 89.1836 135.37 87.7919 134.717 85.8586C135.203 85.5953 135.726 85.4223 136.279 85.3433C136.505 85.3095 136.731 85.2944 136.958 85.2944C139.251 85.2944 141.236 86.9983 141.63 89.2776C141.054 89.4845 140.457 89.586 139.848 89.586Z"
                    fill="#FF0000"></path>
                <path
                    d="M136.958 85.5877C139.028 85.5877 140.828 87.0621 141.296 89.0819C140.824 89.2249 140.338 89.2963 139.848 89.2963C139.574 89.2963 139.299 89.2738 139.025 89.2286C137.217 88.9315 135.741 87.7128 135.076 86.009C135.47 85.8247 135.885 85.7006 136.319 85.6366C136.531 85.6028 136.746 85.5877 136.958 85.5877ZM136.958 85.001C136.72 85.001 136.479 85.0198 136.238 85.0536C135.555 85.1514 134.928 85.3846 134.371 85.7231C134.976 87.7918 136.694 89.4355 138.932 89.8041C139.24 89.8568 139.544 89.8793 139.848 89.8793C140.583 89.8793 141.292 89.7364 141.949 89.4731C141.945 89.4468 141.945 89.4167 141.941 89.3904C141.581 86.8402 139.425 85.001 136.958 85.001Z"
                    fill="black"></path>
                <path
                    d="M137.037 51.1919L123.732 51.1919C122.61 51.1919 121.729 52.0856 121.729 53.223C121.729 54.3604 122.61 55.2541 123.732 55.2541L137.037 55.2541C138.16 55.2541 139.041 54.3604 139.041 53.223C139.041 52.1262 138.16 51.1919 137.037 51.1919Z"
                    fill="#682B00"></path>
                <path
                    d="M143.842 51.192L157.148 51.192C158.27 51.192 159.151 52.0857 159.151 53.2231C159.151 54.3605 158.27 55.2542 157.148 55.2542L143.842 55.2542C142.72 55.2542 141.839 54.3605 141.839 53.2231C141.839 52.1263 142.76 51.192 143.842 51.192Z"
                    fill="#682B00"></path>
                <path
                    d="M176.346 60.3054C176.312 57.4746 174.957 54.2149 173.844 51.2758C168.526 36.8607 154.728 27.4834 139.567 27.668C125.005 27.8453 111.903 36.7817 106.479 50.4782C105.083 53.9332 104.527 57.4993 104.567 60.8963"
                    stroke="#FFE6B7" stroke-width="3.80556" stroke-linecap="round"
                    stroke-linejoin="round"></path>
                <path
                    d="M102.128 84.021L109.31 83.9336C110.706 83.9166 111.81 82.7707 111.793 81.3552L109.445 71.798L111.566 62.1863C111.549 60.7709 110.418 59.6522 109.022 59.6692L101.84 59.7566C100.444 59.7736 99.3403 60.9196 99.3571 62.335L99.5838 81.4634C99.6011 82.9193 100.771 84.0376 102.128 84.021Z"
                    fill="#FFE6B7"></path>
                <path
                    d="M107.354 83.9574L109.309 83.9336C110.706 83.9166 111.81 82.7707 111.793 81.3552L111.607 79.1329C111.19 74.244 111.131 69.3102 111.432 64.4125L111.566 62.1863C111.549 60.7709 110.418 59.6522 109.022 59.6692L107.067 59.693L107.354 83.9574Z"
                    fill="#6E3400"></path>
                <path
                    d="M106.949 59.7753L102.44 59.8302L102.429 58.8596C102.427 58.6979 102.545 58.5751 102.705 58.5731L106.654 58.525C106.814 58.5231 106.935 58.643 106.937 58.8047L106.949 59.7753Z"
                    fill="#FF8686"></path>
                <path
                    d="M178.412 83.0922L171.23 83.1796C169.834 83.1966 168.703 82.0779 168.686 80.6625L170.807 71.0508L168.459 61.4936C168.442 60.0781 169.546 58.9322 170.942 58.9152L178.124 58.8278C179.52 58.8107 180.651 59.9295 180.668 61.3449L180.894 80.4734C180.912 81.9292 179.768 83.0757 178.412 83.0922Z"
                    fill="#FFE6B7"></path>
                <path
                    d="M173.185 83.1558L171.23 83.1796C169.834 83.1966 168.703 82.0779 168.686 80.6625L168.82 78.4363C169.121 73.5386 169.062 68.6048 168.645 63.7159L168.459 61.4936C168.442 60.0781 169.546 58.9322 170.942 58.9152L172.897 58.8914L173.185 83.1558Z"
                    fill="#6E3400"></path>
                <path
                    d="M178.325 58.9062L173.816 58.9611L173.805 57.9905C173.803 57.8287 173.921 57.7059 174.081 57.704L178.03 57.6559C178.19 57.654 178.311 57.7738 178.313 57.9356L178.325 58.9062Z"
                    fill="#FF8686"></path>
                <path
                    d="M165.895 46.7543C164.419 44.6917 157.836 35.7537 151.97 33.4079C145.347 30.7791 134.973 30.3342 128.828 33.4079C117.417 39.1509 114.743 47.1992 114.743 47.1992C112.868 49.9494 110.314 56.7439 110.195 57.7954C109.676 61.5567 109.037 67.6232 109.596 71.4249C110.035 74.3369 110.913 77.2892 110.594 80.2012C110.434 81.5763 109.995 82.8705 109.955 84.2455C109.915 85.8633 115.94 94.0733 117.816 96.4999C123.801 104.265 131.86 108.593 140.479 108.593C149.097 108.593 157.157 104.306 163.142 96.4999C165.337 93.6689 170.524 84.1647 170.444 82.5874C170.404 81.2123 169.965 79.9181 169.806 78.543C169.447 75.5906 170.564 72.7191 170.803 69.7667C171.88 56.4203 165.935 46.7948 165.895 46.7543ZM140.479 101.353C126.953 101.353 115.94 86.5913 115.94 68.4725C115.94 48.6552 128.628 41.618 140.479 41.618C152.329 41.618 165.018 48.6956 165.018 68.4725C165.018 86.5913 154.005 101.353 140.479 101.353Z"
                    fill="#54B7FF"></path>
                <path
                    d="M126.155 95.1245C128.469 97.3085 130.744 99.3306 133.457 100.342C133.457 100.342 149.337 108.552 160.549 101.838C152.649 117.652 129.746 100.544 126.155 95.1245Z"
                    fill="#26A8FF"></path>
            </g>

        </g>
    </g>
    <defs>
        <linearGradient id="paint0_linear_4667_32368" x1="202.215" y1="69.613" x2="190.243"
            y2="62.0154" gradientUnits="userSpaceOnUse">
            <stop stop-color="#FF9EE3"></stop>
            <stop offset="0.5093" stop-color="#FF9861"></stop>
            <stop offset="1" stop-color="#B34FDB"></stop>
        </linearGradient>
        <linearGradient id="paint1_linear_4667_32368" x1="199.978" y1="72.0919" x2="188.96"
            y2="65.0999" gradientUnits="userSpaceOnUse">
            <stop stop-color="white"></stop>
            <stop offset="0.5093" stop-color="#C2FFC2"></stop>
            <stop offset="1" stop-color="#DBC48C"></stop>
        </linearGradient>
        <linearGradient id="paint2_linear_4667_32368" x1="199.133" y1="72.4509" x2="199.961"
            y2="71.1741" gradientUnits="userSpaceOnUse">
            <stop stop-color="#E493FF"></stop>
            <stop offset="0.4921" stop-color="#B7A9FF"></stop>
            <stop offset="0.9986" stop-color="#FFF2E2"></stop>
            <stop offset="1" stop-color="#FFF2E2"></stop>
        </linearGradient>
        <linearGradient id="paint3_linear_4667_32368" x1="197.64" y1="71.4823" x2="198.468"
            y2="70.2055" gradientUnits="userSpaceOnUse">
            <stop stop-color="#E493FF"></stop>
            <stop offset="0.4921" stop-color="#B7A9FF"></stop>
            <stop offset="0.9986" stop-color="#FFF2E2"></stop>
            <stop offset="1" stop-color="#FFF2E2"></stop>
        </linearGradient>
        <linearGradient id="paint4_linear_4667_32368" x1="196.143" y1="70.5118" x2="196.972"
            y2="69.235" gradientUnits="userSpaceOnUse">
            <stop stop-color="#E493FF"></stop>
            <stop offset="0.4921" stop-color="#B7A9FF"></stop>
            <stop offset="0.9986" stop-color="#FFF2E2"></stop>
            <stop offset="1" stop-color="#FFF2E2"></stop>
        </linearGradient>
        <linearGradient id="paint5_linear_4667_32368" x1="194.647" y1="69.541" x2="195.475"
            y2="68.2642" gradientUnits="userSpaceOnUse">
            <stop stop-color="#E493FF"></stop>
            <stop offset="0.4921" stop-color="#B7A9FF"></stop>
            <stop offset="0.9986" stop-color="#FFF2E2"></stop>
            <stop offset="1" stop-color="#FFF2E2"></stop>
        </linearGradient>
        <linearGradient id="paint6_linear_4667_32368" x1="193.151" y1="68.5704" x2="193.98"
            y2="67.2936" gradientUnits="userSpaceOnUse">
            <stop stop-color="#E493FF"></stop>
            <stop offset="0.4921" stop-color="#B7A9FF"></stop>
            <stop offset="0.9986" stop-color="#FFF2E2"></stop>
            <stop offset="1" stop-color="#FFF2E2"></stop>
        </linearGradient>
        <linearGradient id="paint7_linear_4667_32368" x1="191.655" y1="67.5996" x2="192.483"
            y2="66.3228" gradientUnits="userSpaceOnUse">
            <stop stop-color="#E493FF"></stop>
            <stop offset="0.4921" stop-color="#B7A9FF"></stop>
            <stop offset="0.9986" stop-color="#FFF2E2"></stop>
            <stop offset="1" stop-color="#FFF2E2"></stop>
        </linearGradient>
        <linearGradient id="paint8_linear_4667_32368" x1="190.158" y1="66.629" x2="190.987"
            y2="65.3522" gradientUnits="userSpaceOnUse">
            <stop stop-color="#E493FF"></stop>
            <stop offset="0.4921" stop-color="#B7A9FF"></stop>
            <stop offset="0.9986" stop-color="#FFF2E2"></stop>
            <stop offset="1" stop-color="#FFF2E2"></stop>
        </linearGradient>
        <linearGradient id="paint9_linear_4667_32368" x1="188.662" y1="65.6583" x2="189.49"
            y2="64.3815" gradientUnits="userSpaceOnUse">
            <stop stop-color="#E493FF"></stop>
            <stop offset="0.4921" stop-color="#B7A9FF"></stop>
            <stop offset="0.9986" stop-color="#FFF2E2"></stop>
            <stop offset="1" stop-color="#FFF2E2"></stop>
        </linearGradient>
        <linearGradient id="paint10_linear_4667_32368" x1="140.005" y1="178.307" x2="140.005"
            y2="136.317" gradientUnits="userSpaceOnUse">
            <stop stop-color="white"></stop>
            <stop offset="1" stop-color="white" stop-opacity="0"></stop>
        </linearGradient>
        <clipPath id="clip0_4667_32368">
            <rect width="280" height="234" fill="white"></rect>
        </clipPath>
    </defs>
</svg>