<svg xmlns="http://www.w3.org/2000/svg" id="groupActivity" fill="none" viewBox="0 0 40 40">
  <path fill="var(--connect__icon-fill-color, #2d2d2d)" d="M1.611 27.972c0-.963.248-1.84.743-2.632a4.646 4.646 0 0 1 2.035-1.785c1.926-.88 3.727-1.52 5.403-1.923a21.971 21.971 0 0 1 5.153-.605c1.759 0 3.472.202 5.138.605 1.667.402 3.463 1.044 5.39 1.923a4.735 4.735 0 0 1 2.048 1.785c.505.792.757 1.669.757 2.632v1.389c0 .764-.272 1.418-.816 1.962a2.675 2.675 0 0 1-1.962.816H4.389a2.675 2.675 0 0 1-1.962-.816 2.676 2.676 0 0 1-.816-1.962v-1.389Zm34 4.167h-5.25c.195-.445.359-.896.493-1.354.134-.459.201-.933.201-1.424v-1.5c0-1.574-.381-2.905-1.145-3.993s-1.892-2.007-3.382-2.757a37.7 37.7 0 0 1 4.944.896c1.547.393 2.852.872 3.917 1.437.944.537 1.68 1.179 2.208 1.924.528.745.792 1.576.792 2.493v1.5c0 .764-.272 1.418-.816 1.962a2.675 2.675 0 0 1-1.962.816ZM14.945 18.777c-1.834 0-3.357-.606-4.57-1.819s-1.82-2.736-1.82-4.57c0-1.833.607-3.356 1.82-4.569S13.111 6 14.945 6c1.833 0 3.356.606 4.569 1.82 1.213 1.212 1.82 2.735 1.82 4.569 0 1.833-.607 3.356-1.82 4.57-1.213 1.212-2.736 1.819-4.57 1.819ZM30.5 12.39c0 1.833-.607 3.356-1.82 4.57-1.212 1.212-2.735 1.819-4.569 1.819-.305 0-.662-.026-1.07-.077a5.591 5.591 0 0 1-1.069-.229 7.769 7.769 0 0 0 1.59-2.695c.366-1.036.55-2.166.55-3.388 0-1.223-.184-2.334-.55-3.334a9.213 9.213 0 0 0-1.59-2.75c.333-.102.69-.178 1.07-.229.38-.05.736-.076 1.07-.076 1.833 0 3.356.606 4.568 1.82 1.213 1.212 1.82 2.735 1.82 4.569ZM4.389 29.36H25.5v-1.389c0-.398-.113-.778-.34-1.139a1.986 1.986 0 0 0-.855-.778c-1.833-.842-3.458-1.428-4.875-1.757a19.801 19.801 0 0 0-4.485-.493c-1.575 0-3.075.165-4.5.493-1.427.33-3.056.915-4.89 1.757a1.907 1.907 0 0 0-.84.778 2.18 2.18 0 0 0-.326 1.14v1.388ZM14.945 16c1.027 0 1.886-.345 2.576-1.035.69-.69 1.034-1.549 1.034-2.576 0-1.028-.344-1.887-1.034-2.576-.69-.69-1.549-1.036-2.576-1.036-1.028 0-1.887.346-2.577 1.036-.69.69-1.035 1.548-1.035 2.576 0 1.027.345 1.886 1.035 2.576.69.69 1.549 1.035 2.577 1.035Z"/>
</svg>