<svg xmlns="http://www.w3.org/2000/svg" id="groupActivityVariant" fill="none" viewBox="0 0 40 40">
  <path fill="var(--connect__icon-fill-color, #2d2d2d)" d="M1.389 30c-.394 0-.723-.133-.99-.4A1.345 1.345 0 0 1 0 28.612v-.958c0-1.113.588-2.018 1.764-2.716 1.176-.699 2.721-1.048 4.635-1.048.346 0 .678.007.997.02.32.015.632.046.937.095a7.003 7.003 0 0 0-.625 1.588 6.833 6.833 0 0 0-.208 1.7V30H1.389Zm10 0c-.394 0-.723-.133-.99-.4a1.345 1.345 0 0 1-.399-.989v-1.32c0-.888.243-1.7.73-2.437.485-.736 1.173-1.382 2.062-1.937.889-.556 1.951-.973 3.187-1.25 1.236-.278 2.577-.417 4.021-.417 1.472 0 2.826.139 4.063.417 1.236.277 2.298.694 3.187 1.25.889.555 1.57 1.201 2.042 1.937.472.736.708 1.549.708 2.438v1.32c0 .393-.133.722-.4.989a1.342 1.342 0 0 1-.989.399H11.39ZM32.5 30v-2.708c0-.609-.063-1.182-.188-1.72a6.409 6.409 0 0 0-.59-1.566 7.79 7.79 0 0 1 .928-.096c.314-.014.634-.021.961-.021 1.917 0 3.46.343 4.632 1.028 1.171.686 1.757 1.598 1.757 2.736v.958c0 .394-.133.723-.4.99a1.342 1.342 0 0 1-.989.399H32.5Zm-19.653-2.778h14.32v-.167c-.093-.87-.817-1.592-2.174-2.166-1.356-.574-3.02-.861-4.993-.861-1.972 0-3.637.287-4.993.86-1.357.575-2.077 1.306-2.16 2.195v.14ZM6.377 22.5c-.835 0-1.55-.3-2.148-.898a2.945 2.945 0 0 1-.896-2.157c0-.852.3-1.575.898-2.167a2.956 2.956 0 0 1 2.158-.89c.852 0 1.574.297 2.166.89.593.592.89 1.319.89 2.179a2.94 2.94 0 0 1-.89 2.147c-.592.597-1.318.896-2.178.896Zm27.222 0c-.835 0-1.55-.3-2.148-.898a2.945 2.945 0 0 1-.896-2.157c0-.852.3-1.575.898-2.167a2.956 2.956 0 0 1 2.158-.89c.852 0 1.574.297 2.167.89.592.592.889 1.319.889 2.179a2.94 2.94 0 0 1-.89 2.147c-.592.597-1.318.896-2.178.896ZM20 20c-1.389 0-2.57-.486-3.542-1.458C15.486 17.569 15 16.389 15 15c0-1.417.486-2.604 1.458-3.563C17.431 10.48 18.611 10 20 10c1.417 0 2.604.48 3.563 1.438C24.52 12.396 25 13.582 25 15c0 1.389-.48 2.57-1.438 3.542S21.418 20 20 20Zm.01-2.778c.632 0 1.159-.214 1.58-.642.422-.427.632-.957.632-1.59 0-.632-.212-1.159-.636-1.58-.424-.421-.95-.632-1.576-.632-.627 0-1.156.212-1.586.636-.43.424-.646.95-.646 1.576 0 .627.214 1.156.642 1.586.427.43.957.646 1.59.646Z"/>
</svg>