<svg xmlns="http://www.w3.org/2000/svg" id="groupActivity" viewBox="0 0 20 20" fill="none">
  <path d="M3 14.075C3 13.7527 3.07812 13.4566 3.23437 13.1864C3.39062 12.9163 3.60625 12.7 3.88125 12.5375C4.55625 12.1375 5.27187 11.8312 6.02812 11.6187C6.78437 11.4062 7.575 11.3 8.4 11.3C9.225 11.3 10.0156 11.4062 10.7719 11.6187C11.5281 11.8312 12.2437 12.1375 12.9187 12.5375C13.1937 12.7 13.4094 12.9163 13.5656 13.1864C13.7219 13.4566 13.8 13.7527 13.8 14.075V14.45C13.8 14.8212 13.6677 15.1391 13.4032 15.4034C13.1388 15.6678 12.8208 15.8 12.4493 15.8H4.34475C3.97325 15.8 3.65625 15.6678 3.39375 15.4034C3.13125 15.1391 3 14.8212 3 14.45V14.075ZM16.05 15.8H14.7937C14.9062 15.5875 14.9937 15.3676 15.0562 15.1402C15.1187 14.9129 15.15 14.6829 15.15 14.45V14.075C15.15 13.55 15.0281 13.0625 14.7844 12.6125C14.5406 12.1625 14.2125 11.7937 13.8 11.5062C14.2875 11.6062 14.7594 11.7406 15.2156 11.9094C15.6719 12.0781 16.1062 12.2875 16.5187 12.5375C16.7937 12.7 17.0094 12.9167 17.1656 13.1876C17.3219 13.4586 17.4 13.7544 17.4 14.075V14.45C17.4 14.8212 17.2678 15.1391 17.0034 15.4034C16.7391 15.6678 16.4212 15.8 16.05 15.8ZM8.4 10.4C7.65 10.4 7.0125 10.1375 6.4875 9.6125C5.9625 9.0875 5.7 8.45 5.7 7.7C5.7 6.95 5.9625 6.3125 6.4875 5.7875C7.0125 5.2625 7.65 5 8.4 5C9.15 5 9.7875 5.2625 10.3125 5.7875C10.8375 6.3125 11.1 6.95 11.1 7.7C11.1 8.45 10.8375 9.0875 10.3125 9.6125C9.7875 10.1375 9.15 10.4 8.4 10.4ZM14.7 7.7C14.7 8.45 14.4375 9.0875 13.9125 9.6125C13.3875 10.1375 12.75 10.4 12 10.4C11.9 10.4 11.8062 10.3969 11.7187 10.3906C11.6312 10.3844 11.5375 10.3687 11.4375 10.3437C11.75 9.98125 11.9969 9.57812 12.1781 9.13437C12.3594 8.69062 12.45 8.2125 12.45 7.7C12.45 7.1875 12.3594 6.70937 12.1781 6.26562C11.9969 5.82187 11.75 5.41875 11.4375 5.05625C11.5375 5.03125 11.6312 5.01562 11.7187 5.00937C11.8062 5.00312 11.9 5 12 5C12.75 5 13.3875 5.2625 13.9125 5.7875C14.4375 6.3125 14.7 6.95 14.7 7.7ZM4.35 14.45H12.45V14.075C12.45 13.9941 12.4311 13.9206 12.3932 13.8545C12.3554 13.7882 12.3056 13.7367 12.2437 13.7C11.6562 13.3625 11.0375 13.1031 10.3875 12.9219C9.7375 12.7406 9.075 12.65 8.4 12.65C7.725 12.65 7.0625 12.7375 6.4125 12.9125C5.7625 13.0875 5.14375 13.35 4.55625 13.7C4.49437 13.7354 4.4445 13.7848 4.40663 13.8483C4.36888 13.9119 4.35 13.9869 4.35 14.0733V14.45ZM8.40394 9.05C8.77631 9.05 9.09375 8.91744 9.35625 8.65231C9.61875 8.38719 9.75 8.06844 9.75 7.69606C9.75 7.32369 9.61744 7.00625 9.35231 6.74375C9.08719 6.48125 8.76844 6.35 8.39606 6.35C8.02369 6.35 7.70625 6.48256 7.44375 6.74769C7.18125 7.01281 7.05 7.33156 7.05 7.70394C7.05 8.07631 7.18256 8.39375 7.44769 8.65625C7.71281 8.91875 8.03156 9.05 8.40394 9.05Z" fill="var(--connect__icon-fill-color, #2d2d2d)"/>
</svg>