<svg xmlns="http://www.w3.org/2000/svg" xmlns:ns0="http://www.w3.org/2000/svg" viewBox="0 0 40 40"><ns0:path fill="var(--connect__icon-fill-color, #2d2d2d)" fill-rule="evenodd" d="M20 4C11.2 4 4 11.2 4 20C4 28.8 11.2 36 20 36C28.8 36 36 28.8 36 20C36 11.2 28.8 4 20 4ZM20 30C18.8 30 18 29.2 18 28C18 26.8 18.8 26 20 26C21.2 26 22 26.8 22 28C22 29.2 21.2 30 20 30ZM22 22C22 21.6 22 21.4 23 20.8C24.2 20 26 18.8 26 16C26 12.6 23.4 10 20 10C17.8 10 15.8 11.2 14.8 13L13.8 14.8L17.2 16.8L18.2 15C18.6 14.4 19.2 14 20 14C21.2 14 22 14.8 22 16C22 16.6 21.8 16.8 20.8 17.4C19.6 18.2 18 19.4 18 22V24H22V22Z" clip-rule="evenodd"/></svg>