<svg xmlns="http://www.w3.org/2000/svg" xmlns:ns0="http://www.w3.org/2000/svg" viewBox="0 0 30 30"><ns0:path fill="var(--connect__icon-fill-color, #2d2d2d)" d="M18.9337 14.6667L24.0003 21.3334H8.00033L12.0003 16.1334L14.8003 19.7334L18.667 14.6667H18.9337ZM11.3337 14.6667C12.4003 14.6667 13.3337 13.7334 13.3337 12.6667C13.3337 11.6 12.4003 10.6667 11.3337 10.6667C10.267 10.6667 9.33366 11.6 9.33366 12.6667C9.33366 13.7334 10.267 14.6667 11.3337 14.6667ZM29.3337 8.00004V24C29.3337 25.4667 28.1337 26.6667 26.667 26.6667H5.33366C3.86699 26.6667 2.66699 25.4667 2.66699 24V8.00004C2.66699 6.53337 3.86699 5.33337 5.33366 5.33337H26.667C28.1337 5.33337 29.3337 6.53337 29.3337 8.00004ZM26.667 11.7334V8.00004H5.33366V24H26.667V11.7334Z"/></svg>