<?xml version='1.0' encoding='utf-8'?>
<svg xmlns:ns0="http://www.w3.org/2000/svg" xmlns="http://www.w3.org/2000/svg" viewBox="0 0 28 28"><ns0:g filter="url(#filter0_ddd_2035_6735)">
                <ns0:path fill-rule="evenodd" clip-rule="evenodd" d="M20.2632 14.1807C20.4736 14.4953 20.6392 14.7222 20.7617 14.8711C22.5685 17.0662 22.1813 20.2756 19.9604 22.0024C17.8177 23.6685 14.7097 23.375 12.9327 21.3054L12.1604 22.0561C10.1795 23.9813 7.00236 23.9813 5.02151 22.0561C2.99283 20.0843 2.99283 16.8512 5.02151 14.8794L7.56681 12.4056C7.13794 11.5939 6.68801 10.7301 6.21667 9.81393C4.90729 7.26867 6.00621 4.23263 8.50821 3.01675C10.8876 1.86043 13.8174 2.69977 15.1657 5.01993L15.8396 4.36497L17.9305 6.51627L14.3771 9.96992C13.922 9.11863 13.4367 8.19516 12.9222 7.20048C12.8241 7.01086 12.725 6.81865 12.6248 6.62386C12.1083 5.61997 10.8524 5.21306 9.81947 5.715C8.78659 6.21695 8.36793 7.43767 8.88437 8.44157C9.7602 10.1441 10.5574 11.656 11.2789 12.9812L7.11242 17.0307C6.29586 17.8244 6.29586 19.1111 7.11242 19.9048C7.92899 20.6984 9.25291 20.6984 10.0695 19.9048L13.3879 16.6795C14.0577 17.7817 14.6238 18.6221 15.0913 19.2074C15.1213 19.2449 15.1508 19.2813 15.18 19.3167C15.9013 20.1931 17.2172 20.3352 18.1189 19.6341C19.0207 18.9329 19.1669 17.6541 18.4455 16.7776C17.9755 16.2066 17.306 15.1775 16.4484 13.7049L20.8876 9.39032C21.7041 8.59667 21.7041 7.30991 20.8876 6.51627C20.071 5.72262 18.7471 5.72262 17.9305 6.51627L15.8396 4.36497C17.8205 2.43972 20.9976 2.43972 22.9785 4.36497C25.0072 6.33671 25.0072 9.56987 22.9785 11.5416L20.2632 14.1807Z" fill="white" />
            </ns0:g>
            <ns0:path d="M16.4484 13.7048C17.306 15.1775 17.9755 16.2066 18.4455 16.7776C19.1669 17.6541 19.0207 18.9329 18.1189 19.6341C17.2172 20.3352 15.9013 20.1931 15.18 19.3167C14.6959 18.7286 14.1007 17.8523 13.3879 16.6795L10.0695 19.9048C9.25291 20.6984 7.92899 20.6984 7.11242 19.9048C6.29586 19.1111 6.29586 17.8244 7.11242 17.0307L11.2789 12.9812C10.5574 11.6559 9.7602 10.144 8.88437 8.44156C8.36793 7.43767 8.78659 6.21694 9.81947 5.715C10.8524 5.21305 12.1083 5.61996 12.6248 6.62385C13.2506 7.84043 13.8352 8.95634 14.3771 9.96991L17.9305 6.51626C18.7471 5.72261 20.071 5.72261 20.8876 6.51626C21.7041 7.3099 21.7041 8.59666 20.8876 9.39031L16.4484 13.7048Z" fill="#73828F" />
            <ns0:defs>
                <ns0:filter id="filter0_ddd_2035_6735" x="0.5" y="0.500977" width="27" height="26.999" filterUnits="userSpaceOnUse" color-interpolation-filters="sRGB">
                    <ns0:feFlood flood-opacity="0" result="BackgroundImageFix" />
                    <ns0:feColorMatrix in="SourceAlpha" type="matrix" values="0 0 0 0 0 0 0 0 0 0 0 0 0 0 0 0 0 0 127 0" result="hardAlpha" />
                    <ns0:feOffset dy="1" />
                    <ns0:feGaussianBlur stdDeviation="1.5" />
                    <ns0:feComposite in2="hardAlpha" operator="out" />
                    <ns0:feColorMatrix type="matrix" values="0 0 0 0 0 0 0 0 0 0 0 0 0 0 0 0 0 0 0.12 0" />
                    <ns0:feBlend mode="normal" in2="BackgroundImageFix" result="effect1_dropShadow_2035_6735" />
                    <ns0:feColorMatrix in="SourceAlpha" type="matrix" values="0 0 0 0 0 0 0 0 0 0 0 0 0 0 0 0 0 0 127 0" result="hardAlpha" />
                    <ns0:feOffset dy="1" />
                    <ns0:feGaussianBlur stdDeviation="0.5" />
                    <ns0:feComposite in2="hardAlpha" operator="out" />
                    <ns0:feColorMatrix type="matrix" values="0 0 0 0 0 0 0 0 0 0 0 0 0 0 0 0 0 0 0.14 0" />
                    <ns0:feBlend mode="normal" in2="effect1_dropShadow_2035_6735" result="effect2_dropShadow_2035_6735" />
                    <ns0:feColorMatrix in="SourceAlpha" type="matrix" values="0 0 0 0 0 0 0 0 0 0 0 0 0 0 0 0 0 0 127 0" result="hardAlpha" />
                    <ns0:feOffset dy="2" />
                    <ns0:feGaussianBlur stdDeviation="0.5" />
                    <ns0:feComposite in2="hardAlpha" operator="out" />
                    <ns0:feColorMatrix type="matrix" values="0 0 0 0 0 0 0 0 0 0 0 0 0 0 0 0 0 0 0.2 0" />
                    <ns0:feBlend mode="normal" in2="effect2_dropShadow_2035_6735" result="effect3_dropShadow_2035_6735" />
                    <ns0:feBlend mode="normal" in="SourceGraphic" in2="effect3_dropShadow_2035_6735" result="shape" />
                </ns0:filter>
            </ns0:defs>
        </svg>