<?xml version='1.0' encoding='utf-8'?>
<svg xmlns:ns0="http://www.w3.org/2000/svg" xmlns="http://www.w3.org/2000/svg" viewBox="0 0 32 33"><ns0:g id="Feedback / Incorrect">
                <ns0:g id="5-8 Incorrect (Stroke)" filter="url(#filter0_ddd_2025_6408)">
                    <ns0:path fill-rule="evenodd" clip-rule="evenodd" d="M25.0256 22.9528C24.9373 23.7475 24.5355 24.474 23.9093 24.9711L20.7197 27.5033C19.4289 28.5281 17.5532 28.3197 16.5188 27.0366C15.9705 26.3564 15.3644 25.4916 14.7018 24.4574L11.0016 28.1294C9.83191 29.2902 7.94491 29.2902 6.77522 28.1294L3.88695 25.2632C3.31937 24.6999 3.00014 23.9334 3.00014 23.1338C3.00014 22.3341 3.31937 21.5676 3.88695 21.0043L9.55654 15.378C8.5729 13.5112 7.50808 11.4398 6.36076 9.16265C6.00132 8.44925 5.94125 7.62195 6.19386 6.86411C6.44647 6.10627 6.99089 5.48047 7.70648 5.12541L11.3599 3.31264C12.8377 2.57939 14.6302 3.17688 15.3725 4.65013C15.9545 5.80532 16.5133 6.90303 17.0486 7.94307L20.9987 4.02309C22.1684 2.86232 24.0554 2.86232 25.2251 4.02309L28.1133 6.88934C28.6809 7.45259 29.0001 8.21913 29.0001 9.01876C29.0001 9.81839 28.6809 10.5849 28.1133 11.1482L22.0496 17.1657C23.0837 18.9218 23.8573 20.0909 24.3796 20.7387C24.8813 21.3612 25.1139 22.1582 25.0256 22.9528ZM18.3008 16.6594L26.0001 9.01876L23.1119 6.15252L16.274 12.9382C15.8096 12.0645 15.3236 11.1378 14.8162 10.1584C14.1457 8.86413 13.4379 7.47775 12.6933 6L9.03992 7.81278C9.50688 8.73959 9.95964 9.6312 10.3983 10.4878C11.4267 12.496 12.3777 14.3116 13.2526 15.9366L6.00014 23.1338L8.88841 26L15.3015 19.6358C15.8718 20.6311 16.3987 21.5165 16.8829 22.2929C16.9675 22.4286 17.0508 22.561 17.1328 22.69C17.7323 23.6333 18.2621 24.3991 18.7238 24.9892C18.768 25.0457 18.8115 25.1005 18.8544 25.1537L22.044 22.6215C22.0104 22.5799 21.9762 22.5368 21.9415 22.4924C21.0754 21.3854 19.8573 19.4351 18.3008 16.6594Z" fill="white" />
                </ns0:g>
                <ns0:path id="5-8 Incorrect" d="M22.0438 22.6215L18.8543 25.1537C17.9501 24.0321 16.7696 22.1979 15.3013 19.6358L8.88827 26L6 23.1338L13.2525 15.9366C12.0043 13.6185 10.6015 10.9125 9.03978 7.81277L12.6932 6C14.0011 8.59595 15.1956 10.9099 16.2739 12.9382L23.1117 6.15251L26 9.01876L18.3007 16.6594C19.9196 19.5464 21.1724 21.5405 22.0438 22.6215Z" fill="#F80800" />
            </ns0:g>
            <ns0:defs>
                <ns0:filter id="filter0_ddd_2025_6408" x="0.000137329" y="0.999359" width="32" height="32.0006" filterUnits="userSpaceOnUse" color-interpolation-filters="sRGB">
                    <ns0:feFlood flood-opacity="0" result="BackgroundImageFix" />
                    <ns0:feColorMatrix in="SourceAlpha" type="matrix" values="0 0 0 0 0 0 0 0 0 0 0 0 0 0 0 0 0 0 127 0" result="hardAlpha" />
                    <ns0:feOffset dy="1" />
                    <ns0:feGaussianBlur stdDeviation="1.5" />
                    <ns0:feComposite in2="hardAlpha" operator="out" />
                    <ns0:feColorMatrix type="matrix" values="0 0 0 0 0 0 0 0 0 0 0 0 0 0 0 0 0 0 0.12 0" />
                    <ns0:feBlend mode="normal" in2="BackgroundImageFix" result="effect1_dropShadow_2025_6408" />
                    <ns0:feColorMatrix in="SourceAlpha" type="matrix" values="0 0 0 0 0 0 0 0 0 0 0 0 0 0 0 0 0 0 127 0" result="hardAlpha" />
                    <ns0:feOffset dy="1" />
                    <ns0:feGaussianBlur stdDeviation="0.5" />
                    <ns0:feComposite in2="hardAlpha" operator="out" />
                    <ns0:feColorMatrix type="matrix" values="0 0 0 0 0 0 0 0 0 0 0 0 0 0 0 0 0 0 0.14 0" />
                    <ns0:feBlend mode="normal" in2="effect1_dropShadow_2025_6408" result="effect2_dropShadow_2025_6408" />
                    <ns0:feColorMatrix in="SourceAlpha" type="matrix" values="0 0 0 0 0 0 0 0 0 0 0 0 0 0 0 0 0 0 127 0" result="hardAlpha" />
                    <ns0:feOffset dy="2" />
                    <ns0:feGaussianBlur stdDeviation="0.5" />
                    <ns0:feComposite in2="hardAlpha" operator="out" />
                    <ns0:feColorMatrix type="matrix" values="0 0 0 0 0 0 0 0 0 0 0 0 0 0 0 0 0 0 0.2 0" />
                    <ns0:feBlend mode="normal" in2="effect2_dropShadow_2025_6408" result="effect3_dropShadow_2025_6408" />
                    <ns0:feBlend mode="normal" in="SourceGraphic" in2="effect3_dropShadow_2025_6408" result="shape" />
                </ns0:filter>
            </ns0:defs>
        </svg>