<svg viewBox="0 0 30 30" id="infinity" fill="none" xmlns="http://www.w3.org/2000/svg"><path d="M18.578 18.542c-.573 0-1.086-.1-1.54-.3-.453-.2-.88-.48-1.28-.84-.4-.374-.806-.807-1.22-1.3h-.08c-.226.266-.506.56-.84.88a5.6 5.6 0 0 1-1.14.84c-.426.226-.92.34-1.48.34-.546 0-1.053-.14-1.52-.42a3.398 3.398 0 0 1-1.1-1.16 3.199 3.199 0 0 1-.4-1.58c0-.707.14-1.314.42-1.82.294-.52.68-.914 1.16-1.18.494-.28 1.054-.42 1.68-.42.547 0 1.027.113 1.44.34.414.213.78.48 1.1.8.334.32.62.64.86.96h.08a9.83 9.83 0 0 1 1.04-1.18 4.949 4.949 0 0 1 1.28-.9c.48-.227 1-.34 1.56-.34.667 0 1.254.153 1.76.46.52.293.927.706 1.22 1.24.294.52.44 1.12.44 1.8 0 .76-.153 1.426-.46 2-.293.56-.7 1-1.22 1.32-.52.306-1.106.46-1.76.46zm-7.42-1.64c.547 0 1.047-.18 1.5-.54.454-.36.847-.794 1.18-1.3-.413-.574-.846-1.034-1.3-1.38-.44-.347-.913-.52-1.42-.52-.546 0-.993.16-1.34.48-.346.306-.52.74-.52 1.3s.18 1.026.54 1.4c.374.373.827.56 1.36.56zm7.44.08c.667 0 1.187-.214 1.56-.64.374-.427.56-.934.56-1.52 0-.667-.2-1.214-.6-1.64-.386-.427-.946-.64-1.68-.64-.573 0-1.113.186-1.62.56-.506.36-1.006.886-1.5 1.58.56.733 1.094 1.3 1.6 1.7.507.4 1.067.6 1.68.6z" fill="var(--connect__icon-fill-color, #2d2d2d)"/></svg>