<svg xmlns="http://www.w3.org/2000/svg" id="info" fill="none" viewBox="0 0 40 40">
  <path fill="var(--connect__icon-fill-color, #2d2d2d)" d="M19.755 28c.395 0 .724-.133.988-.4a1.35 1.35 0 0 0 .396-.989V19.39c0-.394-.134-.723-.4-.99a1.352 1.352 0 0 0-.994-.399c-.395 0-.724.133-.988.4a1.35 1.35 0 0 0-.396.989v7.222c0 .394.134.723.4.99.268.266.599.399.994.399Zm-.089-13.167a1.44 1.44 0 0 0 1.05-.415c.282-.277.423-.62.423-1.03 0-.424-.141-.78-.423-1.068a1.41 1.41 0 0 0-1.049-.431c-.417 0-.767.144-1.05.431a1.466 1.466 0 0 0-.422 1.069c0 .41.14.752.422 1.029a1.44 1.44 0 0 0 1.05.415Zm.008 21.5c-2.3 0-4.463-.437-6.486-1.312a16.905 16.905 0 0 1-5.3-3.576 16.9 16.9 0 0 1-3.575-5.302C3.438 24.12 3 21.955 3 19.653c0-2.302.438-4.466 1.313-6.49.875-2.026 2.067-3.788 3.576-5.288a17.021 17.021 0 0 1 5.301-3.563C15.215 3.438 17.378 3 19.68 3c2.303 0 4.466.438 6.491 1.313 2.025.875 3.787 2.062 5.287 3.562s2.688 3.264 3.563 5.292c.875 2.027 1.312 4.192 1.312 6.492 0 2.301-.437 4.463-1.312 6.486-.875 2.024-2.063 3.788-3.563 5.294-1.5 1.506-3.264 2.698-5.291 3.577-2.028.878-4.192 1.317-6.493 1.317Zm.006-2.778c3.861 0 7.14-1.351 9.834-4.055 2.694-2.704 4.041-5.986 4.041-9.847 0-3.861-1.345-7.139-4.036-9.833-2.69-2.695-5.975-4.042-9.852-4.042-3.852 0-7.13 1.345-9.834 4.036-2.703 2.691-4.055 5.975-4.055 9.853 0 3.852 1.352 7.13 4.055 9.833 2.704 2.704 5.986 4.055 9.847 4.055Z"/>
</svg>