<svg xmlns="http://www.w3.org/2000/svg" id="info" viewBox="0 0 16 16" fill="none">
  <path d="M8.00016 11.3333C8.18905 11.3333 8.34738 11.2694 8.47516 11.1416C8.60294 11.0139 8.66683 10.8555 8.66683 10.6666V7.99998C8.66683 7.81109 8.60294 7.65276 8.47516 7.52498C8.34738 7.3972 8.18905 7.33331 8.00016 7.33331C7.81127 7.33331 7.65294 7.3972 7.52516 7.52498C7.39738 7.65276 7.3335 7.81109 7.3335 7.99998V10.6666C7.3335 10.8555 7.39738 11.0139 7.52516 11.1416C7.65294 11.2694 7.81127 11.3333 8.00016 11.3333ZM8.00016 5.99998C8.18905 5.99998 8.34738 5.93609 8.47516 5.80831C8.60294 5.68053 8.66683 5.5222 8.66683 5.33331C8.66683 5.14442 8.60294 4.98609 8.47516 4.85831C8.34738 4.73054 8.18905 4.66665 8.00016 4.66665C7.81127 4.66665 7.65294 4.73054 7.52516 4.85831C7.39738 4.98609 7.3335 5.14442 7.3335 5.33331C7.3335 5.5222 7.39738 5.68053 7.52516 5.80831C7.65294 5.93609 7.81127 5.99998 8.00016 5.99998ZM8.00016 14.6666C7.07794 14.6666 6.21127 14.4916 5.40016 14.1416C4.58905 13.7916 3.8835 13.3166 3.2835 12.7166C2.6835 12.1166 2.2085 11.4111 1.8585 10.6C1.5085 9.78887 1.3335 8.9222 1.3335 7.99998C1.3335 7.07776 1.5085 6.21109 1.8585 5.39998C2.2085 4.58887 2.6835 3.88331 3.2835 3.28331C3.8835 2.68331 4.58905 2.20831 5.40016 1.85831C6.21127 1.50831 7.07794 1.33331 8.00016 1.33331C8.92238 1.33331 9.78905 1.50831 10.6002 1.85831C11.4113 2.20831 12.1168 2.68331 12.7168 3.28331C13.3168 3.88331 13.7918 4.58887 14.1418 5.39998C14.4918 6.21109 14.6668 7.07776 14.6668 7.99998C14.6668 8.9222 14.4918 9.78887 14.1418 10.6C13.7918 11.4111 13.3168 12.1166 12.7168 12.7166C12.1168 13.3166 11.4113 13.7916 10.6002 14.1416C9.78905 14.4916 8.92238 14.6666 8.00016 14.6666ZM8.00016 13.3333C9.48905 13.3333 10.7502 12.8166 11.7835 11.7833C12.8168 10.75 13.3335 9.48887 13.3335 7.99998C13.3335 6.51109 12.8168 5.24998 11.7835 4.21665C10.7502 3.18331 9.48905 2.66665 8.00016 2.66665C6.51127 2.66665 5.25016 3.18331 4.21683 4.21665C3.1835 5.24998 2.66683 6.51109 2.66683 7.99998C2.66683 9.48887 3.1835 10.75 4.21683 11.7833C5.25016 12.8166 6.51127 13.3333 8.00016 13.3333Z" fill="var(--connect__icon-fill-color, #2d2d2d)" />
</svg>