<svg viewBox="0 0 30 30" id="isApproximatelyEqualTo" fill="none" xmlns="http://www.w3.org/2000/svg"><path d="M16.75 14.092a2.19 2.19 0 0 1-1.06-.26 7.722 7.722 0 0 1-.88-.58 6.032 6.032 0 0 0-.8-.58 1.394 1.394 0 0 0-.8-.26c-.28 0-.553.093-.82.28-.253.187-.493.5-.72.94l-.92-.66c.373-.64.773-1.1 1.2-1.38.44-.28.873-.42 1.3-.42.4 0 .753.086 1.06.26.307.173.593.373.86.6.28.213.547.406.8.58.267.16.54.24.82.24.293 0 .567-.094.82-.28.253-.2.493-.513.72-.94l.92.68c-.36.627-.76 1.08-1.2 1.36-.427.28-.86.42-1.3.42zm0 4.28a2.19 2.19 0 0 1-1.06-.26 7.722 7.722 0 0 1-.88-.58 6.032 6.032 0 0 0-.8-.58 1.394 1.394 0 0 0-.8-.26c-.28 0-.553.093-.82.28-.253.186-.493.5-.72.94l-.92-.66c.373-.64.773-1.1 1.2-1.38.44-.28.873-.42 1.3-.42.4 0 .753.087 1.06.26.307.173.593.373.86.6.28.213.547.406.8.58.267.16.54.24.82.24.293 0 .567-.094.82-.28.253-.2.493-.514.72-.94l.92.68c-.36.627-.76 1.08-1.2 1.36-.427.28-.86.42-1.3.42z" fill="var(--connect__icon-fill-color, #2d2d2d)"/></svg>