<svg xmlns="http://www.w3.org/2000/svg" id="lineDashed" viewBox="0 0 20 20" fill="none">
  <path fill-rule="evenodd" clip-rule="evenodd" d="M4.65034 3.93642C5.05366 3.55912 5.68647 3.58022 6.06377 3.98353L7.35109 5.35964L5.89055 6.72595L4.60323 5.34985C4.22593 4.94653 4.24702 4.31372 4.65034 3.93642ZM7.99867 6.05187L10.5733 8.80408L9.11277 10.1704L6.53813 7.41819L7.99867 6.05187ZM11.2209 9.49632L13.7955 12.2485L12.335 13.6148L9.76035 10.8626L11.2209 9.49632ZM14.4431 12.9408L15.7304 14.3169C16.1077 14.7202 16.0866 15.353 15.6833 15.7303C15.28 16.1076 14.6472 16.0865 14.2699 15.6832L12.9826 14.3071L14.4431 12.9408Z" fill="var(--connect__icon-fill-color, #2d2d2d)"/>
</svg>