<svg width="30" height="30" viewBox="0 0 30 30" fill="none" xmlns="http://www.w3.org/2000/svg">
<g clip-path="url(#clip0_2_135)">
<path d="M23.3952 21.2761L10.8794 8.76027L19.5768 8.2653C20.4253 8.2653 21.0617 7.48748 20.991 6.70966C20.991 5.86114 20.2132 5.22474 19.4354 5.29545L7.41457 6.00256C7.27315 6.00256 7.06102 6.07327 6.91959 6.07327C6.91959 6.07327 6.91959 6.07327 6.84888 6.14398C6.63675 6.21469 6.56604 6.2854 6.42462 6.42682C6.2832 6.56824 6.21249 6.63895 6.14178 6.85108C6.14178 6.85108 6.14178 6.85108 6.07107 6.9218C6.00036 7.13393 5.92965 7.20464 6.00036 7.41677L5.29325 19.4376C5.29325 19.8618 5.43467 20.2861 5.71751 20.569C6.00036 20.8518 6.2832 20.9932 6.70746 20.9932C7.55599 20.9932 8.2631 20.4275 8.2631 19.579L8.75807 10.8816L21.2739 23.3974C21.8395 23.9631 22.8295 23.9631 23.3952 23.3974C23.9609 22.8317 23.9609 21.8417 23.3952 21.2761Z" fill="#2D2D2D"/>
</g>
<defs>
<clipPath id="clip0_2_135">
<rect width="30" height="30" fill="white"/>
</clipPath>
</defs>
</svg>
