<svg xmlns="http://www.w3.org/2000/svg" id="lineArrow" viewBox="0 0 20 20" fill="none">
    <path d="M15.5969 14.184L7.25301 5.84016L13.0513 5.51018C13.617 5.51018 14.0412 4.99163 13.9941 4.47309C13.9941 3.9074 13.4755 3.48314 12.957 3.53028L4.94313 4.00168C4.84885 4.00168 4.70743 4.04882 4.61314 4.04882C4.61314 4.04882 4.61314 4.04882 4.566 4.09597C4.42458 4.14311 4.37744 4.19025 4.28316 4.28453C4.18888 4.37881 4.14174 4.42595 4.0946 4.56737C4.0946 4.56737 4.0946 4.56737 4.04746 4.61451C4.00032 4.75593 3.95318 4.80307 4.00032 4.94449L3.52891 12.9584C3.52891 13.2412 3.62319 13.5241 3.81176 13.7126C4.00032 13.9012 4.18888 13.9955 4.47172 13.9955C5.03741 13.9955 5.50881 13.6183 5.50881 13.0527L5.8388 7.25438L14.1827 15.5982C14.5598 15.9754 15.2197 15.9754 15.5969 15.5982C15.974 15.2211 15.974 14.5611 15.5969 14.184Z" fill="var(--connect__icon-fill-color, #2d2d2d)"/>
</svg>