<svg xmlns="http://www.w3.org/2000/svg" fill="none" viewBox="0 0 30 30" id="lineArrow">
  <g clip-path="url(#a)">
    <path fill="var(--connect__icon-fill-color, #2d2d2d)" d="M23.395 21.276 10.88 8.76l8.698-.495c.848 0 1.485-.778 1.414-1.555 0-.849-.778-1.485-1.556-1.415l-12.02.708c-.142 0-.354.07-.495.07l-.071.071c-.212.07-.283.141-.424.283-.142.141-.213.212-.283.424l-.07.07C6 7.135 5.93 7.206 6 7.418l-.707 12.02c0 .425.142.85.425 1.132.282.283.565.424.99.424.848 0 1.555-.566 1.555-1.414l.495-8.697 12.516 12.515c.566.566 1.555.566 2.121 0 .566-.565.566-1.555 0-2.12Z"/>
  </g>
  <defs>
    <clipPath id="a">
      <path fill="#fff" d="M0 0h30v30H0z"/>
    </clipPath>
  </defs>
</svg>