<?xml version='1.0' encoding='utf-8'?>
<svg xmlns:ns0="http://www.w3.org/2000/svg" xmlns="http://www.w3.org/2000/svg" fill="var(--connect__icon-fill-color, #2d2d2d)" viewBox="0 0 30 30"><ns0:path d="M22.1002 22.6416C21.8557 22.7428 21.5791 22.7428 21.3346 22.6416L21.5258 22.1796C21.4675 22.1555 21.4124 22.1196 21.3639 22.0711L20.6921 21.3993L20.3385 21.7529L18.995 20.4094L19.3486 20.0558L18.0051 18.7123L17.6515 19.0658L16.308 17.7223L16.6616 17.3688L15.3181 16.0253L14.9645 16.3788L13.621 15.0353L13.9746 14.6818L12.6311 13.3383L12.2775 13.6918L10.934 12.3483L11.2876 11.9948L9.94408 10.6513L9.59052 11.0048L8.24702 9.66133L8.60058 9.30778L7.92882 8.63602C7.88023 8.58743 7.84438 8.53237 7.82027 8.47409L7.35825 8.66525C7.25709 8.42073 7.25709 8.14421 7.35825 7.89969L7.82027 8.09085C7.84438 8.03257 7.88023 7.97751 7.92882 7.92892C7.97741 7.88033 8.03248 7.84448 8.09075 7.82036L7.8996 7.35835C8.14412 7.25718 8.42064 7.25718 8.66516 7.35835L8.474 7.82036C8.53228 7.84448 8.58734 7.88033 8.63593 7.92892L9.30768 8.60067L9.66124 8.24712L11.0047 9.59062L10.6512 9.94417L11.9947 11.2877L12.3482 10.9341L13.6917 12.2776L13.3382 12.6312L14.6817 13.9747L15.0352 13.6211L16.3787 14.9646L16.0252 15.3182L17.3687 16.6617L17.7223 16.3081L19.0658 17.6516L18.7122 18.0052L20.0557 19.3487L20.4093 18.9951L21.7528 20.3386L21.3992 20.6922L22.071 21.3639C22.1196 21.4125 22.1554 21.4676 22.1795 21.5259L22.6415 21.3347C22.7427 21.5792 22.7427 21.8558 22.6415 22.1003L22.1795 21.9091C22.1554 21.9674 22.1195 22.0225 22.071 22.0711C22.0224 22.1196 21.9673 22.1555 21.909 22.1796L22.1002 22.6416Z" fill="var(--connect__icon-stroke-color, #a6a6a6)" stroke-dasharray="2 2" />
        </svg>