<svg viewBox="0 0 30 30" id="line" fill="none" xmlns="http://www.w3.org/2000/svg"><path fill-rule="evenodd" clip-rule="evenodd" d="m18.5 1.726 5 2.887-5 2.887V5.113h-7V7.5l-5-2.887 5-2.887v2.387h7V1.726z" fill="var(--connect__icon-fill-color, #2d2d2d)"/><path d="M20.25 28.27H9.633c-.469 0-.864-.161-1.185-.485a1.624 1.624 0 0 1-.482-1.189V10.987c0-.469.162-.865.486-1.189.324-.324.72-.486 1.19-.486h10.615c.469 0 .864.162 1.185.486.322.324.482.72.482 1.19v15.608c0 .469-.162.865-.486 1.19-.324.323-.72.485-1.19.485zM9.641 26.918H20.25c.094 0 .17-.03.23-.09s.091-.137.091-.23v-15.61c0-.093-.03-.17-.09-.23a.312.312 0 0 0-.23-.09H9.64c-.093 0-.17.03-.23.09a.312.312 0 0 0-.09.23v15.61c0 .093.03.17.09.23s.137.09.23.09z" fill="var(--connect__icon-fill-color, #2d2d2d)"/></svg>