<svg width="30" height="30" viewBox="0 0 30 30" fill="none" xmlns="http://www.w3.org/2000/svg">
<path fill-rule="evenodd" clip-rule="evenodd" d="M6.97526 5.9046C7.58024 5.33865 8.52946 5.37029 9.0954 5.97527L11.0264 8.03943L8.83558 10.0889L6.90459 8.02474C6.33864 7.41976 6.37029 6.47054 6.97526 5.9046ZM11.9978 9.07778L15.8597 13.2061L13.6689 15.2556L9.80694 11.1273L11.9978 9.07778ZM16.8311 14.2444L20.6931 18.3728L18.5022 20.4222L14.6403 16.2939L16.8311 14.2444ZM21.6644 19.4111L23.5954 21.4753C24.1614 22.0802 24.1297 23.0295 23.5247 23.5954C22.9198 24.1614 21.9705 24.1297 21.4046 23.5247L19.4736 21.4606L21.6644 19.4111Z" fill="#2D2D2D"/>
</svg>
