<?xml version='1.0' encoding='utf-8'?>
<svg xmlns:ns0="http://www.w3.org/2000/svg" xmlns="http://www.w3.org/2000/svg" fill="var(--connect__icon-fill-color, #2d2d2d)" viewBox="0 0 40 40"><ns0:path d="M4.69419 6.75374C8.67467 9.52124 13.9638 9.91899 20.464 8.05444C26.1791 6.41511 30.5682 6.70116 33.7171 8.80489C34.406 9.26508 35.3375 9.07972 35.7977 8.39088C36.2579 7.70203 36.0725 6.77055 35.3836 6.31036C31.4056 3.65276 26.128 3.30879 19.6368 5.17074C13.9308 6.80747 9.55327 6.47827 6.40674 4.29059C5.72656 3.81768 4.7918 3.98571 4.31889 4.66589C3.84598 5.34607 4.01401 6.28083 4.69419 6.75374Z" fill="currentcolor" />
            <ns0:path d="M5.5674 19.4266C10.0544 22.1429 15.3243 22.0579 21.2898 19.5971C24.5824 18.2388 27.6215 18.7535 31.1551 20.914C32.6865 21.8503 34.6869 21.3679 35.6232 19.8366C36.5595 18.3052 36.0771 16.3047 34.5457 15.3684C29.3861 12.2138 24.2512 11.3442 18.8111 13.5882C14.5943 15.3277 11.4321 15.3787 8.93354 13.8662C7.39806 12.9366 5.39977 13.4279 4.47023 14.9633C3.5407 16.4988 4.03192 18.4971 5.5674 19.4266Z" fill="currentcolor" />
            <ns0:path d="M7.14625 34.6524C11.7835 36.5624 16.647 36.3839 22.0098 34.0983C24.147 33.1874 26.1707 33.5611 28.0112 34.97C30.2039 36.6485 33.3421 36.2317 35.0207 34.039C36.6992 31.8463 36.2824 28.708 34.0896 27.0295C29.5415 23.5479 23.7629 22.4808 18.0891 24.899C15.0988 26.1734 13.0044 26.2503 10.9547 25.406C8.40136 24.3544 5.47895 25.5717 4.42728 28.125C3.37561 30.6783 4.59294 33.6007 7.14625 34.6524Z" fill="currentcolor" />
        </svg>