<svg xmlns="http://www.w3.org/2000/svg" xmlns:ns0="http://www.w3.org/2000/svg" viewBox="0 0 40 40"><ns0:rect width="22" height="4" x="14" y="6" fill="var(--connect__icon-fill-color, #2d2d2d)"/><ns0:rect width="22" height="4" x="14" y="18" fill="var(--connect__icon-fill-color, #2d2d2d)"/><ns0:rect width="22" height="4" x="14" y="30" fill="var(--connect__icon-fill-color, #2d2d2d)"/><ns0:path fill="var(--connect__icon-fill-color, #2d2d2d)" d="M4.73645 12V10.9024L5.93117 10.8053C6.12553 10.7917 6.15339 10.736 6.15339 10.528V5.6806C6.15339 5.51412 6.11195 5.4305 5.97259 5.38908L4.76433 5.13898L4.91725 4H8.25059V10.5281C8.25059 10.7503 8.26415 10.7917 8.47281 10.8053L9.61179 10.9025V12H4.73645Z"/><ns0:path fill="var(--connect__icon-fill-color, #2d2d2d)" d="M4.0947 24V22.7409L5.90878 20.968C7.27576 19.6414 7.85794 19.1003 7.85794 18.3287C7.85794 17.8273 7.6142 17.4624 6.89694 17.4624C6.15178 17.4624 5.8405 17.7062 5.8405 18.6672L4 18.5042C4.01322 16.3524 5.6511 16 7.0724 16C9.1706 16 9.91502 16.8935 9.91502 18.1657C9.91502 19.4388 9.03552 20.2779 8.04734 21.2249L6.5174 22.6873H8.50768C8.64276 22.6873 8.69708 22.6602 8.72426 22.5244L8.91366 21.4554H10.3482V24H4.0947Z"/><ns0:path fill="var(--connect__icon-fill-color, #2d2d2d)" d="M8.68894 31.3645C9.8218 31.5379 10.4475 32.217 10.4475 33.4156C10.4475 35.1742 9.12894 36 7.22374 36C5.87846 36 4.67986 35.521 4 34.7746L5.06566 33.6027C5.57212 34.0955 6.13132 34.4813 7.06406 34.4813C7.81038 34.4813 8.44978 34.2154 8.44978 33.2827C8.44978 32.4699 7.94332 32.1368 7.11752 32.1368C6.78446 32.1368 6.53158 32.1636 6.13132 32.23V30.8985L6.78444 30.8183C7.74318 30.6983 8.26264 30.2323 8.26264 29.3798C8.26264 28.8733 8.0365 28.4608 7.29018 28.4608C6.5713 28.4608 6.22524 28.7007 6.22524 29.6464L4.40024 29.486C4.40024 27.3814 5.98538 27.0216 7.3841 27.0216C9.43524 27.0216 10.2213 27.8077 10.2213 29.2331C10.2213 30.3523 9.52844 31.0581 8.6889 31.311V31.3645H8.68894Z"/></svg>