<?xml version='1.0' encoding='utf-8'?>
<svg xmlns:ns0="http://www.w3.org/2000/svg" xmlns="http://www.w3.org/2000/svg" viewBox="0 0 40 40"><ns0:g clip-path="url(#clip0_717_2569)">
                <ns0:path d="M20 23C17.2 23 15 21.2 15 18.4V8.6C15.2 5.8 17.2 4 20 4C22.8 4 25 5.8 25 8.6V18.4C24.8 21.2 22.8 23 20 23Z" fill="var(--connect__icon-fill-color, #2d2d2d)" />
                <ns0:path d="M22 27H18V35H22V27Z" fill="var(--connect__icon-fill-color, #2d2d2d)" />
                <ns0:path d="M20 28C14.4 28 10 24 10 19C10 18.4 10.4 18 11 18C11.6 18 12 18.4 12 19C12 22.8 15.6 26 20 26C24.4 26 28 22.8 28 19C28 18.4 28.4 18 29 18C29.6 18 30 18.4 30 19C30 24 25.6 28 20 28Z" fill="var(--connect__icon-fill-color, #2d2d2d)" />
                <ns0:path d="M27 36H13C12.4 36 12 35.6 12 35C12 34.4 12.4 34 13 34H27C27.6 34 28 34.4 28 35C28 35.6 27.6 36 27 36Z" fill="var(--connect__icon-fill-color, #2d2d2d)" />
            </ns0:g>
            <ns0:defs>
                <ns0:clipPath id="clip0_717_2569">
                    <ns0:rect width="20" height="32" fill="white" transform="translate(10 4)" />
                </ns0:clipPath>
            </ns0:defs>
        </svg>