<svg xmlns="http://www.w3.org/2000/svg" viewBox="0 0 20 32" fill="none" id="mic">
    <g clip-path="url(#a)" fill="var(--connect__icon-fill-color, #2d2d2d)">
        <path d="M10 19.621c-2.8 0-5-1.848-5-4.724V4.832C5.2 1.957 7.2.108 10 .108s5 1.849 5 4.724v10.065c-.2 2.876-2.2 4.724-5 4.724ZM12 23.73H8v8.216h4V23.73Z"/>
        <path d="M10 24.757c-5.6 0-10-4.109-10-9.244 0-.616.4-1.027 1-1.027s1 .411 1 1.027c0 3.903 3.6 7.19 8 7.19s8-3.287 8-7.19c0-.616.4-1.027 1-1.027s1 .411 1 1.027c0 5.135-4.4 9.244-10 9.244ZM17 32.973H3c-.6 0-1-.41-1-1.027 0-.616.4-1.027 1-1.027h14c.6 0 1 .41 1 1.027 0 .616-.4 1.027-1 1.027Z"/>
    </g>
    <defs>
        <clipPath id="a">
            <path d="M0 .108h20v32.865H0z"/>
        </clipPath>
    </defs>
</svg>
