<svg xmlns="http://www.w3.org/2000/svg" id="micFilled" viewBox="0 0 20 20" fill="none">
  <path d="M10.4445 13C9.75006 13 9.15979 12.7569 8.67368 12.2708C8.18756 11.7847 7.94451 11.1944 7.94451 10.5V5.5C7.94451 4.80556 8.18756 4.21528 8.67368 3.72917C9.15979 3.24306 9.75006 3 10.4445 3C11.139 3 11.7292 3.24306 12.2153 3.72917C12.7015 4.21528 12.9445 4.80556 12.9445 5.5V10.5C12.9445 11.1944 12.7015 11.7847 12.2153 12.2708C11.7292 12.7569 11.139 13 10.4445 13ZM9.69451 17.25V15.9375C8.47229 15.7847 7.42715 15.2743 6.55909 14.4062C5.69104 13.5382 5.17368 12.4931 5.00701 11.2708C4.97923 11.0578 5.03402 10.876 5.17138 10.7256C5.30874 10.5752 5.48236 10.5 5.69222 10.5C5.90208 10.5 6.07993 10.5729 6.22576 10.7188C6.37159 10.8646 6.46534 11.0417 6.50701 11.25C6.68756 12.2083 7.14958 12.9896 7.89305 13.5938C8.63666 14.1979 9.48402 14.5 10.4351 14.5C11.3997 14.5 12.2535 14.1944 12.9966 13.5833C13.7396 12.9722 14.2015 12.1944 14.382 11.25C14.4237 11.0417 14.516 10.8646 14.6589 10.7188C14.8018 10.5729 14.9789 10.5 15.1901 10.5C15.4014 10.5 15.5765 10.5752 15.7153 10.7256C15.8542 10.876 15.9098 11.0578 15.882 11.2708C15.7153 12.4931 15.198 13.5382 14.3299 14.4062C13.4619 15.2743 12.4167 15.7847 11.1945 15.9375V17.25C11.1945 17.4625 11.1231 17.6406 10.9801 17.7844C10.8372 17.9281 10.6601 18 10.4489 18C10.2376 18 10.0591 17.9281 9.91326 17.7844C9.76743 17.6406 9.69451 17.4625 9.69451 17.25Z" fill="var(--connect__icon-fill-color, #2d2d2d)"/>
</svg>