<svg  viewBox="0 0 20 20"  id="micOffFilled" fill="none" xmlns="http://www.w3.org/2000/svg">
<path d="M13.8957 12.1667C13.7012 12.0694 13.5762 11.9236 13.5207 11.7292C13.4651 11.5347 13.4859 11.3403 13.5832 11.1458C13.6526 11.0069 13.7186 10.8611 13.7811 10.7083C13.8436 10.5556 13.8887 10.4028 13.9165 10.25C13.9582 10.0417 14.0554 9.86458 14.2082 9.71875C14.3609 9.57292 14.5415 9.5 14.7498 9.5C14.9582 9.5 15.1318 9.57639 15.2707 9.72917C15.4096 9.88194 15.4651 10.0556 15.4373 10.25C15.3957 10.5278 15.3366 10.8021 15.2603 11.0729C15.1839 11.3438 15.0762 11.6042 14.9373 11.8542C14.8401 12.0486 14.6908 12.1736 14.4894 12.2292C14.288 12.2847 14.0901 12.2639 13.8957 12.1667ZM11.229 9.10417L7.93734 5.8125C7.78456 5.65972 7.67345 5.49306 7.604 5.3125C7.53456 5.13194 7.49984 4.94444 7.49984 4.75V4.5C7.49984 3.80556 7.74289 3.21528 8.229 2.72917C8.71512 2.24306 9.30539 2 9.99984 2C10.6943 2 11.2846 2.24306 11.7707 2.72917C12.2568 3.21528 12.4998 3.80556 12.4998 4.5V8.5625C12.4998 8.89583 12.3471 9.12847 12.0415 9.26042C11.7359 9.39236 11.4651 9.34028 11.229 9.10417ZM9.24984 16.25V14.9375C8.02762 14.7847 6.98248 14.2743 6.11442 13.4062C5.24637 12.5382 4.729 11.4931 4.56234 10.2708C4.53456 10.0625 4.59012 9.88194 4.729 9.72917C4.86789 9.57639 5.0415 9.5 5.24984 9.5C5.45817 9.5 5.63525 9.57292 5.78109 9.71875C5.92692 9.86458 6.02067 10.0417 6.06234 10.25C6.24289 11.2083 6.7047 11.9896 7.44775 12.5938C8.19081 13.1979 9.0415 13.5 9.99984 13.5C10.4721 13.5 10.92 13.4097 11.3436 13.2292C11.7672 13.0486 12.1596 12.8056 12.5207 12.5L13.604 13.5833C13.2012 13.9306 12.7568 14.2257 12.2707 14.4688C11.7846 14.7118 11.2776 14.8681 10.7498 14.9375V16.25C10.7498 16.4583 10.6769 16.6354 10.5311 16.7812C10.3853 16.9271 10.2082 17 9.99984 17C9.7915 17 9.61442 16.9271 9.46859 16.7812C9.32275 16.6354 9.24984 16.4583 9.24984 16.25ZM15.479 17.5833L2.39567 4.5C2.24289 4.34722 2.1665 4.17361 2.1665 3.97917C2.1665 3.78472 2.24289 3.61111 2.39567 3.45833C2.54845 3.30556 2.72553 3.22917 2.92692 3.22917C3.12831 3.22917 3.30539 3.30556 3.45817 3.45833L16.5415 16.5417C16.6943 16.6944 16.7707 16.8681 16.7707 17.0625C16.7707 17.2569 16.6943 17.4306 16.5415 17.5833C16.3887 17.7361 16.2116 17.8125 16.0103 17.8125C15.8089 17.8125 15.6318 17.7361 15.479 17.5833Z" fill="var(--connect__icon-fill-color, #2d2d2d)"/>
</svg>
