<svg  viewBox="0 0 20 20" id="micOff" fill="none" xmlns="http://www.w3.org/2000/svg">
<path d="M13.8957 12.1696C13.7012 12.0744 13.5762 11.9286 13.5207 11.7321C13.4651 11.5357 13.4859 11.3403 13.5832 11.1458C13.6526 11.0069 13.7186 10.8621 13.7811 10.7113C13.8436 10.5606 13.8887 10.4068 13.9165 10.25C13.9582 10.0417 14.0554 9.86458 14.2082 9.71875C14.3609 9.57292 14.5428 9.5 14.7536 9.5C14.9644 9.5 15.138 9.57639 15.2744 9.72917C15.4108 9.88194 15.4651 10.0587 15.4373 10.2594C15.3957 10.5309 15.3366 10.8021 15.2603 11.0729C15.1839 11.3438 15.0762 11.6042 14.9373 11.8542C14.8401 12.0486 14.6908 12.1736 14.4894 12.2292C14.288 12.2847 14.0901 12.2649 13.8957 12.1696ZM9.99984 2C10.6943 2 11.2846 2.24306 11.7707 2.72917C12.2568 3.21528 12.4998 3.80556 12.4998 4.5V8.5625C12.4998 8.8125 12.4217 9 12.2655 9.125C12.1092 9.25 11.9373 9.3125 11.7498 9.3125C11.5623 9.3125 11.3905 9.24847 11.2342 9.12042C11.078 8.99236 10.9998 8.80639 10.9998 8.5625V4.5C10.9998 4.21667 10.904 3.97917 10.7123 3.7875C10.5207 3.59583 10.2832 3.5 9.99984 3.5C9.7165 3.5 9.479 3.59583 9.28734 3.7875C9.09567 3.97917 8.99984 4.21667 8.99984 4.5V5.0625C8.99984 5.3125 8.92171 5.5 8.76546 5.625C8.60921 5.75 8.43734 5.8125 8.24984 5.8125C8.06234 5.8125 7.89046 5.74847 7.73421 5.62042C7.57796 5.49236 7.49984 5.30639 7.49984 5.0625V4.5C7.49984 3.80556 7.74289 3.21528 8.229 2.72917C8.71512 2.24306 9.30539 2 9.99984 2ZM9.24984 16.25V14.9375C8.02942 14.779 6.9847 14.2672 6.11567 13.4019C5.24678 12.5367 4.729 11.4931 4.56234 10.2708C4.53456 10.0578 4.58935 9.87604 4.72671 9.72563C4.86407 9.57521 5.03768 9.5 5.24755 9.5C5.45741 9.5 5.63643 9.57188 5.78463 9.71563C5.93268 9.85938 6.02525 10.0375 6.06234 10.25C6.24289 11.2083 6.7047 11.9896 7.44775 12.5938C8.19081 13.1979 9.0415 13.5 9.99984 13.5C10.4721 13.5 10.92 13.4097 11.3436 13.2292C11.7672 13.0486 12.1596 12.8056 12.5207 12.5L13.604 13.5833C13.1971 13.9318 12.7516 14.2273 12.2675 14.4698C11.7835 14.7122 11.2776 14.8681 10.7498 14.9375V16.25C10.7498 16.4625 10.6784 16.6406 10.5355 16.7844C10.3925 16.9281 10.2155 17 10.0042 17C9.79296 17 9.61442 16.9281 9.46859 16.7844C9.32275 16.6406 9.24984 16.4625 9.24984 16.25ZM15.479 17.5833L2.39567 4.5C2.24289 4.34722 2.1665 4.17361 2.1665 3.97917C2.1665 3.78472 2.24289 3.61111 2.39567 3.45833C2.54845 3.30556 2.72553 3.22917 2.92692 3.22917C3.12831 3.22917 3.30539 3.30556 3.45817 3.45833L16.5415 16.5417C16.6943 16.6944 16.7707 16.8681 16.7707 17.0625C16.7707 17.2569 16.6943 17.4306 16.5415 17.5833C16.3887 17.7361 16.2116 17.8125 16.0103 17.8125C15.8089 17.8125 15.6318 17.7361 15.479 17.5833Z" fill="var(--connect__icon-fill-color, #2d2d2d)"/>
</svg>
