<svg viewBox="0 0 20 20" fill="none" xmlns="http://www.w3.org/2000/svg" id="middleOutline">
<path fill-rule="evenodd" clip-rule="evenodd" d="M10.5 6H14.8462C15.4409 6 15.9231 6.44772 15.9231 7V13C15.9231 13.5523 15.4409 14 14.8462 14H10.5V6ZM10.5 5H14.8462C16.0357 5 17 5.89543 17 7V13C17 14.1046 16.0357 15 14.8462 15H10.5H9.5H5.15384C3.96431 15 3 14.1046 3 13V7C3 5.89543 3.96431 5 5.15384 5H9.5H10.5ZM9.5 6V14H5.15384C4.55908 14 4.07692 13.5523 4.07692 13V7C4.07692 6.44772 4.55908 6 5.15384 6H9.5Z"  fill="var(--connect__icon-fill-color, #2d2d2d)"/>
</svg>
