<svg viewBox="0 0 30 30" id="mixedNumber" fill="none" xmlns="http://www.w3.org/2000/svg"><path fill-rule="evenodd" clip-rule="evenodd" d="M18.845 1.41c-.307 0-.57.108-.784.323-.214.215-.321.481-.321.79v9.205c0 .309.106.574.318.79.212.215.475.323.782.323h6.211c.307 0 .57-.108.784-.323.214-.215.32-.481.32-.79V2.523c0-.309-.105-.574-.317-.79a1.059 1.059 0 0 0-.782-.323h-6.211zm-.064 10.318V2.523c0-.026.006-.038.016-.048.01-.01.021-.016.047-.016h6.208c.025 0 .038.007.047.016.01.01.016.022.016.048v9.205c0 .026-.007.038-.016.047-.01.01-.022.017-.047.017h-6.208c-.026 0-.038-.007-.047-.017-.01-.009-.017-.021-.017-.047zM2.729 8.203l-.003.012a.255.255 0 0 1 .068-.122.268.268 0 0 1 .199-.077h9.12c.08 0 .146.026.198.077a.269.269 0 0 1 .078.198v13.42V8.294a.268.268 0 0 0-.078-.198.268.268 0 0 0-.198-.078h-9.12a.268.268 0 0 0-.199.078.255.255 0 0 0-.065.108zm9.383 14.974H2.986c-.41 0-.756-.142-1.037-.425a1.421 1.421 0 0 1-.422-1.04V8.292c0-.409.142-.756.425-1.039.284-.283.631-.425 1.041-.425h9.126c.41 0 .756.142 1.037.425.28.283.421.63.421 1.04v13.419c0 .41-.141.757-.425 1.04-.283.283-.63.425-1.04.425zm-9.12-1.215h9.12a.243.243 0 0 0 .181-.07.243.243 0 0 0 .07-.18V8.292a.243.243 0 0 0-.07-.18.243.243 0 0 0-.18-.07h-9.12a.243.243 0 0 0-.181.07.243.243 0 0 0-.07.18v13.42c0 .074.023.134.07.18.046.047.106.07.18.07zm-.006 1.19h9.126c.403 0 .744-.14 1.023-.418a1.376 1.376 0 0 0 0-.002c-.278.279-.62.418-1.023.418H2.986a1.38 1.38 0 0 1-1.02-.417 1.396 1.396 0 0 1-.413-1.023V8.291a1.537 1.537 0 0 1 0 .002v13.419c0 .403.137.744.414 1.022a1.38 1.38 0 0 0 1.019.418zm12.461-7.648h13v-1.008h-13v1.008zm3.398 1.656c-.307 0-.57.108-.784.323-.214.215-.321.481-.321.79v9.205c0 .308.106.574.318.79.212.215.475.323.782.323h6.211c.307 0 .57-.108.784-.323.214-.215.32-.481.32-.79v-9.205c0-.309-.105-.574-.317-.79a1.059 1.059 0 0 0-.782-.323h-6.211zm-.064 10.318v-9.205c0-.026.006-.038.016-.048.01-.01.021-.016.047-.016h6.208c.025 0 .038.007.047.016.01.01.016.022.016.048v9.205c0 .026-.007.038-.016.047-.01.01-.022.017-.047.017h-6.208c-.026 0-.038-.007-.047-.017-.01-.009-.017-.021-.017-.047z" fill="var(--connect__icon-fill-color, #2d2d2d)"/></svg>