<svg xmlns="http://www.w3.org/2000/svg" fill="none" viewBox="0 0 20 20" id="ml">
    <g clip-path="url(#a)">
        <path fill="var(--connect__icon-fill-color, #2d2d2d)"
            d="M10 18c4.4183 0 8-3.5817 8-8 0-4.41828-3.5817-8-8-8-4.41828 0-8 3.58172-8 8 0 4.4183 3.58172 8 8 8Z" />
        <path fill="var(--connect__icon-fill-color, #2d2d2d)"
            d="M5.48854 7.14571c0-.512.416-.928.928-.928h7.10396c.512 0 .928.416.928.928v4.60159c0 .512-.416.928-.928.928H9.85334l-2.272 2.0992c-.1152.1088-.3072.0256-.3072-.1344v-1.9648h-.8576c-.512 0-.928-.416-.928-.928V7.14571Z" />
        <path fill="#fff"
            d="M7.45288 15.7151c-.0768 0-.16-.0192-.2368-.0512-.21121-.096-.352-.3008-.352-.5376v-1.5616h-.7424c-.7296 0-1.3248-.5952-1.3248-1.3248V7.14553c0-.7296.5952-1.3248 1.3248-1.3248.224 0 .3968.1792.3968.3968s-.1792.3968-.3968.3968c-.288 0-.5248.2368-.5248.5248v5.09437c0 .288.2368.5248.5248.5248h1.14559c.224 0 .39681.1792.39681.3968v1.472l1.9072-1.7664c.0768-.0704.1728-.1088.2688-.1088h4.30722c.288 0 .5248-.2368.5248-.5248V7.13273c0-.288-.2368-.5248-.5248-.5248-.2176 0-.3968-.1792-.3968-.3968s.1792-.3968.3968-.3968c.7296 0 1.3248.5952 1.3248 1.3248v5.09437c0 .7296-.5952 1.3248-1.3248 1.3248H9.99368l-2.1568 1.9968c-.1088.1024-.2496.1536-.3968.1536l.0128.0064Z" />
        <path fill="var(--connect__icon-fill-color, #2d2d2d)"
            d="M10.0387 11.568c1.7472 0 3.1616-1.4144 3.1616-3.16165 0-1.7472-1.4144-3.1616-3.1616-3.1616-1.74722 0-3.16162 1.4144-3.16162 3.1616 0 1.74725 1.4144 3.16165 3.16162 3.16165Z" />
        <path fill="#fff"
            d="M10.0386 11.9647c-1.96479 0-3.55839-1.6-3.55839-3.5584 0-1.9584 1.6-3.5584 3.55839-3.5584 1.9584 0 3.5584 1.6 3.5584 3.5584 0 1.9584-1.6 3.5584-3.5584 3.5584Zm0-6.3232c-1.52319 0-2.75839 1.2352-2.75839 2.7584 0 1.5232 1.2352 2.7584 2.75839 2.7584 1.5232 0 2.7584-1.2352 2.7584-2.7584 0-1.5232-1.2352-2.7584-2.7584-2.7584Z" />
        <path fill="var(--connect__icon-fill-color, #2d2d2d)"
            d="M10.0386 5.24481s-1.06881.8064-1.06881 3.1616c0 2.35519 1.06881 3.16159 1.06881 3.16159" />
        <path fill="#fff"
            d="M10.0323 11.9649c-.08323 0-.16643-.0256-.23683-.0768-.0512-.0384-1.2288-.96-1.2288-3.48157 0-2.5216 1.1776-3.44319 1.2288-3.48159.1728-.1344.42883-.096.56323.0768.1344.1728.096.42239-.0768.55679-.0448.032-.91523.7616-.91523 2.8416 0 2.07997.87683 2.81597.91523 2.84157.1728.1344.2048.384.0704.5632-.0768.1024-.1984.1536-.3136.1536l-.0064.0064Z" />
        <path fill="var(--connect__icon-fill-color, #2d2d2d)"
            d="M10.0385 5.24481s1.0688.8064 1.0688 3.1616c0 2.35519-1.0688 3.16159-1.0688 3.16159" />
        <path fill="#fff"
            d="M10.0386 11.9649c-.1216 0-.2432-.0576-.32-.16-.1344-.1792-.096-.4288.0768-.5632.032-.0256.9088-.7488.9088-2.84156 0-2.0928-.8768-2.816-.9152-2.8416-.1728-.1344-.2048-.384-.0704-.5568.1344-.1728.3776-.2048.5568-.0768.0512.0384 1.2288.96 1.2288 3.4816 0 2.52156-1.1776 3.44316-1.2288 3.48156-.0704.0512-.1536.0832-.2432.0832l.0064-.0064Z" />
        <path fill="#fff"
            d="M9.96812 9.22571c-1.9776 0-3.0208-.4416-3.0656-.4544-.2048-.0896-.2944-.32-.2112-.5248.0896-.2048.32-.2944.5248-.2112.0192.0064.96.3904 2.752.3904 1.79198 0 2.89278-.3968 2.90558-.3968.2048-.0768.4352.0256.512.2368.0768.2048-.0256.4352-.2304.512-.0512.0192-1.216.448-3.18718.448Z" />
    </g>
    <defs>
        <clipPath id="a">
            <path fill="#fff" d="M0 0h20v20H0z" />
        </clipPath>
    </defs>
</svg>