<svg xmlns="http://www.w3.org/2000/svg" viewBox="0 0 20 20" fill="none" id="ml">
    <g clip-path="url(#a)">
        <path fill="#CC00C0" d="M10 18a8 8 0 1 0 0-16 8 8 0 0 0 0 16Z" />
        <path fill="#CC01C0"
            d="M5.489 7.146c0-.512.416-.928.928-.928h7.104c.511 0 .927.416.927.928v4.601a.929.929 0 0 1-.928.928H9.854l-2.272 2.1a.183.183 0 0 1-.307-.135v-1.965h-.857a.929.929 0 0 1-.928-.928V7.146Z" />
        <path fill="#fff"
            d="M7.453 15.715a.59.59 0 0 1-.589-.589v-1.561h-.742c-.73 0-1.325-.595-1.325-1.325V7.146c0-.73.595-1.325 1.325-1.325.224 0 .396.179.396.397 0 .217-.179.396-.396.396a.527.527 0 0 0-.525.525v5.094c0 .288.237.525.525.525h1.145c.224 0 .397.18.397.397v1.472l1.907-1.766a.4.4 0 0 1 .27-.11h4.306a.527.527 0 0 0 .525-.524V7.133a.527.527 0 0 0-.525-.525.399.399 0 0 1-.396-.397c0-.217.179-.397.396-.397.73 0 1.325.596 1.325 1.325v5.094c0 .73-.595 1.325-1.325 1.325H9.994l-2.157 1.997a.572.572 0 0 1-.397.154l.013.006Z" />
        <path fill="#CC01C0"
            d="M10.039 11.568A3.16 3.16 0 0 0 13.2 8.406a3.16 3.16 0 0 0-3.161-3.161 3.16 3.16 0 0 0-3.162 3.161 3.16 3.16 0 0 0 3.162 3.162Z" />
        <path fill="#fff"
            d="M10.039 11.965A3.563 3.563 0 0 1 6.48 8.406c0-1.958 1.6-3.558 3.559-3.558 1.958 0 3.558 1.6 3.558 3.558 0 1.959-1.6 3.559-3.558 3.559Zm0-6.324a2.759 2.759 0 1 0 0 5.518 2.759 2.759 0 0 0 0-5.518Z" />
        <path fill="#CC01C0" d="M10.039 5.245s-1.07.806-1.07 3.161c0 2.356 1.07 3.162 1.07 3.162" />
        <path fill="#fff"
            d="M10.032 11.965a.402.402 0 0 1-.237-.077c-.05-.038-1.228-.96-1.228-3.481 0-2.522 1.177-3.444 1.228-3.482a.406.406 0 0 1 .564.077.398.398 0 0 1-.077.557c-.045.032-.915.761-.915 2.841s.876 2.816.915 2.842a.404.404 0 0 1 .07.563.394.394 0 0 1-.313.154l-.007.006Z" />
        <path fill="#CC01C0" d="M10.039 5.245s1.068.806 1.068 3.161c0 2.356-1.068 3.162-1.068 3.162" />
        <path fill="#fff"
            d="M10.039 11.965a.403.403 0 0 1-.244-.723c.032-.026.91-.75.91-2.842 0-2.093-.878-2.816-.916-2.841a.397.397 0 0 1-.07-.557.403.403 0 0 1 .556-.077c.052.038 1.23.96 1.23 3.482 0 2.521-1.178 3.443-1.23 3.481a.413.413 0 0 1-.243.083l.007-.006Z" />
        <path fill="#fff"
            d="M9.968 9.226c-1.977 0-3.02-.442-3.065-.455a.402.402 0 0 1-.212-.524.402.402 0 0 1 .525-.212c.02.007.96.39 2.752.39 1.792 0 2.893-.396 2.906-.396a.396.396 0 0 1 .512.237.398.398 0 0 1-.23.512c-.052.019-1.217.448-3.188.448Z" />
    </g>
    <defs>
        <clipPath id="a">
            <path fill="#fff" d="M0 0h20v20H0z" />
        </clipPath>
    </defs>
</svg>