<svg viewBox="0 0 30 30" id="negative" fill="none" xmlns="http://www.w3.org/2000/svg"><path d="M22.877 14.373c0-.469-.107-.814-.322-1.035a1.048 1.048 0 0 0-.782-.332c-1.06 0-2.047.814-2.959 2.441-.8 1.433-1.2 2.666-1.2 3.701 0 .521.11.902.331 1.143.228.234.508.352.84.352.983 0 1.93-.791 2.842-2.373.833-1.44 1.25-2.738 1.25-3.897zm-1.22-1.807c.514 0 .91.134 1.19.4.15.144.268.333.352.567l.049.137.215-.742a.627.627 0 0 1 .068-.166c.02-.033.065-.052.137-.059l1.104-.127c.058 0 .09.013.097.04.013.019.013.058 0 .116a4.333 4.333 0 0 0-.058.206c-.014.045-.033.113-.059.205l-.898 3.496c-.196.761-.362 1.419-.498 1.972-.241 1.003-.362 1.576-.362 1.72 0 .09.023.159.069.204a.3.3 0 0 0 .185.059c.059 0 .12-.02.186-.059a1.83 1.83 0 0 0 .253-.176l.166-.136.176-.157.235-.234.605-.625.235.205c-.678.866-1.221 1.455-1.631 1.768-.41.306-.801.459-1.172.459a.688.688 0 0 1-.567-.254 1.01 1.01 0 0 1-.195-.635c0-.234.042-.57.127-1.006.091-.443.18-.814.264-1.113-.117.195-.316.482-.596.86a6.8 6.8 0 0 1-1.016 1.083c-.475.423-.93.723-1.367.899a2.984 2.984 0 0 1-.976.175c-.528 0-1.006-.214-1.436-.644-.43-.436-.645-1.052-.645-1.846 0-1.367.612-2.793 1.836-4.277 1.264-1.543 2.572-2.315 3.926-2.315zM4.898 15.691h10.098v1.368H4.898V15.69z" fill="var(--connect__icon-fill-color, #2d2d2d)"/></svg>