<svg viewBox="0 0 30 30" id="nine" fill="none" xmlns="http://www.w3.org/2000/svg"><path d="M14.208 21.623c-.68 0-1.273-.127-1.78-.38a5.064 5.064 0 0 1-1.3-.96l.92-1.04c.267.306.58.553.94.74.373.186.76.28 1.16.28.614 0 1.174-.18 1.68-.54.507-.373.913-.973 1.22-1.8.32-.84.48-1.973.48-3.4 0-1.053-.113-1.934-.34-2.64-.226-.72-.553-1.267-.98-1.64-.413-.374-.926-.56-1.54-.56-.413 0-.786.12-1.12.36-.333.227-.6.553-.8.98-.2.413-.3.9-.3 1.46 0 .546.087 1.026.26 1.44.187.4.454.713.8.94.347.213.78.32 1.3.32.414 0 .867-.133 1.36-.4.494-.28.954-.747 1.38-1.4l.06 1.3a4.49 4.49 0 0 1-1.42 1.28c-.56.307-1.113.46-1.66.46-.733 0-1.373-.147-1.92-.44a2.948 2.948 0 0 1-1.26-1.32c-.293-.587-.44-1.313-.44-2.18 0-.814.167-1.527.5-2.14.347-.627.807-1.107 1.38-1.44.573-.347 1.2-.52 1.88-.52.627 0 1.207.126 1.74.38a3.64 3.64 0 0 1 1.4 1.16c.4.507.707 1.146.92 1.92.227.76.34 1.653.34 2.68 0 1.28-.133 2.373-.4 3.28-.267.906-.627 1.64-1.08 2.2-.453.56-.973.973-1.56 1.24-.573.253-1.18.38-1.82.38z" fill="var(--connect__icon-fill-color, #2d2d2d)"/></svg>