<svg  viewBox="0 0 20 20" id="noSoundFilled" fill="none" xmlns="http://www.w3.org/2000/svg">
<path d="M14.5 11.0625L13.0833 12.4792C12.9306 12.632 12.7569 12.7049 12.5625 12.6979C12.3681 12.691 12.1944 12.6111 12.0417 12.4583C11.8889 12.3056 11.8125 12.1285 11.8125 11.9271C11.8125 11.7257 11.8889 11.5486 12.0417 11.3958L13.4375 10L12.0208 8.58334C11.8681 8.43056 11.7951 8.25348 11.8021 8.05209C11.809 7.8507 11.8889 7.67362 12.0417 7.52084C12.1944 7.36806 12.3715 7.29167 12.5729 7.29167C12.7743 7.29167 12.9514 7.36806 13.1042 7.52084L14.5 8.93751L15.9167 7.52084C16.0694 7.36806 16.2465 7.29167 16.4479 7.29167C16.6493 7.29167 16.8264 7.36806 16.9792 7.52084C17.1319 7.67362 17.2083 7.8507 17.2083 8.05209C17.2083 8.25348 17.1319 8.43056 16.9792 8.58334L15.5625 10L16.9792 11.4167C17.1319 11.5695 17.2083 11.7431 17.2083 11.9375C17.2083 12.132 17.1319 12.3056 16.9792 12.4583C16.8264 12.6111 16.6493 12.6875 16.4479 12.6875C16.2465 12.6875 16.0694 12.6111 15.9167 12.4583L14.5 11.0625ZM6 12H3.75C3.54167 12 3.36458 11.9271 3.21875 11.7813C3.07292 11.6354 3 11.4583 3 11.25V8.75001C3 8.54167 3.07292 8.36459 3.21875 8.21876C3.36458 8.07292 3.54167 8.00001 3.75 8.00001H6L8.72917 5.27084C8.96528 5.03473 9.23611 4.98265 9.54167 5.11459C9.84722 5.24654 10 5.47917 10 5.81251V14.1875C10 14.5208 9.84722 14.7535 9.54167 14.8854C9.23611 15.0174 8.96528 14.9653 8.72917 14.7292L6 12Z" fill="var(--connect__icon-fill-color, #2d2d2d)"/>
</svg>
