<svg viewBox="0 0 30 30" id="parenthesis" fill="none" xmlns="http://www.w3.org/2000/svg"><path d="M20.302 24.478H9.687c-.47 0-.865-.162-1.186-.486a1.624 1.624 0 0 1-.481-1.189V7.194c0-.469.162-.865.485-1.189.324-.324.721-.485 1.19-.485H20.31c.47 0 .865.161 1.186.485.321.324.482.72.482 1.19v15.608c0 .469-.162.865-.486 1.19-.324.323-.72.485-1.19.485zM9.694 23.124h10.61c.093 0 .17-.03.23-.09s.09-.137.09-.23V7.193c0-.093-.03-.17-.09-.23a.312.312 0 0 0-.23-.09H9.693c-.093 0-.17.03-.23.09a.312.312 0 0 0-.09.23v15.61c0 .093.03.17.09.23s.137.09.23.09zM24.744 26.367l-1.277-.6c1.928-3.18 2.88-6.961 2.88-10.767 0-3.806-.952-7.586-2.88-10.766l1.277-.601c2.078 3.355 3.305 6.96 3.305 11.367 0 4.407-1.227 8.012-3.305 11.367zM5.258 26.367C3.18 23.012 1.953 19.407 1.953 15c0-4.407 1.227-8.012 3.305-11.367l1.277.6C4.607 7.414 3.655 11.195 3.655 15c0 3.806.952 7.587 2.88 10.767l-1.277.6z" fill="var(--connect__icon-fill-color, #2d2d2d)"/></svg>