<svg xmlns="http://www.w3.org/2000/svg" fill="none" viewBox="0 0 40 40" id="pause">
  <path fill="var(--connect__icon-fill-color, #2d2d2d)" d="M24.25 31.333a2.675 2.675 0 0 1-1.962-.816 2.676 2.676 0 0 1-.816-1.962V10.778c0-.764.272-1.418.816-1.962A2.675 2.675 0 0 1 24.25 8h4.305c.764 0 1.418.272 1.962.816.544.544.816 1.198.816 1.962v17.777c0 .764-.272 1.418-.816 1.962a2.676 2.676 0 0 1-1.962.816H24.25Zm-13.472 0a2.676 2.676 0 0 1-1.962-.816A2.676 2.676 0 0 1 8 28.555V10.778c0-.764.272-1.418.816-1.962A2.676 2.676 0 0 1 10.778 8h4.305c.764 0 1.418.272 1.962.816.544.544.816 1.198.816 1.962v17.777c0 .764-.272 1.418-.816 1.962a2.675 2.675 0 0 1-1.962.816h-4.305Zm13.472-2.778h4.305V10.778H24.25v17.777Zm-13.472 0h4.305V10.778h-4.305v17.777Z"/>
</svg>