<?xml version='1.0' encoding='utf-8'?>
<svg xmlns:ns0="http://www.w3.org/2000/svg" xmlns="http://www.w3.org/2000/svg" fill="var(--connect__icon-fill-color, #2d2d2d)" viewBox="0 0 40 40"><ns0:path d="M17.0462 22.3385C17.0462 23.8154 16.1846 24.6769 14.4615 24.6769H13.4769V26.8923H12V20H14.4615C16.1846 20 17.0462 20.8615 17.0462 22.3385ZM15.3231 22.3385C15.3231 21.6 15.0769 21.2308 14.3385 21.2308H13.4769V23.3231H14.2154C15.0769 23.4462 15.3231 23.0769 15.3231 22.3385Z" fill="currentcolor" />
            <ns0:path d="M23.2 23.4462C23.2 25.6615 21.9692 26.8923 20 26.8923H17.5385V20H20C21.9692 20 23.2 21.2308 23.2 23.4462ZM21.4769 23.4462C21.4769 21.9692 20.9846 21.2308 19.8769 21.2308H19.0154V25.5385H19.8769C20.9846 25.6615 21.4769 24.9231 21.4769 23.4462Z" fill="currentcolor" />
            <ns0:path d="M25.2923 21.3538V22.8308H27.7538V24.0615H25.2923V26.8923H23.6923V20H28V21.2308H25.2923V21.3538Z" fill="currentcolor" />
            <ns0:path d="M33.3333 10.4L27.3333 4.53333C26.9333 4.13333 26.4 4 26 4H8C6.93333 4 6 4.93333 6 6V34C6 35.0667 6.93333 36 8 36H32C33.0667 36 34 35.0667 34 34V11.8667C34 11.3333 33.7333 10.8 33.3333 10.4ZM10 32V8H23.3333V12.6667C23.3333 13.7333 24.2667 14.6667 25.3333 14.6667H30V32H10Z" fill="currentcolor" />
        </svg>