<?xml version='1.0' encoding='utf-8'?>
<svg xmlns:ns0="http://www.w3.org/2000/svg" xmlns="http://www.w3.org/2000/svg" viewBox="0 0 30 30"><ns0:g clip-path="url(#clip0_81_31058)">
                <ns0:path d="M19.0345 6.01505C19.573 5.47645 20.2962 5.16281 21.0574 5.13774C21.8186 5.11267 22.5608 5.37804 23.1335 5.88005L23.2775 6.01505L23.9845 6.72205C24.5228 7.26047 24.8363 7.98343 24.8614 8.74439C24.8864 9.50534 24.6212 10.2474 24.1195 10.82L23.9845 10.964L12.7725 22.177C12.614 22.3356 12.422 22.4565 12.2105 22.531L12.0485 22.578L7.59453 23.6061C7.43849 23.6421 7.27608 23.6402 7.12094 23.6005C6.96579 23.5608 6.82244 23.4844 6.70292 23.3778C6.5834 23.2712 6.4912 23.1375 6.43405 22.9879C6.37691 22.8383 6.3565 22.6772 6.37453 22.518L6.39453 22.4051L7.42153 17.95C7.47226 17.7315 7.57136 17.5272 7.71153 17.352L7.82253 17.227L19.0345 6.01505ZM18.3275 9.55005L9.33753 18.54L8.70153 21.298L11.4595 20.661L20.4495 11.671L18.3275 9.55005ZM21.8635 7.42905C21.6913 7.25687 21.4622 7.15344 21.2192 7.13816C20.9762 7.12288 20.7359 7.1968 20.5435 7.34605L20.4495 7.42905L19.7415 8.13605L21.8635 10.257L22.5705 9.55005C22.7427 9.37786 22.8461 9.14876 22.8614 8.90573C22.8767 8.6627 22.8028 8.42245 22.6535 8.23005L22.5705 8.13605L21.8635 7.42905Z" fill="var(--connect__icon-fill-color, #2d2d2d)" />
            </ns0:g>
            <ns0:defs>
                <ns0:clipPath id="clip0_81_31058">
                    <ns0:rect width="24" height="24" fill="white" transform="translate(3 3)" />
                </ns0:clipPath>
            </ns0:defs>
        </svg>