<svg viewBox="0 0 30 30" id="percent" fill="none" xmlns="http://www.w3.org/2000/svg"><path d="M10.42 15.92c-.6 0-1.127-.16-1.58-.48-.44-.333-.787-.806-1.04-1.42-.24-.626-.36-1.38-.36-2.26 0-1.32.273-2.333.82-3.04.546-.72 1.266-1.08 2.16-1.08.893 0 1.613.36 2.16 1.08.546.707.82 1.72.82 3.04 0 .88-.127 1.634-.38 2.26-.24.614-.587 1.087-1.04 1.42-.44.32-.96.48-1.56.48zm0-1.02c.52 0 .933-.26 1.24-.78.32-.533.48-1.32.48-2.36 0-1.053-.16-1.833-.48-2.34-.307-.506-.72-.76-1.24-.76-.507 0-.927.254-1.26.76-.32.507-.48 1.287-.48 2.34 0 1.04.16 1.827.48 2.36.333.52.753.78 1.26.78zm.38 6.34 7.24-13.6h1.12l-7.24 13.6H10.8zm8.76 0c-.6 0-1.127-.16-1.58-.48-.44-.333-.787-.806-1.04-1.42-.24-.626-.36-1.38-.36-2.26 0-1.32.273-2.333.82-3.04.546-.72 1.266-1.08 2.16-1.08.893 0 1.613.36 2.16 1.08.546.707.82 1.72.82 3.04 0 .88-.127 1.634-.38 2.26-.24.614-.587 1.087-1.04 1.42-.44.32-.96.48-1.56.48zm0-1.02c.52 0 .933-.26 1.24-.78.32-.533.48-1.32.48-2.36 0-1.053-.16-1.833-.48-2.34-.307-.506-.72-.76-1.24-.76-.507 0-.927.254-1.26.76-.32.507-.48 1.287-.48 2.34 0 1.04.16 1.827.48 2.36.333.52.753.78 1.26.78z" fill="var(--connect__icon-fill-color, #2d2d2d)"/></svg>