<svg viewBox="0 0 30 30" id="pi" fill="none" xmlns="http://www.w3.org/2000/svg"><path d="M18.902 21.49c-.52 0-.94-.093-1.26-.28a1.631 1.631 0 0 1-.7-.82c-.133-.36-.2-.807-.2-1.34v-1.06c.013-.467.02-.987.02-1.56.013-.587.02-1.18.02-1.78.013-.6.027-1.167.04-1.7h-3.44c0 1.36-.06 2.773-.18 4.24-.12 1.453-.253 2.86-.4 4.22l-1.66-.1c.213-1.373.38-2.78.5-4.22.133-1.454.2-2.833.2-4.14h-2.26v-1.26l1.4-.1h9.38v1.36h-1.96a96.771 96.771 0 0 1-.06 1.76l-.04 1.84c0 .587-.007 1.113-.02 1.58v1.04c0 .333.08.58.24.74.16.146.4.22.72.22.08 0 .18-.007.3-.02.12-.027.26-.053.42-.08l.22 1.26a3.926 3.926 0 0 1-1.28.2z" fill="var(--connect__icon-fill-color, #2d2d2d)"/></svg>