<svg width="30" height="30" viewBox="0 0 30 30" fill="none" xmlns="http://www.w3.org/2000/svg">
<g id="placeholder">
<path id="Vector" d="M7.69823 24.1272H22.2692L19.531 21.389C18.9008 21.8454 18.2 22.1985 17.4285 22.4485C16.657 22.6984 15.8475 22.8233 15 22.8233C14.1525 22.8233 13.343 22.6929 12.5715 22.4322C11.8 22.1714 11.0992 21.8128 10.469 21.3565L7.69823 24.1272ZM5.96634 22.1756L8.61095 19.531C8.15459 18.9008 7.80146 18.2 7.55154 17.4285C7.30163 16.657 7.17668 15.8475 7.17668 15C7.17668 14.1525 7.30707 13.343 7.56784 12.5715C7.82862 11.8 8.18719 11.0992 8.64355 10.469L5.96634 7.79179V22.1756ZM10.5016 17.6404L13.1746 15L10.5016 12.3596C10.2625 12.7508 10.0833 13.1637 9.96374 13.5983C9.84421 14.033 9.78445 14.5002 9.78445 15C9.78445 15.4998 9.84421 15.967 9.96374 16.4017C10.0833 16.8363 10.2625 17.2492 10.5016 17.6404ZM15 20.2155C15.4998 20.2155 15.967 20.1558 16.4017 20.0363C16.8363 19.9167 17.2492 19.7375 17.6404 19.4984L15 16.8254L12.327 19.4984C12.7182 19.7375 13.1365 19.9167 13.582 20.0363C14.0275 20.1558 14.5002 20.2155 15 20.2155ZM15 13.142L17.6404 10.5016C17.2492 10.2625 16.8363 10.0833 16.4017 9.96374C15.967 9.84421 15.4998 9.78445 15 9.78445C14.5002 9.78445 14.033 9.84421 13.5983 9.96374C13.1637 10.0833 12.7508 10.2625 12.3596 10.5016L15 13.142ZM19.4984 17.6404C19.7375 17.2492 19.9167 16.8363 20.0363 16.4017C20.1558 15.967 20.2155 15.4998 20.2155 15C20.2155 14.5002 20.1558 14.0275 20.0363 13.582C19.9167 13.1365 19.7375 12.7182 19.4984 12.327L16.858 14.9674L19.4984 17.6404ZM24.0337 22.1756V7.79179L21.3565 10.469C21.8128 11.0992 22.1714 11.8 22.4322 12.5715C22.6929 13.343 22.8233 14.1525 22.8233 15C22.8233 15.8475 22.6984 16.657 22.4485 17.4285C22.1985 18.2 21.8454 18.9008 21.389 19.531L24.0337 22.1756ZM19.531 8.64355L22.3018 5.87279H7.73083L10.469 8.61095C11.0992 8.15459 11.8 7.80146 12.5715 7.55154C13.343 7.30163 14.1525 7.17668 15 7.17668C15.8475 7.17668 16.657 7.30707 17.4285 7.56784C18.2 7.82862 18.9008 8.18719 19.531 8.64355ZM5.96634 27C5.14533 27 4.44568 26.7109 3.86741 26.1326C3.28914 25.5543 3 24.8547 3 24.0337V5.96634C3 5.14533 3.28914 4.44568 3.86741 3.86741C4.44568 3.28914 5.14533 3 5.96634 3H24.0337C24.8547 3 25.5543 3.28914 26.1326 3.86741C26.7109 4.44568 27 5.14533 27 5.96634V24.0337C27 24.8547 26.7109 25.5543 26.1326 26.1326C25.5543 26.7109 24.8547 27 24.0337 27H5.96634Z" fill="#2D2D2D"/>
</g>
</svg>
