<svg xmlns="http://www.w3.org/2000/svg" id="placeholder" viewBox="0 0 20 20" fill="none">
  <path d="M4.86104 16.111H15.1181L12.9098 13.9027C12.507 14.213 12.0591 14.4503 11.566 14.6146C11.073 14.7789 10.551 14.861 10 14.861C9.44903 14.861 8.92701 14.7754 8.43396 14.6042C7.9409 14.4329 7.49299 14.1922 7.09021 13.8819L4.86104 16.111ZM3.88896 15.1181L6.09729 12.9098C5.78701 12.507 5.54972 12.0591 5.38542 11.566C5.22111 11.073 5.13896 10.551 5.13896 10C5.13896 9.44903 5.22458 8.92701 5.39583 8.43396C5.56708 7.9409 5.80785 7.49299 6.11813 7.09021L3.88896 4.86104V15.1181ZM7.09729 11.9098L9.02771 10L7.11104 8.09021C6.93049 8.36799 6.78813 8.6666 6.68396 8.98604C6.57979 9.30549 6.52771 9.64347 6.52771 10C6.52771 10.3565 6.5775 10.6945 6.67708 11.014C6.77667 11.3334 6.91674 11.632 7.09729 11.9098ZM10 13.4723C10.3565 13.4723 10.6945 13.4225 11.014 13.3229C11.3334 13.2233 11.632 13.0833 11.9098 12.9027L10 10.9723L8.08333 12.889C8.36111 13.0695 8.6609 13.2119 8.98271 13.316C9.30438 13.4202 9.64347 13.4723 10 13.4723ZM10 9.00688L11.9098 7.11104C11.632 6.93049 11.3334 6.78813 11.014 6.68396C10.6945 6.57979 10.3565 6.52771 10 6.52771C9.64347 6.52771 9.30319 6.5775 8.97917 6.67708C8.65514 6.77667 8.35882 6.91674 8.09021 7.09729L10 9.00688ZM12.9027 11.9098C13.0833 11.6412 13.2233 11.3449 13.3229 11.0208C13.4225 10.6968 13.4723 10.3565 13.4723 10C13.4723 9.64347 13.4202 9.30437 13.316 8.98271C13.2119 8.6609 13.0695 8.36111 12.889 8.08333L10.9792 9.97917L12.9027 11.9098ZM16.111 15.1181V4.86104L13.8819 7.09021C14.1922 7.49299 14.4329 7.9409 14.6042 8.43396C14.7754 8.92701 14.861 9.44903 14.861 10C14.861 10.551 14.7789 11.073 14.6146 11.566C14.4503 12.0591 14.213 12.507 13.9027 12.9098L16.111 15.1181ZM12.9098 6.11812L15.139 3.88896H4.88188L7.09021 6.09729C7.49299 5.78701 7.9409 5.54972 8.43396 5.38542C8.92701 5.22111 9.44903 5.13896 10 5.13896C10.551 5.13896 11.073 5.22458 11.566 5.39583C12.0591 5.56708 12.507 5.80785 12.9098 6.11812ZM3.88896 17.5C3.51396 17.5 3.18868 17.3623 2.91313 17.0869C2.63771 16.8113 2.5 16.486 2.5 16.111V3.88896C2.5 3.51396 2.63771 3.18868 2.91313 2.91313C3.18868 2.63771 3.51396 2.5 3.88896 2.5H16.111C16.486 2.5 16.8113 2.63771 17.0869 2.91313C17.3623 3.18868 17.5 3.51396 17.5 3.88896V16.111C17.5 16.486 17.3623 16.8113 17.0869 17.0869C16.8113 17.3623 16.486 17.5 16.111 17.5H3.88896Z" fill="var(--connect__icon-fill-color, #2d2d2d)"/>
</svg>