<svg xmlns="http://www.w3.org/2000/svg" fill="none" viewBox="0 0 40 40" id="play">
  <path fill="var(--connect__icon-fill-color, #2d2d2d)" d="M11 28.639v-18.25c0-.417.14-.753.418-1.007.28-.255.605-.382.977-.382a1.512 1.512 0 0 1 .73.194l14.361 9.153c.213.148.373.32.48.514.106.194.159.412.159.653 0 .24-.053.458-.16.653a1.524 1.524 0 0 1-.479.513l-14.361 9.153a1.518 1.518 0 0 1-.733.195c-.372 0-.698-.128-.975-.382-.278-.255-.417-.59-.417-1.007Zm2.778-2.514 10.389-6.611-10.39-6.611v13.222Z"/>
</svg>