<?xml version='1.0' encoding='utf-8'?>
<svg xmlns:ns0="http://www.w3.org/2000/svg" xmlns="http://www.w3.org/2000/svg" fill="var(--connect__icon-fill-color, #2d2d2d)" viewBox="0 0 40 30"><ns0:path fill-rule="evenodd" clip-rule="evenodd" d="M31.6667 0H8.33333C3.66667 0 0 3.66667 0 8.33333V20C0 21 0.666667 21.6667 1.66667 21.6667H7.5V28.3333C7.5 29.3333 8.16667 30 9.16667 30H30.8333C31.8333 30 32.5 29.3333 32.5 28.3333V21.6667H38.3333C39.3333 21.6667 40 21 40 20V8.33333C40 3.66667 36.3333 0 31.6667 0ZM27.5 25H12.5V15H27.5V25ZM27.5 8.33333C27.5 9.66667 28.6667 10.8333 30 10.8333C31.3333 10.8333 32.5 9.66667 32.5 8.33333C32.5 7 31.3333 5.83333 30 5.83333C28.6667 5.83333 27.5 7 27.5 8.33333Z" fill="currentcolor" />
        </svg>