<svg viewBox="0 0 30 30" fid="ray" fill="none" xmlns="http://www.w3.org/2000/svg"><path fill-rule="evenodd" clip-rule="evenodd" d="m18.5 1.68 5 2.886-5 2.887V5.066h-12v-1h12V1.68z" fill="var(--connect__icon-fill-color, #2d2d2d)"/><path d="M20.304 28.322H9.689c-.47 0-.865-.162-1.186-.486a1.624 1.624 0 0 1-.482-1.19V11.039c0-.469.162-.865.486-1.189.324-.324.721-.486 1.19-.486h10.615c.47 0 .865.162 1.186.486.321.324.482.72.482 1.189v15.609c0 .469-.162.865-.486 1.189-.324.324-.72.486-1.19.486zM9.696 26.967h10.61c.093 0 .17-.03.23-.09s.09-.136.09-.23V11.038c0-.094-.03-.17-.09-.23a.312.312 0 0 0-.23-.09H9.695c-.093 0-.17.03-.23.09a.312.312 0 0 0-.09.23v15.609c0 .094.03.17.09.23s.137.09.23.09z" fill="var(--connect__icon-fill-color, #2d2d2d)"/></svg>