<svg xmlns="http://www.w3.org/2000/svg" id="redo" viewBox="0 0 16 16" fill="none">
  <path d="M10.7998 6.66668H6.59984C5.89984 6.66668 5.2915 6.8889 4.77484 7.33335C4.25817 7.77779 3.99984 8.33335 3.99984 9.00001C3.99984 9.66668 4.25817 10.2222 4.77484 10.6667C5.2915 11.1111 5.89984 11.3333 6.59984 11.3333H10.6665C10.8554 11.3333 11.0137 11.3972 11.1415 11.525C11.2693 11.6528 11.3332 11.8111 11.3332 12C11.3332 12.1889 11.2693 12.3472 11.1415 12.475C11.0137 12.6028 10.8554 12.6667 10.6665 12.6667H6.59984C5.52206 12.6667 4.59706 12.3167 3.82484 11.6167C3.05262 10.9167 2.6665 10.0445 2.6665 9.00001C2.6665 7.95557 3.05262 7.08335 3.82484 6.38335C4.59706 5.68335 5.52206 5.33335 6.59984 5.33335H10.7998L9.53317 4.06668C9.41095 3.94446 9.34984 3.7889 9.34984 3.60001C9.34984 3.41112 9.41095 3.25557 9.53317 3.13335C9.65539 3.01112 9.81095 2.95001 9.99984 2.95001C10.1887 2.95001 10.3443 3.01112 10.4665 3.13335L12.8665 5.53335C12.9332 5.60001 12.9804 5.67223 13.0082 5.75001C13.0359 5.82779 13.0498 5.91112 13.0498 6.00001C13.0498 6.0889 13.0359 6.17223 13.0082 6.25001C12.9804 6.32779 12.9332 6.40001 12.8665 6.46668L10.4665 8.86668C10.3443 8.9889 10.1887 9.05001 9.99984 9.05001C9.81095 9.05001 9.65539 8.9889 9.53317 8.86668C9.41095 8.74446 9.34984 8.5889 9.34984 8.40001C9.34984 8.21112 9.41095 8.05557 9.53317 7.93335L10.7998 6.66668Z" fill="var(--connect__icon-fill-color, #2d2d2d)"/>
</svg>