<svg xmlns="http://www.w3.org/2000/svg" fill="none" viewBox="0 0 30 30" id="redo">
  <path fill="var(--connect__icon-fill-color, #2d2d2d)" d="M19.814 5.318c.42 0 .776.145 1.065.435.29.29.434.644.434 1.065 0 .421-.144.776-.434 1.066a1.45 1.45 0 0 1-1.066.434h-7.932c-1.32 0-2.465.428-3.432 1.283C7.483 10.456 7 11.52 7 12.79c0 1.27.484 2.335 1.45 3.193.967.858 2.111 1.287 3.432 1.287h8.047l-2.214-2.213c-.278-.279-.418-.628-.418-1.05 0-.42.14-.77.418-1.048.279-.279.628-.418 1.05-.418.42 0 .77.14 1.048.418l4.762 4.754c.148.148.256.312.324.492s.102.368.102.565c0 .197-.034.385-.102.565-.068.18-.176.344-.323.492l-4.763 4.754c-.278.279-.628.418-1.049.418-.42 0-.77-.14-1.05-.418-.277-.278-.417-.628-.417-1.049 0-.42.14-.77.418-1.049l2.214-2.213H11.88c-2.163 0-4.017-.717-5.563-2.152C4.774 16.685 4 14.911 4 12.8c0-2.113.773-3.888 2.319-5.325 1.545-1.437 3.4-2.156 5.562-2.156h7.933Z"/>
</svg>