<svg xmlns="http://www.w3.org/2000/svg" id="renew" viewBox="0 0 20 20" fill="none">
  <path d="M4.88896 9.88188C4.88896 10.1412 4.90514 10.3947 4.9375 10.6423C4.96986 10.8899 5.02076 11.1272 5.09021 11.3542C5.14118 11.5439 5.13194 11.7302 5.0625 11.9131C4.99306 12.096 4.87271 12.2268 4.70146 12.3054C4.52549 12.3888 4.3484 12.3922 4.17021 12.3158C3.99187 12.2394 3.87264 12.111 3.8125 11.9304C3.70139 11.5925 3.62153 11.2546 3.57292 10.9167C3.52431 10.5786 3.5 10.2337 3.5 9.88188C3.5 8.04854 4.15278 6.47681 5.45833 5.16667C6.76389 3.85639 8.33333 3.20125 10.1667 3.20125H10.8125L9.71521 2.10417C9.59021 1.97917 9.52771 1.82639 9.52771 1.64583C9.52771 1.46528 9.59021 1.3125 9.71521 1.1875C9.84021 1.0625 9.99535 1 10.1806 1C10.3658 1 10.5208 1.0625 10.6458 1.1875L12.8819 3.40958C13.0208 3.54847 13.0902 3.71056 13.0902 3.89583C13.0902 4.08097 13.0208 4.24299 12.8819 4.38188L10.6598 6.60417C10.5348 6.72917 10.3774 6.79167 10.1875 6.79167C9.99764 6.79167 9.84021 6.72917 9.71521 6.60417C9.59021 6.47917 9.52771 6.32174 9.52771 6.13188C9.52771 5.94201 9.59021 5.78458 9.71521 5.65958L10.7848 4.59021H10.1667C8.71292 4.59021 7.46986 5.10757 6.4375 6.14229C5.40514 7.17701 4.88896 8.42354 4.88896 9.88188ZM15.4444 9.84021C15.4444 9.5809 15.4282 9.32743 15.3958 9.07979C15.3635 8.83215 15.3126 8.59028 15.2431 8.35417C15.1828 8.16431 15.1874 7.97792 15.2569 7.795C15.3263 7.61222 15.4467 7.48146 15.6181 7.40271C15.794 7.31938 15.9687 7.3159 16.1423 7.39229C16.3159 7.46868 16.4328 7.59715 16.4931 7.77771C16.6134 8.11563 16.7002 8.4559 16.7535 8.79854C16.8067 9.14118 16.8333 9.4884 16.8333 9.84021C16.8333 11.6735 16.1806 13.2453 14.875 14.5554C13.5694 15.8657 12 16.5208 10.1667 16.5208H9.49313L10.5902 17.6179C10.7152 17.7429 10.7777 17.8957 10.7777 18.0763C10.7777 18.2568 10.7152 18.4096 10.5902 18.5346C10.4652 18.6596 10.3101 18.7221 10.125 18.7221C9.93986 18.7221 9.78479 18.6596 9.65979 18.5346L7.42354 16.3125C7.28465 16.1736 7.21521 16.0115 7.21521 15.8263C7.21521 15.6411 7.28465 15.4791 7.42354 15.3402L9.65979 13.1042C9.78479 12.9792 9.93986 12.9167 10.125 12.9167C10.3101 12.9167 10.4652 12.9792 10.5902 13.1042C10.7152 13.2292 10.7777 13.3842 10.7777 13.5694C10.7777 13.7545 10.7152 13.9096 10.5902 14.0346L9.49313 15.1319H10.1667C11.6204 15.1319 12.8635 14.6145 13.8958 13.5798C14.9282 12.5451 15.4444 11.2985 15.4444 9.84021Z" fill="var(--connect__icon-fill-color, #2d2d2d)"/>
</svg>