<svg xmlns="http://www.w3.org/2000/svg" fill="none" viewBox="0 0 40 40" id="renew">
  <path fill="var(--connect__icon-fill-color, #2d2d2d)" d="M9.778 19.764c0 .518.032 1.025.097 1.52.065.496.166.97.305 1.424.102.38.084.752-.055 1.118-.139.366-.38.628-.722.785a1.238 1.238 0 0 1-1.063.02 1.23 1.23 0 0 1-.715-.77 11.913 11.913 0 0 1-.48-2.028A14.522 14.522 0 0 1 7 19.763c0-3.666 1.306-6.81 3.917-9.43 2.61-2.62 5.75-3.93 9.416-3.93h1.292L19.43 4.207a1.247 1.247 0 0 1-.375-.916c0-.361.125-.667.375-.917S19.99 2 20.361 2c.37 0 .68.125.93.375l4.473 4.444c.277.278.416.602.416.973 0 .37-.139.694-.416.972l-4.444 4.444a1.28 1.28 0 0 1-.945.375 1.28 1.28 0 0 1-1.32-1.32c0-.379.125-.694.375-.944l2.14-2.139h-1.237c-2.907 0-5.393 1.035-7.458 3.105-2.065 2.069-3.097 4.562-3.097 7.479Zm21.11-.084c0-.518-.032-1.025-.096-1.52a9.506 9.506 0 0 0-.306-1.452c-.12-.38-.111-.752.028-1.118.139-.366.38-.627.722-.785a1.208 1.208 0 0 1 1.049-.02c.347.152.58.41.701.77.24.676.414 1.357.521 2.042.107.685.16 1.38.16 2.083 0 3.667-1.306 6.81-3.917 9.43-2.611 2.621-5.75 3.932-9.417 3.932h-1.347l2.194 2.194c.25.25.375.555.375.917 0 .36-.125.666-.375.916s-.56.375-.93.375-.68-.125-.93-.375l-4.473-4.444a1.333 1.333 0 0 1-.417-.973c0-.37.14-.694.417-.972l4.473-4.472c.25-.25.56-.375.93-.375s.68.125.93.375.375.56.375.93c0 .371-.125.681-.375.931l-2.194 2.195h1.347c2.908 0 5.394-1.035 7.459-3.104 2.064-2.07 3.097-4.563 3.097-7.48Z"/>
</svg>