<svg  viewBox="0 0 20 20" id="repeat" fill="none" xmlns="http://www.w3.org/2000/svg">
<path d="M5.875 15.75L6.53708 16.4121C6.69292 16.5679 6.77083 16.7465 6.77083 16.9479C6.77083 17.1493 6.69778 17.3264 6.55167 17.4792C6.39222 17.632 6.21181 17.7084 6.01042 17.7084C5.80903 17.7084 5.63229 17.6326 5.48021 17.4811L3.52167 15.5302C3.44556 15.4545 3.39167 15.3725 3.36 15.2842C3.32833 15.1957 3.3125 15.101 3.3125 15C3.3125 14.899 3.32833 14.8043 3.36 14.7159C3.39167 14.6275 3.44556 14.5455 3.52167 14.4698L5.48021 12.519C5.63229 12.3675 5.80903 12.2917 6.01042 12.2917C6.21181 12.2917 6.39222 12.3681 6.55167 12.5209C6.69778 12.6736 6.77083 12.8507 6.77083 13.0521C6.77083 13.2535 6.69292 13.4321 6.53708 13.5879L5.875 14.25H14.5V11.75C14.5 11.5375 14.5715 11.3594 14.7144 11.2156C14.8573 11.0719 15.0344 11 15.2456 11C15.4569 11 15.6354 11.0719 15.7812 11.2156C15.9271 11.3594 16 11.5375 16 11.75V14.25C16 14.6625 15.8531 15.0156 15.5594 15.3094C15.2656 15.6031 14.9125 15.75 14.5 15.75H5.875ZM14.125 5.75002H5.5V8.25002C5.5 8.46252 5.42854 8.64065 5.28563 8.7844C5.14271 8.92815 4.96563 9.00002 4.75438 9.00002C4.54313 9.00002 4.36458 8.92815 4.21875 8.7844C4.07292 8.64065 4 8.46252 4 8.25002V5.75002C4 5.33752 4.14687 4.9844 4.44062 4.69065C4.73437 4.3969 5.0875 4.25002 5.5 4.25002H14.125L13.4629 3.58794C13.3071 3.4321 13.2292 3.25349 13.2292 3.0521C13.2292 2.85071 13.3022 2.67363 13.4483 2.52085C13.6078 2.36808 13.7882 2.29169 13.9896 2.29169C14.191 2.29169 14.3677 2.36745 14.5198 2.51898L16.4783 4.46981C16.5544 4.54551 16.6083 4.62752 16.64 4.71585C16.6717 4.80433 16.6875 4.89905 16.6875 5.00002C16.6875 5.10099 16.6717 5.19572 16.64 5.28419C16.6083 5.37252 16.5544 5.45453 16.4783 5.53023L14.5198 7.48106C14.3677 7.63259 14.1944 7.70488 14 7.69794C13.8056 7.69099 13.6286 7.61113 13.4692 7.45835C13.3231 7.30558 13.25 7.12849 13.25 6.9271C13.25 6.72571 13.3261 6.54891 13.4783 6.39669L14.125 5.75002Z" fill="var(--connect__icon-fill-color, #2d2d2d)"/>
</svg>
