<svg  viewBox="0 0 20 20" id="replay" fill="none" xmlns="http://www.w3.org/2000/svg">
<path d="M10 18.125C9.02778 18.125 8.11715 17.9403 7.26813 17.5709C6.41896 17.2014 5.68007 16.7023 5.05146 16.0736C4.42271 15.445 3.92361 14.7061 3.55417 13.8569C3.18472 13.0079 3 12.0972 3 11.125C3 10.9125 3.07146 10.7344 3.21437 10.5906C3.35729 10.4469 3.53437 10.375 3.74562 10.375C3.95687 10.375 4.13542 10.4469 4.28125 10.5906C4.42708 10.7344 4.5 10.9125 4.5 11.125C4.5 12.6389 5.03819 13.934 6.11458 15.0104C7.19097 16.0868 8.48611 16.625 10 16.625C11.5139 16.625 12.809 16.0868 13.8854 15.0104C14.9618 13.934 15.5 12.6389 15.5 11.125C15.5 9.61113 14.9618 8.31599 13.8854 7.2396C12.809 6.16321 11.5112 5.62502 9.99187 5.62502H9.875L10.4167 6.16669C10.5694 6.31946 10.6458 6.49655 10.6458 6.69794C10.6458 6.89933 10.5728 7.07641 10.4267 7.22919C10.2672 7.38197 10.0868 7.45835 9.88542 7.45835C9.68403 7.45835 9.50694 7.38197 9.35417 7.22919L7.52083 5.39585C7.36806 5.24808 7.29167 5.07571 7.29167 4.87877C7.29167 4.68183 7.36806 4.50696 7.52083 4.35419L9.35417 2.52085C9.50694 2.36808 9.68056 2.29169 9.875 2.29169C10.0694 2.29169 10.2464 2.36808 10.4058 2.52085C10.5519 2.67363 10.625 2.85071 10.625 3.0521C10.625 3.25349 10.5486 3.43058 10.3958 3.58335L9.85417 4.12502H10C10.9722 4.12502 11.8828 4.30974 12.7319 4.67919C13.581 5.04863 14.3199 5.54773 14.9485 6.17648C15.5773 6.80509 16.0764 7.54398 16.4458 8.39315C16.8153 9.24217 17 10.1528 17 11.125C17 12.0972 16.8153 13.0079 16.4458 13.8569C16.0764 14.7061 15.5773 15.445 14.9485 16.0736C14.3199 16.7023 13.581 17.2014 12.7319 17.5709C11.8828 17.9403 10.9722 18.125 10 18.125Z" fill="var(--connect__icon-fill-color, #2d2d2d)"/>
</svg>
