<svg xmlns="http://www.w3.org/2000/svg" xmlns:ns0="http://www.w3.org/2000/svg" viewBox="0 0 40 40"><ns0:path fill="var(--connect__icon-fill-color, #2d2d2d)" d="M21.9967 4H13.9967V8H21.9967V4Z"/><ns0:path fill="var(--connect__icon-fill-color, #2d2d2d)" d="M29.9967 4H25.9967V10C25.9967 11.0667 25.0633 12 23.9967 12H11.9967C10.93 12 9.99667 11.0667 9.99667 10V4H7.99667C5.73001 4 3.99667 5.73333 3.99667 8V18H22.6633H27.9967C29.0633 18 29.9967 18.9333 29.9967 20V28C29.9967 29.0667 29.0633 30 27.9967 30H21.9967V36H31.9967C34.13 36 35.9967 34.1333 35.9967 32V10L29.9967 4Z"/><ns0:path fill="var(--connect__icon-fill-color, #2d2d2d)" d="M5.99667 36.8L13.8633 28.8V36H17.8633V24C17.8633 22.8 17.0633 22 15.8633 22H3.99667V26H11.1967L3.33 34"/></svg>