<?xml version='1.0' encoding='utf-8'?>
<svg xmlns:ns0="http://www.w3.org/2000/svg" xmlns="http://www.w3.org/2000/svg" viewBox="0 0 40 40"><ns0:path d="M30.6 14.4L32.8 10.2L30 7.4L25.8 9.6C25.2 9.2 24.4 9 23.6 8.8L22 4H18L16.4 8.6C15.8 8.8 15 9 14.4 9.4L10.2 7.2L7.2 10.2L9.4 14.4C9 15 8.8 15.8 8.6 16.4L4 18V22L8.6 23.6C8.8 24.4 9.2 25 9.4 25.8L7.2 30L10 32.8L14.2 30.6C14.8 31 15.6 31.2 16.4 31.4L18 36H22L23.6 31.4C24.4 31.2 25 30.8 25.8 30.6L30 32.8L32.8 30L30.6 25.8C31 25.2 31.2 24.4 31.4 23.6L36 22V18L31.4 16.4C31.2 15.8 31 15 30.6 14.4ZM20 26C16.6 26 14 23.4 14 20C14 16.6 16.6 14 20 14C23.4 14 26 16.6 26 20C26 23.4 23.4 26 20 26Z" fill="var(--connect__icon-fill-color, #2d2d2d)" />
        </svg>