<svg  viewBox="0 0 20 20" id="settingsVoiceFilled" fill="none" xmlns="http://www.w3.org/2000/svg">
<path d="M6.75455 20C6.5433 20 6.36476 19.9285 6.21892 19.7856C6.07309 19.6427 6.00017 19.4656 6.00017 19.2544C6.00017 19.0431 6.07163 18.8646 6.21455 18.7188C6.35746 18.5729 6.53455 18.5 6.7458 18.5C6.95705 18.5 7.13559 18.5715 7.28142 18.7144C7.42726 18.8573 7.50017 19.0344 7.50017 19.2456C7.50017 19.4569 7.42871 19.6354 7.2858 19.7812C7.14288 19.9271 6.9658 20 6.75455 20ZM10.0045 20C9.7933 20 9.61476 19.9285 9.46892 19.7856C9.32309 19.6427 9.25017 19.4656 9.25017 19.2544C9.25017 19.0431 9.32163 18.8646 9.46455 18.7188C9.60746 18.5729 9.78455 18.5 9.9958 18.5C10.207 18.5 10.3856 18.5715 10.5314 18.7144C10.6773 18.8573 10.7502 19.0344 10.7502 19.2456C10.7502 19.4569 10.6787 19.6354 10.5358 19.7812C10.3929 19.9271 10.2158 20 10.0045 20ZM13.2545 20C13.0433 20 12.8648 19.9285 12.7189 19.7856C12.5731 19.6427 12.5002 19.4656 12.5002 19.2544C12.5002 19.0431 12.5716 18.8646 12.7145 18.7188C12.8575 18.5729 13.0345 18.5 13.2458 18.5C13.457 18.5 13.6356 18.5715 13.7814 18.7144C13.9273 18.8573 14.0002 19.0344 14.0002 19.2456C14.0002 19.4569 13.9287 19.6354 13.7858 19.7812C13.6429 19.9271 13.4658 20 13.2545 20ZM10.0002 12C9.30573 12 8.71545 11.7569 8.22934 11.2708C7.74323 10.7847 7.50017 10.1944 7.50017 9.5V4.5C7.50017 3.80556 7.74323 3.21528 8.22934 2.72917C8.71545 2.24306 9.30573 2 10.0002 2C10.6946 2 11.2849 2.24306 11.771 2.72917C12.2571 3.21528 12.5002 3.80556 12.5002 4.5V9.5C12.5002 10.1944 12.2571 10.7847 11.771 11.2708C11.2849 11.7569 10.6946 12 10.0002 12ZM9.25017 16.25V14.9375C8.02795 14.7847 6.98281 14.2743 6.11476 13.4062C5.2467 12.5382 4.72934 11.4931 4.56267 10.2708C4.53489 10.0578 4.58969 9.87604 4.72705 9.72563C4.86441 9.57521 5.03802 9.5 5.24788 9.5C5.45774 9.5 5.63559 9.57292 5.78142 9.71875C5.92726 9.86458 6.02101 10.0417 6.06267 10.25C6.24323 11.2083 6.70524 11.9896 7.44871 12.5938C8.19233 13.1979 9.03969 13.5 9.9908 13.5C10.9554 13.5 11.8092 13.1944 12.5523 12.5833C13.2953 11.9722 13.7571 11.1944 13.9377 10.25C13.9793 10.0417 14.0716 9.86458 14.2145 9.71875C14.3575 9.57292 14.5345 9.5 14.7458 9.5C14.957 9.5 15.1321 9.57521 15.271 9.72563C15.4099 9.87604 15.4655 10.0578 15.4377 10.2708C15.271 11.4931 14.7536 12.5382 13.8856 13.4062C13.0175 14.2743 11.9724 14.7847 10.7502 14.9375V16.25C10.7502 16.4625 10.6787 16.6406 10.5358 16.7844C10.3929 16.9281 10.2158 17 10.0045 17C9.7933 17 9.61476 16.9281 9.46892 16.7844C9.32309 16.6406 9.25017 16.4625 9.25017 16.25Z" fill="var(--connect__icon-fill-color, #2d2d2d)"/>
</svg>
