<svg width="30" height="30" viewBox="0 0 30 30" fill="none" xmlns="http://www.w3.org/2000/svg">
<path d="M9.16903 11.6034L13.4223 4.60481C13.5464 4.39612 13.7038 4.24315 13.8945 4.14589C14.085 4.04863 14.2861 4 14.4979 4C14.7094 4 14.9107 4.04863 15.1015 4.14589C15.2924 4.24315 15.4499 4.39612 15.574 4.60481L19.8272 11.6034C19.9558 11.8147 20.0201 12.0366 20.0201 12.2691C20.0201 12.5017 19.9672 12.713 19.8616 12.903C19.7558 13.0929 19.6084 13.2469 19.4194 13.365C19.2304 13.4831 19.0098 13.5422 18.7578 13.5422H10.2385C9.98624 13.5422 9.7655 13.4836 9.57629 13.3664C9.38709 13.2492 9.23987 13.0947 9.13463 12.903C9.02902 12.7133 8.97622 12.5026 8.97622 12.2708C8.97622 12.0388 9.04049 11.8164 9.16903 11.6034ZM20.786 26C19.3379 26 18.1062 25.4893 17.091 24.4679C16.0758 23.4466 15.5682 22.2064 15.5682 20.7473C15.5682 19.2884 16.0755 18.0476 17.0901 17.0249C18.1048 16.0021 19.3369 15.4908 20.7866 15.4908C22.236 15.4908 23.4674 16.0019 24.4805 17.024C25.4935 18.0462 26 19.2875 26 20.7479C26 22.2081 25.493 23.4486 24.4791 24.4693C23.4654 25.4898 22.2344 26 20.786 26ZM4 24.1694V17.3214C4 16.9644 4.12179 16.6632 4.36537 16.4178C4.60895 16.1724 4.90793 16.0497 5.2623 16.0497H12.0665C12.4207 16.0497 12.7195 16.1724 12.9631 16.4178C13.2069 16.6632 13.3288 16.9644 13.3288 17.3214V24.1694C13.3288 24.5262 13.2069 24.8273 12.9631 25.0727C12.7195 25.3182 12.4207 25.441 12.0665 25.441H5.2623C4.90793 25.441 4.60895 25.3182 4.36537 25.0727C4.12179 24.8273 4 24.5262 4 24.1694ZM20.7874 23.4567C21.5376 23.4567 22.1731 23.1942 22.6939 22.6694C23.2149 22.1447 23.4754 21.5045 23.4754 20.7487C23.4754 19.9928 23.2149 19.3514 22.6939 18.8245C22.1731 18.2976 21.5376 18.0341 20.7874 18.0341C20.0371 18.0341 19.4004 18.2976 18.8773 18.8245C18.3543 19.3514 18.0928 19.9928 18.0928 20.7487C18.0928 21.5045 18.3543 22.1447 18.8773 22.6694C19.4004 23.1942 20.0371 23.4567 20.7874 23.4567ZM6.52459 22.8977H10.8042V18.5931H6.52459V22.8977ZM12.4868 10.9989H16.5095L14.4981 7.71129L12.4868 10.9989Z" fill="#2D2D2D"/>
</svg>
