<svg xmlns="http://www.w3.org/2000/svg" fill="none" viewBox="0 0 30 30" id="shapes">
  <path fill="var(--connect__icon-fill-color, #2d2d2d)" d="m9.169 11.603 4.253-6.998c.124-.209.282-.362.473-.46a1.312 1.312 0 0 1 1.207 0c.19.098.348.251.472.46l4.253 6.998c.129.212.193.434.193.666a1.263 1.263 0 0 1-.6 1.096c-.19.118-.41.177-.662.177h-8.52c-.252 0-.473-.058-.662-.176a1.239 1.239 0 0 1-.441-.463c-.106-.19-.159-.4-.159-.632 0-.232.064-.455.193-.668ZM20.786 26c-1.448 0-2.68-.51-3.695-1.532-1.015-1.021-1.523-2.262-1.523-3.72 0-1.46.508-2.7 1.522-3.723 1.015-1.023 2.247-1.534 3.697-1.534 1.449 0 2.68.51 3.694 1.533C25.492 18.046 26 19.288 26 20.748c0 1.46-.507 2.7-1.52 3.721C23.464 25.49 22.233 26 20.785 26ZM4 24.17V17.32c0-.357.122-.658.365-.903.244-.246.543-.368.897-.368h6.804c.355 0 .653.122.897.368.244.245.366.546.366.903v6.848c0 .357-.122.658-.366.904a1.214 1.214 0 0 1-.896.368H5.261c-.354 0-.653-.123-.897-.368A1.233 1.233 0 0 1 4 24.169Zm16.787-.713c.75 0 1.386-.263 1.907-.788.52-.524.781-1.165.781-1.92 0-.756-.26-1.398-.781-1.924a2.579 2.579 0 0 0-1.907-.79 2.59 2.59 0 0 0-1.91.79 2.629 2.629 0 0 0-.784 1.924c0 .756.261 1.396.784 1.92.523.525 1.16.788 1.91.788Zm-14.262-.56h4.28v-4.304h-4.28v4.305ZM12.487 11h4.022L14.5 7.71 12.486 11Z"/>
</svg>