<?xml version='1.0' encoding='utf-8'?>
<svg xmlns:ns0="http://www.w3.org/2000/svg" xmlns="http://www.w3.org/2000/svg" viewBox="0 0 40 40"><ns0:path d="M17.9997 22V32.6667H7.33301V22H17.9997ZM15.333 24.6667H9.99967V30H15.333V24.6667ZM19.333 6.66669L26.6663 18.6667H11.9997L19.333 6.66669ZM19.333 11.8134L16.773 16H21.893L19.333 11.8134ZM26.6663 21.3334C29.9997 21.3334 32.6663 24 32.6663 27.3334C32.6663 30.6667 29.9997 33.3334 26.6663 33.3334C23.333 33.3334 20.6663 30.6667 20.6663 27.3334C20.6663 24 23.333 21.3334 26.6663 21.3334ZM26.6663 24C25.7823 24 24.9344 24.3512 24.3093 24.9763C23.6842 25.6015 23.333 26.4493 23.333 27.3334C23.333 28.2174 23.6842 29.0653 24.3093 29.6904C24.9344 30.3155 25.7823 30.6667 26.6663 30.6667C27.5504 30.6667 28.3982 30.3155 29.0234 29.6904C29.6485 29.0653 29.9997 28.2174 29.9997 27.3334C29.9997 26.4493 29.6485 25.6015 29.0234 24.9763C28.3982 24.3512 27.5504 24 26.6663 24Z" fill="var(--connect__icon-fill-color, #2d2d2d)" />
        </svg>