<?xml version='1.0' encoding='utf-8'?>
<svg xmlns:ns0="http://www.w3.org/2000/svg" xmlns="http://www.w3.org/2000/svg" fill="var(--connect__icon-fill-color, #2d2d2d)" viewBox="0 0 30 30"><ns0:path d="M20.2246 10.489L10.4876 20.2C10.5709 20.3487 10.6386 20.5107 10.6906 20.686C10.7426 20.8607 10.7686 21.0424 10.7686 21.231C10.7686 21.7864 10.5776 22.2584 10.1956 22.647C9.81289 23.0364 9.33889 23.231 8.77355 23.231C8.21889 23.231 7.74622 23.0364 7.35555 22.647C6.96422 22.2577 6.76855 21.785 6.76855 21.229C6.76855 20.6624 6.96322 20.1877 7.35255 19.805C7.74122 19.4224 8.21322 19.231 8.76855 19.231C8.95722 19.231 9.13889 19.257 9.31355 19.309C9.48822 19.361 9.65022 19.4287 9.79955 19.512L19.5116 9.77504C19.4282 9.62638 19.3606 9.46838 19.3086 9.30104C19.2566 9.13438 19.2306 8.95704 19.2306 8.76904C19.2306 8.20238 19.4252 7.72738 19.8146 7.34404C20.2039 6.96071 20.6762 6.76904 21.2316 6.76904C21.7982 6.76904 22.2732 6.96038 22.6566 7.34304C23.0392 7.72571 23.2306 8.19971 23.2306 8.76504C23.2306 9.31904 23.0389 9.79171 22.6556 10.183C22.2722 10.5737 21.7972 10.769 21.2306 10.769C21.0432 10.769 20.8659 10.743 20.6986 10.691C20.5319 10.639 20.3739 10.5724 20.2246 10.489Z" fill="currentcolor" />
        </svg>