<svg xmlns="http://www.w3.org/2000/svg" id="shapes" viewBox="0 0 20 20" fill="none">
  <path d="M6.11252 7.73563L8.94802 3.06989C9.03075 2.93077 9.13568 2.82879 9.2628 2.76395C9.3898 2.69911 9.52389 2.66669 9.66507 2.66669C9.80613 2.66669 9.94028 2.69911 10.0675 2.76395C10.1948 2.82879 10.2998 2.93077 10.3825 3.06989L13.218 7.73563C13.3037 7.87649 13.3465 8.02443 13.3465 8.17945C13.3465 8.33447 13.3113 8.47533 13.2409 8.60203C13.1704 8.72861 13.0721 8.83127 12.9461 8.91003C12.8201 8.98878 12.6731 9.02816 12.505 9.02816H6.82551C6.65733 9.02816 6.51017 8.98909 6.38403 8.91096C6.25789 8.83283 6.15975 8.72985 6.08959 8.60203C6.01918 8.47558 5.98398 8.33509 5.98398 8.18057C5.98398 8.02592 6.02683 7.8776 6.11252 7.73563ZM13.8572 17.3334C12.8917 17.3334 12.0706 16.9929 11.3938 16.3119C10.717 15.6311 10.3786 14.8043 10.3786 13.8316C10.3786 12.859 10.7168 12.0318 11.3933 11.3499C12.0697 10.6681 12.8911 10.3272 13.8576 10.3272C14.8239 10.3272 15.6447 10.6679 16.3202 11.3494C16.9955 12.0308 17.3332 12.8584 17.3332 13.832C17.3332 14.8054 16.9952 15.6324 16.3193 16.3129C15.6435 16.9932 14.8228 17.3334 13.8572 17.3334ZM2.6665 16.1129V11.5476C2.6665 11.3096 2.7477 11.1088 2.91009 10.9452C3.07247 10.7816 3.27179 10.6999 3.50803 10.6999H8.04416C8.28028 10.6999 8.47953 10.7816 8.64192 10.9452C8.80443 11.1088 8.88569 11.3096 8.88569 11.5476V16.1129C8.88569 16.3508 8.80443 16.5515 8.64192 16.7151C8.47953 16.8788 8.28028 16.9607 8.04416 16.9607H3.50803C3.27179 16.9607 3.07247 16.8788 2.91009 16.7151C2.7477 16.5515 2.6665 16.3508 2.6665 16.1129ZM13.8581 15.6378C14.3582 15.6378 14.7819 15.4628 15.1291 15.1129C15.4764 14.7631 15.6501 14.3363 15.6501 13.8325C15.6501 13.3286 15.4764 12.901 15.1291 12.5497C14.7819 12.1984 14.3582 12.0228 13.8581 12.0228C13.3579 12.0228 12.9334 12.1984 12.5847 12.5497C12.236 12.901 12.0617 13.3286 12.0617 13.8325C12.0617 14.3363 12.236 14.7631 12.5847 15.1129C12.9334 15.4628 13.3579 15.6378 13.8581 15.6378ZM4.34956 15.2652H7.20263V12.3954H4.34956V15.2652ZM8.32436 7.33261H11.0062L9.66526 5.14088L8.32436 7.33261Z" fill="var(--connect__icon-fill-color, #2d2d2d)"/>
</svg>