<?xml version='1.0' encoding='utf-8'?>
<svg xmlns:ns0="http://www.w3.org/2000/svg" xmlns="http://www.w3.org/2000/svg" fill="var(--connect__icon-fill-color, #2d2d2d)" viewBox="0 0 40 40"><ns0:path d="M10.9997 16.0001V26.6667H0.333008V16.0001H10.9997ZM8.33301 18.6667H2.99967V24.0001H8.33301V18.6667ZM12.333 0.666748L19.6663 12.6667H4.99967L12.333 0.666748ZM12.333 5.81341L9.77301 10.0001H14.893L12.333 5.81341ZM19.6663 15.3334C22.9997 15.3334 25.6663 18.0001 25.6663 21.3334C25.6663 24.6667 22.9997 27.3334 19.6663 27.3334C16.333 27.3334 13.6663 24.6667 13.6663 21.3334C13.6663 18.0001 16.333 15.3334 19.6663 15.3334ZM19.6663 18.0001C18.7823 18.0001 17.9344 18.3513 17.3093 18.9764C16.6842 19.6015 16.333 20.4494 16.333 21.3334C16.333 22.2175 16.6842 23.0653 17.3093 23.6904C17.9344 24.3156 18.7823 24.6667 19.6663 24.6667C20.5504 24.6667 21.3982 24.3156 22.0234 23.6904C22.6485 23.0653 22.9997 22.2175 22.9997 21.3334C22.9997 20.4494 22.6485 19.6015 22.0234 18.9764C21.3982 18.3513 20.5504 18.0001 19.6663 18.0001Z" fill="currentcolor" />
        </svg>