<?xml version='1.0' encoding='utf-8'?>
<svg xmlns:ns0="http://www.w3.org/2000/svg" xmlns="http://www.w3.org/2000/svg" fill="var(--connect__icon-fill-color, #2d2d2d)" viewBox="0 0 28 28"><ns0:g filter="url(#filter0_ddd_2035_8459)">
                <ns0:path fill-rule="evenodd" clip-rule="evenodd" d="M15.6886 4.05813C17.704 1.98062 21.0103 1.98062 23.0257 4.05813C24.9914 6.08454 24.9914 9.33335 23.0257 11.3598C21.545 12.8861 19.415 15.9797 16.6902 20.8567C14.8135 24.2157 10.0864 24.4222 7.94611 21.1971C7.0557 19.8554 6.21697 18.9367 5.46895 18.3425C3.24468 16.5756 2.86147 13.3483 4.54275 11.0992C6.13708 8.96643 9.0627 8.41234 11.2971 9.78112C12.8425 7.41101 14.3022 5.48734 15.6886 4.05813ZM13.5921 11.7564C15.157 9.32564 16.5689 7.45927 17.8419 6.14699C18.6788 5.28434 20.0355 5.28434 20.8724 6.14699C21.7092 7.00963 21.7092 8.40826 20.8724 9.27091C19.1003 11.0976 16.8125 14.4871 14.0712 19.3935C13.2834 20.8036 11.3371 20.8813 10.4458 19.5383C9.43359 18.0131 8.39322 16.8341 7.33496 15.9935C6.39754 15.2488 6.22321 13.8618 6.94559 12.8954C7.60717 12.0104 8.79145 11.7852 9.70621 12.3256C9.79025 12.3753 9.87202 12.4314 9.9509 12.494C10.6427 13.0436 11.3119 13.6802 11.9595 14.403C12.5214 13.4566 13.0654 12.5745 13.5921 11.7564Z" fill="white" />
            </ns0:g>
            <ns0:path d="M17.8419 6.14699C18.6788 5.28434 20.0355 5.28434 20.8724 6.14699C21.7092 7.00963 21.7092 8.40826 20.8724 9.27091C19.1004 11.0976 16.8125 14.4871 14.0712 19.3935C13.2834 20.8036 11.3371 20.8813 10.4458 19.5383C9.43361 18.0131 8.39324 16.8341 7.33498 15.9934C6.39756 15.2488 6.22323 13.8618 6.9456 12.8954C7.66797 11.9291 9.0135 11.7494 9.95092 12.494C10.6428 13.0436 11.3119 13.6802 11.9595 14.403C14.1908 10.6448 16.1404 7.90096 17.8419 6.14699Z" fill="#5D5F5F" />
            <ns0:defs>
                <ns0:filter id="filter0_ddd_2035_8459" x="0.500244" y="0.5" width="26.9998" height="27.0002" filterUnits="userSpaceOnUse" color-interpolation-filters="sRGB">
                    <ns0:feFlood flood-opacity="0" result="BackgroundImageFix" />
                    <ns0:feColorMatrix in="SourceAlpha" type="matrix" values="0 0 0 0 0 0 0 0 0 0 0 0 0 0 0 0 0 0 127 0" result="hardAlpha" />
                    <ns0:feOffset dy="1" />
                    <ns0:feGaussianBlur stdDeviation="1.5" />
                    <ns0:feComposite in2="hardAlpha" operator="out" />
                    <ns0:feColorMatrix type="matrix" values="0 0 0 0 0 0 0 0 0 0 0 0 0 0 0 0 0 0 0.12 0" />
                    <ns0:feBlend mode="normal" in2="BackgroundImageFix" result="effect1_dropShadow_2035_8459" />
                    <ns0:feColorMatrix in="SourceAlpha" type="matrix" values="0 0 0 0 0 0 0 0 0 0 0 0 0 0 0 0 0 0 127 0" result="hardAlpha" />
                    <ns0:feOffset dy="1" />
                    <ns0:feGaussianBlur stdDeviation="0.5" />
                    <ns0:feComposite in2="hardAlpha" operator="out" />
                    <ns0:feColorMatrix type="matrix" values="0 0 0 0 0 0 0 0 0 0 0 0 0 0 0 0 0 0 0.14 0" />
                    <ns0:feBlend mode="normal" in2="effect1_dropShadow_2035_8459" result="effect2_dropShadow_2035_8459" />
                    <ns0:feColorMatrix in="SourceAlpha" type="matrix" values="0 0 0 0 0 0 0 0 0 0 0 0 0 0 0 0 0 0 127 0" result="hardAlpha" />
                    <ns0:feOffset dy="2" />
                    <ns0:feGaussianBlur stdDeviation="0.5" />
                    <ns0:feComposite in2="hardAlpha" operator="out" />
                    <ns0:feColorMatrix type="matrix" values="0 0 0 0 0 0 0 0 0 0 0 0 0 0 0 0 0 0 0.2 0" />
                    <ns0:feBlend mode="normal" in2="effect2_dropShadow_2035_8459" result="effect3_dropShadow_2035_8459" />
                    <ns0:feBlend mode="normal" in="SourceGraphic" in2="effect3_dropShadow_2035_8459" result="shape" />
                </ns0:filter>
            </ns0:defs>
        </svg>