<svg viewBox="0 0 30 30" id="six" fill="none" xmlns="http://www.w3.org/2000/svg"><path d="M15.296 21.619a4.003 4.003 0 0 1-1.74-.38c-.533-.253-1-.633-1.4-1.14-.386-.52-.693-1.16-.92-1.92-.226-.773-.34-1.673-.34-2.7 0-1.28.134-2.367.4-3.26.267-.907.627-1.64 1.08-2.2.454-.56.967-.973 1.54-1.24.587-.267 1.2-.4 1.84-.4.694 0 1.287.133 1.78.4.507.253.94.573 1.3.96l-.92 1.02a2.646 2.646 0 0 0-.94-.72 2.564 2.564 0 0 0-1.16-.28c-.6 0-1.16.18-1.68.54-.506.36-.913.96-1.22 1.8-.306.827-.46 1.953-.46 3.38 0 1.053.107 1.94.32 2.66.227.72.554 1.267.98 1.64.427.36.94.54 1.54.54.414 0 .787-.113 1.12-.34.347-.24.614-.567.8-.98.2-.427.3-.92.3-1.48 0-.547-.086-1.02-.26-1.42a1.952 1.952 0 0 0-.78-.94c-.346-.227-.786-.34-1.32-.34-.413 0-.866.14-1.36.42-.48.267-.94.727-1.38 1.38l-.06-1.3a4.77 4.77 0 0 1 1.44-1.26c.547-.32 1.094-.48 1.64-.48.734 0 1.374.147 1.92.44.547.293.967.733 1.26 1.32.307.587.46 1.313.46 2.18 0 .813-.173 1.527-.52 2.14a3.874 3.874 0 0 1-1.38 1.44c-.573.347-1.2.52-1.88.52z" fill="var(--connect__icon-fill-color, #2d2d2d)"/></svg>