<svg  viewBox="0 0 20 20" id="soundMeter" fill="none" xmlns="http://www.w3.org/2000/svg">
<path d="M10.25 14L7.6875 16.5625C7.39583 16.8541 7.04167 17 6.625 17C6.20833 17 5.85417 16.8541 5.5625 16.5625L3.4375 14.4375C3.14583 14.1458 3 13.7916 3 13.375C3 12.9583 3.14583 12.6041 3.4375 12.3125L6 9.74997V7.81247C6 7.47914 6.15278 7.2465 6.45833 7.11456C6.76389 6.98261 7.03472 7.03469 7.27083 7.27081L12.7292 12.7291C12.9653 12.9653 13.0174 13.2361 12.8854 13.5416C12.7535 13.8472 12.5208 14 12.1875 14H10.25ZM10.375 12.5L7.5 9.62497V10.375L4.5 13.375L6.625 15.5L9.625 12.5H10.375ZM13.9167 6.10414C13.125 5.31247 12.191 4.81247 11.1146 4.60414C10.0382 4.39581 8.99306 4.49303 7.97917 4.89581C7.78472 4.96525 7.59722 4.96525 7.41667 4.89581C7.23611 4.82636 7.11111 4.69442 7.04167 4.49997C6.95833 4.29164 6.96181 4.09025 7.05208 3.89581C7.14236 3.70136 7.29167 3.56247 7.5 3.47914C8.77778 2.99303 10.0903 2.88192 11.4375 3.14581C12.7847 3.40969 13.9583 4.04164 14.9583 5.04164C15.9444 6.02775 16.5764 7.19442 16.8542 8.54164C17.1319 9.88886 17.0278 11.2014 16.5417 12.4791C16.4722 12.6875 16.3333 12.8368 16.125 12.9271C15.9167 13.0173 15.7083 13.0278 15.5 12.9583C15.3056 12.8889 15.1771 12.7534 15.1146 12.5521C15.0521 12.3507 15.0556 12.1528 15.125 11.9583C15.4861 10.9444 15.5694 9.90969 15.375 8.85414C15.1806 7.79858 14.6944 6.88192 13.9167 6.10414ZM12.8333 7.16664C13.1806 7.51386 13.4514 7.91664 13.6458 8.37497C13.8403 8.83331 13.9514 9.30553 13.9792 9.79164C13.9931 9.98608 13.9201 10.1458 13.7604 10.2708C13.6007 10.3958 13.4167 10.4444 13.2083 10.4166C13.0139 10.3889 12.8507 10.2986 12.7188 10.1458C12.5868 9.99303 12.5069 9.81942 12.4792 9.62497C12.4375 9.36108 12.3576 9.11108 12.2396 8.87497C12.1215 8.63886 11.9653 8.42358 11.7708 8.22914C11.5764 8.03469 11.3646 7.88192 11.1354 7.77081C10.9062 7.65969 10.6597 7.58331 10.3958 7.54164C10.1875 7.51386 10.0104 7.42706 9.86458 7.28122C9.71875 7.13539 9.64583 6.96525 9.64583 6.77081C9.64583 6.54858 9.71875 6.36108 9.86458 6.20831C10.0104 6.05553 10.1875 5.99303 10.3958 6.02081C10.8542 6.06247 11.2951 6.184 11.7188 6.38539C12.1424 6.58678 12.5139 6.84719 12.8333 7.16664Z" fill="var(--connect__icon-fill-color, #2d2d2d)"/>
</svg>
