<svg xmlns="http://www.w3.org/2000/svg" fill="none" viewBox="0 0 40 40" id="soundMeter">
  <path fill="var(--connect__icon-fill-color, #2d2d2d)" d="m20.333 28.407-5.125 5.125c-.527.528-1.183.792-1.965.792-.783 0-1.438-.264-1.966-.792L5.792 28.02C5.264 27.49 5 26.838 5 26.06c0-.777.264-1.43.792-1.958l5.083-5.111v-6.07c0-.62.285-1.046.854-1.277.57-.232 1.072-.13 1.507.305l14.139 14.098c.435.434.53.937.285 1.506-.246.57-.679.854-1.3.854h-6.027Zm2.64-2.777-9.32-9.264v3.778L7.736 26.06l5.486 5.487 5.917-5.917h3.833Zm5.888-15.25c-1.768-1.769-3.85-2.88-6.243-3.333-2.394-.454-4.73-.218-7.007.708a1.427 1.427 0 0 1-1.063.007c-.365-.135-.608-.373-.729-.715a1.482 1.482 0 0 1 .028-1.16c.167-.375.45-.637.847-.785 2.75-1.111 5.588-1.382 8.514-.813 2.926.57 5.472 1.938 7.64 4.105 2.147 2.148 3.51 4.668 4.09 7.562.578 2.894.335 5.71-.73 8.451a1.663 1.663 0 0 1-.805.924 1.372 1.372 0 0 1-1.195.076c-.36-.13-.6-.374-.715-.735-.116-.362-.1-.737.049-1.125a12.039 12.039 0 0 0 .652-6.966c-.472-2.384-1.583-4.451-3.333-6.201Zm-3.111 3.152a7.278 7.278 0 0 1 1.444 2.05c.361.763.593 1.566.695 2.409.046.38-.072.704-.354.972a1.299 1.299 0 0 1-.993.375 1.44 1.44 0 0 1-.966-.43 1.815 1.815 0 0 1-.52-.959 5.66 5.66 0 0 0-.438-1.292c-.2-.416-.47-.796-.813-1.138a4.652 4.652 0 0 0-1.138-.84 4.943 4.943 0 0 0-1.306-.466 1.86 1.86 0 0 1-.98-.5 1.422 1.422 0 0 1-.423-.986c-.018-.398.12-.736.417-1.014.296-.278.652-.384 1.07-.32.805.12 1.578.362 2.319.723.74.36 1.403.833 1.986 1.416Z"/>
</svg>