<svg  viewBox="0 0 20 20" id="speachToText" fill="none" xmlns="http://www.w3.org/2000/svg">
<path d="M4.59771 18C4.15757 18 3.78125 17.8422 3.46875 17.5266C3.15625 17.2112 3 16.832 3 16.3889V3.49998C3 3.08748 3.14687 2.73436 3.44062 2.44061C3.73437 2.14686 4.0875 1.99998 4.5 1.99998H8.58333C8.79583 1.99998 8.97396 2.07144 9.11771 2.21436C9.26146 2.35727 9.33333 2.53436 9.33333 2.74561C9.33333 2.95686 9.26146 3.1354 9.11771 3.28123C8.97396 3.42706 8.79583 3.49998 8.58333 3.49998H4.5V16.5H13.3958V15.7916C13.3958 15.5673 13.4757 15.3794 13.6354 15.2277C13.7951 15.0759 13.9869 15 14.2106 15C14.4342 15 14.6217 15.0759 14.7731 15.2277C14.9244 15.3794 15 15.5673 15 15.7916V16.3958C14.9861 16.8369 14.8245 17.2146 14.5152 17.5287C14.2059 17.8429 13.834 18 13.3996 18H4.59771ZM6.75 15C6.5375 15 6.35938 14.9285 6.21563 14.7856C6.07188 14.6427 6 14.4656 6 14.2544C6 14.0431 6.07188 13.8646 6.21563 13.7187C6.35938 13.5729 6.5375 13.5 6.75 13.5H10.8542C11.0667 13.5 11.2448 13.5714 11.3885 13.7144C11.5323 13.8573 11.6042 14.0344 11.6042 14.2456C11.6042 14.4569 11.5323 14.6354 11.3885 14.7812C11.2448 14.9271 11.0667 15 10.8542 15H6.75ZM6.75 12.5C6.5375 12.5 6.35938 12.4285 6.21563 12.2856C6.07188 12.1427 6 11.9656 6 11.7544C6 11.5431 6.07188 11.3646 6.21563 11.2187C6.35938 11.0729 6.5375 11 6.75 11H9.25C9.4625 11 9.64062 11.0714 9.78438 11.2144C9.92812 11.3573 10 11.5344 10 11.7456C10 11.9569 9.92812 12.1354 9.78438 12.2812C9.64062 12.4271 9.4625 12.5 9.25 12.5H6.75ZM8 8.99998C7.72222 8.99998 7.48611 8.90276 7.29167 8.70831C7.09722 8.51387 7 8.27776 7 7.99998V5.99998C7 5.7222 7.09722 5.48609 7.29167 5.29165C7.48611 5.0972 7.72222 4.99998 8 4.99998H10L12.1458 2.85415C12.1875 2.81359 12.2396 2.77915 12.3021 2.75081C12.3646 2.72248 12.4292 2.70831 12.4958 2.70831C12.6375 2.70831 12.7569 2.75707 12.8542 2.85457C12.9514 2.9522 13 3.07012 13 3.20831V10.7916C13 10.9298 12.9517 11.0478 12.8552 11.1454C12.7587 11.2429 12.6391 11.2916 12.4965 11.2916C12.4294 11.2916 12.3646 11.2775 12.3021 11.2491C12.2396 11.2208 12.1875 11.1864 12.1458 11.1458L10 8.99998H8ZM17 6.99498C17 7.39443 16.9167 7.78332 16.75 8.16165C16.5833 8.53998 16.3542 8.86804 16.0625 9.14581C15.9514 9.24304 15.8299 9.26387 15.6979 9.20831C15.566 9.15276 15.5 9.04859 15.5 8.89581V5.10415C15.5 4.95137 15.566 4.84373 15.6979 4.78123C15.8299 4.71873 15.9514 4.73609 16.0625 4.83331C16.3681 5.11109 16.6007 5.44095 16.7604 5.8229C16.9201 6.20484 17 6.59554 17 6.99498ZM18.5 6.99998C18.5 6.16665 18.2917 5.39929 17.875 4.6979C17.4583 3.99651 16.8889 3.45137 16.1667 3.06248C15.9881 2.9679 15.867 2.82651 15.8035 2.63831C15.7401 2.45026 15.75 2.26526 15.8333 2.08331C15.9306 1.88887 16.0727 1.75345 16.2598 1.67706C16.4467 1.60068 16.631 1.61109 16.8125 1.70831C17.8125 2.2222 18.5938 2.95304 19.1562 3.90081C19.7188 4.84873 20 5.87831 20 6.98956C20 8.10762 19.7222 9.1354 19.1667 10.0729C18.6111 11.0104 17.847 11.7416 16.8744 12.2666C16.6803 12.3805 16.4826 12.3993 16.2812 12.3229C16.0799 12.2465 15.9306 12.1111 15.8333 11.9166C15.75 11.7361 15.7396 11.5521 15.8021 11.3646C15.8646 11.1771 15.9847 11.0361 16.1623 10.9416C16.8874 10.55 17.4583 10.0035 17.875 9.30206C18.2917 8.60068 18.5 7.83331 18.5 6.99998Z" fill="var(--connect__icon-fill-color, #2d2d2d)"/>
</svg>
