<svg xmlns="http://www.w3.org/2000/svg" id="specialShapes" viewBox="0 0 20 20" fill="none">
  <path fill-rule="evenodd" clip-rule="evenodd" d="M7.84705 4.915L8.46173 4.10765C8.99411 3.40931 9.82248 3 10.7 3C11.9428 3 13.0359 3.81573 13.3927 5.00378L13.7824 6.30427C13.882 6.63715 14.1316 6.9047 14.4585 7.02696L15.3338 7.35473C16.3319 7.73206 17 8.68854 17 9.76261C17 10.5689 16.6229 11.3344 15.9678 11.8226L14.4969 12.9266C14.3613 13.0282 14.2907 13.1928 14.3093 13.3583L14.3097 13.3617L14.3643 13.857C14.55 15.5322 13.2389 17 11.5509 17C10.9093 17 10.2837 16.7802 9.784 16.3805L8.57213 15.4112C8.54738 15.3914 8.53118 15.3824 8.52267 15.3783L8.51289 15.3736L8.50318 15.3687C8.43112 15.3327 8.3467 15.3198 8.2621 15.3347L8.26073 15.3349L6.45372 15.6645C4.8359 15.9592 3.35 14.7152 3.35 13.0751C3.35 12.4538 3.57068 11.8609 3.95577 11.3932L3.96225 11.3853L4.209 11.0901C4.31673 10.9617 4.37594 10.799 4.37594 10.6312C4.37594 10.494 4.336 10.3572 4.25844 10.2376L3.41737 8.95707C3.14849 8.54188 3 8.05296 3 7.54843C3 5.95132 4.43764 4.73661 6.01225 5.00417L7.13444 5.19452C7.40763 5.24094 7.68217 5.13163 7.84705 4.915ZM5.77813 6.38445C5.05844 6.26193 4.4 6.81766 4.4 7.54843C4.4 7.77816 4.46781 8.00352 4.5925 8.19605L5.43031 9.47162C5.65562 9.81731 5.77594 10.2199 5.77594 10.6312C5.77594 11.1279 5.60094 11.6092 5.28156 11.9899L5.03656 12.2831C4.85281 12.5063 4.75 12.7863 4.75 13.0751C4.75 13.8431 5.44563 14.4251 6.2025 14.2872L8.01375 13.9569C8.39219 13.889 8.78375 13.9437 9.12937 14.1166C9.24313 14.1713 9.34812 14.2391 9.44656 14.3179L10.6584 15.2871C10.91 15.4884 11.2272 15.6 11.5509 15.6C12.4041 15.6 13.0669 14.8583 12.9728 14.0116L12.9181 13.5149C12.8438 12.8542 13.1259 12.2043 13.6575 11.8061L15.1297 10.7012C15.4272 10.4802 15.6 10.1324 15.6 9.76261C15.6 9.2747 15.2959 8.83712 14.8388 8.66427L13.9681 8.33827C13.2309 8.06259 12.6666 7.45872 12.4413 6.70608L12.0519 5.40645C11.8725 4.80914 11.3234 4.4 10.7 4.4C10.2581 4.4 9.8425 4.60567 9.57563 4.95573L8.96094 5.76308C8.47969 6.39539 7.68563 6.70826 6.90031 6.5748L5.77813 6.38445Z" fill="var(--connect__icon-fill-color, #2d2d2d)"/>
</svg>