<svg viewBox="0 0 30 30" id="squared" fill="none" xmlns="http://www.w3.org/2000/svg"><path d="m18.02 13.252 2.53-2.684c.434-.457.78-.867 1.038-1.23.457-.64.685-1.184.685-1.629a1.49 1.49 0 0 0-.404-1.055c-.265-.289-.63-.433-1.096-.433-.437 0-.82.146-1.148.44-.176.16-.354.39-.533.69l-.252-.087c.3-.813.773-1.375 1.418-1.688a2.46 2.46 0 0 1 1.072-.24c.613 0 1.096.209 1.447.627.356.418.534.883.534 1.394 0 .446-.137.866-.41 1.26-.27.395-.73.916-1.378 1.565l-2.308 2.308v.053h2.28c.331 0 .577-.053.737-.158.165-.106.317-.303.457-.592l.194.082-.598 1.582H18.02v-.205zM13.67 14.408c0-.468-.107-.814-.322-1.035a1.049 1.049 0 0 0-.782-.332c-1.06 0-2.047.814-2.959 2.441-.8 1.433-1.2 2.666-1.2 3.702 0 .52.11.901.331 1.142.228.235.508.352.84.352.983 0 1.93-.791 2.842-2.373.833-1.44 1.25-2.738 1.25-3.897zm-1.22-1.806c.514 0 .91.133 1.19.4.15.143.268.332.352.566l.049.137.215-.742a.626.626 0 0 1 .068-.166c.02-.033.065-.052.137-.059l1.104-.127c.058 0 .09.013.097.04.013.019.013.058 0 .117a4.184 4.184 0 0 0-.059.205l-.058.205-.899 3.496c-.195.762-.36 1.42-.498 1.973-.24 1.002-.36 1.575-.36 1.718 0 .091.022.16.067.205a.3.3 0 0 0 .186.059c.059 0 .12-.02.186-.059.071-.039.156-.097.253-.175l.166-.137.176-.156.235-.235.605-.625.234.205c-.677.866-1.22 1.455-1.63 1.768-.41.306-.801.459-1.172.459a.688.688 0 0 1-.567-.254 1.01 1.01 0 0 1-.195-.635c0-.234.042-.57.127-1.006.091-.442.179-.814.264-1.113-.118.195-.316.482-.596.86a6.8 6.8 0 0 1-1.016 1.083c-.475.424-.93.723-1.367.899a2.981 2.981 0 0 1-.976.176c-.528 0-1.006-.215-1.436-.645-.43-.436-.644-1.051-.644-1.846 0-1.367.611-2.793 1.835-4.277 1.263-1.543 2.572-2.314 3.926-2.314z" fill="var(--connect__icon-fill-color, #2d2d2d)"/></svg>