<?xml version='1.0' encoding='utf-8'?>
<svg xmlns:ns0="http://www.w3.org/2000/svg" xmlns="http://www.w3.org/2000/svg" fill="var(--connect__icon-fill-color, #2d2d2d)" viewBox="0 0 30 30"><ns0:path d="M13.88 23.1675V15.6325L7.15773 11.81V19.345L13.88 23.1675ZM16.1207 23.1675L22.8429 19.345V11.81L16.1207 15.6325V23.1675ZM15.0003 13.735L21.6385 9.9675L15.0003 6.2L8.36213 9.9675L15.0003 13.735ZM6.03736 21.27C5.68258 21.0683 5.40715 20.8025 5.21109 20.4725C5.01502 20.1425 4.91699 19.7758 4.91699 19.3725V10.6275C4.91699 10.2242 5.01502 9.8575 5.21109 9.5275C5.40715 9.1975 5.68258 8.93167 6.03736 8.73L13.88 4.3025C14.2347 4.10083 14.6082 4 15.0003 4C15.3925 4 15.7659 4.10083 16.1207 4.3025L23.9633 8.73C24.3181 8.93167 24.5935 9.1975 24.7896 9.5275C24.9856 9.8575 25.0837 10.2242 25.0837 10.6275V19.3725C25.0837 19.7758 24.9856 20.1425 24.7896 20.4725C24.5935 20.8025 24.3181 21.0683 23.9633 21.27L16.1207 25.6975C15.7659 25.8992 15.3925 26 15.0003 26C14.6082 26 14.2347 25.8992 13.88 25.6975L6.03736 21.27Z" fill="currentcolor" />
        </svg>