<?xml version='1.0' encoding='utf-8'?>
<svg xmlns:ns0="http://www.w3.org/2000/svg" xmlns="http://www.w3.org/2000/svg" viewBox="0 0 30 30"><ns0:path d="M13.1445 7.43407L14.2422 5.99238C14.7188 5.36726 15.4609 5 16.25 5C17.3633 5 18.3438 5.73061 18.6641 6.79723L19.3594 9.11799C19.7617 10.462 20.7695 11.5403 22.0859 12.0326L23.6406 12.6148C24.457 12.9234 25 13.7048 25 14.5761C25 15.2364 24.6914 15.8576 24.1602 16.2522L21.5312 18.2252C20.582 18.9363 20.0781 20.0967 20.2109 21.2766L20.3086 22.1635C20.4766 23.6755 19.293 25 17.7695 25C17.1914 25 16.625 24.8007 16.1758 24.4413L14.0117 22.7105C13.8359 22.5698 13.6484 22.4487 13.4453 22.351C12.8281 22.0424 12.1289 21.9447 11.4531 22.0658L8.21875 22.6558C6.86719 22.9019 5.625 21.8627 5.625 20.4913C5.625 19.9756 5.80859 19.4755 6.13672 19.077L6.57422 18.5534C7.14453 17.8736 7.45703 17.0141 7.45703 16.1272C7.45703 15.3927 7.24219 14.6738 6.83984 14.0565L5.34375 11.7787C5.12109 11.4349 5 11.0324 5 10.6222C5 9.31725 6.17578 8.32487 7.46094 8.54366L9.46484 8.88357C10.8672 9.1219 12.2852 8.5632 13.1445 7.43407Z" fill="var(--connect__icon-fill-color, #2d2d2d)" />
        </svg>