<?xml version='1.0' encoding='utf-8'?>
<svg xmlns:ns0="http://www.w3.org/2000/svg" xmlns="http://www.w3.org/2000/svg" fill="var(--connect__icon-fill-color, #2d2d2d)" viewBox="0 0 30 30"><ns0:path d="M23.9912 15.8587C23.9968 15.8227 23.9997 15.7864 24 15.75V11.25C23.9984 9.85809 23.4448 8.52364 22.4606 7.53941C21.4764 6.55519 20.1419 6.00156 18.75 6H11.25C9.85809 6.00156 8.52364 6.55519 7.53941 7.53941C6.55519 8.52364 6.00156 9.85809 6 11.25V18.75C6.00156 20.1419 6.55519 21.4764 7.53941 22.4606C8.52364 23.4448 9.85809 23.9984 11.25 24H15.75C15.7864 23.9997 15.8227 23.9968 15.8587 23.9913C15.8655 23.9902 15.8722 23.9893 15.879 23.9881C15.9144 23.9821 15.9492 23.9735 15.9834 23.9625C15.9846 23.9621 15.986 23.962 15.9872 23.9615C18.4465 23.1417 23.1417 18.4465 23.9615 15.9872C23.962 15.9859 23.9621 15.9846 23.9625 15.9834C23.9735 15.9492 23.9821 15.9144 23.9881 15.879C23.9893 15.8722 23.9902 15.8655 23.9912 15.8587ZM7.5 18.75V11.25C7.50114 10.2558 7.89659 9.30262 8.59961 8.59961C9.30262 7.89659 10.2558 7.50114 11.25 7.5H18.75C19.7442 7.50114 20.6974 7.89659 21.4004 8.59961C22.1034 9.30262 22.4989 10.2558 22.5 11.25V15H20.25C18.8581 15.0016 17.5236 15.5552 16.5394 16.5394C15.5552 17.5236 15.0016 18.8581 15 20.25V22.5H11.25C10.2558 22.4989 9.30262 22.1034 8.59961 21.4004C7.89659 20.6974 7.50114 19.7442 7.5 18.75ZM16.5 22.0442V20.25C16.5011 19.2558 16.8966 18.3026 17.5996 17.5996C18.3026 16.8966 19.2558 16.5011 20.25 16.5H22.0442C20.9038 18.3285 18.3285 20.9038 16.5 22.0442Z" fill="currentcolor" />
            <ns0:path fill-rule="evenodd" clip-rule="evenodd" d="M24 15.75C23.9997 15.7864 23.9968 15.8227 23.9912 15.8587L23.9907 15.8624C23.9899 15.8679 23.9891 15.8735 23.9881 15.879C23.9821 15.9144 23.9735 15.9492 23.9625 15.9834C23.9623 15.984 23.9622 15.9846 23.962 15.9853C23.9619 15.9859 23.9618 15.9866 23.9615 15.9872C23.1417 18.4465 18.4465 23.1417 15.9872 23.9615L15.9834 23.9625C15.9492 23.9735 15.9144 23.9821 15.879 23.9881C15.8738 23.9891 15.8687 23.9898 15.8635 23.9906C15.8619 23.9908 15.8603 23.991 15.8587 23.9913C15.8227 23.9968 15.7864 23.9997 15.75 24H11.25C9.85809 23.9984 8.52364 23.4448 7.53941 22.4606C6.55519 21.4764 6.00156 20.1419 6 18.75V11.25C6.00156 9.85809 6.55519 8.52364 7.53941 7.53941C8.52364 6.55519 9.85809 6.00156 11.25 6H18.75C20.1419 6.00156 21.4764 6.55519 22.4606 7.53941C23.4448 8.52364 23.9984 9.85809 24 11.25V15.75ZM15.9348 24.4854C15.8749 24.4946 15.8145 24.4995 15.7539 24.5L15.75 24.5L11.25 24.5C9.72568 24.4983 8.26372 23.892 7.18586 22.8141C6.108 21.7363 5.50171 20.2749 5.5 18.7506L5.5 11.25C5.50171 9.72568 6.108 8.26372 7.18586 7.18586C8.26372 6.108 9.72512 5.50171 11.2494 5.5L18.75 5.5C20.2743 5.50171 21.7363 6.108 22.8141 7.18586C23.892 8.26372 24.4983 9.72512 24.5 11.2494V15.7539C24.4995 15.8135 24.4948 15.873 24.4859 15.9319C24.4859 15.9319 24.4859 15.9318 24.4859 15.9319M15.9348 24.4854L15.9424 24.4843C15.9476 24.4836 15.9554 24.4824 15.9644 24.4808C16.0178 24.4716 16.0706 24.459 16.1224 24.4429M24.4809 15.964C24.4832 15.9503 24.4853 15.9359 24.4859 15.9319L24.4809 15.964ZM24.4429 16.1224C24.459 16.0705 24.4717 16.0176 24.4809 15.964L24.4429 16.1224ZM24.4368 16.1418L24.4382 16.1373C24.4377 16.1388 24.4373 16.1403 24.4368 16.1418ZM15 20.25C15.0016 18.8581 15.5552 17.5236 16.5394 16.5394C17.5236 15.5552 18.8581 15.0016 20.25 15H22.5V11.25C22.4989 10.2558 22.1034 9.30262 21.4004 8.59961C20.6974 7.89659 19.7442 7.50114 18.75 7.5H11.25C10.2558 7.50114 9.30262 7.89659 8.59961 8.59961C7.89659 9.30262 7.50114 10.2558 7.5 11.25V18.75C7.50114 19.7442 7.89659 20.6974 8.59961 21.4004C9.30262 22.1034 10.2558 22.4989 11.25 22.5H15V20.25ZM14.5 22V20.25C14.5017 18.7257 15.108 17.2637 16.1859 16.1859C17.2637 15.108 18.7251 14.5017 20.2494 14.5H22V11.2506C21.999 10.3888 21.6562 9.56255 21.0468 8.95316C20.4375 8.34384 19.6114 8.00107 18.7497 8H11.2503C10.3886 8.00107 9.56248 8.34384 8.95316 8.95316C8.34384 9.56248 8.00107 10.3886 8 11.2503V18.7497C8.00107 19.6114 8.34384 20.4375 8.95316 21.0468C9.56255 21.6562 10.3888 21.999 11.2506 22H14.5ZM16.5 22.0442C16.6614 21.9435 16.8285 21.8317 17 21.7103C18.6004 20.5766 20.5766 18.6004 21.7103 17C21.8317 16.8285 21.9436 16.6614 22.0442 16.5H20.25C19.2558 16.5011 18.3026 16.8966 17.5996 17.5996C16.8966 18.3026 16.5011 19.2558 16.5 20.25V22.0442ZM17 21.0913C17.6941 20.57 18.4538 19.8994 19.1766 19.1766C19.8994 18.4538 20.57 17.6941 21.0913 17H20.2506C19.3888 17.001 18.5625 17.3438 17.9532 17.9532C17.3438 18.5625 17.001 19.3888 17 20.2506V21.0913Z" fill="currentcolor" />
        </svg>