<?xml version='1.0' encoding='utf-8'?>
<svg xmlns:ns0="http://www.w3.org/2000/svg" xmlns="http://www.w3.org/2000/svg" viewBox="0 0 30 30"><ns0:path d="M11.4866 13.0294L14.0253 10.458L12.4819 8.89033L11.9829 9.38218C11.7511 9.61411 11.4675 9.73271 11.132 9.73796C10.7965 9.74321 10.5052 9.62229 10.2581 9.37521C10.011 9.12792 9.88747 8.83517 9.88747 8.49696C9.88747 8.15876 10.011 7.86601 10.2581 7.61872L10.7269 7.1496L9.43659 5.86557L6.87455 8.43696L11.4866 13.0294ZM21.5561 23.1304L24.1182 20.5663L22.8207 19.2677L22.3216 19.7368C22.0745 19.9841 21.7871 20.1066 21.4592 20.1041C21.1316 20.1017 20.8442 19.9769 20.5971 19.7296C20.3501 19.4823 20.2265 19.1934 20.2265 18.8628C20.2265 18.5323 20.3501 18.2434 20.5971 17.9961L21.0656 17.504L19.4919 15.952L16.9456 18.5001L21.5561 23.1304ZM5.73054 25.6469C5.34396 25.6469 5.01763 25.5139 4.75157 25.2478C4.4857 24.9815 4.35277 24.655 4.35277 24.2681V20.7421C4.35277 20.5564 4.38668 20.3793 4.45451 20.2108C4.52234 20.0423 4.62398 19.8903 4.75944 19.7547L9.60829 14.902L4.59441 9.88373C4.19814 9.48713 4 9.00245 4 8.42969C4 7.85692 4.19814 7.37224 4.59441 6.97565L7.98373 3.58359C8.38 3.187 8.86429 2.99254 9.43659 3.00022C10.0089 3.0079 10.4932 3.21003 10.8895 3.60662L15.9339 8.63182L20.4482 4.0909C20.7001 3.83876 20.9823 3.64966 21.2948 3.52359C21.6073 3.39752 21.9299 3.33448 22.2626 3.33448C22.5951 3.33448 22.9176 3.39631 23.2301 3.51995C23.5426 3.6436 23.8248 3.83149 24.0767 4.08363L25.8914 5.92285C26.1434 6.17498 26.3323 6.45864 26.4583 6.77381C26.5842 7.08899 26.6472 7.41295 26.6472 7.7457C26.6472 8.07865 26.5842 8.39766 26.4583 8.70274C26.3323 9.00781 26.1434 9.28641 25.8914 9.53855L21.3772 14.0725L26.4056 19.105C26.8019 19.5016 27 19.9862 27 20.559C27 21.1318 26.8019 21.6165 26.4056 22.0131L23.0163 25.4051C22.62 25.8017 22.1357 26 21.5634 26C20.9911 26 20.5068 25.8017 20.1105 25.4051L15.0749 20.3726L10.226 25.2327C10.0904 25.3682 9.93834 25.4712 9.76998 25.5415C9.60162 25.6118 9.42468 25.6469 9.23916 25.6469H5.73054ZM6.9996 22.998H8.70259L20.2613 11.4529L18.5353 9.71826L6.9996 21.2791V22.998ZM19.4135 10.5971L18.5353 9.71826L20.2613 11.4529L19.4135 10.5971Z" fill="var(--connect__icon-fill-color, #2d2d2d)" />
        </svg>