<svg width="30" height="30" viewBox="0 0 30 30" fill="none" xmlns="http://www.w3.org/2000/svg">
<path fill-rule="evenodd" clip-rule="evenodd" d="M18.2527 7.5H7C6.17158 7.5 5.5 8.17157 5.5 9V20.2527C5.5 21.0811 6.17157 21.7527 7 21.7527H18.2527C19.0811 21.7527 19.7527 21.0811 19.7527 20.2527V9C19.7527 8.17158 19.0811 7.5 18.2527 7.5ZM7 5C4.79086 5 3 6.79087 3 9V20.2527C3 22.4618 4.79087 24.2527 7 24.2527H18.2527C20.4618 24.2527 22.2527 22.4618 22.2527 20.2527V9C22.2527 6.79086 20.4618 5 18.2527 5H7ZM12.5262 16.5386C13.6377 16.5386 14.5387 15.6376 14.5387 14.5262C14.5387 13.4148 13.6377 12.5138 12.5262 12.5138C11.4148 12.5138 10.5138 13.4148 10.5138 14.5262C10.5138 15.6376 11.4148 16.5386 12.5262 16.5386ZM12.5262 19.0386C15.0184 19.0386 17.0387 17.0184 17.0387 14.5262C17.0387 12.0341 15.0184 10.0138 12.5262 10.0138C10.0341 10.0138 8.01381 12.0341 8.01381 14.5262C8.01381 17.0184 10.0341 19.0386 12.5262 19.0386Z" fill="#2D2D2D"/>
<path d="M23.7912 10H25C26.1046 10 27 10.8954 27 12V17.6264C27 18.7309 26.1046 19.6264 25 19.6264H23.7912V10Z" fill="#2D2D2D"/>
</svg>
