<svg xmlns="http://www.w3.org/2000/svg" fill="none" viewBox="0 0 30 30" id="stampsCounterOutline">
  <path fill="var(--connect__icon-fill-color, #2d2d2d)" fill-rule="evenodd" d="M18.253 7.5H7A1.5 1.5 0 0 0 5.5 9v11.253a1.5 1.5 0 0 0 1.5 1.5h11.253a1.5 1.5 0 0 0 1.5-1.5V9a1.5 1.5 0 0 0-1.5-1.5ZM7 5a4 4 0 0 0-4 4v11.253a4 4 0 0 0 4 4h11.253a4 4 0 0 0 4-4V9a4 4 0 0 0-4-4H7Zm5.526 11.539a2.012 2.012 0 1 0 0-4.025 2.012 2.012 0 0 0 0 4.025Zm0 2.5a4.512 4.512 0 1 0 0-9.025 4.512 4.512 0 0 0 0 9.025Z" clip-rule="evenodd"/>
  <path fill="var(--connect__icon-fill-color, #2d2d2d)" d="M23.791 10H25a2 2 0 0 1 2 2v5.626a2 2 0 0 1-2 2h-1.209V10Z"/>
</svg>