<svg xmlns="http://www.w3.org/2000/svg" fill="none" viewBox="0 0 30 30" id="stampsSpecialShapesOutline">
  <path stroke="#2D2D2D" stroke-width="2.5" d="m11.743 7.555 1.043-1.37a3.647 3.647 0 0 1 6.392 1.163l.66 2.205a3.01 3.01 0 0 0 1.831 1.957h.001l1.477.553.004.002a3.245 3.245 0 0 1 2.099 3.032 3.23 3.23 0 0 1-1.3 2.594l-.002.002-2.493 1.87v.001a1.929 1.929 0 0 0-.762 1.759v.003l.092.841-9.042-14.612Zm0 0a2.378 2.378 0 0 1-2.292.902l-1.903-.323h-.001a3.254 3.254 0 0 0-3.27 4.985l.005.007 1.419 2.16v.002a2.337 2.337 0 0 1-.164 2.785v.001l-.416.498-.006.007a3.34 3.34 0 0 0 3.167 5.424l3.069-.56h.002c.38-.068.77-.013 1.11.159l.01.004.008.004c.1.048.198.11.3.191M11.742 7.555l1.037 16.246m0 0 2.056 1.644a3.677 3.677 0 0 0 5.95-3.277l-8.006 1.633Z"/>
</svg>