<?xml version='1.0' encoding='utf-8'?>
<svg xmlns:ns0="http://www.w3.org/2000/svg" xmlns="http://www.w3.org/2000/svg" fill="var(--connect__icon-fill-color, #2d2d2d)" viewBox="0 0 30 30"><ns0:path d="M8 24C7.45 24 6.97917 23.8042 6.5875 23.4125C6.19583 23.0208 6 22.55 6 22V16H8V22H14V24H8ZM16 24V22H22V16H24V22C24 22.55 23.8042 23.0208 23.4125 23.4125C23.0208 23.8042 22.55 24 22 24H16ZM9 20L12 16L14.25 19L17.25 15L21 20H9ZM6 14V8C6 7.45 6.19583 6.97917 6.5875 6.5875C6.97917 6.19583 7.45 6 8 6H14V8H8V14H6ZM22 14V8H16V6H22C22.55 6 23.0208 6.19583 23.4125 6.5875C23.8042 6.97917 24 7.45 24 8V14H22ZM18.5 13C18.0667 13 17.7083 12.8583 17.425 12.575C17.1417 12.2917 17 11.9333 17 11.5C17 11.0667 17.1417 10.7083 17.425 10.425C17.7083 10.1417 18.0667 10 18.5 10C18.9333 10 19.2917 10.1417 19.575 10.425C19.8583 10.7083 20 11.0667 20 11.5C20 11.9333 19.8583 12.2917 19.575 12.575C19.2917 12.8583 18.9333 13 18.5 13Z" fill="currentcolor" />
        </svg>