<?xml version='1.0' encoding='utf-8'?>
<svg xmlns:ns0="http://www.w3.org/2000/svg" xmlns="http://www.w3.org/2000/svg" fill="var(--connect__icon-fill-color, #2d2d2d)" viewBox="0 0 30 30"><ns0:path d="M20.7857 7.92857H22.0714V9.21429H20.7857V7.92857ZM20.1429 6C19.4317 6 18.8571 6.57455 18.8571 7.28571H11.1429C11.1429 6.57455 10.5683 6 9.85714 6H7.28571C6.57455 6 6 6.57455 6 7.28571V9.85714C6 10.5683 6.57455 11.1429 7.28571 11.1429V18.8571C6.57455 18.8571 6 19.4317 6 20.1429V22.7143C6 23.4254 6.57455 24 7.28571 24H9.85714C10.5683 24 11.1429 23.4254 11.1429 22.7143H18.8571C18.8571 23.4254 19.4317 24 20.1429 24H22.7143C23.4254 24 24 23.4254 24 22.7143V20.1429C24 19.4317 23.4254 18.8571 22.7143 18.8571V11.1429C23.4254 11.1429 24 10.5683 24 9.85714V7.28571C24 6.57455 23.4254 6 22.7143 6H20.1429ZM9.85714 11.1429C10.5683 11.1429 11.1429 10.5683 11.1429 9.85714H18.8571C18.8571 10.5683 19.4317 11.1429 20.1429 11.1429V18.8571C19.4317 18.8571 18.8571 19.4317 18.8571 20.1429H11.1429C11.1429 19.4317 10.5683 18.8571 9.85714 18.8571V11.1429ZM7.92857 20.7857H9.21429V22.0714H7.92857V20.7857ZM20.7857 22.0714V20.7857H22.0714V22.0714H20.7857ZM7.92857 9.21429V7.92857H9.21429V9.21429H7.92857Z" fill="currentcolor" />
        </svg>