<svg width="30" height="30" viewBox="0 0 30 30" fill="none" xmlns="http://www.w3.org/2000/svg">
<path d="M12.7426 6.55532L12.7428 6.55515L13.7855 5.18555L13.786 5.18493C14.4758 4.2801 15.5489 3.75 16.6875 3.75C18.2982 3.75 19.7153 4.80711 20.178 6.34784L20.1783 6.34861L20.8388 8.55334L20.8389 8.55361C21.1089 9.45563 21.7852 10.1795 22.6695 10.5102L22.67 10.5104L24.1469 11.0634L24.1506 11.0648C25.4092 11.5406 26.25 12.7462 26.25 14.0973C26.25 15.1144 25.7744 16.0775 24.9504 16.6909C24.9494 16.6916 24.9485 16.6923 24.9475 16.693L22.455 18.5637L22.4541 18.5644C21.9059 18.9751 21.6161 19.6442 21.6925 20.323L21.6929 20.326L21.7855 21.1673L12.7426 6.55532ZM12.7426 6.55532C12.2087 7.25685 11.326 7.60576 10.451 7.45706L10.4506 7.457L8.54768 7.13421C8.54757 7.13419 8.54747 7.13417 8.54737 7.13415C8.54722 7.13413 8.54708 7.13411 8.54693 7.13408C6.56271 6.79674 4.75 8.32787 4.75 10.3411C4.75 10.9762 4.9371 11.5938 5.27736 12.1192L5.27734 12.1192L5.28178 12.126L6.70065 14.2862C6.70099 14.2867 6.70134 14.2872 6.70169 14.2878C6.9519 14.6723 7.08418 15.1178 7.08418 15.5708C7.08418 16.1197 6.89069 16.6518 6.53786 17.0724L6.53633 17.0742L6.1207 17.5716L6.12068 17.5716L6.11489 17.5786C5.6234 18.1755 5.34375 18.9299 5.34375 19.7167C5.34375 21.7982 7.22908 23.3766 9.28177 23.0028L9.28211 23.0027L12.351 22.4429C12.3516 22.4428 12.3523 22.4427 12.3529 22.4426C12.7323 22.375 13.1221 22.4305 13.4639 22.6015L13.4726 22.6058L13.4813 22.61C13.5804 22.6576 13.679 22.72 13.7802 22.801L13.7804 22.8011M12.7426 6.55532L13.7804 22.8011M13.7804 22.8011L15.836 24.4452C15.8361 24.4453 15.8362 24.4454 15.8362 24.4454C16.4846 24.9641 17.298 25.25 18.1311 25.25C20.3235 25.25 22.0267 23.3443 21.7857 21.1685L13.7804 22.8011Z" stroke="#2D2D2D" stroke-width="2.5"/>
</svg>
