<svg xmlns="http://www.w3.org/2000/svg" id="stampsMeasureOutline" viewBox="0 0 20 20" fill="none">
  <path d="M7.65757 8.68627L9.35006 6.97201L8.32112 5.92688L7.98844 6.25478C7.83394 6.40941 7.64485 6.48847 7.42118 6.49197C7.1975 6.49547 7.0033 6.41486 6.83858 6.25014C6.67385 6.08528 6.59149 5.89011 6.59149 5.66464C6.59149 5.43917 6.67385 5.24401 6.83858 5.07915L7.15107 4.7664L6.2909 3.91038L4.58287 5.62464L7.65757 8.68627ZM14.3706 15.4203L16.0786 13.7109L15.2136 12.8451L14.8809 13.1579C14.7162 13.3228 14.5246 13.4044 14.306 13.4028C14.0876 13.4011 13.896 13.3179 13.7313 13.153C13.5665 12.9882 13.4842 12.7956 13.4842 12.5752C13.4842 12.3549 13.5665 12.1623 13.7313 11.9974L14.0436 11.6693L12.9944 10.6347L11.2969 12.3334L14.3706 15.4203ZM3.8202 17.098C3.56248 17.098 3.34493 17.0093 3.16755 16.8319C2.99031 16.6544 2.90168 16.4366 2.90168 16.1787V13.828C2.90168 13.7043 2.92429 13.5862 2.96951 13.4739C3.01473 13.3615 3.08249 13.2602 3.1728 13.1698L6.40536 9.93464L3.06278 6.58915C2.79859 6.32476 2.6665 6.00164 2.6665 5.61979C2.6665 5.23795 2.79859 4.91483 3.06278 4.65043L5.32232 2.38906C5.5865 2.12467 5.90936 1.99503 6.2909 2.00015C6.67244 2.00526 6.9953 2.14002 7.25948 2.40442L10.6225 5.75455L13.6319 2.72727C13.7999 2.55917 13.988 2.4331 14.1964 2.34906C14.4047 2.26501 14.6198 2.22299 14.8416 2.22299C15.0632 2.22299 15.2782 2.2642 15.4865 2.34663C15.6949 2.42906 15.883 2.55433 16.051 2.72242L17.2608 3.94856C17.4287 4.11666 17.5547 4.30576 17.6387 4.51588C17.7227 4.72599 17.7647 4.94197 17.7647 5.1638C17.7647 5.38577 17.7227 5.59844 17.6387 5.80182C17.5547 6.00521 17.4287 6.19094 17.2608 6.35903L14.2513 9.38167L17.6036 12.7366C17.8677 13.001 17.9998 13.3242 17.9998 13.706C17.9998 14.0879 17.8677 14.411 17.6036 14.6754L15.344 16.9367C15.0798 17.2011 14.757 17.3333 14.3754 17.3333C13.9939 17.3333 13.671 17.2011 13.4069 16.9367L10.0497 13.5818L6.81718 16.8218C6.72674 16.9122 6.6254 16.9808 6.51316 17.0277C6.40092 17.0745 6.28296 17.098 6.15928 17.098H3.8202ZM4.66624 15.332H5.80156L13.5074 7.63528L12.3567 6.47884L4.66624 14.186V15.332ZM12.9422 7.06474L12.3567 6.47884L13.5074 7.63528L12.9422 7.06474Z" fill="var(--connect__icon-fill-color, #2d2d2d)"/>
</svg>