<?xml version='1.0' encoding='utf-8'?>
<svg xmlns:ns0="http://www.w3.org/2000/svg" xmlns="http://www.w3.org/2000/svg" fill="var(--connect__icon-fill-color, #2d2d2d)" viewBox="0 0 30 30"><ns0:path fill-rule="evenodd" clip-rule="evenodd" d="M7 5.40015C4.79086 5.40015 3 7.19101 3 9.40015V20.5998C3 22.809 4.79086 24.5998 7 24.5998H18.1997C20.4088 24.5998 22.1997 22.809 22.1997 20.5998V9.40015C22.1997 7.19101 20.4088 5.40015 18.1997 5.40015H7ZM10.0234 10.4001C10.9794 10.4001 11.8974 10.8546 12.4975 11.5705H12.5025C13.1026 10.8546 14.0206 10.4001 14.9767 10.4001C16.6727 10.4001 18 11.7558 18 13.4872C18 15.604 16.132 17.335 13.3006 19.9589L13.2984 19.9609L13.0543 20.1869C12.7467 20.4712 12.2508 20.4712 11.9457 20.1869L11.7016 19.9609C8.86893 17.3385 7 15.6071 7 13.4872C7 11.7558 8.32733 10.4001 10.0234 10.4001Z" fill="currentcolor" />
            <ns0:path d="M23.8008 10.4001H25.0007C26.1053 10.4001 27.0007 11.2956 27.0007 12.4001V18C27.0007 19.1046 26.1053 20 25.0007 20H23.8008V10.4001Z" fill="currentcolor" />
        </svg>