<?xml version='1.0' encoding='utf-8'?>
<svg xmlns:ns0="http://www.w3.org/2000/svg" xmlns="http://www.w3.org/2000/svg" viewBox="0 0 30 30"><ns0:path d="M17.9508 17.4784C19.3183 17.4784 20.4796 17.0059 21.4348 16.0607C22.39 15.1156 22.9178 13.9795 23.0184 12.6523C21.6509 12.6523 20.4796 13.1248 19.5043 14.07C18.529 15.0151 18.0112 16.1512 17.9508 17.4784ZM17.9508 17.4784C17.8905 16.1512 17.3727 15.0151 16.3974 14.07C15.4221 13.1248 14.2507 12.6523 12.8833 12.6523C12.9838 13.9795 13.5117 15.1156 14.4669 16.0607C15.4221 17.0059 16.5834 17.4784 17.9508 17.4784ZM17.9508 13.8588C18.2927 13.8588 18.5792 13.7432 18.8105 13.5119C19.0418 13.2807 19.1574 12.9941 19.1574 12.6523V12.3506L19.459 12.4713C19.7607 12.592 20.0673 12.6221 20.379 12.5618C20.6907 12.5015 20.927 12.3305 21.0879 12.049C21.2689 11.7474 21.3292 11.4256 21.2689 11.0838C21.2085 10.7419 21.0074 10.5006 20.6656 10.3599L20.3639 10.2392L20.6656 10.1186C21.0074 9.9778 21.2035 9.73146 21.2538 9.37956C21.3041 9.02765 21.2488 8.71093 21.0879 8.42941C20.9069 8.12778 20.6656 7.95182 20.3639 7.90155C20.0623 7.85128 19.7607 7.88647 19.459 8.00712L19.1574 8.12778V7.82614C19.1574 7.48429 19.0418 7.19774 18.8105 6.96649C18.5792 6.73523 18.2927 6.61961 17.9508 6.61961C17.609 6.61961 17.3224 6.73523 17.0912 6.96649C16.8599 7.19774 16.7443 7.48429 16.7443 7.82614V8.12778L16.4426 8.00712C16.141 7.88647 15.8394 7.85128 15.5377 7.90155C15.2361 7.95182 14.9948 8.12778 14.8138 8.42941C14.6529 8.71093 14.5976 9.02765 14.6479 9.37956C14.6982 9.73146 14.8942 9.9778 15.2361 10.1186L15.5377 10.2392L15.2361 10.3599C14.8942 10.5006 14.6931 10.7419 14.6328 11.0838C14.5725 11.4256 14.6328 11.7474 14.8138 12.049C14.9747 12.3305 15.2109 12.5015 15.5226 12.5618C15.8343 12.6221 16.141 12.592 16.4426 12.4713L16.7443 12.3506V12.6523C16.7443 12.9941 16.8599 13.2807 17.0912 13.5119C17.3224 13.7432 17.609 13.8588 17.9508 13.8588ZM17.9508 11.4457C17.609 11.4457 17.3224 11.3301 17.0912 11.0989C16.8599 10.8676 16.7443 10.5811 16.7443 10.2392C16.7443 9.89736 16.8599 9.61081 17.0912 9.37956C17.3224 9.1483 17.609 9.03268 17.9508 9.03268C18.2927 9.03268 18.5792 9.1483 18.8105 9.37956C19.0418 9.61081 19.1574 9.89736 19.1574 10.2392C19.1574 10.5811 19.0418 10.8676 18.8105 11.0989C18.5792 11.3301 18.2927 11.4457 17.9508 11.4457ZM15.8997 23.5111H22.5056C22.3849 23.9937 22.1436 24.411 21.7816 24.7629C21.4197 25.1148 20.9773 25.3209 20.4544 25.3812L7.30297 26.9799C6.63937 27.0603 6.04112 26.8995 5.50822 26.4973C4.97533 26.0951 4.66866 25.5622 4.58822 24.8986L3.0197 11.6871C2.93926 11.0235 3.10516 10.4302 3.5174 9.90742C3.92964 9.38458 4.46757 9.08295 5.13117 9.00251L6.48855 8.8517V11.2648L5.40265 11.3854L7.0315 24.597L15.8997 23.5111ZM11.3148 21.098C10.6512 21.098 10.0831 20.8618 9.61051 20.3892C9.13794 19.9166 8.90166 19.3486 8.90166 18.685V5.41307C8.90166 4.74948 9.13794 4.1814 9.61051 3.70884C10.0831 3.23628 10.6512 3 11.3148 3H24.5869C25.2505 3 25.8186 3.23628 26.2911 3.70884C26.7637 4.1814 27 4.74948 27 5.41307V18.685C27 19.3486 26.7637 19.9166 26.2911 20.3892C25.8186 20.8618 25.2505 21.098 24.5869 21.098H11.3148ZM11.3148 18.685H24.5869V5.41307H11.3148V18.685Z" fill="var(--connect__icon-fill-color, #2d2d2d)" />
        </svg>