<svg xmlns="http://www.w3.org/2000/svg" fill="none" viewBox="0 0 30 30" id="stampsMeasureOutline">
  <path fill="var(--connect__icon-fill-color, #2d2d2d)" d="m11.487 13.03 2.538-2.572-1.543-1.568-.5.492c-.23.232-.514.35-.85.356a1.168 1.168 0 0 1-.874-.363 1.2 1.2 0 0 1-.37-.878c0-.338.123-.631.37-.878l.469-.47-1.29-1.283-2.562 2.571 4.612 4.592Zm10.07 10.1 2.561-2.564-1.297-1.298-.5.469c-.247.247-.534.37-.862.367a1.195 1.195 0 0 1-.862-.374 1.188 1.188 0 0 1-.37-.867c0-.33.123-.62.37-.867l.469-.492-1.574-1.552-2.546 2.548 4.61 4.63ZM5.73 25.647a1.33 1.33 0 0 1-.98-.4 1.333 1.333 0 0 1-.398-.979v-3.526a1.36 1.36 0 0 1 .407-.987l4.848-4.853-5.014-5.018A1.979 1.979 0 0 1 4 8.43c0-.573.198-1.058.594-1.454l3.39-3.392c.396-.397.88-.591 1.453-.584.572.008 1.056.21 1.453.607l5.044 5.025 4.514-4.541a2.526 2.526 0 0 1 1.815-.757c.332 0 .655.062.967.186.313.124.595.311.847.564l1.814 1.839c.252.252.441.536.567.85.126.316.19.64.19.973a2.485 2.485 0 0 1-.757 1.793l-4.514 4.534 5.029 5.032c.396.397.594.881.594 1.454s-.198 1.057-.594 1.454l-3.39 3.392c-.396.397-.88.595-1.453.595a1.976 1.976 0 0 1-1.453-.595l-5.035-5.032-4.849 4.86a1.364 1.364 0 0 1-.987.414H5.731ZM7 22.998h1.703L20.26 11.453l-1.726-1.735L7 21.28v1.719Zm12.413-12.4-.878-.88 1.726 1.735-.848-.856Z"/>
</svg>