<svg xmlns="http://www.w3.org/2000/svg" xmlns:ns0="http://www.w3.org/2000/svg" viewBox="0 0 40 40"><ns0:path fill="var(--connect__icon-fill-color, #2d2d2d)" fill-rule="evenodd" d="M19.9994 30.2478L27.7187 34.3054C29.1705 35.0693 30.9043 33.8434 30.6224 32.1976L29.1485 23.6005L35.3959 17.5111C36.5817 16.3512 35.9218 14.3374 34.286 14.0995L25.6549 12.8456L21.7933 5.02439C21.1213 3.65854 18.8796 3.65854 18.2076 5.02439L14.346 12.8476L5.71491 14.1015C4.07908 14.3394 3.41714 16.3532 4.60502 17.5131L10.8524 23.6005L9.37853 32.1976C9.09656 33.8354 10.8264 35.0793 12.2802 34.3054L19.9994 30.2478ZM25.9948 28.8802L20.9313 26.2184C20.3474 25.9105 19.6515 25.9105 19.0675 26.2184L14.004 28.8802L14.9699 23.2407C15.0819 22.5928 14.866 21.9289 14.396 21.4709L10.2984 17.4753L15.9598 16.6534C16.6118 16.5594 17.1737 16.1495 17.4657 15.5595L19.9994 10.4281L22.5332 15.5595C22.8231 16.1495 23.3851 16.5594 24.039 16.6534L29.7004 17.4753L25.6029 21.4709C25.1329 21.9309 24.9169 22.5928 25.0289 23.2407L25.9948 28.8802Z" clip-rule="evenodd"/></svg>