<svg xmlns="http://www.w3.org/2000/svg" fill="none" viewBox="0 0 40 40" id="stopwatch">
  <path fill="var(--connect__icon-fill-color, #2d2d2d)" d="M16.389 4.778c-.394 0-.723-.134-.99-.4A1.351 1.351 0 0 1 15 3.383c0-.395.133-.724.4-.988A1.35 1.35 0 0 1 16.388 2h7.222c.394 0 .723.134.99.4.266.268.399.599.399.994s-.133.724-.4.988a1.35 1.35 0 0 1-.989.396H16.39Zm3.616 18.527c.395 0 .724-.133.988-.399a1.35 1.35 0 0 0 .396-.99v-6.944c0-.393-.134-.723-.4-.99a1.352 1.352 0 0 0-.994-.399c-.395 0-.724.133-.988.4a1.35 1.35 0 0 0-.396.99v6.944c0 .393.134.723.4.99.268.265.599.398.994.398ZM20 36.972c-2.056 0-3.993-.396-5.813-1.187a15.323 15.323 0 0 1-4.77-3.23 15.322 15.322 0 0 1-3.23-4.77C5.396 25.965 5 24.028 5 21.972c0-2.056.396-3.993 1.188-5.812a15.32 15.32 0 0 1 3.229-4.771 15.321 15.321 0 0 1 4.77-3.23c1.82-.791 3.757-1.187 5.813-1.187 1.815 0 3.532.301 5.153.903a15.02 15.02 0 0 1 4.402 2.542l1.223-1.222c.268-.269.592-.403.972-.403s.704.134.972.403c.269.268.403.592.403.972s-.134.703-.403.972L31.5 12.36c1.019 1.204 1.856 2.597 2.514 4.18.657 1.584.986 3.394.986 5.431 0 2.056-.396 3.993-1.188 5.813a15.323 15.323 0 0 1-3.229 4.77 15.323 15.323 0 0 1-4.77 3.23c-1.82.791-3.757 1.187-5.813 1.187Zm0-2.777c3.389 0 6.273-1.19 8.653-3.57 2.38-2.38 3.57-5.264 3.57-8.653 0-3.389-1.19-6.273-3.57-8.652-2.38-2.38-5.264-3.57-8.653-3.57-3.389 0-6.273 1.19-8.653 3.57-2.38 2.379-3.57 5.263-3.57 8.652 0 3.389 1.19 6.273 3.57 8.653 2.38 2.38 5.264 3.57 8.653 3.57Z"/>
</svg>