<svg xmlns="http://www.w3.org/2000/svg" id="stop" viewBox="0 0 20 20" fill="none">
  <path d="M5.5 12.9988V6.99417C5.5 6.58139 5.64701 6.22917 5.94104 5.9375C6.23493 5.64583 6.58833 5.5 7.00125 5.5H13.0058C13.4186 5.5 13.7708 5.64701 14.0625 5.94104C14.3542 6.23493 14.5 6.58833 14.5 7.00125V13.0058C14.5 13.4186 14.353 13.7708 14.059 14.0625C13.7651 14.3542 13.4117 14.5 12.9988 14.5H6.99417C6.58139 14.5 6.22917 14.353 5.9375 14.059C5.64583 13.7651 5.5 13.4117 5.5 12.9988ZM7 13H13V7H7V13Z" fill="var(--connect__icon-fill-color, #2d2d2d)" />
</svg>