<svg xmlns="http://www.w3.org/2000/svg" id="stopwatch" viewBox="0 0 20 20" fill="none">
  <path d="M8.725 4.35C8.53375 4.35 8.37344 4.28569 8.24406 4.15706C8.11469 4.02844 8.05 3.86906 8.05 3.67894C8.05 3.48881 8.11469 3.32812 8.24406 3.19688C8.37344 3.06563 8.53375 3 8.725 3H11.875C12.0662 3 12.2266 3.06431 12.3559 3.19294C12.4853 3.32156 12.55 3.48094 12.55 3.67106C12.55 3.86119 12.4853 4.02188 12.3559 4.15313C12.2266 4.28438 12.0662 4.35 11.875 4.35H8.725ZM10.2961 12.45C10.4862 12.45 10.6469 12.3853 10.7781 12.2559C10.9094 12.1266 10.975 11.9663 10.975 11.775V8.625C10.975 8.43375 10.9107 8.27344 10.7821 8.14406C10.6534 8.01469 10.4941 7.95 10.3039 7.95C10.1138 7.95 9.95312 8.01469 9.82188 8.14406C9.69063 8.27344 9.625 8.43375 9.625 8.625V11.775C9.625 11.9663 9.68931 12.1266 9.81794 12.2559C9.94656 12.3853 10.1059 12.45 10.2961 12.45ZM10.3 17.85C9.425 17.85 8.60675 17.6843 7.84525 17.3529C7.08375 17.0217 6.41819 16.5712 5.84856 16.0014C5.27881 15.4318 4.82831 14.7663 4.49706 14.0048C4.16569 13.2433 4 12.425 4 11.55C4 10.675 4.16569 9.85675 4.49706 9.09525C4.82831 8.33375 5.27881 7.66819 5.84856 7.09856C6.41819 6.52881 7.08375 6.07831 7.84525 5.74706C8.60675 5.41569 9.42225 5.25 10.2918 5.25C11.0203 5.25 11.7194 5.37188 12.3891 5.61563C13.0589 5.85938 13.6813 6.2 14.2563 6.6375L14.7678 6.126C14.9018 5.992 15.0563 5.92813 15.2313 5.93438C15.4062 5.94063 15.5625 6.0125 15.7 6.15C15.8375 6.2875 15.9062 6.44375 15.9062 6.61875C15.9062 6.79375 15.8375 6.95 15.7 7.0875L15.2125 7.59375C15.65 8.15625 15.9906 8.77381 16.2344 9.44644C16.4781 10.1191 16.6 10.8211 16.6 11.5526C16.6 12.4259 16.4343 13.2433 16.1029 14.0048C15.7717 14.7663 15.3212 15.4318 14.7514 16.0014C14.1818 16.5712 13.5162 17.0217 12.7548 17.3529C11.9932 17.6843 11.175 17.85 10.3 17.85ZM10.3 16.5C11.675 16.5 12.8438 16.0188 13.8063 15.0563C14.7688 14.0938 15.25 12.925 15.25 11.55C15.25 10.175 14.7688 9.00625 13.8063 8.04375C12.8438 7.08125 11.675 6.6 10.3 6.6C8.925 6.6 7.75625 7.08125 6.79375 8.04375C5.83125 9.00625 5.35 10.175 5.35 11.55C5.35 12.925 5.83125 14.0938 6.79375 15.0563C7.75625 16.0188 8.925 16.5 10.3 16.5Z" fill="var(--connect__icon-fill-color, #2d2d2d)"/>
</svg>