<svg xmlns="http://www.w3.org/2000/svg" fill="none" viewBox="0 0 40 40" id="studentPicker">
  <path fill="var(--connect__icon-fill-color, #2d2d2d)" d="M20.333 18.777c-1.833 0-3.356-.606-4.57-1.819-1.212-1.213-1.818-2.736-1.818-4.57 0-1.833.606-3.356 1.819-4.569S18.5 6 20.334 6c1.833 0 3.356.606 4.569 1.82 1.213 1.212 1.82 2.735 1.82 4.569 0 1.833-.607 3.356-1.82 4.57-1.213 1.212-2.736 1.819-4.57 1.819ZM7 29.361v-1.389c0-1.019.257-1.91.77-2.674a5 5 0 0 1 2.008-1.743c1.815-.842 3.588-1.474 5.32-1.895a22.07 22.07 0 0 1 5.235-.633c1.76 0 3.5.216 5.222.646 1.723.43 3.49 1.06 5.304 1.888.848.4 1.528.981 2.04 1.742.512.76.768 1.65.768 2.67v1.388c0 .764-.272 1.418-.816 1.962a2.676 2.676 0 0 1-1.962.816H9.778a2.676 2.676 0 0 1-1.962-.816A2.676 2.676 0 0 1 7 29.36Zm2.778 0h21.11v-1.389c0-.398-.113-.773-.34-1.125a2.214 2.214 0 0 0-.853-.792c-1.686-.824-3.274-1.405-4.765-1.742a20.716 20.716 0 0 0-4.597-.508c-1.574 0-3.115.17-4.625.508-1.509.337-3.097.918-4.763 1.742-.343.176-.623.44-.84.792a2.104 2.104 0 0 0-.327 1.125v1.389ZM20.333 16c1.028 0 1.887-.345 2.577-1.035s1.035-1.549 1.035-2.576c0-1.028-.345-1.887-1.035-2.576-.69-.69-1.549-1.036-2.577-1.036-1.027 0-1.886.346-2.576 1.036-.69.69-1.035 1.548-1.035 2.576 0 1.027.345 1.886 1.035 2.576.69.69 1.549 1.035 2.576 1.035Z"/>
</svg>