<svg xmlns="http://www.w3.org/2000/svg" fill="none" viewBox="0 0 20 20" id="syl">
    <g clip-path="url(#a)">
        <mask id="b" width="16" height="16" x="2" y="2" maskUnits="userSpaceOnUse"
            style="mask-type:luminance">
            <path fill="#fff" d="M18 2H2v16h16V2Z" />
        </mask>
        <g mask="url(#b)">
            <path fill="var(--connect__icon-fill-color, #2d2d2d)"
                d="M9.99345 18c4.41605 0 7.99345-3.5774 7.99345-7.9934C17.9869 5.5905 14.4095 2 9.99345 2S2 5.5774 2 9.99345s3.5774 7.99345 7.99345 7.99345" />
        </g>
        <mask id="c" width="16" height="16" x="2" y="2" maskUnits="userSpaceOnUse"
            style="mask-type:luminance">
            <path fill="#fff"
                d="M9.99345 2C5.5774 2 2 5.5774 2 9.99345s3.5774 7.99345 7.99345 7.99345 7.99345-3.5774 7.99345-7.99345S14.4095 2 9.99345 2Z" />
        </mask>
        <g mask="url(#c)">
            <path fill="#fff"
                d="M7.01919 9.95426 8.90617.833868s.0262-.039312.05241-.039312h6.04092s.0787.039312.0524.078624l-3.3546 6.28993s.0131.09172.0655.07862l2.6864-.38002s.0917.03932.0524.09173L7.18954 17.1484s-.11794.0131-.10483-.0525l1.99181-7.3513s-.02621-.07863-.06552-.06552l-1.92629.35382s-.07863-.0262-.06552-.06554" />
        </g>
    </g>
    <defs>
        <clipPath id="a">
            <path fill="#fff" d="M0 0h20v20H0z" />
        </clipPath>
    </defs>
</svg>