<svg xmlns="http://www.w3.org/2000/svg" width="20" height="20" fill="none" id="syl">
    <g clip-path="url(#a)">
        <mask id="b" width="16" height="16" x="2" y="2" maskUnits="userSpaceOnUse"
            style="mask-type:luminance">
            <path fill="#fff" d="M18 2H2v16h16V2Z" />
        </mask>
        <g mask="url(#b)">
            <path fill="#CC01C0"
                d="M9.993 18a7.992 7.992 0 0 0 7.994-7.993C17.987 5.59 14.41 2 9.993 2A7.992 7.992 0 0 0 2 9.993a7.992 7.992 0 0 0 7.993 7.994" />
        </g>
        <mask id="c" width="16" height="16" x="2" y="2" maskUnits="userSpaceOnUse"
            style="mask-type:luminance">
            <path fill="#fff"
                d="M9.993 2A7.992 7.992 0 0 0 2 9.993a7.992 7.992 0 0 0 7.993 7.994 7.992 7.992 0 0 0 7.994-7.994A7.992 7.992 0 0 0 9.993 2Z" />
        </mask>
        <g mask="url(#c)">
            <path fill="#fff"
                d="M7.02 9.954 8.905.834s.026-.04.053-.04h6.04s.08.04.053.08l-3.355 6.29s.013.09.066.078l2.686-.38s.092.039.053.091L7.19 17.148s-.118.014-.105-.052l1.992-7.351s-.027-.079-.066-.066l-1.926.354s-.079-.026-.066-.066" />
        </g>
    </g>
    <defs>
        <clipPath id="a">
            <path fill="#fff" d="M0 0h20v20H0z" />
        </clipPath>
    </defs>
</svg>