<svg xmlns="http://www.w3.org/2000/svg" xmlns:ns0="http://www.w3.org/2000/svg" viewBox="0 0 40 40"><ns0:rect width="32" height="24" x="4" y="8" fill="var(--connect__icon-fill-color, #2d2d2d)" rx="1"/><ns0:path fill="#fff" d="M14.9048 16.1502H11.6942V25.6889H8.74485V16.1502H5.53418V13.8356H14.9048V16.1502Z"/><ns0:path fill="#fff" d="M25.3324 25.6887H21.7496L19.9479 22.7207L18.1463 25.6887H14.6658L18.0439 21.19L14.8705 16.822H18.3715L20.0503 19.678L21.7291 16.822H25.1277L21.9543 21.19L25.3324 25.6887Z"/><ns0:path fill="#fff" d="M32.6845 23.5234L32.9458 25.5394C32.4605 25.7074 31.5272 25.8754 30.7432 25.8754C29.9032 25.8754 29.1752 25.7634 28.5965 25.2034C28.0178 24.662 27.8685 23.9714 27.8685 22.982V18.894H26.6738V16.822H27.8498L28.0178 14.6007H30.7245V16.822H32.8898V18.894H30.7245V22.3474C30.7245 22.7954 30.7432 23.15 30.9112 23.3554C31.0792 23.5607 31.3592 23.654 31.7325 23.654C32.1058 23.654 32.5352 23.5794 32.6845 23.5234Z"/></svg>