<svg viewBox="0 0 30 30" id="three" fill="none" xmlns="http://www.w3.org/2000/svg"><path d="M14.99 21.619c-.68 0-1.288-.087-1.82-.26a5.373 5.373 0 0 1-1.36-.66 5.984 5.984 0 0 1-1.02-.88l.84-1.08c.386.4.832.753 1.34 1.06.52.307 1.16.46 1.92.46.772 0 1.406-.213 1.9-.64.492-.427.74-.993.74-1.7 0-.507-.134-.947-.4-1.32-.254-.387-.68-.687-1.28-.9-.588-.213-1.388-.32-2.4-.32v-1.26c.906 0 1.62-.107 2.14-.32.532-.213.912-.493 1.14-.84.226-.36.34-.767.34-1.22 0-.627-.2-1.12-.6-1.48-.388-.36-.92-.54-1.6-.54-.534 0-1.028.12-1.48.36-.454.24-.868.553-1.24.94l-.88-1.04a6.58 6.58 0 0 1 1.64-1.14c.6-.307 1.272-.46 2.02-.46.746 0 1.406.127 1.98.38.572.253 1.02.62 1.34 1.1.332.48.5 1.067.5 1.76 0 .773-.214 1.407-.64 1.9-.428.493-.988.873-1.68 1.14v.08c.52.12.986.327 1.4.62.412.28.74.64.98 1.08.252.44.38.953.38 1.54 0 .76-.188 1.413-.56 1.96-.374.533-.88.947-1.52 1.24-.64.293-1.348.44-2.12.44z" fill="var(--connect__icon-fill-color, #2d2d2d)"/></svg>