<svg xmlns="http://www.w3.org/2000/svg" fill="none" viewBox="0 0 40 40" id="timer">
  <path fill="var(--connect__icon-fill-color, #2d2d2d)" d="M21.139 19.111v-6.75c0-.398-.132-.73-.396-.993a1.347 1.347 0 0 0-.993-.396c-.398 0-.729.132-.993.396a1.347 1.347 0 0 0-.396.993v7.292c0 .185.033.359.097.52.065.163.162.318.292.466l5.833 5.972c.269.287.607.426 1.014.417.408-.01.746-.148 1.014-.417.269-.268.403-.602.403-1s-.134-.731-.403-1l-5.472-5.5Zm-1.472 17.222c-2.287 0-4.445-.437-6.472-1.312-2.028-.875-3.797-2.067-5.306-3.576-1.51-1.51-2.702-3.279-3.577-5.306C3.438 24.11 3 21.954 3 19.667c0-2.287.438-4.445 1.313-6.472.875-2.028 2.067-3.797 3.576-5.306 1.51-1.51 3.278-2.702 5.306-3.577C15.222 3.438 17.38 3 19.667 3c2.287 0 4.444.438 6.472 1.313 2.027.875 3.796 2.067 5.306 3.576 1.509 1.51 2.7 3.278 3.576 5.306.875 2.027 1.312 4.185 1.312 6.472 0 2.287-.437 4.444-1.312 6.472-.875 2.027-2.067 3.796-3.576 5.306-1.51 1.509-3.279 2.7-5.306 3.576-2.028.875-4.185 1.312-6.472 1.312Zm0-2.778c3.824 0 7.095-1.358 9.812-4.076 2.718-2.717 4.076-5.988 4.076-9.812 0-3.825-1.358-7.095-4.076-9.813-2.717-2.717-5.988-4.076-9.812-4.076-3.825 0-7.095 1.359-9.813 4.076-2.717 2.718-4.076 5.989-4.076 9.813 0 3.824 1.359 7.095 4.076 9.812 2.718 2.718 5.989 4.076 9.813 4.076Z"/>
</svg> 