<svg viewBox="0 0 30 30" id="two" fill="none" xmlns="http://www.w3.org/2000/svg"><path d="M10.898 21.5v-1a114.333 114.333 0 0 0 3.24-3.32c.907-.973 1.593-1.853 2.06-2.64.467-.787.7-1.52.7-2.2 0-.733-.2-1.333-.6-1.8-.4-.467-1.007-.7-1.82-.7-.533 0-1.027.147-1.48.44-.453.293-.867.66-1.24 1.1l-.92-.9c.533-.6 1.1-1.08 1.7-1.44.613-.36 1.327-.54 2.14-.54.787 0 1.467.16 2.04.48.573.307 1.013.74 1.32 1.3.307.56.46 1.213.46 1.96 0 .827-.233 1.647-.7 2.46-.453.813-1.08 1.667-1.88 2.56-.8.893-1.72 1.873-2.76 2.94.347-.04.707-.067 1.08-.08.373-.027.727-.04 1.06-.04h3.84v1.42h-8.24z" fill="var(--connect__icon-fill-color, #2d2d2d)"/></svg>