<svg xmlns="http://www.w3.org/2000/svg" viewBox="0 0 40 40" fill="none" id="udl">
    <g clip-path="url(#a)">
        <path fill="#CC00C0"
            d="M20 40.5c11.046 0 20-8.954 20-20S31.046.5 20 .5 0 9.454 0 20.5s8.954 20 20 20Z" />
        <mask id="b" width="40" height="40" x="0" y="0" maskUnits="userSpaceOnUse"
            style="mask-type:luminance">
            <path fill="#fff" d="M40 .5H0v40h40V.5Z" />
        </mask>
        <g fill="#fff" mask="url(#b)">
            <path
                d="M11.633 12.772v-1.888c-1.04 0-1.888.848-1.888 1.888h1.888Zm0 5.664v-5.664H9.745v5.664h1.888Zm0 0H9.745c0 1.04.848 1.888 1.888 1.888v-1.888Zm5.648 0h-5.664v1.888h5.664v-1.888Zm0 0v1.888c1.04 0 1.888-.848 1.888-1.888H17.28Zm0-5.664v5.664h1.888v-5.664H17.28Zm0 0h1.888c0-1.04-.848-1.888-1.888-1.888v1.888Zm-5.648 0h5.664v-1.888h-5.664v1.888ZM21.985 15.572s.016.048 0 .064l-1.328-1.328c-.72.72-.72 1.888 0 2.608l1.328-1.328v-.016Zm3.824 3.808-3.824-3.824-1.328 1.328 3.824 3.824 1.328-1.328Zm-.064 0s.048-.016.064 0l-1.328 1.328c.72.72 1.888.72 2.608 0l-1.328-1.328h-.016Zm3.824-3.808-3.824 3.824 1.328 1.328 3.824-3.824-1.328-1.328Zm0 .064s-.016-.048 0-.064l1.328 1.328c.72-.72.72-1.888 0-2.608L29.57 15.62v.016Zm-3.824-3.824 3.824 3.824 1.328-1.328-3.824-3.824-1.328 1.328Zm.064 0s-.048.016-.064 0l1.328-1.328a1.844 1.844 0 0 0-2.608 0l1.328 1.328h.016Zm-3.824 3.824 3.824-3.824-1.328-1.328-3.824 3.824 1.328 1.328ZM22.945 24.083v-1.888c-1.04 0-1.888.848-1.888 1.888h1.888Zm0 5.664v-5.664h-1.888v5.664h1.888Zm0 0h-1.888c0 1.04.848 1.888 1.888 1.888v-1.888Zm5.664 0h-5.664v1.888h5.664v-1.888Zm0 0v1.888c1.04 0 1.888-.848 1.888-1.888H28.61Zm0-5.664v5.664h1.888v-5.664H28.61Zm0 0h1.888c0-1.04-.848-1.888-1.888-1.888v1.888Zm-5.664 0h5.664v-1.888h-5.664v1.888ZM11.633 24.083v-1.888c-1.04 0-1.888.848-1.888 1.888h1.888Zm0 5.664v-5.664H9.745v5.664h1.888Zm0 0H9.745c0 1.04.848 1.888 1.888 1.888v-1.888Zm5.648 0h-5.664v1.888h5.664v-1.888Zm0 0v1.888c1.04 0 1.888-.848 1.888-1.888H17.28Zm0-5.664v5.664h1.888v-5.664H17.28Zm0 0h1.888c0-1.04-.848-1.888-1.888-1.888v1.888Zm-5.648 0h5.664v-1.888h-5.664v1.888Z" />
        </g>
    </g>
    <defs>
        <clipPath id="a">
            <path fill="#fff" d="M0 .5h40v40H0z" />
        </clipPath>
    </defs>
</svg>