<svg xmlns="http://www.w3.org/2000/svg" fill="none" viewBox="0 0 20 20" id="udl">
    <g clip-path="url(#a)">
        <path fill="var(--connect__icon-fill-color, #2d2d2d)"
            d="M10 18c4.4183 0 8-3.5817 8-8 0-4.41828-3.5817-8-8-8-4.41828 0-8 3.58172-8 8 0 4.4183 3.58172 8 8 8Z" />
        <mask id="b" width="16" height="16" x="2" y="2" maskUnits="userSpaceOnUse"
            style="mask-type:luminance">
            <path fill="#fff" d="M18 2H2v16h16V2Z" />
        </mask>
        <g fill="#fff" mask="url(#b)">
            <path
                d="M6.65312 6.90858v-.7552c-.416 0-.7552.3392-.7552.7552h.7552Zm0 2.2656v-2.2656h-.7552v2.2656h.7552Zm0 0h-.7552c0 .416.3392.7552.7552.7552v-.7552Zm2.2592 0h-2.2656v.7552h2.2656v-.7552Zm0 0v.7552c.416 0 .7552-.3392.7552-.7552h-.7552Zm0-2.2656v2.2656h.7552v-2.2656h-.7552Zm0 0h.7552c0-.416-.3392-.7552-.7552-.7552v.7552Zm-2.2592 0h2.2656v-.7552h-2.2656v.7552ZM10.7941 8.0286s.0064.0192 0 .0256l-.5312-.53119c-.28803.288-.28803.7552 0 1.0432l.5312-.5312V8.0286Zm1.5296 1.52321L10.7941 8.0222l-.5312.5312 1.5296 1.5296.5312-.53119Zm-.0256 0s.0192-.0064.0256 0l-.5312.53119c.288.288.7552.288 1.0432 0l-.5312-.53119h-.0064Zm1.5296-1.52321-1.5296 1.52961.5312.53119 1.5296-1.5296-.5312-.5312Zm0 .0256s-.0064-.0192 0-.0256l.5312.5312c.288-.288.288-.7552 0-1.0432l-.5312.5312v.0064Zm-1.5296-1.52959 1.5296 1.52959.5312-.53119-1.5296-1.52961-.5312.53121Zm.0256 0s-.0192.0064-.0256 0l.5312-.53121c-.288-.288-.7552-.288-1.0432 0l.5312.53121h.0064ZM10.7941 8.0542l1.5296-1.52959-.5312-.53121-1.5296 1.52961.5312.53119Zm.384 3.3791v-.7552c-.416 0-.7552.3392-.7552.7552h.7552Zm0 2.2656v-2.2656h-.7552v2.2656h.7552Zm0 0h-.7552c0 .416.3392.7552.7552.7552v-.7552Zm2.2656 0h-2.2656v.7552h2.2656v-.7552Zm0 0v.7552c.416 0 .7552-.3392.7552-.7552h-.7552Zm0-2.2656v2.2656h.7552v-2.2656h-.7552Zm0 0h.7552c0-.416-.3392-.7552-.7552-.7552v.7552Zm-2.2656 0h2.2656v-.7552h-2.2656v.7552Zm-4.52498 0v-.7552c-.416 0-.7552.3392-.7552.7552h.7552Zm0 2.2656v-2.2656h-.7552v2.2656h.7552Zm0 0h-.7552c0 .416.3392.7552.7552.7552v-.7552Zm2.2592 0h-2.2656v.7552h2.2656v-.7552Zm0 0v.7552c.416 0 .7552-.3392.7552-.7552h-.7552Zm0-2.2656v2.2656h.7552v-2.2656h-.7552Zm0 0h.7552c0-.416-.3392-.7552-.7552-.7552v.7552Zm-2.2592 0h2.2656v-.7552h-2.2656v.7552Z" />
        </g>
    </g>
    <defs>
        <clipPath id="a">
            <path fill="#fff" d="M0 0h20v20H0z" />
        </clipPath>
    </defs>
</svg>