<?xml version='1.0' encoding='utf-8'?>
<svg xmlns:ns0="http://www.w3.org/2000/svg" xmlns="http://www.w3.org/2000/svg" viewBox="0 0 40 40"><ns0:path d="M6 34H34V38H6V34Z" fill="var(--connect__icon-fill-color, #2d2d2d)" />
            <ns0:path d="M34 6H22V8L24.8944 9.44722C25.572 9.786 26 10.4785 26 11.2361V19.7632C26 22.6649 24.0444 25.3304 21.1959 25.8837C17.3654 26.6277 14 23.6997 14 20V11.2361C14 10.4785 14.428 9.786 15.1056 9.44722L18 8V6H6V8L8.89442 9.44722C9.572 9.786 10 10.4785 10 11.2361V19.554C10 24.7736 13.8055 29.4439 19.0004 29.9511C24.9609 30.533 30 25.8435 30 20V11.2361C30 10.4785 30.428 9.78598 31.1056 9.4472L34 8V6Z" fill="var(--connect__icon-fill-color, #2d2d2d)" />
        </svg>