<svg xmlns="http://www.w3.org/2000/svg" id="undo" viewBox="0 0 16 16" fill="none">
  <path d="M5.33353 12.6667C5.14464 12.6667 4.98631 12.6028 4.85853 12.475C4.73075 12.3472 4.66686 12.1889 4.66686 12C4.66686 11.8111 4.73075 11.6528 4.85853 11.525C4.98631 11.3972 5.14464 11.3333 5.33353 11.3333H9.4002C10.1002 11.3333 10.7085 11.1111 11.2252 10.6667C11.7419 10.2222 12.0002 9.66668 12.0002 9.00001C12.0002 8.33335 11.7419 7.77779 11.2252 7.33335C10.7085 6.8889 10.1002 6.66668 9.4002 6.66668H5.2002L6.46686 7.93335C6.58908 8.05557 6.6502 8.21112 6.6502 8.40001C6.6502 8.5889 6.58908 8.74446 6.46686 8.86668C6.34464 8.9889 6.18908 9.05001 6.0002 9.05001C5.81131 9.05001 5.65575 8.9889 5.53353 8.86668L3.13353 6.46668C3.06686 6.40001 3.01964 6.32779 2.99186 6.25001C2.96408 6.17223 2.9502 6.0889 2.9502 6.00001C2.9502 5.91112 2.96408 5.82779 2.99186 5.75001C3.01964 5.67223 3.06686 5.60001 3.13353 5.53335L5.53353 3.13335C5.65575 3.01112 5.81131 2.95001 6.0002 2.95001C6.18908 2.95001 6.34464 3.01112 6.46686 3.13335C6.58908 3.25557 6.6502 3.41112 6.6502 3.60001C6.6502 3.7889 6.58908 3.94446 6.46686 4.06668L5.2002 5.33335H9.4002C10.478 5.33335 11.403 5.68335 12.1752 6.38335C12.9474 7.08335 13.3335 7.95557 13.3335 9.00001C13.3335 10.0445 12.9474 10.9167 12.1752 11.6167C11.403 12.3167 10.478 12.6667 9.4002 12.6667H5.33353Z" fill="var(--connect__icon-fill-color, #2d2d2d)"/>
</svg>