<svg width="30" height="30" viewBox="0 0 30 30" fill="none" xmlns="http://www.w3.org/2000/svg">
<path d="M9.07242 17.2712L17.1186 17.2712C18.4399 17.2712 19.5839 16.8436 20.5505 15.9884C21.5172 15.1329 22.0005 14.0696 22.0005 12.7984C22.0005 11.5274 21.5172 10.4628 20.5505 9.60475C19.5839 8.74687 18.4399 8.31794 17.1186 8.31794L9.18646 8.31794C8.76566 8.31794 8.41044 8.17324 8.12082 7.88384C7.83142 7.59422 7.68672 7.239 7.68672 6.81819C7.68672 6.39739 7.83142 6.04217 8.12082 5.75256C8.41044 5.46316 8.76566 5.31845 9.18646 5.31845L17.1186 5.31845C19.2818 5.31845 21.136 6.03558 22.6815 7.46984C24.2272 8.9041 25 10.6777 25 12.7908C25 14.9036 24.2272 16.6785 22.6815 18.1154C21.1361 19.5523 19.2818 20.2707 17.1186 20.2707L9.07242 20.2707L11.2861 22.4841C11.5645 22.7627 11.7037 23.1124 11.7037 23.5332C11.7037 23.954 11.5645 24.3036 11.2861 24.5821C11.0075 24.8607 10.6578 25 10.2369 25C9.81614 25 9.46642 24.8607 9.18778 24.5821L4.42553 19.828C4.27808 19.6804 4.1703 19.5164 4.10218 19.3363C4.03406 19.1563 4 18.9679 4 18.771C4 18.5741 4.03406 18.3856 4.10218 18.2057C4.1703 18.0255 4.27808 17.8616 4.42553 17.7139L9.18778 12.9599C9.46642 12.6813 9.81614 12.5419 10.2369 12.5419C10.6577 12.5419 11.0075 12.6812 11.2861 12.9599C11.5645 13.2383 11.7037 13.5879 11.7037 14.0087C11.7037 14.4295 11.5645 14.7792 11.2861 15.0579L9.07242 17.2712Z" fill="#2D2D2D"/>
</svg>
