<svg xmlns="http://www.w3.org/2000/svg" id="user" viewBox="0 0 20 20" fill="none">
  <path d="M10.4 10.4C9.65 10.4 9.0125 10.1375 8.4875 9.6125C7.9625 9.0875 7.7 8.45 7.7 7.7C7.7 6.95 7.9625 6.3125 8.4875 5.7875C9.0125 5.2625 9.65 5 10.4 5C11.15 5 11.7875 5.2625 12.3125 5.7875C12.8375 6.3125 13.1 6.95 13.1 7.7C13.1 8.45 12.8375 9.0875 12.3125 9.6125C11.7875 10.1375 11.15 10.4 10.4 10.4ZM5 14.45V14C5 13.7125 5.07812 13.4406 5.23437 13.1844C5.39062 12.9281 5.60625 12.7125 5.88125 12.5375C6.56875 12.1375 7.29556 11.8312 8.06169 11.6187C8.82781 11.4062 9.60594 11.3 10.3961 11.3C11.1862 11.3 11.9656 11.4062 12.7344 11.6187C13.5031 11.8312 14.2312 12.1375 14.9187 12.5375C15.1937 12.7 15.4094 12.9125 15.5656 13.175C15.7219 13.4375 15.8 13.7125 15.8 14V14.45C15.8 14.8212 15.6677 15.1391 15.4032 15.4034C15.1388 15.6678 14.8208 15.8 14.4493 15.8H6.34475C5.97325 15.8 5.65625 15.6678 5.39375 15.4034C5.13125 15.1391 5 14.8212 5 14.45ZM6.35 14.45H14.45V14C14.45 13.9352 14.4311 13.8764 14.3932 13.8236C14.3554 13.7706 14.3056 13.7294 14.2437 13.7C13.6687 13.35 13.0562 13.0875 12.4062 12.9125C11.7562 12.7375 11.0875 12.65 10.4 12.65C9.7125 12.65 9.04375 12.7375 8.39375 12.9125C7.74375 13.0875 7.13125 13.35 6.55625 13.7C6.49375 13.75 6.44375 13.7982 6.40625 13.8447C6.36875 13.8914 6.35 13.9431 6.35 14V14.45ZM10.4039 9.05C10.7763 9.05 11.0937 8.91744 11.3562 8.65231C11.6187 8.38719 11.75 8.06844 11.75 7.69606C11.75 7.32369 11.6174 7.00625 11.3523 6.74375C11.0872 6.48125 10.7684 6.35 10.3961 6.35C10.0237 6.35 9.70625 6.48256 9.44375 6.74769C9.18125 7.01281 9.05 7.33156 9.05 7.70394C9.05 8.07631 9.18256 8.39375 9.44769 8.65625C9.71281 8.91875 10.0316 9.05 10.4039 9.05Z" fill="var(--connect__icon-fill-color, #2d2d2d)"/>
</svg>