<svg viewBox="0 0 30 30" id="variableY" fill="none" xmlns="http://www.w3.org/2000/svg"><path d="M10.484 24.7c0-.21.066-.388.196-.538.13-.15.319-.224.566-.224.163 0 .306.029.43.087.123.066.254.157.39.274l.137.098c.04.032.082.055.127.068.052.02.107.03.166.03.32 0 .83-.424 1.533-1.27.71-.84 1.065-1.452 1.065-1.836 0-.365-.124-1.081-.371-2.149a65.873 65.873 0 0 0-.704-2.851c-.319-1.172-.611-1.966-.878-2.383-.26-.417-.648-.625-1.162-.625-.04 0-.108.006-.206.02-.09.006-.25.022-.478.048v-.322l2.666-.508.205-.02c.163-.019.475.713.938 2.198.416 1.334.677 2.305.78 2.91l.391 2.324a57.317 57.317 0 0 0 1.504-2.636c.625-1.205.938-2.048.938-2.53a.91.91 0 0 0-.059-.322c-.039-.11-.13-.205-.273-.283l-.166-.088a1.554 1.554 0 0 1-.371-.293c-.137-.143-.205-.335-.205-.576 0-.202.065-.371.195-.508s.325-.205.586-.205c.325 0 .589.098.79.293.203.189.304.514.304.976 0 .697-.381 1.817-1.143 3.36a33.746 33.746 0 0 1-1.963 3.427c-.905 1.38-1.683 2.445-2.334 3.194-1.035 1.178-1.894 1.767-2.578 1.767-.267 0-.501-.081-.703-.244a.797.797 0 0 1-.313-.664z" fill="var(--connect__icon-fill-color, #2d2d2d)"/></svg>