<svg viewBox="0 0 30 30" id="variableX" fill="none" xmlns="http://www.w3.org/2000/svg"><path d="M10.254 20.79c0-.255.078-.434.234-.538a.82.82 0 0 1 .479-.166.74.74 0 0 1 .234.039c.078.02.163.055.254.107l.342.186a.724.724 0 0 0 .127.059c.045.006.094.01.146.01.163 0 .287-.04.371-.118.092-.084.32-.371.684-.86.24-.318.788-1.096 1.64-2.333 0-.046-.074-.394-.224-1.045a42.758 42.758 0 0 0-.41-1.67c-.124-.462-.235-.765-.332-.908-.098-.15-.28-.225-.547-.225-.091 0-.27.033-.537.098-.17.039-.352.084-.547.136l-.088-.302 1.084-.371c.28-.098.537-.176.771-.235.241-.058.447-.088.616-.088.273 0 .478.082.615.244.208.261.384.775.527 1.543l.205 1.114c.586-.899 1.042-1.53 1.368-1.895.293-.332.57-.58.83-.742.26-.163.508-.244.742-.244.221 0 .4.032.537.098.247.117.371.338.371.664 0 .221-.062.393-.185.517a.648.648 0 0 1-.479.186c-.072 0-.14-.007-.205-.02a1.61 1.61 0 0 1-.205-.078l-.254-.107a1.632 1.632 0 0 0-.205-.078.442.442 0 0 0-.147-.04c-.293 0-.7.381-1.22 1.143-.521.755-.782 1.191-.782 1.309 0 .097.059.416.176.957.124.534.257 1.1.4 1.699.13.566.241.957.333 1.172.15.351.319.527.508.527.175 0 .354-.098.537-.293.182-.195.455-.547.82-1.055l.273.166c-.28.508-.57.941-.869 1.3-.566.676-1.107 1.015-1.62 1.015-.326 0-.584-.156-.772-.469-.111-.182-.218-.482-.323-.898l-.605-2.412-2.002 2.627c-.39.455-.693.761-.908.918-.209.156-.469.234-.782.234-.416 0-.7-.13-.85-.39a.908.908 0 0 1-.126-.489z" fill="var(--connect__icon-fill-color, #2d2d2d)"/></svg>