<?xml version='1.0' encoding='utf-8'?>
<svg xmlns:ns0="http://www.w3.org/2000/svg" xmlns="http://www.w3.org/2000/svg" viewBox="0 0 40 40"><ns0:path fill-rule="evenodd" clip-rule="evenodd" d="M4 9C4 8.44772 4.44772 8 5 8H35C35.5523 8 36 8.44772 36 9V31C36 31.5523 35.5523 32 35 32H5C4.44772 32 4 31.5523 4 31V9ZM6 10H10V14H6V10ZM18 10H14V14H18V10ZM22 10H26V14H22V10ZM34 10H30V14H34V10ZM6 26H10V30H6V26ZM18 26H14V30H18V26ZM22 26H26V30H22V26ZM34 26H30V30H34V26Z" fill="var(--connect__icon-fill-color, #2d2d2d)" />
        </svg>