<svg xmlns="http://www.w3.org/2000/svg" xmlns:ns0="http://www.w3.org/2000/svg" viewBox="0 0 40 40"><ns0:path fill="var(--connect__icon-fill-color, #2d2d2d)" d="M28.4786 28.492C30.7173 26.2568 32 23.2275 32 20C32 16.7908 30.7318 13.7771 28.5154 11.545C27.7371 10.7612 26.4708 10.7567 25.687 11.535C24.9032 12.3132 24.8987 13.5796 25.677 14.3634C27.1567 15.8535 28 17.8575 28 20C28 22.1546 27.147 24.169 25.6524 25.6613C24.8707 26.4417 24.8697 27.7081 25.6502 28.4897C26.4306 29.2714 27.6969 29.2724 28.4786 28.492Z"/><ns0:path fill="var(--connect__icon-fill-color, #2d2d2d)" d="M9.1757 26L16.2652 33.6803C16.8826 34.3492 18 33.9123 18 33.002V7.00201C18 6.0917 16.8826 5.65483 16.2652 6.32373L9.17941 14H4.98201C4.45576 14 4 14.4397 4 14.982V25.018C4 25.5442 4.43966 26 4.98201 26H9.1757Z"/></svg>