<?xml version='1.0' encoding='utf-8'?>
<svg xmlns:ns0="http://www.w3.org/2000/svg" xmlns="http://www.w3.org/2000/svg" fill="var(--connect__icon-fill-color, #2d2d2d)" viewBox="0 0 40 40"><ns0:path d="M25.5604 25.4309C27.1091 23.9964 27.9965 22.0544 27.9965 19.9874C27.9965 17.9343 27.121 16.0041 25.5906 14.5721C24.7812 13.8147 23.4605 13.8068 22.6406 14.5545C21.8207 15.3023 21.8122 16.5224 22.6216 17.2798C23.3887 17.9977 23.8245 18.9583 23.8245 19.9874C23.8245 21.0235 23.3828 21.99 22.6064 22.7091C21.7929 23.4627 21.7946 24.6829 22.6103 25.4345C23.426 26.1861 24.7468 26.1845 25.5604 25.4309Z" fill="currentcolor" />
            <ns0:path d="M9.17495 25.9971L16.2634 33.6763C16.8808 34.3451 17.998 33.9083 17.998 32.9981V7.00187C17.998 6.09169 16.8808 5.65488 16.2634 6.32369L9.17867 13.9988H4.98187C4.4557 13.9988 4 14.4384 4 14.9807V25.0153C4 25.5414 4.4396 25.9971 4.98187 25.9971H9.17495Z" fill="currentcolor" />
        </svg>