<svg  viewBox="0 0 20 20" id="volumeOffFilled" fill="none" xmlns="http://www.w3.org/2000/svg">
<path d="M13.7707 15.8959C13.6179 15.9931 13.4582 16.0834 13.2915 16.1667C13.1248 16.25 12.9443 16.3334 12.7498 16.4167C12.5554 16.5 12.3575 16.5 12.1561 16.4167C11.9547 16.3334 11.8193 16.1945 11.7498 16C11.6804 15.8056 11.6908 15.6146 11.7811 15.4271C11.8714 15.2396 12.0137 15.1042 12.2082 15.0209L12.4582 14.8959C12.5415 14.8542 12.6179 14.8195 12.6873 14.7917L9.99984 12.125V14.2084C9.99984 14.5417 9.84706 14.7743 9.5415 14.9063C9.23595 15.0382 8.96512 14.9861 8.729 14.75L5.99984 12.0209H3.74984C3.5415 12.0209 3.36442 11.9479 3.21859 11.8021C3.07275 11.6563 2.99984 11.4792 2.99984 11.2709V8.77085C2.99984 8.56252 3.07275 8.38544 3.21859 8.2396C3.36442 8.09377 3.5415 8.02085 3.74984 8.02085H5.87484L2.39567 4.52085C2.24289 4.36808 2.1665 4.19099 2.1665 3.9896C2.1665 3.78821 2.24289 3.61113 2.39567 3.45835C2.54845 3.30558 2.72553 3.22919 2.92692 3.22919C3.12831 3.22919 3.30539 3.30558 3.45817 3.45835L16.5415 16.5417C16.6943 16.6945 16.7707 16.8681 16.7707 17.0625C16.7707 17.257 16.6943 17.4306 16.5415 17.5834C16.3887 17.7361 16.2116 17.8125 16.0103 17.8125C15.8089 17.8125 15.6318 17.7361 15.479 17.5834L13.7707 15.8959ZM15.4998 10.0209C15.4998 8.92363 15.2012 7.9271 14.604 7.03127C14.0068 6.13544 13.2221 5.4653 12.2498 5.02085C12.0554 4.92363 11.9096 4.78127 11.8123 4.59377C11.7151 4.40627 11.7082 4.2153 11.7915 4.02085C11.8748 3.81252 12.0207 3.66669 12.229 3.58335C12.4373 3.50002 12.6457 3.50696 12.854 3.60419C14.104 4.15974 15.1075 5.01044 15.8644 6.15627C16.6214 7.3021 16.9998 8.58335 16.9998 10C16.9998 10.4445 16.9582 10.882 16.8748 11.3125C16.7915 11.7431 16.6665 12.1597 16.4998 12.5625C16.3887 12.8403 16.2359 13.0139 16.0415 13.0834C15.8471 13.1528 15.6596 13.1528 15.479 13.0834C15.2984 13.0139 15.1561 12.8924 15.0519 12.7188C14.9478 12.5452 14.9443 12.3611 15.0415 12.1667C15.1943 11.8334 15.3089 11.4861 15.3853 11.125C15.4616 10.7639 15.4998 10.3959 15.4998 10.0209ZM12.0623 7.20835C12.5068 7.48613 12.8575 7.89585 13.1144 8.43752C13.3714 8.97919 13.4998 9.50697 13.4998 10.0209V10.2709C13.4998 10.3542 13.4929 10.4306 13.479 10.5C13.4512 10.6528 13.3609 10.7535 13.2082 10.8021C13.0554 10.8507 12.9165 10.8125 12.7915 10.6875L11.729 9.62502C11.6596 9.55558 11.604 9.47572 11.5623 9.38544C11.5207 9.29516 11.4998 9.19447 11.4998 9.08335V7.52085C11.4998 7.36808 11.5623 7.26044 11.6873 7.19794C11.8123 7.13544 11.9373 7.13891 12.0623 7.20835ZM8.33317 6.22919C8.26373 6.15974 8.229 6.06946 8.229 5.95835C8.229 5.84724 8.26373 5.75696 8.33317 5.68752L8.729 5.29169C8.96512 5.05558 9.23595 5.00349 9.5415 5.13544C9.84706 5.26738 9.99984 5.50002 9.99984 5.83335V7.00002C9.99984 7.16669 9.91998 7.2778 9.76025 7.33335C9.60053 7.38891 9.46512 7.36113 9.354 7.25002L8.33317 6.22919Z" fill="var(--connect__icon-fill-color, #2d2d2d)"/>
</svg>
