<svg xmlns="http://www.w3.org/2000/svg" fill="none" viewBox="0 0 20 20" id="volumeUp"><path fill="var(--connect__icon-fill-color, #2d2d2d)" d="M15.5 9.98624c0-1.08806-.2986-2.08-.8958-2.97584-.5973-.89583-1.3809-1.56833-2.3509-2.0175-.1966-.0925-.3436-.2325-.4408-.42-.0972-.1875-.1042-.37847-.0208-.57291.0833-.20834.2326-.35417.4479-.4375.2153-.08334.4271-.07931.6356.01208 1.2638.56139 2.2672 1.42194 3.0102 2.58167C16.6285 7.31596 17 8.59811 17 10.0027c0 1.4046-.3715 2.6824-1.1146 3.8333-.743 1.151-1.7464 2.0072-3.0102 2.5686-.2085.0914-.4203.0954-.6356.0121-.2153-.0834-.3646-.2292-.4479-.4375-.0834-.1945-.0764-.3855.0208-.573.0972-.1875.2442-.3275.4408-.42.97-.4491 1.7536-1.1227 2.3509-2.0208.5972-.8979.8958-1.891.8958-2.97916ZM6 12H3.75c-.2125 0-.39062-.0719-.53437-.2156C3.07188 11.6406 3 11.4625 3 11.25V8.74999c0-.2125.07188-.39063.21563-.53438s.32187-.21562.53437-.21562H6l2.72917-2.72917c.23611-.23611.50694-.28854.8125-.15729.30555.13125.45833.36569.45833.70333V14.181c0 .3377-.15278.5725-.45833.7044-.30556.1319-.57639.0799-.8125-.1562L6 12Zm7.5-2.00001c0 .51391-.125 1.04171-.375 1.58331-.25.5417-.6042.9514-1.0625 1.2292-.125.0694-.25.0729-.375.0104s-.1875-.1734-.1875-.3327V7.50978c0-.15931.0625-.27021.1875-.33271s.25-.05903.375.01042c.4583.26389.8125.67014 1.0625 1.21875s.375 1.07986.375 1.59375Zm-5-2.375-1.875 1.875H4.5V10.5h2.125L8.5 12.375V7.62499Z"/></svg>