<svg  viewBox="0 0 20 20" id="volumeMute" fill="none" xmlns="http://www.w3.org/2000/svg">
<path d="M9 12H6.75C6.5375 12 6.35938 11.9281 6.21563 11.7844C6.07188 11.6406 6 11.4625 6 11.25V8.75001C6 8.53751 6.07188 8.35938 6.21563 8.21563C6.35938 8.07188 6.5375 8.00001 6.75 8.00001H9L11.7292 5.27084C11.9653 5.03473 12.2361 4.9823 12.5417 5.11355C12.8472 5.2448 13 5.47925 13 5.81689V14.1811C13 14.5187 12.8472 14.7535 12.5417 14.8854C12.2361 15.0174 11.9653 14.9653 11.7292 14.7292L9 12ZM7.5 10.5H9.625L11.5 12.375V7.62501L9.625 9.50001H7.5V10.5Z" fill="var(--connect__icon-fill-color, #2d2d2d)"/>
</svg>
