<?xml version='1.0' encoding='utf-8'?>
<svg xmlns:ns0="http://www.w3.org/2000/svg" xmlns="http://www.w3.org/2000/svg" fill="var(--connect__icon-fill-color, #2d2d2d)" viewBox="0 0 40 40"><ns0:path d="M31.373 31.4068C34.3153 28.3907 36 24.3082 36 19.9575C36 15.6545 34.3522 11.613 31.4669 8.60529C30.702 7.80795 29.4511 7.79693 28.673 8.58067C27.8948 9.36441 27.8841 10.6461 28.6489 11.4435C30.815 13.7015 32.0486 16.7271 32.0486 19.9575C32.0486 23.2237 30.7873 26.2801 28.5784 28.5445C27.807 29.3352 27.8072 30.617 28.579 31.4074C29.3507 32.1978 30.6016 32.1975 31.373 31.4068Z" fill="currentcolor" />
            <ns0:path d="M25.5635 25.4337C27.1124 23.999 28 22.0567 28 19.9894C28 17.936 27.1243 16.0056 25.5937 14.5733C24.7842 13.8158 23.4633 13.8079 22.6433 14.5558C21.8233 15.3036 21.8148 16.5239 22.6243 17.2815C23.3915 17.9994 23.8274 18.9602 23.8274 19.9894C23.8274 21.0256 23.3856 21.9924 22.6091 22.7115C21.7954 23.4652 21.7972 24.6856 22.613 25.4373C23.4288 26.189 24.7498 26.1874 25.5635 25.4337Z" fill="currentcolor" />
            <ns0:path d="M9.1757 26L16.2652 33.6803C16.8826 34.3492 18 33.9123 18 33.002V7.00201C18 6.0917 16.8826 5.65483 16.2652 6.32373L9.17941 14H4.98201C4.45576 14 4 14.4397 4 14.982V25.018C4 25.5442 4.43966 26 4.98201 26H9.1757Z" fill="currentcolor" />
        </svg>