<svg xmlns="http://www.w3.org/2000/svg" xmlns:ns0="http://www.w3.org/2000/svg" viewBox="0 0 40 40"><ns0:path fill="var(--connect__icon-fill-color, #2d2d2d)" fill-rule="evenodd" d="M30 22.8284L27.4142 25.4142C26.6332 26.1953 25.3668 26.1953 24.5858 25.4142C23.8047 24.6332 23.8047 23.3668 24.5858 22.5858L27.1716 20L24.5858 17.4142C23.8047 16.6332 23.8047 15.3668 24.5858 14.5858C25.3668 13.8047 26.6332 13.8047 27.4142 14.5858L30 17.1716L32.5858 14.5858C33.3668 13.8047 34.6332 13.8047 35.4142 14.5858C36.1953 15.3668 36.1953 16.6332 35.4142 17.4142L32.8284 20L35.4142 22.5858C36.1953 23.3668 36.1953 24.6332 35.4142 25.4142C34.6332 26.1953 33.3668 26.1953 32.5858 25.4142L30 22.8284Z" clip-rule="evenodd"/><ns0:path fill="var(--connect__icon-fill-color, #2d2d2d)" d="M9.17569 26L16.2652 33.6803C16.8826 34.3492 18 33.9123 18 33.002V7.00201C18 6.0917 16.8826 5.65483 16.2652 6.32373L9.17941 14H4.98201C4.45576 14 4 14.4397 4 14.982V25.018C4 25.5442 4.43966 26 4.98201 26H9.17569Z"/></svg>