<svg  viewBox="0 0 20 20" id="volumeDownFilled" fill="none" xmlns="http://www.w3.org/2000/svg">
<path d="M8 12H5.75C5.5375 12 5.35938 11.9281 5.21563 11.7844C5.07188 11.6406 5 11.4625 5 11.25V8.75001C5 8.53751 5.07188 8.35938 5.21563 8.21563C5.35938 8.07188 5.5375 8.00001 5.75 8.00001H8L10.7292 5.27084C10.9653 5.03473 11.2361 4.9823 11.5417 5.11355C11.8472 5.2448 12 5.47925 12 5.81689V14.1811C12 14.5187 11.8472 14.7535 11.5417 14.8854C11.2361 15.0174 10.9653 14.9653 10.7292 14.7292L8 12ZM15.5 10C15.5 10.5139 15.375 11.0417 15.125 11.5833C14.875 12.125 14.5208 12.5347 14.0625 12.8125C13.9375 12.882 13.8125 12.8854 13.6875 12.8229C13.5625 12.7604 13.5 12.6495 13.5 12.4902V7.5098C13.5 7.3505 13.5625 7.23959 13.6875 7.17709C13.8125 7.11459 13.9375 7.11807 14.0625 7.18751C14.5208 7.4514 14.875 7.85765 15.125 8.40626C15.375 8.95487 15.5 9.48612 15.5 10Z" fill="var(--connect__icon-fill-color, #2d2d2d)"/>
</svg>
