<svg  viewBox="0 0 20 20" id="volumeUpFilled" fill="none" xmlns="http://www.w3.org/2000/svg">
<path d="M15.5 9.98624C15.5 8.89818 15.2014 7.90624 14.6042 7.0104C14.0069 6.11457 13.2233 5.44207 12.2533 4.9929C12.0567 4.9004 11.9097 4.7604 11.8125 4.5729C11.7153 4.3854 11.7083 4.19443 11.7917 3.99999C11.875 3.79165 12.0243 3.64582 12.2396 3.56249C12.4549 3.47915 12.6667 3.48318 12.8752 3.57457C14.139 4.13596 15.1424 4.99651 15.8854 6.15624C16.6285 7.31596 17 8.59811 17 10.0027C17 11.4073 16.6285 12.6851 15.8854 13.836C15.1424 14.987 14.139 15.8432 12.8752 16.4046C12.6667 16.496 12.4549 16.5 12.2396 16.4167C12.0243 16.3333 11.875 16.1875 11.7917 15.9792C11.7083 15.7847 11.7153 15.5937 11.8125 15.4062C11.9097 15.2187 12.0567 15.0787 12.2533 14.9862C13.2233 14.5371 14.0069 13.8635 14.6042 12.9654C15.2014 12.0675 15.5 11.0744 15.5 9.98624ZM6 12H3.75C3.5375 12 3.35938 11.9281 3.21563 11.7844C3.07188 11.6406 3 11.4625 3 11.25V8.74999C3 8.53749 3.07188 8.35936 3.21563 8.21561C3.35938 8.07186 3.5375 7.99999 3.75 7.99999H6L8.72917 5.27082C8.96528 5.03471 9.23611 4.98228 9.54167 5.11353C9.84722 5.24478 10 5.47922 10 5.81686V14.181C10 14.5187 9.84722 14.7535 9.54167 14.8854C9.23611 15.0173 8.96528 14.9653 8.72917 14.7292L6 12ZM13.5 9.99999C13.5 10.5139 13.375 11.0417 13.125 11.5833C12.875 12.125 12.5208 12.5347 12.0625 12.8125C11.9375 12.8819 11.8125 12.8854 11.6875 12.8229C11.5625 12.7604 11.5 12.6495 11.5 12.4902V7.50978C11.5 7.35047 11.5625 7.23957 11.6875 7.17707C11.8125 7.11457 11.9375 7.11804 12.0625 7.18749C12.5208 7.45138 12.875 7.85763 13.125 8.40624C13.375 8.95485 13.5 9.4861 13.5 9.99999Z" fill="var(--connect__icon-fill-color, #2d2d2d)"/>
</svg>
