<svg viewBox="0 0 30 30" id="zero" fill="none" xmlns="http://www.w3.org/2000/svg"><path d="M14.998 21.623c-1.28 0-2.286-.574-3.02-1.72-.72-1.16-1.08-2.807-1.08-4.94 0-2.147.36-3.78 1.08-4.9.734-1.12 1.74-1.68 3.02-1.68 1.267 0 2.26.566 2.98 1.7.734 1.12 1.1 2.746 1.1 4.88 0 2.133-.366 3.78-1.1 4.94-.72 1.146-1.713 1.72-2.98 1.72zm0-1.32c.494 0 .927-.187 1.3-.56.374-.373.66-.953.86-1.74.214-.787.32-1.8.32-3.04 0-1.253-.106-2.267-.32-3.04-.2-.774-.486-1.334-.86-1.68-.373-.36-.806-.54-1.3-.54-.506 0-.946.18-1.32.54-.373.346-.666.906-.88 1.68-.2.773-.3 1.787-.3 3.04 0 1.24.1 2.253.3 3.04.214.787.507 1.366.88 1.74.374.373.814.56 1.32.56z" fill="var(--connect__icon-fill-color, #2d2d2d)"/></svg>