<svg xmlns="http://www.w3.org/2000/svg" xmlns:xlink="http://www.w3.org/1999/xlink"><symbol fill="currentColor" viewBox="0 0 NaN NaN" id="sprite"><defs><symbol xmlns="http://www.w3.org/2000/svg" viewBox="0 0 40 40" id="aadd"><path d="M32 18H22V8c0-1.2-.8-2-2-2s-2 .8-2 2v10H8c-1.2 0-2 .8-2 2s.8 2 2 2h10v10c0 1.2.8 2 2 2s2-.8 2-2V22h10c1.2 0 2-.8 2-2s-.8-2-2-2Z"/></symbol><symbol xmlns="http://www.w3.org/2000/svg" viewBox="0 0 40 40" id="aalign-center"><path d="M4 6h32v4H4zM10 14h20v4H10zM4 22h32v4H4zM10 30h20v4H10z"/></symbol><symbol xmlns="http://www.w3.org/2000/svg" viewBox="0 0 40 40" id="aalign-left"><path transform="matrix(-1 0 0 1 36 6)" d="M0 0h32v4H0z"/><path transform="matrix(-1 0 0 1 24 14)" d="M0 0h20v4H0z"/><path transform="matrix(-1 0 0 1 36 22)" d="M0 0h32v4H0z"/><path transform="matrix(-1 0 0 1 24 30)" d="M0 0h20v4H0z"/></symbol><symbol xmlns="http://www.w3.org/2000/svg" viewBox="0 0 40 40" id="aalign-right"><path d="M4 6h32v4H4zM16 14h20v4H16zM4 22h32v4H4zM16 30h20v4H16z"/></symbol><symbol xmlns="http://www.w3.org/2000/svg" viewBox="0 0 40 40" id="aarrow-down"><path d="M9.414 14.586a2 2 0 1 0-2.828 2.828l12 12a2 2 0 0 0 2.828 0l12-12a2 2 0 1 0-2.828-2.828L20 25.172 9.414 14.586Z"/></symbol><symbol xmlns="http://www.w3.org/2000/svg" viewBox="0 0 40 40" id="aarrow-up"><path d="M9.414 25.414a2 2 0 1 1-2.828-2.828l12-12a2 2 0 0 1 2.828 0l12 12a2 2 0 1 1-2.828 2.828L20 14.828 9.414 25.414Z"/></symbol><symbol xmlns="http://www.w3.org/2000/svg" viewBox="0 0 40 40" id="aarrow-left"><path d="M25.414 9.414a2 2 0 1 0-2.828-2.828l-12 12a2 2 0 0 0 0 2.828l12 12a2 2 0 1 0 2.828-2.828L14.828 20 25.414 9.414Z"/></symbol><symbol xmlns="http://www.w3.org/2000/svg" viewBox="0 0 40 40" id="aarrow-left-dbl"><path d="M30 36a1.99 1.99 0 0 1-1.52-.7l-11.999-14a1.998 1.998 0 0 1 0-2.602l12-14a1.998 1.998 0 0 1 2.82-.215c.837.718.935 1.98.215 2.818L20.635 20 31.518 32.7A1.999 1.999 0 0 1 30 36Z"/><path d="M18 36a1.99 1.99 0 0 1-1.519-.7l-12-14a1.998 1.998 0 0 1 0-2.601l12-14a2.004 2.004 0 0 1 2.822-.216c.838.72.936 1.98.216 2.818l-10.884 12.7L19.52 32.7A1.999 1.999 0 0 1 18 36Z"/></symbol><symbol xmlns="http://www.w3.org/2000/svg" viewBox="0 0 40 40" id="aarrow-right"><path d="M14.586 30.586a2 2 0 1 0 2.828 2.828l12-12a2 2 0 0 0 0-2.828l-12-12a2 2 0 1 0-2.828 2.828L25.172 20 14.586 30.586Z"/></symbol><symbol xmlns="http://www.w3.org/2000/svg" viewBox="0 0 40 40" id="aundo-arrow"><path d="M19.2 8H6.4v3.2h12.8c2.72 0 4.8 2.08 4.8 4.8 0 2.72-2.08 4.8-4.8 4.8h-8.96l4.8-4.8-2.24-2.24-8.64 8.64 8.64 8.64 2.24-2.24-4.8-4.8h8.96c4.48 0 8-3.52 8-8s-3.52-8-8-8Z"/></symbol><symbol xmlns="http://www.w3.org/2000/svg" viewBox="0 0 40 40" id="aarrow-right-dbl"><path d="M10 36a1.997 1.997 0 0 1-1.516-3.3L19.366 20 8.482 7.3a1.997 1.997 0 0 1 .216-2.817c.838-.72 2.1-.624 2.82.216l12 14a1.998 1.998 0 0 1 0 2.601l-12 14c-.394.464-.956.7-1.518.7Z"/><path d="M22 36a1.997 1.997 0 0 1-1.516-3.3L31.366 20 20.482 7.3a1.997 1.997 0 0 1 .216-2.817 1.996 1.996 0 0 1 2.82.218l12 14a1.998 1.998 0 0 1 0 2.601l-12 14A1.99 1.99 0 0 1 22 36Z"/></symbol><symbol xmlns="http://www.w3.org/2000/svg" viewBox="0 0 40 40" id="aaudio-description"><path fill-rule="evenodd" clip-rule="evenodd" d="M34 8H6a2 2 0 0 0-2 2v20a2 2 0 0 0 2 2h18l7.952 6v-6H34a2 2 0 0 0 2-2V10a2 2 0 0 0-2-2ZM16.828 26l-.588-2.238h-3.884L11.752 26H8.2l3.902-12h4.31l3.948 12h-3.532Zm-2.55-10.03c.054.3.168.796.338 1.488.172.693.318 1.256.438 1.69l.514 1.962h-2.542c.498-1.875.82-3.13.962-3.768.143-.638.24-1.095.29-1.372Zm15.87 8.41a6.314 6.314 0 0 1-4.63 1.62h-3.866V14.048h4.136a6.232 6.232 0 0 1 4.442 1.474 5.548 5.548 0 0 1 1.57 4.25 6.16 6.16 0 0 1-1.652 4.608Zm-5.268-7.724h.94a2.4 2.4 0 0 1 1.98.792 3.8 3.8 0 0 1 .646 2.438 4.144 4.144 0 0 1-.686 2.612 2.612 2.612 0 0 1-2.16.854h-.72v-6.696Z"/></symbol><symbol xmlns="http://www.w3.org/2000/svg" viewBox="0 0 40 40" id="aaudio-next"><path d="M24 20c0-.49-.212-.949-.57-1.23L10.098 8.27a1.214 1.214 0 0 0-1.38-.102C8.276 8.428 8 8.94 8 9.498v21.003c0 .56.276 1.073.717 1.33.442.256.974.22 1.38-.101l13.334-10.5c.357-.28.569-.739.569-1.228V20c0 .002 0 .002 0 0ZM30 32c-1.104 0-2-.67-2-1.5v-21c0-.83.896-1.5 2-1.5s2 .67 2 1.5v21c0 .83-.896 1.5-2 1.5Z"/></symbol><symbol xmlns="http://www.w3.org/2000/svg" viewBox="0 0 40 40" id="aaudio-pause"><rect x="32" y="12" width="4" height="16" rx="1"/><rect x="24" y="12" width="4" height="16" rx="1"/><path d="m9.176 26 7.09 7.68c.617.67 1.734.232 1.734-.678v-26c0-.91-1.117-1.347-1.735-.678L9.18 14H4.982a.993.993 0 0 0-.982.982v10.036c0 .526.44.982.982.982h4.194Z"/></symbol><symbol xmlns="http://www.w3.org/2000/svg" viewBox="0 0 40 40" id="aaudio-play"><path d="M35.555 20.868c.593-.413.593-1.323 0-1.736l-10-6.955c-.665-.462-1.555.035-1.555.868v13.91c0 .833.89 1.33 1.555.868l10-6.955ZM9.176 26l7.09 7.68c.617.67 1.734.232 1.734-.678v-26c0-.91-1.117-1.347-1.735-.678L9.18 14H4.982a.993.993 0 0 0-.982.982v10.036c0 .526.44.982.982.982h4.194Z"/></symbol><symbol xmlns="http://www.w3.org/2000/svg" viewBox="0 0 40 40" id="aaudio-previous"><path d="M16 20c0-.49.212-.949.57-1.23l13.333-10.5a1.214 1.214 0 0 1 1.38-.102c.441.26.717.771.717 1.33v21.003c0 .56-.276 1.073-.717 1.33a1.214 1.214 0 0 1-1.38-.101l-13.334-10.5c-.357-.28-.569-.739-.569-1.228V20c0 .002 0 .002 0 0ZM10 32c1.104 0 2-.67 2-1.5v-21c0-.83-.896-1.5-2-1.5s-2 .67-2 1.5v21c0 .83.896 1.5 2 1.5Z"/></symbol><symbol xmlns="http://www.w3.org/2000/svg" viewBox="0 0 40 40" id="aaudio-replay"><path d="m9.176 26 7.09 7.68c.617.67 1.734.232 1.734-.678v-26c0-.91-1.117-1.347-1.735-.678L9.18 14H4.982a.993.993 0 0 0-.982.982v10.036c0 .526.44.982.982.982h4.194ZM31.547 16.347a5.097 5.097 0 0 1 0 7.143 4.943 4.943 0 0 1-7.054 0 1.483 1.483 0 0 0-2.116 0 1.53 1.53 0 0 0 0 2.143 7.91 7.91 0 0 0 11.286 0c3.116-3.156 3.116-8.273 0-11.43a7.909 7.909 0 0 0-9.279-1.48L21.692 8 20 17.155l8.674 3.093-2.79-4.895a4.943 4.943 0 0 1 5.663.994Z"/></symbol><symbol xmlns="http://www.w3.org/2000/svg" viewBox="0 0 40 40" id="abold"><path fill-rule="evenodd" clip-rule="evenodd" d="M27.122 18.633c1.93-1.415 3.124-3.776 2.835-6.415C29.562 8.61 26.287 6 22.658 6H8v2l2.894 1.447A2 2 0 0 1 12 11.237v17.527a2 2 0 0 1-1.106 1.789L8 32v2h15.645c4.208 0 7.961-3.095 8.324-7.287a8.002 8.002 0 0 0-4.847-8.08ZM18 10h2a4 4 0 1 1 0 8h-2v-8Zm0 12v8h4a4 4 0 0 0 0-8h-4Z"/></symbol><symbol xmlns="http://www.w3.org/2000/svg" viewBox="0 0 40 40" id="achange"><path d="m26 30-10-8v6H8V8H4v24h12v6l10-8ZM24 8V2l-10 8 10 8v-6h8v20h4V8H24Z"/></symbol><symbol xmlns="http://www.w3.org/2000/svg" viewBox="0 0 40 40" id="acircle"><circle cx="20" cy="20" r="16"/></symbol><symbol xmlns="http://www.w3.org/2000/svg" viewBox="0 0 40 40" id="acircle-cross"><circle cx="20" cy="20" r="16"/><path d="m24.835 25.297-2.552 2.026c-.723-.897-1.667-2.365-2.842-4.414L14.311 28 12 25.707l5.802-5.758c-.998-1.854-2.12-4.019-3.37-6.499L17.355 12a288.495 288.495 0 0 0 2.864 5.55l5.47-5.428L28 14.415l-6.16 6.113c1.296 2.31 2.298 3.904 2.995 4.77Z"/></symbol><symbol xmlns="http://www.w3.org/2000/svg" viewBox="0 0 40 40" id="acircle-outline"><path fill-rule="evenodd" clip-rule="evenodd" d="M36 20c0-8.837-7.163-16-16-16S4 11.163 4 20s7.163 16 16 16 16-7.163 16-16ZM8 20c0-6.627 5.373-12 12-12s12 5.373 12 12-5.373 12-12 12S8 26.627 8 20Z"/></symbol><symbol xmlns="http://www.w3.org/2000/svg" viewBox="0 0 40 40" id="acircle-filled"><circle cx="15" cy="15" r="8" stroke-width="2"/></symbol><symbol xmlns="http://www.w3.org/2000/svg" viewBox="0 0 40 40" id="acircle-tick"><circle cx="20" cy="20" r="16"/><path d="M25.828 12 28 14.194c-2.283 2.306-5.215 6.254-8.765 11.818L17.967 28l-1.3-1.967c-1.364-2.065-2.92-3.498-4.667-4.33l1.31-2.807c1.683.802 3.197 2 4.542 3.583 3.13-4.774 5.782-8.262 7.976-10.479Z"/></symbol><symbol xmlns="http://www.w3.org/2000/svg" viewBox="0 0 40 40" id="aclosed-captioning"><path fill-rule="evenodd" clip-rule="evenodd" d="M34 8H6a2 2 0 0 0-2 2v20a2 2 0 0 0 2 2h28a2 2 0 0 0 2-2V10a2 2 0 0 0-2-2ZM15.962 23.514a5.383 5.383 0 0 0 1.544-.22c.507-.152 1.005-.33 1.494-.534v2.74a8.285 8.285 0 0 1-3.4.666 5.372 5.372 0 0 1-4.152-1.566A6.492 6.492 0 0 1 10 20.038a7.258 7.258 0 0 1 .702-3.274 5 5 0 0 1 2.016-2.164 6.096 6.096 0 0 1 3.098-.76 8.553 8.553 0 0 1 3.716.846l-1 2.552c-.432-.204-.876-.38-1.33-.526a4.702 4.702 0 0 0-1.426-.212 2.07 2.07 0 0 0-1.8.946 4.586 4.586 0 0 0-.648 2.614c.001 2.304.88 3.455 2.634 3.454Zm12.446-.22c-.5.148-1.02.222-1.542.22-1.756.001-2.635-1.15-2.636-3.454a4.586 4.586 0 0 1 .648-2.614 2.07 2.07 0 0 1 1.8-.946 4.7 4.7 0 0 1 1.426.212c.454.147.898.322 1.33.526l1-2.552a8.553 8.553 0 0 0-3.716-.846 6.093 6.093 0 0 0-3.096.76 5.024 5.024 0 0 0-2.022 2.164 7.257 7.257 0 0 0-.698 3.284A6.492 6.492 0 0 0 22.35 24.6a5.374 5.374 0 0 0 4.16 1.566 8.303 8.303 0 0 0 3.4-.666v-2.74c-.491.204-.993.382-1.502.534Z"/></symbol><symbol xmlns="http://www.w3.org/2000/svg" viewBox="0 0 40 40" id="acolor"><path d="M4 32h32v6H4z"/><path fill-rule="evenodd" clip-rule="evenodd" d="m23.441 6 5.712 18.088a2 2 0 0 0 1.179 1.26L32 26v2H22v-2l3.226-1-1.334-5h-7.784l-1.334 5L18 26v2H8v-2l1.668-.652a2 2 0 0 0 1.18-1.26L16.557 6h6.883Zm-4 4-2 6h5.118l-2-6H19.44Z"/></symbol><symbol xmlns="http://www.w3.org/2000/svg" viewBox="0 0 40 40" id="acolor-palette"><path d="M7 29.977h26c1.7 0 3 1.3 3 3s-1.3 3-3 3H7c-1.7 0-3-1.3-3-3s1.3-3 3-3Z"/><path fill-rule="evenodd" clip-rule="evenodd" d="M30.4 9.277c-3.4-1.4-6.4-.6-9 .2-2.2.6-4 1.2-5.2-.2-.4-.6-.2-1.2 0-2 .2-1 .6-1.8 0-2.6-.8-1-3-.8-4.2 0-3.6 2.4-6 6.2-6 10.6 0 7.2 6 13.2 16 12.8 8-.3 11.4-7.2 11.8-9.1.4-1.9 1-7.7-3.4-9.7Zm-18.6 7.8c-1.4 0-2.4-.8-2.4-2.2 0-1.4 1-2.2 2.4-2.2s2.4.8 2.4 2.2c0 1.4-1 2.2-2.4 2.2Zm1.2 4.4c0 1.2 1 2.2 2.4 2.2s2.4-.8 2.4-2.2c0-1.2-1-2.2-2.4-2.2s-2.4 1-2.4 2.2Zm10 4c-1.4 0-2.4-.8-2.4-2.2 0-1.2 1-2.2 2.4-2.2s2.4.8 2.4 2.2c0 1.4-1 2.2-2.4 2.2Zm.6-9.4c0 1.8 1.6 3.2 3.6 3.2s3.6-1.4 3.6-3.2c0-1.8-1.6-3.2-3.6-3.2s-3.6 1.4-3.6 3.2Z"/></symbol><symbol xmlns="http://www.w3.org/2000/svg" viewBox="0 0 32 33" id="acorrect-six-twelve"><g id="aFeedback / Correct"><g id="a5-8 Correct (Stroke)" filter="url(#afilter0_ddd_2025_6409)"><path fill-rule="evenodd" clip-rule="evenodd" d="M23.286 3a3 3 0 0 1 2.132.89l2.714 2.742a3 3 0 0 1 0 4.22c-2.62 2.648-6.146 7.359-10.558 14.276l-1.585 2.485a3 3 0 0 1-5.032.041l-1.625-2.459c-1.481-2.24-3.042-3.606-4.623-4.36a3 3 0 0 1-1.427-3.977l1.638-3.507a3 3 0 0 1 4.009-1.439c1.397.666 2.7 1.507 3.91 2.506 3.109-4.537 5.877-8.066 8.315-10.528A3 3 0 0 1 23.286 3Zm-8.248 13.517c-.56.824-1.135 1.685-1.723 2.581a19.286 19.286 0 0 0-2.16-2.176c-.305-.261-.616-.51-.933-.744a15.667 15.667 0 0 0-2.584-1.558L6 18.128c2.105 1.003 3.986 2.702 5.647 5.134.063.092.125.185.188.28L13.459 26l1.585-2.485.182-.284C19.58 16.425 23.185 11.586 26 8.742L23.286 6c-.645.651-1.32 1.39-2.028 2.216-1.853 2.163-3.924 4.929-6.22 8.301Z"/></g><path id="a5-8 Correct" d="M23.285 6 26 8.742c-2.854 2.884-6.52 7.818-10.956 14.773L13.46 26l-1.625-2.459C10.128 20.96 8.184 19.17 6 18.128l1.638-3.508c2.103 1.003 3.996 2.5 5.677 4.478C17.227 13.131 20.542 8.772 23.285 6Z"/></g><defs><filter id="afilter0_ddd_2025_6409" x="-.001" y="1" width="32.001" height="32" filterUnits="userSpaceOnUse" color-interpolation-filters="sRGB"><feFlood flood-opacity="0" result="BackgroundImageFix"/><feColorMatrix in="SourceAlpha" values="0 0 0 0 0 0 0 0 0 0 0 0 0 0 0 0 0 0 127 0" result="hardAlpha"/><feOffset dy="1"/><feGaussianBlur stdDeviation="1.5"/><feComposite in2="hardAlpha" operator="out"/><feColorMatrix values="0 0 0 0 0 0 0 0 0 0 0 0 0 0 0 0 0 0 0.12 0"/><feBlend in2="BackgroundImageFix" result="effect1_dropShadow_2025_6409"/><feColorMatrix in="SourceAlpha" values="0 0 0 0 0 0 0 0 0 0 0 0 0 0 0 0 0 0 127 0" result="hardAlpha"/><feOffset dy="1"/><feGaussianBlur stdDeviation=".5"/><feComposite in2="hardAlpha" operator="out"/><feColorMatrix values="0 0 0 0 0 0 0 0 0 0 0 0 0 0 0 0 0 0 0.14 0"/><feBlend in2="effect1_dropShadow_2025_6409" result="effect2_dropShadow_2025_6409"/><feColorMatrix in="SourceAlpha" values="0 0 0 0 0 0 0 0 0 0 0 0 0 0 0 0 0 0 127 0" result="hardAlpha"/><feOffset dy="2"/><feGaussianBlur stdDeviation=".5"/><feComposite in2="hardAlpha" operator="out"/><feColorMatrix values="0 0 0 0 0 0 0 0 0 0 0 0 0 0 0 0 0 0 0.2 0"/><feBlend in2="effect2_dropShadow_2025_6409" result="effect3_dropShadow_2025_6409"/><feBlend in="SourceGraphic" in2="effect3_dropShadow_2025_6409" result="shape"/></filter></defs></symbol><symbol xmlns="http://www.w3.org/2000/svg" viewBox="0 0 24 40" id="across-xs"><path d="m18.113 25.025-2.716 2.323c-1.193-1.376-2.906-3.027-3.941-4.736L6.052 28 4 25.258l5.972-5.394c-1.668-2.615-2.23-4.097-3.301-6.239L9.745 12c.556 1.755 1.559 4.392 2.298 5.793L17.398 12 20 14.37l-6.456 5.916c1.18 1.955 4.57 4.74 4.57 4.74Z"/></symbol><symbol xmlns="http://www.w3.org/2000/svg" viewBox="0 0 40 40" id="adelete"><path d="M8 16v16c0 2.2 1.8 4 4 4h16c2.2 0 4-1.8 4-4V16H8Z"/><path fill-rule="evenodd" clip-rule="evenodd" d="M26 4c1.2 0 2 .8 2 2v4h8v4H4v-4h8V6c0-1.2.8-2 2-2h12Zm-10 6h8V8h-8v2Z"/></symbol><symbol xmlns="http://www.w3.org/2000/svg" viewBox="0 0 40 40" id="adownload"><path d="M20 28c.6 0 1-.2 1.4-.6L32.8 16 30 13.2l-8 8V4h-4v17.2l-8-8L7.2 16l11.4 11.4c.4.4.8.6 1.4.6Z"/><path d="M32 32H8v-6H4v8c0 1.2.8 2 2 2h28c1.2 0 2-.8 2-2v-8h-4v6Z"/></symbol><symbol xmlns="http://www.w3.org/2000/svg" viewBox="0 0 40 40" id="adraw"><path d="M4.644 35.254c3.98 2.767 9.27 3.165 15.77 1.3 5.715-1.639 10.104-1.353 13.252.75a1.5 1.5 0 1 0 1.667-2.494c-3.978-2.657-9.255-3.001-15.747-1.14-5.706 1.637-10.083 1.308-13.23-.88a1.5 1.5 0 1 0-1.712 2.464ZM17.162 9.687 4.488 22.362c-.325.325-.488.65-.488 1.138v4.875C4 29.35 4.65 30 5.625 30H10.5c.488 0 .813-.163 1.137-.488l12.675-12.675-7.15-7.15ZM29.512 9.362l-4.875-4.875c-.65-.65-1.625-.65-2.275 0l-2.925 2.925 7.15 7.15 2.925-2.925c.65-.65.65-1.625 0-2.275Z"/></symbol><symbol xmlns="http://www.w3.org/2000/svg" viewBox="0 0 40 40" id="aerase"><path d="M32.727 12.065 26.195 5.4c-1.866-1.867-4.799-1.867-6.532 0L5.4 19.663c-1.867 1.866-1.867 4.8 0 6.532l6.532 6.532c.933.933 2 1.333 3.332 1.333 1.333 0 2.4-.533 3.333-1.333l14.13-14.13c.933-.933 1.333-2 1.333-3.333 0-1.2-.533-2.266-1.333-3.2ZM15.664 29.928c-.133.133-.4.133-.533.133s-.267 0-.533-.133l-6.399-6.532a.644.644 0 0 1 0-.933l5.865-5.866 7.599 7.465-5.999 5.866Z"/><path d="M31.527 32.327h-15.33l-3.999.666 3.466 3.333h15.863c1.067 0 2-.933 2-2 0-1.066-.8-1.999-2-1.999Z"/></symbol><symbol xmlns="http://www.w3.org/2000/svg" viewBox="0 0 40 40" id="aflip"><path fill-rule="evenodd" clip-rule="evenodd" d="M17.916 10a2 2 0 1 0 0 4.001c3.583 0 6.729.834 8.91 2.08 2.236 1.279 3.093 2.74 3.093 3.922s-.857 2.643-3.094 3.921c-2.18 1.246-5.326 2.08-8.91 2.08-.538 0-1.068-.019-1.588-.055l1.693-6.263L6 24.726l7.844 10.41 1.423-5.263c.862.087 1.747.132 2.649.132 4.15 0 8.006-.957 10.895-2.607 2.83-1.618 5.109-4.158 5.109-7.395 0-3.238-2.278-5.778-5.11-7.396C25.924 10.957 22.068 10 17.916 10Z"/></symbol><symbol xmlns="http://www.w3.org/2000/svg" viewBox="0 0 40 40" id="aglyphs"><path d="M36.368 20.327C36.368 11.324 28.89 4 19.684 4 10.474 4 3 11.315 3 20.327 3 24.153 4.071 27.4 6.179 30H3.674v4h7.99c2.052 0 2.773-2.721.99-3.738C8.841 28.09 7 24.864 7 20.328 7 13.544 12.664 8 19.684 8c7.016 0 12.684 5.552 12.684 12.327 0 4.53-1.837 7.757-5.64 9.938-1.777 1.02-1.053 3.735.996 3.735h7.95v-4h-2.482c2.106-2.602 3.176-5.85 3.176-9.673Z"/></symbol><symbol xmlns="http://www.w3.org/2000/svg" viewBox="0 0 40 40" id="ahelp"><path fill-rule="evenodd" clip-rule="evenodd" d="M20 4C11.2 4 4 11.2 4 20s7.2 16 16 16 16-7.2 16-16S28.8 4 20 4Zm0 26c-1.2 0-2-.8-2-2s.8-2 2-2 2 .8 2 2-.8 2-2 2Zm2-8c0-.4 0-.6 1-1.2 1.2-.8 3-2 3-4.8 0-3.4-2.6-6-6-6-2.2 0-4.2 1.2-5.2 3l-1 1.8 3.4 2 1-1.8c.4-.6 1-1 1.8-1 1.2 0 2 .8 2 2 0 .6-.2.8-1.2 1.4-1.2.8-2.8 2-2.8 4.6v2h4v-2Z"/></symbol><symbol xmlns="http://www.w3.org/2000/svg" viewBox="0 0 32 33" id="aincorrect-six-twelve"><g id="aFeedback / Incorrect"><g id="a5-8 Incorrect (Stroke)" filter="url(#afilter0_ddd_2025_6408)"><path fill-rule="evenodd" clip-rule="evenodd" d="M25.026 22.953a3 3 0 0 1-1.117 2.018l-3.19 2.532a3 3 0 0 1-4.2-.466c-.548-.68-1.155-1.545-1.817-2.58l-3.7 3.672a3 3 0 0 1-4.227 0l-2.888-2.866a3 3 0 0 1 0-4.259l5.67-5.626A386.096 386.096 0 0 1 6.36 9.163a3 3 0 0 1 1.345-4.038l3.654-1.812a3 3 0 0 1 4.013 1.337 428.45 428.45 0 0 0 1.676 3.293l3.95-3.92a3 3 0 0 1 4.226 0l2.888 2.866a3 3 0 0 1 0 4.26l-6.063 6.017c1.034 1.756 1.807 2.925 2.33 3.573a3 3 0 0 1 .646 2.214ZM18.3 16.659 26 9.02l-2.89-2.866-6.837 6.785c-.464-.873-.95-1.8-1.458-2.78A416.51 416.51 0 0 1 12.693 6L9.04 7.813c.467.927.92 1.818 1.358 2.675a300.674 300.674 0 0 0 2.855 5.449L6 23.134 8.888 26l6.414-6.364a83.686 83.686 0 0 0 1.83 3.054c.6.943 1.13 1.71 1.592 2.3l.13.164 3.19-2.532a10.296 10.296 0 0 1-.102-.13c-.867-1.107-2.085-3.057-3.641-5.833Z"/></g><path id="a5-8 Incorrect" d="m22.044 22.622-3.19 2.532c-.904-1.122-2.084-2.956-3.553-5.518L8.888 26 6 23.134l7.252-7.197A340.915 340.915 0 0 1 9.04 7.813L12.693 6a359.696 359.696 0 0 0 3.58 6.938l6.839-6.785L26 9.019l-7.7 7.64c1.62 2.887 2.872 4.882 3.744 5.963Z"/></g><defs><filter id="afilter0_ddd_2025_6408" x="0" y=".999" width="32" height="32.001" filterUnits="userSpaceOnUse" color-interpolation-filters="sRGB"><feFlood flood-opacity="0" result="BackgroundImageFix"/><feColorMatrix in="SourceAlpha" values="0 0 0 0 0 0 0 0 0 0 0 0 0 0 0 0 0 0 127 0" result="hardAlpha"/><feOffset dy="1"/><feGaussianBlur stdDeviation="1.5"/><feComposite in2="hardAlpha" operator="out"/><feColorMatrix values="0 0 0 0 0 0 0 0 0 0 0 0 0 0 0 0 0 0 0.12 0"/><feBlend in2="BackgroundImageFix" result="effect1_dropShadow_2025_6408"/><feColorMatrix in="SourceAlpha" values="0 0 0 0 0 0 0 0 0 0 0 0 0 0 0 0 0 0 127 0" result="hardAlpha"/><feOffset dy="1"/><feGaussianBlur stdDeviation=".5"/><feComposite in2="hardAlpha" operator="out"/><feColorMatrix values="0 0 0 0 0 0 0 0 0 0 0 0 0 0 0 0 0 0 0.14 0"/><feBlend in2="effect1_dropShadow_2025_6408" result="effect2_dropShadow_2025_6408"/><feColorMatrix in="SourceAlpha" values="0 0 0 0 0 0 0 0 0 0 0 0 0 0 0 0 0 0 127 0" result="hardAlpha"/><feOffset dy="2"/><feGaussianBlur stdDeviation=".5"/><feComposite in2="hardAlpha" operator="out"/><feColorMatrix values="0 0 0 0 0 0 0 0 0 0 0 0 0 0 0 0 0 0 0.2 0"/><feBlend in2="effect2_dropShadow_2025_6408" result="effect3_dropShadow_2025_6408"/><feBlend in="SourceGraphic" in2="effect3_dropShadow_2025_6408" result="shape"/></filter></defs></symbol><symbol xmlns="http://www.w3.org/2000/svg" viewBox="0 0 40 40" id="ainfo"><path fill-rule="evenodd" clip-rule="evenodd" d="M22.711 16.8c0-1.28-.871-2.133-2.178-2.133H14v4.266h4.355v12.8H14V36h13.067v-4.267H22.71V16.8Z"/><ellipse cx="19.444" cy="7.2" rx="3.267" ry="3.2"/></symbol><symbol xmlns="http://www.w3.org/2000/svg" viewBox="0 0 40 40" id="aitalic"><path d="M28 10V6H16v4h2.541a1 1 0 0 1 .99 1.141l-3.02 17.142A2 2 0 0 1 14.531 30H12v4h12v-4h-2.541a1 1 0 0 1-.99-1.141l3.02-17.142A2 2 0 0 1 25.469 10H28Z"/></symbol><symbol xmlns="http://www.w3.org/2000/svg" viewBox="0 0 40 40" id="alight-bulb"><path fill-rule="evenodd" clip-rule="evenodd" d="M21.728 5.133A11 11 0 0 0 15 25.793v8.21h10v-8.2a11 11 0 0 0 6-9.8 11 11 0 0 0-9.272-10.87Z" stroke-width="4" stroke-linecap="round" stroke-linejoin="round"/><path d="M15 28.003h10" stroke-width="4" stroke-linecap="round" stroke-linejoin="round"/></symbol><symbol xmlns="http://www.w3.org/2000/svg" viewBox="0 0 40 40" id="aline"><path d="m7.414 35.414 28-28a2 2 0 1 0-2.828-2.828l-28 28a2 2 0 1 0 2.828 2.828Z"/></symbol><symbol xmlns="http://www.w3.org/2000/svg" viewBox="0 0 40 40" id="aline-arrows"><path fill-rule="evenodd" clip-rule="evenodd" d="m15.311 22.561-4.948-4.949L4 36.7l19.088-6.363-4.949-4.948L36.114 7.413a2 2 0 1 0-2.827-2.827L15.31 22.56Z"/></symbol><symbol xmlns="http://www.w3.org/2000/svg" viewBox="0 0 40 40" id="aline-medium"><path d="M5.442 23.299c4.357 2.714 9.466 2.63 15.398.111 3.835-1.628 7.41-1.005 11.379 1.493 1.285.808 2.852.165 3.5-1.438.65-1.602.133-3.556-1.152-4.365-5.126-3.226-10.105-4.094-15.407-1.843-4.722 2.005-8.436 2.066-11.388.227-1.288-.802-2.853-.151-3.497 1.455-.643 1.605-.12 3.557 1.167 4.36Z"/></symbol><symbol xmlns="http://www.w3.org/2000/svg" viewBox="0 0 40 40" id="aline-thick"><path d="M6.672 25.39c4.558 2.007 9.302 1.821 14.697-.638 3.013-1.373 5.964-.79 8.44 1.237 1.847 1.512 4.326.866 5.537-1.444 1.21-2.31.693-5.409-1.155-6.922-4.493-3.679-10.054-4.777-15.562-2.266-3.717 1.694-6.563 1.806-9.299.6-2.083-.917-4.367.45-5.102 3.055-.734 2.604.36 5.46 2.444 6.377Z"/></symbol><symbol xmlns="http://www.w3.org/2000/svg" viewBox="0 0 40 40" id="aline-thickness"><path d="M4.694 6.754c3.98 2.767 9.27 3.165 15.77 1.3 5.715-1.639 10.104-1.353 13.253.75a1.5 1.5 0 0 0 1.667-2.494c-3.978-2.657-9.256-3.001-15.747-1.14-5.706 1.637-10.084 1.308-13.23-.88a1.5 1.5 0 1 0-1.713 2.464ZM5.567 19.427c4.487 2.716 9.757 2.63 15.723.17 3.292-1.358 6.332-.844 9.865 1.317a3.25 3.25 0 1 0 3.39-5.546c-5.159-3.154-10.294-4.024-15.734-1.78-4.217 1.74-7.379 1.79-9.877.278a3.25 3.25 0 1 0-3.367 5.56ZM7.146 34.652c4.638 1.91 9.501 1.732 14.864-.554 2.137-.91 4.16-.537 6.001.872a5 5 0 0 0 6.079-7.94c-4.549-3.482-10.327-4.55-16-2.131-2.991 1.274-5.086 1.351-7.135.507a5 5 0 0 0-3.809 9.246Z"/></symbol><symbol xmlns="http://www.w3.org/2000/svg" viewBox="0 0 40 40" id="aline-thin"><path d="M4.55 20.787c3.959 3.187 9.23 3.646 15.758 1.478 5.938-1.972 10.541-1.625 13.86.942.564.436 1.303.219 1.652-.486.349-.704.175-1.629-.389-2.065-3.955-3.06-9.218-3.457-15.74-1.29-5.93 1.969-10.525 1.569-13.841-1.1-.557-.45-1.3-.248-1.659.448-.359.697-.198 1.625.36 2.073Z"/></symbol><symbol xmlns="http://www.w3.org/2000/svg" viewBox="0 0 40 40" id="alist-bullet"><circle cx="8" cy="8" r="4"/><circle cx="8" cy="20" r="4"/><circle cx="8" cy="32" r="4"/><path d="M16 6h20v4H16zM16 18h20v4H16zM16 30h20v4H16z"/></symbol><symbol xmlns="http://www.w3.org/2000/svg" viewBox="0 0 40 40" id="alist-number"><path d="M14 6h22v4H14zM14 18h22v4H14zM14 30h22v4H14zM4.736 12v-1.098l1.195-.097c.195-.013.222-.069.222-.277V5.681c0-.167-.041-.25-.18-.292l-1.209-.25L4.917 4h3.334v6.528c0 .222.013.264.222.277l1.139.098V12H4.736ZM4.095 24v-1.26l1.814-1.772c1.367-1.327 1.949-1.868 1.949-2.64 0-.5-.244-.866-.961-.866-.745 0-1.057.244-1.057 1.205L4 18.504C4.013 16.352 5.651 16 7.072 16c2.099 0 2.843.893 2.843 2.166s-.88 2.112-1.868 3.059l-1.53 1.462h1.99c.136 0 .19-.027.217-.163l.19-1.069h1.434V24H4.095ZM8.689 31.364c1.133.174 1.758.853 1.758 2.052C10.447 35.174 9.13 36 7.224 36 5.878 36 4.68 35.521 4 34.775l1.066-1.172c.506.492 1.065.878 1.998.878.746 0 1.386-.266 1.386-1.198 0-.813-.507-1.146-1.332-1.146-.334 0-.586.027-.987.093v-1.331l.653-.08c.96-.12 1.479-.587 1.479-1.44 0-.506-.226-.918-.973-.918-.719 0-1.065.24-1.065 1.185l-1.825-.16c0-2.105 1.585-2.464 2.984-2.464 2.051 0 2.837.786 2.837 2.211 0 1.12-.693 1.825-1.532 2.078v.053Z"/></symbol><symbol xmlns="http://www.w3.org/2000/svg" viewBox="0 0 40 40" id="amaximize"><path d="M22 8h7.2l-8 8 2.8 2.8 8-8V18h4V4H22v4ZM16 21.2l-8 8V22H4v14h14v-4h-7.2l8-8-2.8-2.8Z"/></symbol><symbol xmlns="http://www.w3.org/2000/svg" viewBox="0 0 40 40" id="amenu-grid"><path d="M18 6H6v12h12V6ZM34 6H22v12h12V6ZM18 22H6v12h12V22ZM34 22H22v12h12V22Z"/></symbol><symbol xmlns="http://www.w3.org/2000/svg" viewBox="0 0 40 40" id="amic"><g clip-path="url(#aclip0_717_2569)"><path d="M20 23c-2.8 0-5-1.8-5-4.6V8.6c.2-2.8 2.2-4.6 5-4.6s5 1.8 5 4.6v9.8c-.2 2.8-2.2 4.6-5 4.6ZM22 27h-4v8h4v-8Z"/><path d="M20 28c-5.6 0-10-4-10-9 0-.6.4-1 1-1s1 .4 1 1c0 3.8 3.6 7 8 7s8-3.2 8-7c0-.6.4-1 1-1s1 .4 1 1c0 5-4.4 9-10 9ZM27 36H13c-.6 0-1-.4-1-1s.4-1 1-1h14c.6 0 1 .4 1 1s-.4 1-1 1Z"/></g><defs><clipPath id="aclip0_717_2569"><path transform="translate(10 4)" d="M0 0h20v32H0z"/></clipPath></defs></symbol><symbol xmlns="http://www.w3.org/2000/svg" viewBox="0 0 40 40" id="aminimize"><path d="M4 26h7.2l-8 8L6 36.8l8-8V36h4V22H4v4ZM34 3.2l-8 8V4h-4v14h14v-4h-7.2l8-8L34 3.2Z"/></symbol><symbol xmlns="http://www.w3.org/2000/svg" viewBox="0 0 40 40" id="amore-horiz"><circle cx="20" cy="20" r="4"/><circle cx="8" cy="20" r="4"/><circle cx="32" cy="20" r="4"/></symbol><symbol xmlns="http://www.w3.org/2000/svg" viewBox="0 0 40 40" id="amore-vert"><circle cx="20" cy="20" r="4" transform="rotate(90 20 20)"/><circle cx="20" cy="8" r="4" transform="rotate(90 20 8)"/><circle cx="20" cy="32" r="4" transform="rotate(90 20 32)"/></symbol><symbol xmlns="http://www.w3.org/2000/svg" viewBox="0 0 40 40" id="amove"><path d="M30 18h-8v-8h4l-6-6-6 6h4v8h-8v-4l-6 6 6 6v-4h8v8h-4l6 6 6-6h-4v-8h8v4l6-6-6-6v4Z"/></symbol><symbol xmlns="http://www.w3.org/2000/svg" viewBox="0 0 40 40" id="aopen"><path d="M32 36H8c-1.2 0-2-.8-2-2V6c0-1.2.8-2 2-2h8v4h-6v24h20V22h4v12c0 1.2-.8 2-2 2Z"/><path d="m20.8 20 9.2-9.2V18h4V6c0-1.2-.8-2-2-2H20v4h7.2L18 17.2"/></symbol><symbol xmlns="http://www.w3.org/2000/svg" viewBox="0 0 40 40" id="apause"><path d="M16.4 8h-4.8c-.96 0-1.6.686-1.6 1.714v20.572c0 1.028.64 1.714 1.6 1.714h4.8c.96 0 1.6-.686 1.6-1.714V9.714C18 8.686 17.36 8 16.4 8ZM28.4 8h-4.8c-.96 0-1.6.686-1.6 1.714v20.572c0 1.028.64 1.714 1.6 1.714h4.8c.96 0 1.6-.686 1.6-1.714V9.714C30 8.686 29.36 8 28.4 8Z"/></symbol><symbol xmlns="http://www.w3.org/2000/svg" viewBox="0 0 40 40" id="apdf"><path d="M17.046 22.338c0 1.477-.861 2.339-2.585 2.339h-.984v2.215H12V20h2.461c1.724 0 2.585.861 2.585 2.338Zm-1.723 0c0-.738-.246-1.107-.985-1.107h-.861v2.092h.738c.862.123 1.108-.246 1.108-.985ZM23.2 23.446c0 2.215-1.23 3.446-3.2 3.446h-2.462V20H20c1.97 0 3.2 1.23 3.2 3.446Zm-1.723 0c0-1.477-.492-2.215-1.6-2.215h-.862v4.307h.862c1.108.123 1.6-.615 1.6-2.092ZM25.292 21.354v1.477h2.462v1.23h-2.462v2.831h-1.6V20H28v1.23h-2.708v.124Z"/><path d="m33.333 10.4-6-5.867C26.933 4.133 26.4 4 26 4H8c-1.067 0-2 .933-2 2v28c0 1.067.933 2 2 2h24c1.067 0 2-.933 2-2V11.867c0-.534-.267-1.067-.667-1.467ZM10 32V8h13.333v4.667c0 1.066.934 2 2 2H30V32H10Z"/></symbol><symbol xmlns="http://www.w3.org/2000/svg" viewBox="0 0 40 40" id="aplay"><path d="M32 20c0-.571-.265-1.107-.712-1.434L14.622 6.316a1.606 1.606 0 0 0-1.725-.12c-.552.303-.897.9-.897 1.552v24.503c0 .653.345 1.252.897 1.553a1.606 1.606 0 0 0 1.725-.12l16.666-12.25c.447-.325.712-.86.712-1.431v-.004c0 .002 0 .002 0 0Z"/></symbol><symbol xmlns="http://www.w3.org/2000/svg" viewBox="0 0 40 40" id="aredo"><path d="M24 17.2 21.2 20l6 6H16c-3.4 0-6-2.6-6-6s2.6-6 6-6h16v-4H16c-5.6 0-10 4.4-10 10s4.4 10 10 10h11.2l-6 6 2.8 2.8L34.8 28 24 17.2Z"/></symbol><symbol xmlns="http://www.w3.org/2000/svg" viewBox="0 0 40 40" id="areload"><path fill-rule="evenodd" clip-rule="evenodd" d="M13 12.5c3.8-3.8 10.2-3.8 14 0 1.4 1.4 2.4 3.4 2.8 5.4l4-.6c-.4-3-1.8-5.6-3.8-7.6-5.4-5.4-14.2-5.4-19.8 0L5.8 5.3 4.4 18.1l12.8-1.4-4.2-4.2ZM35.6 21.9l-12.8 1.4 4.2 4.2c-3.8 3.8-10.2 3.8-14 0-1.4-1.4-2.4-3.4-2.8-5.4l-4 .6c.4 3 1.8 5.6 3.8 7.6 2.8 2.8 6.2 4 9.8 4 3.6 0 7.2-1.4 9.8-4l4.4 4.4 1.6-12.8Z"/></symbol><symbol xmlns="http://www.w3.org/2000/svg" viewBox="0 0 40 40" id="asave"><path d="M22 4h-8v4h8V4Z"/><path d="M30 4h-4v6c0 1.067-.933 2-2 2H12c-1.067 0-2-.933-2-2V4H8C5.733 4 4 5.733 4 8v24c0 2.133 1.733 4 4 4h24c2.133 0 4-1.867 4-4V10l-6-6Zm0 24c0 1.067-1.067 2-2 2H12c-1.067 0-2-1.067-2-2v-8c0-1.067 1.067-2 2-2h16c1.067 0 2 1.067 2 2v8Z"/></symbol><symbol xmlns="http://www.w3.org/2000/svg" viewBox="0 0 40 40" id="asave-as"><path d="M21.997 4h-8v4h8V4Z"/><path d="M29.997 4h-4v6c0 1.067-.934 2-2 2h-12c-1.067 0-2-.933-2-2V4h-2c-2.267 0-4 1.733-4 4v10h24c1.066 0 2 .933 2 2v8c0 1.067-.934 2-2 2h-6v6h10c2.133 0 4-1.867 4-4V10l-6-6Z"/><path d="m5.997 36.8 7.866-8V36h4V24c0-1.2-.8-2-2-2H3.997v4h7.2L3.33 34"/></symbol><symbol xmlns="http://www.w3.org/2000/svg" viewBox="0 0 40 40" id="asettings"><path d="m30.6 14.4 2.2-4.2L30 7.4l-4.2 2.2c-.6-.4-1.4-.6-2.2-.8L22 4h-4l-1.6 4.6c-.6.2-1.4.4-2 .8l-4.2-2.2-3 3 2.2 4.2c-.4.6-.6 1.4-.8 2L4 18v4l4.6 1.6c.2.8.6 1.4.8 2.2L7.2 30l2.8 2.8 4.2-2.2c.6.4 1.4.6 2.2.8L18 36h4l1.6-4.6c.8-.2 1.4-.6 2.2-.8l4.2 2.2 2.8-2.8-2.2-4.2c.4-.6.6-1.4.8-2.2L36 22v-4l-4.6-1.6c-.2-.6-.4-1.4-.8-2ZM20 26c-3.4 0-6-2.6-6-6s2.6-6 6-6 6 2.6 6 6-2.6 6-6 6Z"/></symbol><symbol xmlns="http://www.w3.org/2000/svg" viewBox="0 0 40 40" id="ashapes"><path fill-rule="evenodd" clip-rule="evenodd" d="M34.667 16H17.333c-.736 0-1.333.596-1.333 1.334v17.333c0 .737.597 1.333 1.333 1.333h17.334c.736 0 1.333-.596 1.333-1.333V17.334c0-.738-.597-1.334-1.333-1.334Z"/><path fill-rule="evenodd" clip-rule="evenodd" d="M13.333 16A2.666 2.666 0 0 1 16 13.334h11.69C26.329 7.36 20.509 3.066 13.925 4.175c-4.937.833-8.917 4.815-9.75 9.753-1.107 6.583 3.187 12.402 9.16 13.763v-11.69Z"/></symbol><symbol xmlns="http://www.w3.org/2000/svg" viewBox="0 0 40 40" id="ashapes-three"><path d="M11 16v10.667H.333V16H11Zm-2.667 2.667H3V24h5.333v-5.333Zm4-18 7.333 12H5l7.333-12Zm0 5.146L9.773 10h5.12l-2.56-4.187Zm7.333 9.52c3.334 0 6 2.667 6 6 0 3.334-2.666 6-6 6-3.333 0-6-2.666-6-6 0-3.333 2.667-6 6-6Zm0 2.667a3.333 3.333 0 1 0 0 6.667 3.333 3.333 0 0 0 0-6.667Z"/></symbol><symbol xmlns="http://www.w3.org/2000/svg" viewBox="0 0 32 33" id="ashown-correct-six-twelve"><g id="aFeedback / Shown Correct"><g id="a5-8 Correct (Stroke)" filter="url(#afilter0_ddd_2035_13467)"><path fill-rule="evenodd" clip-rule="evenodd" d="M23.286 3a3 3 0 0 1 2.132.89l2.714 2.742a3 3 0 0 1 0 4.22c-2.62 2.648-6.146 7.359-10.558 14.276l-1.585 2.485a3 3 0 0 1-5.032.041l-1.625-2.459c-1.481-2.24-3.042-3.606-4.623-4.36a3 3 0 0 1-1.427-3.977l1.638-3.507a3 3 0 0 1 4.009-1.439c1.397.666 2.7 1.507 3.91 2.506 3.109-4.537 5.877-8.066 8.315-10.528A3 3 0 0 1 23.286 3Zm-8.248 13.517c-.56.824-1.135 1.685-1.723 2.581a19.286 19.286 0 0 0-2.16-2.176c-.305-.261-.616-.51-.933-.744a15.667 15.667 0 0 0-2.584-1.558L6 18.128c2.105 1.003 3.986 2.702 5.647 5.134.063.092.125.185.188.28L13.459 26l1.585-2.485.182-.284C19.58 16.425 23.185 11.586 26 8.742L23.286 6c-.645.651-1.32 1.39-2.028 2.216-1.853 2.163-3.924 4.929-6.22 8.301Z"/></g><path id="a5-8 Correct" d="M23.285 6 26 8.742c-2.854 2.884-6.52 7.818-10.956 14.773L13.46 26l-1.625-2.459C10.128 20.96 8.184 19.17 6 18.128l1.638-3.508c2.103 1.003 3.996 2.5 5.677 4.478C17.227 13.131 20.542 8.772 23.285 6Z"/></g><defs><filter id="afilter0_ddd_2035_13467" x="-.001" y="1" width="32.001" height="32" filterUnits="userSpaceOnUse" color-interpolation-filters="sRGB"><feFlood flood-opacity="0" result="BackgroundImageFix"/><feColorMatrix in="SourceAlpha" values="0 0 0 0 0 0 0 0 0 0 0 0 0 0 0 0 0 0 127 0" result="hardAlpha"/><feOffset dy="1"/><feGaussianBlur stdDeviation="1.5"/><feComposite in2="hardAlpha" operator="out"/><feColorMatrix values="0 0 0 0 0 0 0 0 0 0 0 0 0 0 0 0 0 0 0.12 0"/><feBlend in2="BackgroundImageFix" result="effect1_dropShadow_2035_13467"/><feColorMatrix in="SourceAlpha" values="0 0 0 0 0 0 0 0 0 0 0 0 0 0 0 0 0 0 127 0" result="hardAlpha"/><feOffset dy="1"/><feGaussianBlur stdDeviation=".5"/><feComposite in2="hardAlpha" operator="out"/><feColorMatrix values="0 0 0 0 0 0 0 0 0 0 0 0 0 0 0 0 0 0 0.14 0"/><feBlend in2="effect1_dropShadow_2035_13467" result="effect2_dropShadow_2035_13467"/><feColorMatrix in="SourceAlpha" values="0 0 0 0 0 0 0 0 0 0 0 0 0 0 0 0 0 0 127 0" result="hardAlpha"/><feOffset dy="2"/><feGaussianBlur stdDeviation=".5"/><feComposite in2="hardAlpha" operator="out"/><feColorMatrix values="0 0 0 0 0 0 0 0 0 0 0 0 0 0 0 0 0 0 0.2 0"/><feBlend in2="effect2_dropShadow_2035_13467" result="effect3_dropShadow_2035_13467"/><feBlend in="SourceGraphic" in2="effect3_dropShadow_2035_13467" result="shape"/></filter></defs></symbol><symbol xmlns="http://www.w3.org/2000/svg" viewBox="0 0 40 40" id="asize"><path d="M16 6H4v6h2l2-2h6v20l-4 2v2h12v-2l-4-2V10h6l2 2h2V6H16Z"/><path d="M20 16v6h2l2-2h2v10l-2 2v2h8v-2l-2-2V20h2l2 2h2v-6H20Z"/></symbol><symbol xmlns="http://www.w3.org/2000/svg" viewBox="0 0 40 40" id="asquare"><path d="M4 4h32v32H4z"/></symbol><symbol xmlns="http://www.w3.org/2000/svg" viewBox="0 0 40 40" id="asquare-outline"><path fill-rule="evenodd" clip-rule="evenodd" d="M36 4H4v32h32V4ZM8 32V8h24v24H8Z"/></symbol><symbol xmlns="http://www.w3.org/2000/svg" viewBox="0 0 40 40" id="astamp"><path fill-rule="evenodd" clip-rule="evenodd" d="M6 36h28c1.2 0 2-.8 2-2V6c0-1.2-.8-2-2-2H6c-1.2 0-2 .8-2 2v28c0 1.2.8 2 2 2Zm26-4H8V8h24v24Z"/><path d="M16 12c1.2 0 2 .8 2 2s-.8 2-2 2-2-.8-2-2 .8-2 2-2ZM10 28l4-8 4 4 6-8 6 12H10Z"/></symbol><symbol xmlns="http://www.w3.org/2000/svg" viewBox="0 0 40 40" id="astar"><path d="m34.286 14.1-8.63-1.254-3.862-7.822c-.676-1.365-2.912-1.365-3.588 0l-3.86 7.822L5.713 14.1c-1.634.238-2.296 2.253-1.108 3.413l6.248 6.088-1.474 8.597c-.278 1.628 1.434 2.878 2.901 2.108L20 30.248l7.721 4.06c1.456.762 3.182-.468 2.902-2.108l-1.474-8.597 6.247-6.088c1.186-1.162.524-3.177-1.11-3.415Z"/></symbol><symbol xmlns="http://www.w3.org/2000/svg" viewBox="0 0 40 40" id="astar-outline"><path fill-rule="evenodd" clip-rule="evenodd" d="m20 30.248 7.719 4.057c1.451.764 3.185-.462 2.903-2.107L29.148 23.6l6.248-6.089c1.186-1.16.526-3.174-1.11-3.411l-8.631-1.254-3.862-7.822c-.672-1.365-2.913-1.365-3.585 0l-3.862 7.824L5.715 14.1c-1.636.238-2.298 2.252-1.11 3.412l6.247 6.087-1.473 8.598c-.282 1.637 1.447 2.881 2.901 2.107L20 30.248Zm5.995-1.368-5.064-2.662a1.996 1.996 0 0 0-1.864 0l-5.063 2.662.966-5.64a2 2 0 0 0-.574-1.77l-4.098-3.995 5.662-.822a2 2 0 0 0 1.506-1.093l2.533-5.132 2.534 5.131c.29.59.852 1 1.506 1.094l5.661.822-4.097 3.996a2.001 2.001 0 0 0-.574 1.77l.966 5.64Z"/></symbol><symbol xmlns="http://www.w3.org/2000/svg" viewBox="0 0 40 40" id="atext-label"><rect x="4" y="8" width="32" height="24" rx="1"/><path d="M14.905 16.15h-3.21v9.539h-2.95V16.15h-3.21v-2.314h9.37v2.314ZM25.332 25.689H21.75l-1.802-2.968-1.802 2.968h-3.48l3.378-4.499-3.174-4.368h3.502l1.678 2.856 1.68-2.856h3.398l-3.174 4.368 3.378 4.499ZM32.684 23.523l.262 2.016c-.485.168-1.419.336-2.203.336-.84 0-1.568-.112-2.146-.672-.58-.541-.729-1.232-.729-2.221v-4.088h-1.194v-2.072h1.176l.168-2.221h2.706v2.221h2.166v2.072h-2.166v3.453c0 .448.02.803.187 1.008.168.206.448.299.822.299.373 0 .802-.075.951-.13Z"/></symbol><symbol xmlns="http://www.w3.org/2000/svg" viewBox="0 0 40 40" id="atick"><path d="M31.657 4 36 8.388C31.433 13 25.57 20.895 18.47 32.024L15.936 36l-2.6-3.934c-2.73-4.13-5.84-6.996-9.335-8.662l2.62-5.611c3.366 1.604 6.394 4 9.083 7.164C21.964 15.41 27.267 8.435 31.657 4Z"/></symbol><symbol xmlns="http://www.w3.org/2000/svg" viewBox="0 0 24 40" id="atick-xs"><path d="M16.988 12 20 14.785c-2.283 2.307-5.29 5.027-8.765 11.04L9.951 28l-1.284-2.155C7.304 23.78 5.748 22.347 4 21.515l1.89-3.976c1.683.802 3.39 2.316 4.574 3.976 2.993-5.42 4.33-7.298 6.524-9.515Z"/></symbol><symbol xmlns="http://www.w3.org/2000/svg" viewBox="0 0 40 40" id="atranscript"><path fill-rule="evenodd" clip-rule="evenodd" d="M8 4h24c1.2 0 2 .8 2 2v28c0 1.2-.8 2-2 2H8c-1.2 0-2-.8-2-2V6c0-1.2.8-2 2-2Zm4 26h8v-4h-8v4Zm16-8H12v-4h16v4Zm-16-8h16v-4H12v4Z"/></symbol><symbol xmlns="http://www.w3.org/2000/svg" viewBox="0 0 40 40" id="atriangle"><path fill-rule="evenodd" clip-rule="evenodd" d="M36 4v32H4L36 4Z"/></symbol><symbol xmlns="http://www.w3.org/2000/svg" viewBox="0 0 14 40" id="atriangle-down"><path d="m7 24 7-8H0l7 8Z"/></symbol><symbol xmlns="http://www.w3.org/2000/svg" viewBox="0 0 40 40" id="atriangle-outline"><path fill-rule="evenodd" clip-rule="evenodd" d="M36 36V4L4 36h32Zm-22.343-4L32 13.657V32H13.657Z"/></symbol><symbol xmlns="http://www.w3.org/2000/svg" viewBox="0 0 14 40" id="atriangle-up"><path d="m7 16-7 8h14l-7-8Z"/></symbol><symbol xmlns="http://www.w3.org/2000/svg" viewBox="0 0 40 40" id="aunderline"><path d="M6 34h28v4H6v-4ZM34 6H22v2l2.894 1.447A2 2 0 0 1 26 11.237v8.526c0 2.902-1.956 5.567-4.804 6.12A6.01 6.01 0 0 1 14 20v-8.764a2 2 0 0 1 1.106-1.789L18 8V6H6v2l2.894 1.447A2 2 0 0 1 10 11.237v8.317c0 5.22 3.806 9.89 9 10.397 5.96.582 11-4.108 11-9.951v-8.764a2 2 0 0 1 1.106-1.789L34 8V6Z"/></symbol><symbol xmlns="http://www.w3.org/2000/svg" viewBox="0 0 40 40" id="aundo"><path d="M24 10H8v4h16c3.4 0 6 2.6 6 6s-2.6 6-6 6H12.8l6-6-2.8-2.8L5.2 28 16 38.8l2.8-2.8-6-6H24c5.6 0 10-4.4 10-10s-4.4-10-10-10Z"/></symbol><symbol xmlns="http://www.w3.org/2000/svg" viewBox="0 0 40 40" id="aupload"><path d="M18 10.8V28h4V10.8l8 8 2.8-2.8L21.4 4.6c-.8-.8-2-.8-2.8 0L7.2 16l2.8 2.8 8-8Z"/><path d="M32 32H8v-6H4v8c0 1.2.8 2 2 2h28c1.2 0 2-.8 2-2v-8h-4v6Z"/></symbol><symbol xmlns="http://www.w3.org/2000/svg" viewBox="0 0 40 40" id="avideo-clip"><path fill-rule="evenodd" clip-rule="evenodd" d="M4 9a1 1 0 0 1 1-1h30a1 1 0 0 1 1 1v22a1 1 0 0 1-1 1H5a1 1 0 0 1-1-1V9Zm2 1h4v4H6v-4Zm12 0h-4v4h4v-4Zm4 0h4v4h-4v-4Zm12 0h-4v4h4v-4ZM6 26h4v4H6v-4Zm12 0h-4v4h4v-4Zm4 0h4v4h-4v-4Zm12 0h-4v4h4v-4Z"/></symbol><symbol xmlns="http://www.w3.org/2000/svg" viewBox="0 0 46 41" id="avocabulary"><circle cx="33" cy="16.5" r="2.5"/><circle cx="13" cy="16.5" r="2.5"/><circle cx="23" cy="16.5" r="2.5"/><path fill-rule="evenodd" clip-rule="evenodd" d="M3 6.5v20c0 2.071 1.58 3.75 3.53 3.75h10.588L23 37.75l5.882-7.5h10.589C41.42 30.25 43 28.571 43 26.5v-20c0-2.071-1.58-3.75-3.53-3.75H6.53C4.58 2.75 3 4.429 3 6.5Z" stroke="var(--connect__icon-stroke-color, #2d2d2d)" stroke-width="5" stroke-linecap="round" stroke-linejoin="round"/></symbol><symbol xmlns="http://www.w3.org/2000/svg" viewBox="0 0 40 40" id="avolume-high"><path d="M31.373 31.407C34.315 28.39 36 24.308 36 19.957c0-4.303-1.648-8.344-4.533-11.352a1.942 1.942 0 0 0-2.794-.024 2.06 2.06 0 0 0-.024 2.863c2.166 2.257 3.4 5.283 3.4 8.513 0 3.267-1.262 6.323-3.47 8.587a2.06 2.06 0 0 0 0 2.863c.772.79 2.023.79 2.794 0Z"/><path d="M25.564 25.434C27.111 23.999 28 22.057 28 19.989c0-2.053-.876-3.983-2.406-5.416-.81-.757-2.13-.765-2.95-.017a1.825 1.825 0 0 0-.02 2.726c.768.717 1.203 1.678 1.203 2.707 0 1.037-.441 2.003-1.218 2.723a1.825 1.825 0 0 0 .004 2.725c.816.752 2.137.75 2.95-.003ZM9.176 26l7.09 7.68c.617.67 1.734.232 1.734-.678v-26c0-.91-1.117-1.347-1.735-.678L9.18 14H4.982a.993.993 0 0 0-.982.982v10.036c0 .526.44.982.982.982h4.194Z"/></symbol><symbol xmlns="http://www.w3.org/2000/svg" viewBox="0 0 40 40" id="avolume-low"><path d="M25.56 25.43c1.55-1.434 2.437-3.376 2.437-5.443 0-2.053-.876-3.983-2.406-5.415-.81-.757-2.13-.765-2.95-.017a1.825 1.825 0 0 0-.02 2.725c.768.718 1.204 1.678 1.204 2.707 0 1.037-.442 2.003-1.219 2.722a1.825 1.825 0 0 0 .004 2.726c.816.751 2.137.75 2.95-.004ZM9.175 25.997l7.088 7.68c.618.668 1.735.231 1.735-.679V7.002c0-.91-1.117-1.347-1.735-.678L9.18 13.999H4.982A.992.992 0 0 0 4 14.98v10.034c0 .526.44.982.982.982h4.193Z"/></symbol><symbol xmlns="http://www.w3.org/2000/svg" viewBox="0 0 40 40" id="avolume-mid"><path d="M28.479 28.492A11.966 11.966 0 0 0 32 20c0-3.21-1.268-6.223-3.485-8.455a2 2 0 1 0-2.838 2.818A7.966 7.966 0 0 1 28 20a7.967 7.967 0 0 1-2.348 5.661 2 2 0 1 0 2.827 2.831ZM9.176 26l7.09 7.68c.617.67 1.734.232 1.734-.678v-26c0-.91-1.117-1.347-1.735-.678L9.18 14H4.982a.993.993 0 0 0-.982.982v10.036c0 .526.44.982.982.982h4.194Z"/></symbol><symbol xmlns="http://www.w3.org/2000/svg" viewBox="0 0 40 40" id="avolume-mute"><path fill-rule="evenodd" clip-rule="evenodd" d="m30 22.828-2.586 2.586a2 2 0 1 1-2.828-2.828L27.172 20l-2.586-2.586a2 2 0 1 1 2.828-2.828L30 17.172l2.586-2.586a2 2 0 1 1 2.828 2.828L32.828 20l2.586 2.586a2 2 0 1 1-2.828 2.828L30 22.828Z"/><path d="m9.176 26 7.09 7.68c.617.67 1.734.232 1.734-.678v-26c0-.91-1.117-1.347-1.735-.678L9.18 14H4.982a.993.993 0 0 0-.982.982v10.036c0 .526.44.982.982.982h4.194Z"/></symbol><symbol xmlns="http://www.w3.org/2000/svg" viewBox="0 0 28 28" id="acorrect"><g filter="url(#afilter0_ddd_2035_8322)"><path fill-rule="evenodd" clip-rule="evenodd" d="M15.689 4.058a5.098 5.098 0 0 1 7.337 0 5.258 5.258 0 0 1 0 7.302c-1.481 1.526-3.611 4.62-6.336 9.497-1.877 3.359-6.604 3.565-8.744.34-.89-1.342-1.729-2.26-2.477-2.854-2.224-1.767-2.608-4.995-.926-7.244 1.594-2.133 4.52-2.687 6.754-1.318 1.545-2.37 3.005-4.294 4.392-5.723Zm-2.097 7.698c1.565-2.43 2.977-4.297 4.25-5.609a2.098 2.098 0 0 1 3.03 0 2.257 2.257 0 0 1 0 3.124c-1.772 1.827-4.06 5.216-6.8 10.122a2.11 2.11 0 0 1-3.626.145c-1.012-1.525-2.053-2.704-3.111-3.545-.937-.744-1.112-2.131-.39-3.098a2.101 2.101 0 0 1 3.006-.401c.692.55 1.36 1.186 2.008 1.909a86.108 86.108 0 0 1 1.633-2.647Z"/></g><path d="M17.842 6.147a2.098 2.098 0 0 1 3.03 0 2.257 2.257 0 0 1 0 3.124c-1.772 1.827-4.06 5.216-6.8 10.122a2.11 2.11 0 0 1-3.626.145c-1.012-1.525-2.053-2.704-3.111-3.545-.937-.744-1.112-2.131-.39-3.098a2.1 2.1 0 0 1 3.006-.401c.692.55 1.36 1.186 2.008 1.909 2.232-3.758 4.181-6.502 5.883-8.256Z"/><defs><filter id="afilter0_ddd_2035_8322" x=".5" y=".5" width="27" height="27" filterUnits="userSpaceOnUse" color-interpolation-filters="sRGB"><feFlood flood-opacity="0" result="BackgroundImageFix"/><feColorMatrix in="SourceAlpha" values="0 0 0 0 0 0 0 0 0 0 0 0 0 0 0 0 0 0 127 0" result="hardAlpha"/><feOffset dy="1"/><feGaussianBlur stdDeviation="1.5"/><feComposite in2="hardAlpha" operator="out"/><feColorMatrix values="0 0 0 0 0 0 0 0 0 0 0 0 0 0 0 0 0 0 0.12 0"/><feBlend in2="BackgroundImageFix" result="effect1_dropShadow_2035_8322"/><feColorMatrix in="SourceAlpha" values="0 0 0 0 0 0 0 0 0 0 0 0 0 0 0 0 0 0 127 0" result="hardAlpha"/><feOffset dy="1"/><feGaussianBlur stdDeviation=".5"/><feComposite in2="hardAlpha" operator="out"/><feColorMatrix values="0 0 0 0 0 0 0 0 0 0 0 0 0 0 0 0 0 0 0.14 0"/><feBlend in2="effect1_dropShadow_2035_8322" result="effect2_dropShadow_2035_8322"/><feColorMatrix in="SourceAlpha" values="0 0 0 0 0 0 0 0 0 0 0 0 0 0 0 0 0 0 127 0" result="hardAlpha"/><feOffset dy="2"/><feGaussianBlur stdDeviation=".5"/><feComposite in2="hardAlpha" operator="out"/><feColorMatrix values="0 0 0 0 0 0 0 0 0 0 0 0 0 0 0 0 0 0 0.2 0"/><feBlend in2="effect2_dropShadow_2035_8322" result="effect3_dropShadow_2035_8322"/><feBlend in="SourceGraphic" in2="effect3_dropShadow_2035_8322" result="shape"/></filter></defs></symbol><symbol xmlns="http://www.w3.org/2000/svg" viewBox="0 0 28 28" id="aincorrect"><g filter="url(#afilter0_ddd_2035_6735)"><path fill-rule="evenodd" clip-rule="evenodd" d="M20.263 14.18c.21.315.376.542.499.691a4.994 4.994 0 0 1-.802 7.131c-2.142 1.667-5.25 1.373-7.027-.697l-.773.751a5.134 5.134 0 0 1-7.138 0 4.992 4.992 0 0 1 0-7.177l2.545-2.473c-.43-.812-.879-1.676-1.35-2.592-1.31-2.545-.21-5.581 2.291-6.797 2.38-1.157 5.31-.317 6.658 2.003l.674-.655 2.09 2.151-3.553 3.454a231.025 231.025 0 0 1-1.752-3.346c-.517-1.004-1.773-1.41-2.806-.909-1.032.502-1.451 1.723-.935 2.727a221.308 221.308 0 0 0 2.395 4.54L7.112 17.03a1.992 1.992 0 0 0 0 2.874c.817.793 2.14.793 2.957 0l3.319-3.226c.67 1.103 1.236 1.943 1.703 2.528l.089.11a2.132 2.132 0 0 0 2.939.317 1.994 1.994 0 0 0 .326-2.856c-.47-.571-1.139-1.6-1.997-3.073l4.44-4.315a1.992 1.992 0 0 0 0-2.874 2.134 2.134 0 0 0-2.958 0l-2.09-2.151a5.134 5.134 0 0 1 7.139 0 4.992 4.992 0 0 1 0 7.177l-2.716 2.639Z"/></g><path d="M16.448 13.705c.858 1.473 1.527 2.502 1.997 3.073a1.994 1.994 0 0 1-.326 2.856 2.132 2.132 0 0 1-2.939-.317c-.484-.588-1.08-1.465-1.792-2.637l-3.319 3.225a2.134 2.134 0 0 1-2.957 0 1.992 1.992 0 0 1 0-2.874l4.167-4.05a221.81 221.81 0 0 1-2.395-4.54c-.516-1.003-.097-2.224.935-2.726 1.033-.502 2.29-.095 2.806.909a239.05 239.05 0 0 0 1.752 3.346l3.553-3.454a2.134 2.134 0 0 1 2.958 0c.816.794.816 2.08 0 2.874l-4.44 4.315Z"/><defs><filter id="afilter0_ddd_2035_6735" x=".5" y=".501" width="27" height="26.999" filterUnits="userSpaceOnUse" color-interpolation-filters="sRGB"><feFlood flood-opacity="0" result="BackgroundImageFix"/><feColorMatrix in="SourceAlpha" values="0 0 0 0 0 0 0 0 0 0 0 0 0 0 0 0 0 0 127 0" result="hardAlpha"/><feOffset dy="1"/><feGaussianBlur stdDeviation="1.5"/><feComposite in2="hardAlpha" operator="out"/><feColorMatrix values="0 0 0 0 0 0 0 0 0 0 0 0 0 0 0 0 0 0 0.12 0"/><feBlend in2="BackgroundImageFix" result="effect1_dropShadow_2035_6735"/><feColorMatrix in="SourceAlpha" values="0 0 0 0 0 0 0 0 0 0 0 0 0 0 0 0 0 0 127 0" result="hardAlpha"/><feOffset dy="1"/><feGaussianBlur stdDeviation=".5"/><feComposite in2="hardAlpha" operator="out"/><feColorMatrix values="0 0 0 0 0 0 0 0 0 0 0 0 0 0 0 0 0 0 0.14 0"/><feBlend in2="effect1_dropShadow_2035_6735" result="effect2_dropShadow_2035_6735"/><feColorMatrix in="SourceAlpha" values="0 0 0 0 0 0 0 0 0 0 0 0 0 0 0 0 0 0 127 0" result="hardAlpha"/><feOffset dy="2"/><feGaussianBlur stdDeviation=".5"/><feComposite in2="hardAlpha" operator="out"/><feColorMatrix values="0 0 0 0 0 0 0 0 0 0 0 0 0 0 0 0 0 0 0.2 0"/><feBlend in2="effect2_dropShadow_2035_6735" result="effect3_dropShadow_2035_6735"/><feBlend in="SourceGraphic" in2="effect3_dropShadow_2035_6735" result="shape"/></filter></defs></symbol><symbol xmlns="http://www.w3.org/2000/svg" viewBox="0 0 28 28" id="ashown-correct"><g filter="url(#afilter0_ddd_2035_8459)"><path fill-rule="evenodd" clip-rule="evenodd" d="M15.689 4.058a5.098 5.098 0 0 1 7.337 0 5.258 5.258 0 0 1 0 7.302c-1.481 1.526-3.611 4.62-6.336 9.497-1.877 3.359-6.604 3.565-8.744.34-.89-1.342-1.729-2.26-2.477-2.854-2.224-1.767-2.608-4.995-.926-7.244 1.594-2.133 4.52-2.687 6.754-1.318 1.545-2.37 3.005-4.294 4.392-5.723Zm-2.097 7.698c1.565-2.43 2.977-4.297 4.25-5.609a2.098 2.098 0 0 1 3.03 0 2.257 2.257 0 0 1 0 3.124c-1.772 1.827-4.06 5.216-6.8 10.122a2.11 2.11 0 0 1-3.626.145c-1.012-1.525-2.053-2.704-3.111-3.545-.937-.744-1.112-2.131-.39-3.098a2.101 2.101 0 0 1 3.006-.401c.692.55 1.36 1.186 2.008 1.909a86.108 86.108 0 0 1 1.633-2.647Z"/></g><path d="M17.842 6.147a2.098 2.098 0 0 1 3.03 0 2.257 2.257 0 0 1 0 3.124c-1.772 1.827-4.06 5.216-6.8 10.122a2.11 2.11 0 0 1-3.626.145c-1.012-1.525-2.053-2.704-3.111-3.545-.937-.744-1.112-2.131-.39-3.098a2.1 2.1 0 0 1 3.006-.401c.692.55 1.36 1.186 2.008 1.909 2.232-3.758 4.181-6.502 5.883-8.256Z"/><defs><filter id="afilter0_ddd_2035_8459" x=".5" y=".5" width="27" height="27" filterUnits="userSpaceOnUse" color-interpolation-filters="sRGB"><feFlood flood-opacity="0" result="BackgroundImageFix"/><feColorMatrix in="SourceAlpha" values="0 0 0 0 0 0 0 0 0 0 0 0 0 0 0 0 0 0 127 0" result="hardAlpha"/><feOffset dy="1"/><feGaussianBlur stdDeviation="1.5"/><feComposite in2="hardAlpha" operator="out"/><feColorMatrix values="0 0 0 0 0 0 0 0 0 0 0 0 0 0 0 0 0 0 0.12 0"/><feBlend in2="BackgroundImageFix" result="effect1_dropShadow_2035_8459"/><feColorMatrix in="SourceAlpha" values="0 0 0 0 0 0 0 0 0 0 0 0 0 0 0 0 0 0 127 0" result="hardAlpha"/><feOffset dy="1"/><feGaussianBlur stdDeviation=".5"/><feComposite in2="hardAlpha" operator="out"/><feColorMatrix values="0 0 0 0 0 0 0 0 0 0 0 0 0 0 0 0 0 0 0.14 0"/><feBlend in2="effect1_dropShadow_2035_8459" result="effect2_dropShadow_2035_8459"/><feColorMatrix in="SourceAlpha" values="0 0 0 0 0 0 0 0 0 0 0 0 0 0 0 0 0 0 127 0" result="hardAlpha"/><feOffset dy="2"/><feGaussianBlur stdDeviation=".5"/><feComposite in2="hardAlpha" operator="out"/><feColorMatrix values="0 0 0 0 0 0 0 0 0 0 0 0 0 0 0 0 0 0 0.2 0"/><feBlend in2="effect2_dropShadow_2035_8459" result="effect3_dropShadow_2035_8459"/><feBlend in="SourceGraphic" in2="effect3_dropShadow_2035_8459" result="shape"/></filter></defs></symbol><symbol xmlns="http://www.w3.org/2000/svg" viewBox="0 0 40 40" id="aFrame9828"><path d="M4 6c0-1.106.894-2 2-2h8c1.106 0 2 .894 2 2v24c0 3.313-2.688 6-6 6-3.313 0-6-2.688-6-6V6Zm13.975 24.619c.019-.206.025-.413.025-.619V13.625l4.712-4.713a2.003 2.003 0 0 1 2.832 0L31.2 14.57c.781.781.781 2.05 0 2.831L17.975 30.619ZM15.425 36l12-12H34c1.106 0 2 .894 2 2v8c0 1.106-.894 2-2 2H15.425ZM12 8H8v4h4V8Zm-4 8v4h4v-4H8Zm2 15.5a1.5 1.5 0 1 0 0-3 1.5 1.5 0 0 0 0 3Z"/></symbol><symbol xmlns="http://www.w3.org/2000/svg" viewBox="0 0 40 40" id="aFrame9769"><path d="M33.5 20v.142c-.021 1.925-1.772 3.233-3.697 3.233h-5.162a2.532 2.532 0 0 0-2.479 3.053c.11.538.343 1.055.57 1.577.321.728.638 1.45.638 2.215 0 1.677-1.14 3.2-2.816 3.27-.185.005-.37.01-.56.01C12.545 33.5 6.5 27.457 6.5 20S12.543 6.5 20 6.5 33.5 12.543 33.5 20Zm-20.25 1.688a1.687 1.687 0 1 0-3.374 0 1.687 1.687 0 0 0 3.374 0Zm0-5.063a1.687 1.687 0 1 0 0-3.374 1.687 1.687 0 0 0 0 3.374Zm8.438-5.063a1.687 1.687 0 1 0-3.375 0 1.687 1.687 0 0 0 3.375 0Zm5.062 5.063a1.687 1.687 0 1 0 0-3.374 1.687 1.687 0 0 0 0 3.374Z"/></symbol><symbol xmlns="http://www.w3.org/2000/svg" viewBox="0 0 40 40" id="aFrame9757"><path d="M18.15 4.372A.605.605 0 0 0 17.594 4h-1.188a.599.599 0 0 0-.556.372l-1.294 3.202c-.2.496-.912.496-1.112 0L12.15 4.372A.605.605 0 0 0 11.594 4H11C9.344 4 8 5.332 8 6.973v12.885H32V6.973C32 5.332 30.656 4 29 4h-6.594a.599.599 0 0 0-.556.372l-1.294 3.202c-.2.496-.912.496-1.112 0L18.15 4.372ZM8 22.124v1.982c0 2.187 1.794 3.965 4 3.965h4v3.964C16 34.222 17.794 36 20 36s4-1.778 4-3.965v-3.964h4c2.206 0 4-1.778 4-3.965v-1.982H8Zm12 8.92c.265 0 .52.105.707.29a.987.987 0 0 1 0 1.402 1.005 1.005 0 0 1-1.414 0 .987.987 0 0 1 0-1.401c.187-.186.442-.29.707-.29Z"/></symbol><symbol xmlns="http://www.w3.org/2000/svg" viewBox="0 0 40 40" id="aFrame9913"><path d="M32.914 30.922c-3.544-2.369-8.139-2.593-13.524-1.049-4.459 1.28-7.632.95-9.817-.569a2.21 2.21 0 1 0-2.522 3.628c3.547 2.466 8.158 2.737 13.558 1.188 4.473-1.283 7.662-.987 9.851.475a2.209 2.209 0 1 0 2.454-3.673ZM17.712 9.503 7.495 19.719c-.261.262-.392.524-.392.917v3.93c0 .786.523 1.31 1.31 1.31h3.929c.393 0 .655-.131.917-.393l10.216-10.217-5.763-5.763ZM27.667 9.24l-3.93-3.929a1.266 1.266 0 0 0-1.833 0L19.546 7.67l5.763 5.763 2.358-2.357a1.266 1.266 0 0 0 0-1.834Z"/></symbol><symbol xmlns="http://www.w3.org/2000/svg" viewBox="0 0 40 40" id="aFrame9848"><path d="m29.664 18.457.706-.707-2.119-2.118-3.881-3.881-2.119-2.12-.706.707-1.413 1.413L7.683 24.2a5.542 5.542 0 0 0-1.387 2.337l-2.213 7.525a1.482 1.482 0 0 0 .382 1.481c.393.388.956.532 1.481.382l7.519-2.213a5.542 5.542 0 0 0 2.337-1.388l12.45-12.45 1.413-1.418ZM14.02 28.982l-.569 1.419c-.25.193-.531.337-.831.43L7.732 32.27l1.438-4.881c.087-.306.237-.588.431-.831l1.419-.569v2c0 .55.45 1 1 1h2v-.006ZM26.689 5.188l-.9.906-1.413 1.413-.712.706 2.118 2.119 3.882 3.881 2.118 2.119.707-.707 1.412-1.412.906-.906a3.998 3.998 0 0 0 0-5.657l-2.456-2.462a3.998 3.998 0 0 0-5.656 0h-.006Zm-2.963 10.5-9 9a1.003 1.003 0 0 1-1.412 0 1.003 1.003 0 0 1 0-1.412l9-9a1.003 1.003 0 0 1 1.412 0 1.003 1.003 0 0 1 0 1.412Z"/></symbol><symbol xmlns="http://www.w3.org/2000/svg" viewBox="0 0 40 40" id="aFrame9841"><path d="M21.842 25.959a5.041 5.041 0 0 0 3.5-2.179l8.422-12.7c.656-.99.49-2.3-.396-3.108a2.54 2.54 0 0 0-3.203-.168l-12.328 9.019a4.829 4.829 0 0 0-2 3.864l6.005 5.271ZM20.821 26.617l-6.041-5.302c-3.115.112-5.61 2.615-5.61 5.682 0 .198.01.397.031.59.094.888-.53 1.848-1.447 1.848h-.25c-.922 0-1.667.726-1.667 1.625s.745 1.625 1.667 1.625h7.5c3.223 0 5.833-2.544 5.833-5.688 0-.127-.005-.253-.01-.38h-.006Z"/></symbol><symbol xmlns="http://www.w3.org/2000/svg" viewBox="0 0 40 40" id="aFrame9850"><path d="M34.192 5.807a5.756 5.756 0 0 0-8.125 0l-.937.937-.82-.812a4.5 4.5 0 0 0-6.361 0l-5.382 5.375a1.5 1.5 0 0 0 2.119 2.119l5.381-5.376a1.494 1.494 0 0 1 2.119 0l.825.82-7.238 7.23 8.125 8.125 10.294-10.293a5.738 5.738 0 0 0 0-8.12v-.005Zm-11.706 19.83-8.125-8.124-4.013 4.012c-3 3-5.05 6.825-5.88 10.988l-.313 1.562c-.1.494.056 1 .412 1.357.356.356.863.506 1.356.412l1.563-.312a21.501 21.501 0 0 0 10.987-5.882l4.013-4.012Z"/></symbol><symbol xmlns="http://www.w3.org/2000/svg" viewBox="0 0 40 40" id="aFrame9851"><g clip-path="url(#aclip0_124_28589)"><path d="M20 36a16 16 0 1 0 0-32 16 16 0 0 0 0 32Z"/></g><defs><clipPath id="aclip0_124_28589"><path transform="translate(4 4)" d="M0 0h32v32H0z"/></clipPath></defs></symbol><symbol xmlns="http://www.w3.org/2000/svg" viewBox="0 0 40 40" id="aFrame9920"><path d="M32 15.5v.127c-.019 1.71-1.575 2.873-3.286 2.873h-4.589a2.25 2.25 0 0 0-2.203 2.714c.098.478.305.938.506 1.402.286.646.567 1.289.567 1.968 0 1.491-1.012 2.846-2.503 2.907-.164.004-.328.009-.497.009C13.372 27.5 8 22.128 8 15.5s5.372-12 12-12 12 5.372 12 12ZM14 17a1.5 1.5 0 1 0-3 0 1.5 1.5 0 0 0 3 0Zm0-4.5a1.5 1.5 0 1 0 0-3 1.5 1.5 0 0 0 0 3ZM21.5 8a1.5 1.5 0 1 0-3 0 1.5 1.5 0 0 0 3 0Zm4.5 4.5a1.5 1.5 0 1 0 0-3 1.5 1.5 0 0 0 0 3ZM31 30.5H9a3 3 0 1 0 0 6h22a3 3 0 1 0 0-6Z"/></symbol><symbol xmlns="http://www.w3.org/2000/svg" viewBox="0 0 40 40" id="aFrame9772"><path d="m11.642 5.027 2.002-1.967 12.045 12.045c.538.539.808 1.206.808 2.002 0 .796-.27 1.463-.808 2.002l-6.672 6.672c-.539.539-1.206.808-2.002.808-.796 0-1.463-.27-2.002-.808L8.341 19.11c-.539-.539-.808-1.206-.808-2.002 0-.796.27-1.463.808-2.002l6.672-6.707-3.371-3.371Zm5.373 5.373-6.708 6.707h13.415L17.015 10.4Zm12.642 16.54a2.705 2.705 0 0 1-1.984-.825 2.705 2.705 0 0 1-.825-1.984c0-.492.146-1.019.439-1.58.293-.563.614-1.09.966-1.58.21-.282.433-.575.667-.879.234-.304.48-.597.737-.878.258.281.504.574.738.878.234.305.456.597.667.878.351.492.673 1.018.966 1.58.292.562.439 1.089.439 1.58 0 .773-.275 1.435-.825 1.985-.55.55-1.212.825-1.985.825ZM31 30.94H9a3 3 0 1 0 0 6h22a3 3 0 0 0 0-6Z"/></symbol><symbol xmlns="http://www.w3.org/2000/svg" viewBox="0 0 40 40" id="aFrame9834"><path d="m17.031 7.897 1.757-2.306a4.038 4.038 0 0 1 7.075 1.287l1.112 3.713a7.174 7.174 0 0 0 4.362 4.662l2.488.931A3.36 3.36 0 0 1 36 19.322c0 1.056-.494 2.05-1.344 2.681L30.45 25.16a5.352 5.352 0 0 0-2.113 4.882l.157 1.418a4.087 4.087 0 0 1-6.613 3.644l-3.462-2.769a4.728 4.728 0 0 0-.907-.575 5.111 5.111 0 0 0-3.187-.456l-5.175.944A3.52 3.52 0 0 1 5 28.784c0-.825.294-1.625.819-2.262l.7-.838a6.04 6.04 0 0 0 .425-7.193L4.55 14.847a3.374 3.374 0 0 1 3.388-5.175l3.206.544a6.112 6.112 0 0 0 5.887-2.32Z"/></symbol><symbol xmlns="http://www.w3.org/2000/svg" viewBox="0 0 40 40" id="aFrame9847"><path d="m25.349 5.822-6.344 6.35-.587-.587a2.003 2.003 0 0 0-2.832 2.831l10 10a2.003 2.003 0 0 0 2.832-2.831l-.588-.588 6.344-6.35a6.232 6.232 0 0 0 0-8.818c-2.438-2.432-6.388-2.438-8.819 0l-.006-.007ZM7.46 24.204A5.005 5.005 0 0 0 6 27.74v2.65l-1.663 2.494a1.998 1.998 0 0 0 .25 2.525 1.998 1.998 0 0 0 2.525.25l2.494-1.662h2.65c1.325 0 2.6-.526 3.537-1.463l7.544-7.544-2.831-2.831-7.544 7.544a1.004 1.004 0 0 1-.706.293H9.999v-2.256c0-.262.106-.518.293-.706l7.544-7.544-2.831-2.831-7.544 7.544Z"/></symbol><symbol xmlns="http://www.w3.org/2000/svg" viewBox="0 0 40 40" id="aFrame9919"><path d="M8 4.5C8 3.67 8.67 3 9.5 3h6c.83 0 1.5.67 1.5 1.5v18a4.501 4.501 0 0 1-9 0v-18Zm10.481 18.464c.014-.155.019-.31.019-.464V10.219l3.534-3.535a1.502 1.502 0 0 1 2.124 0l4.242 4.243a1.502 1.502 0 0 1 0 2.123l-9.919 9.914ZM16.57 27l9-9H30.5c.83 0 1.5.67 1.5 1.5v6c0 .83-.67 1.5-1.5 1.5H16.569ZM14 6h-3v3h3V6Zm-3 6v3h3v-3h-3Zm1.5 11.625a1.125 1.125 0 1 0 0-2.25 1.125 1.125 0 0 0 0 2.25ZM31 31H9a3 3 0 1 0 0 6h22a3 3 0 1 0 0-6Z"/></symbol><symbol xmlns="http://www.w3.org/2000/svg" viewBox="0 0 40 40" id="aFrame9885"><path d="M6.351 4.263c-.6-.407-1.4-.332-1.912.175a1.489 1.489 0 0 0-.175 1.906l7 10.206-6.225 2.025a1.497 1.497 0 0 0 0 2.85l6.444 2.087L8.175 29.8c-.306.581-.2 1.294.269 1.756a1.5 1.5 0 0 0 1.756.269l6.288-3.306 2.087 6.444a1.497 1.497 0 0 0 2.85 0l2.088-6.444 6.287 3.306c.582.306 1.294.2 1.757-.269a1.5 1.5 0 0 0 .268-1.756l-3.306-6.288 6.444-2.087a1.497 1.497 0 0 0 0-2.85l-6.656-2.156 1.606-4.4a1.5 1.5 0 0 0-.35-1.575 1.5 1.5 0 0 0-1.575-.35l-4.4 1.606-2.163-6.662a1.497 1.497 0 0 0-2.85 0l-2.018 6.224-10.207-7Z"/></symbol><symbol xmlns="http://www.w3.org/2000/svg" viewBox="0 0 40 40" id="aFrame9773"><path fill-rule="evenodd" clip-rule="evenodd" d="M20.006 8.68c3.384-.178 7.13-1.637 9.774.364 2.753 2.084 3.834 6.01 2.88 9.216-.846 2.84-5.102 2.96-7.164 5.176-2.397 2.575-1.968 7.58-5.49 8.423-3.555.851-6.765-2.333-9.222-4.902-2.313-2.42-3.872-5.441-3.78-8.697.09-3.177 1.602-6.29 4.258-8.246 2.419-1.782 5.68-1.174 8.744-1.334Z"/></symbol><symbol xmlns="http://www.w3.org/2000/svg" viewBox="0 0 40 40" id="aFrame9774"><path d="M9.5 30.5c-1-1-1.5-2.214-1.5-3.643 0-1.428.5-2.643 1.5-3.643L23.214 9.5c1-1 2.215-1.5 3.643-1.5 1.429 0 2.643.5 3.643 1.5s1.5 2.214 1.5 3.643c0 1.428-.5 2.643-1.5 3.643L16.786 30.5c-1 1-2.215 1.5-3.643 1.5-1.429 0-2.643-.5-3.643-1.5Z"/></symbol><symbol xmlns="http://www.w3.org/2000/svg" viewBox="0 0 40 40" id="aFrame9826"><path d="m25.349 5.822-6.344 6.35-.587-.587a2.003 2.003 0 0 0-2.832 2.831l10 10a2.003 2.003 0 0 0 2.832-2.831l-.588-.588 6.344-6.35a6.232 6.232 0 0 0 0-8.818c-2.438-2.432-6.388-2.438-8.819 0l-.006-.007ZM7.46 24.204A5.005 5.005 0 0 0 6 27.74v2.65l-1.663 2.494a1.998 1.998 0 0 0 .25 2.525 1.998 1.998 0 0 0 2.525.25l2.494-1.662h2.65c1.325 0 2.6-.526 3.537-1.463l7.544-7.544-2.831-2.831-7.544 7.544a1.004 1.004 0 0 1-.706.293H9.999v-2.256c0-.262.106-.518.293-.706l7.544-7.544-2.831-2.831-7.544 7.544Z"/></symbol><symbol xmlns="http://www.w3.org/2000/svg" viewBox="0 0 40 40" id="aFrame9770"><path d="M11.75 23.25h1.925L24.4 12.56l-.997-.998-.962-.962L11.75 21.325v1.925ZM9 26v-5.844L24.4 4.791A2.715 2.715 0 0 1 26.325 4c.367-.001.722.068 1.066.205.343.138.653.344.928.619l1.89 1.925c.275.252.476.55.602.894.126.343.189.699.189 1.065 0 .344-.063.682-.19 1.014a2.576 2.576 0 0 1-.6.911L14.843 26H9Zm15.4-13.44-.997-.998-.962-.962 1.959 1.96ZM31 30H9a3 3 0 1 0 0 6h22a3 3 0 1 0 0-6Z"/></symbol><symbol xmlns="http://www.w3.org/2000/svg" viewBox="0 0 40 40" id="aFrame9775"><path fill-rule="evenodd" clip-rule="evenodd" d="M12.816 20.682a21.499 21.499 0 0 0-.565 4.81c0 .713.075 1.91.739 3.044a4.582 4.582 0 0 0 1.761 1.717c.811.442 1.631.57 2.313.552 1.217-.032 2.176-.526 2.643-.792a11.37 11.37 0 0 0 1.46-1.015 42.314 42.314 0 0 0 1.737-1.51c.175-.159.336-.304.473-.425.596-.529.832-.689.826-.697 0-.002-.008 0-.02.006a86.672 86.672 0 0 0 2-.926c1.744-.828 2.536-1.204 4.068-1.204a4 4 0 1 0 0-8c-3.507 0-6.182 1.304-8.195 2.285l-.181.089c.134-.34.273-.692.419-1.057.337-.847.704-1.769 1.091-2.801a4.194 4.194 0 0 0 .207-2.228 4.063 4.063 0 0 0-2.694-3.119 4.193 4.193 0 0 0-2.072-.152 4.846 4.846 0 0 0-.827.225c-.575.21-1.181.555-1.483.726l-.018.01-.455.26a26.255 26.255 0 0 1-.722.404c-1.447.366-2.877 1.022-4.003 1.579-.712.351-1.245.63-1.722.88a40.9 40.9 0 0 1-1.553.782 4 4 0 1 0 3.416 7.234c.375-.177.858-.42 1.357-.677Zm2.381-9.737.004-.002-.004.002Zm5.057 14.61c-.001 0-.003-.017-.003-.055a.313.313 0 0 1 .003.055Z"/></symbol><symbol xmlns="http://www.w3.org/2000/svg" viewBox="0 0 40 40" id="aFrame9776"><path d="M21.842 25.959a5.041 5.041 0 0 0 3.5-2.179l8.422-12.7c.656-.99.49-2.3-.396-3.108a2.54 2.54 0 0 0-3.203-.168l-12.328 9.019a4.829 4.829 0 0 0-2 3.864l6.005 5.271ZM20.821 26.617l-6.041-5.302c-3.115.112-5.61 2.615-5.61 5.682 0 .198.01.397.031.59.094.888-.53 1.848-1.447 1.848h-.25c-.922 0-1.667.726-1.667 1.625s.745 1.625 1.667 1.625h7.5c3.223 0 5.833-2.544 5.833-5.688 0-.127-.005-.253-.01-.38h-.006Z"/></symbol><symbol xmlns="http://www.w3.org/2000/svg" viewBox="0 0 40 40" id="asquare-filled"><path stroke-width="2.667" d="M10.667 10.667h18.667v18.667H10.667z"/></symbol><symbol xmlns="http://www.w3.org/2000/svg" viewBox="0 0 40 40" id="atriangle-filled"><path d="m20 12 10.392 18H9.608L20 12Z" stroke-width="2.667"/></symbol><symbol xmlns="http://www.w3.org/2000/svg" viewBox="0 0 40 40" id="asquare-outline"><path stroke-width="2.667" d="M10.667 10.667h18.667v18.667H10.667z"/></symbol><symbol xmlns="http://www.w3.org/2000/svg" viewBox="0 0 40 40" id="ashapes"><path d="M18 22v10.667H7.333V22H18Zm-2.667 2.667H10V30h5.333v-5.333Zm4-18 7.333 12H12l7.333-12Zm0 5.146L16.773 16h5.12l-2.56-4.187Zm7.333 9.52c3.334 0 6 2.667 6 6 0 3.334-2.666 6-6 6-3.333 0-6-2.666-6-6 0-3.333 2.667-6 6-6Zm0 2.667a3.333 3.333 0 1 0 0 6.667 3.333 3.333 0 0 0 0-6.667Z"/></symbol><symbol xmlns="http://www.w3.org/2000/svg" viewBox="0 0 30 30" id="acolor-one"><path d="M14.5 25C10.36 25 7 21.64 7 17.5c0-3.563 5.086-10.246 6.508-12.043.234-.293.582-.457.957-.457h.07c.375 0 .723.164.957.457C16.914 7.254 22 13.937 22 17.5c0 4.14-3.36 7.5-7.5 7.5Zm-3.75-6.875a.627.627 0 0 0-.625-.625.627.627 0 0 0-.625.625 4.373 4.373 0 0 0 4.375 4.375.627.627 0 0 0 .625-.625.627.627 0 0 0-.625-.625 3.124 3.124 0 0 1-3.125-3.125Z"/></symbol><symbol xmlns="http://www.w3.org/2000/svg" viewBox="0 0 30 30" id="acolor-nine"><path fill-rule="evenodd" clip-rule="evenodd" d="M15 24a9 9 0 1 0 0-18 9 9 0 0 0 0 18Zm-4.5-9.188c0-.446-.338-.812-.75-.812s-.75.366-.75.813c0 3.143 2.348 5.687 5.25 5.687.412 0 .75-.366.75-.813 0-.446-.338-.812-.75-.812-2.072 0-3.75-1.818-3.75-4.063Z"/></symbol><symbol xmlns="http://www.w3.org/2000/svg" viewBox="0 0 30 30" id="adraw"><path d="M7.322 22.627c1.99 1.384 4.635 1.583 7.885.65 2.857-.82 5.052-.676 6.626.376a.75.75 0 0 0 .834-1.248c-1.99-1.329-4.628-1.5-7.874-.57-2.853.819-5.042.654-6.615-.44a.75.75 0 0 0-.856 1.232ZM13.581 9.844 7.244 16.18A.738.738 0 0 0 7 16.75v2.438c0 .487.325.812.813.812h2.437a.737.737 0 0 0 .569-.244l6.337-6.337-3.575-3.575ZM19.756 9.681 17.32 7.244a.785.785 0 0 0-1.138 0L14.72 8.706l3.575 3.575 1.462-1.462a.785.785 0 0 0 0-1.138Z"/></symbol><symbol xmlns="http://www.w3.org/2000/svg" viewBox="0 0 30 30" id="aline-dash"><path d="M22.1 22.642a1.003 1.003 0 0 1-.765 0l.19-.462a.497.497 0 0 1-.161-.109l-.672-.672-.354.354-1.343-1.344.354-.353-1.344-1.344-.354.354-1.343-1.344.354-.353-1.344-1.344-.354.354-1.343-1.344.354-.353-1.344-1.344-.354.354-1.343-1.344.354-.353-1.344-1.344-.353.354L8.247 9.66l.354-.353-.672-.672a.497.497 0 0 1-.109-.162l-.462.191a1.004 1.004 0 0 1 0-.765l.462.19a.497.497 0 0 1 .27-.27l-.19-.462c.244-.1.52-.1.765 0l-.191.462c.058.024.113.06.162.109l.672.672.353-.354 1.344 1.344-.354.353 1.344 1.344.353-.354 1.344 1.344-.354.353 1.344 1.344.353-.354 1.344 1.344-.354.353 1.344 1.344.353-.354 1.344 1.344-.354.353 1.344 1.344.353-.354 1.344 1.344-.354.353.672.672a.497.497 0 0 1 .108.162l.463-.191c.1.244.1.52 0 .765l-.462-.19a.498.498 0 0 1-.271.27l.191.462Z" stroke-dasharray="2 2"/></symbol><symbol xmlns="http://www.w3.org/2000/svg" viewBox="0 0 30 30" id="apencil"><g clip-path="url(#aclip0_81_31058)"><path d="M19.035 6.015a3 3 0 0 1 4.099-.135l.143.135.707.707a3 3 0 0 1 .135 4.098l-.134.144-11.212 11.213c-.159.159-.351.28-.563.354l-.162.047-4.453 1.028a1.002 1.002 0 0 1-1.22-1.088l.02-.113 1.027-4.455a1.5 1.5 0 0 1 .29-.598l.11-.125L19.036 6.015Zm-.707 3.535-8.99 8.99-.636 2.758 2.758-.637 8.99-8.99-2.122-2.12Zm3.535-2.121a1 1 0 0 0-1.32-.083l-.093.083-.709.707 2.122 2.121.707-.707a1 1 0 0 0 .084-1.32l-.084-.094-.707-.707Z"/></g><defs><clipPath id="aclip0_81_31058"><path transform="translate(3 3)" d="M0 0h24v24H0z"/></clipPath></defs></symbol><symbol xmlns="http://www.w3.org/2000/svg" viewBox="0 0 30 30" id="aline-solid"><path d="M7.575 8.99A1 1 0 0 1 8.99 7.575L22.424 21.01a1 1 0 0 1-1.414 1.415L7.575 8.99Z"/></symbol><symbol xmlns="http://www.w3.org/2000/svg" viewBox="0 0 30 30" id="aclose"><path fill-rule="evenodd" clip-rule="evenodd" d="m17.14 15 6.417 6.418a1.513 1.513 0 1 1-2.14 2.139L15 17.139l-6.418 6.418a1.513 1.513 0 1 1-2.139-2.14L12.861 15 6.443 8.582a1.513 1.513 0 0 1 2.14-2.139L15 12.861l6.418-6.418a1.513 1.513 0 1 1 2.139 2.14L17.139 15Z"/></symbol><symbol xmlns="http://www.w3.org/2000/svg" viewBox="0 0 30 30" id="ashapes-two"><path fill-rule="evenodd" clip-rule="evenodd" d="M22.333 13h-8.666a.667.667 0 0 0-.667.667v8.666c0 .369.299.667.667.667h8.666a.667.667 0 0 0 .667-.667v-8.666a.667.667 0 0 0-.667-.667Z"/><path fill-rule="evenodd" clip-rule="evenodd" d="M11.667 13c0-.737.596-1.333 1.333-1.333h5.845a6.007 6.007 0 0 0-6.883-4.58c-2.469.417-4.459 2.408-4.875 4.877a6.006 6.006 0 0 0 4.58 6.881V13Z"/></symbol><symbol xmlns="http://www.w3.org/2000/svg" viewBox="0 0 30 30" id="aretangle-filled"><path stroke-width="2" d="M4 9h22v12H4z"/></symbol><symbol xmlns="http://www.w3.org/2000/svg" viewBox="0 0 30 30" id="aretangle-outline"><path stroke-width="2" d="M4 9h22v12H4z"/></symbol><symbol xmlns="http://www.w3.org/2000/svg" viewBox="0 0 30 30" id="asquare-filled"><path stroke-width="2" d="M8 8h14v14H8z"/></symbol><symbol xmlns="http://www.w3.org/2000/svg" viewBox="0 0 30 30" id="aline-arrow"><path d="M7.532 6a1 1 0 0 0-1.031.968l-.29 8.995a1 1 0 0 0 1.998.065l.258-7.996 7.996.258a1 1 0 0 0 .065-2L7.532 6ZM23.23 22.317l-15-16-1.46 1.368 15 16 1.46-1.368Z"/></symbol><symbol xmlns="http://www.w3.org/2000/svg" viewBox="0 0 30 30" id="asquare-outline"><path stroke-width="2" d="M8 8h14v14H8z"/></symbol><symbol xmlns="http://www.w3.org/2000/svg" viewBox="0 0 30 30" id="astamp-four"><path d="M20.786 7.929h1.285v1.285h-1.285V7.93ZM20.143 6c-.711 0-1.286.575-1.286 1.286h-7.714c0-.711-.575-1.286-1.286-1.286H7.286C6.575 6 6 6.575 6 7.286v2.571c0 .711.575 1.286 1.286 1.286v7.714c-.711 0-1.286.575-1.286 1.286v2.571C6 23.425 6.575 24 7.286 24h2.571c.711 0 1.286-.575 1.286-1.286h7.714c0 .711.575 1.286 1.286 1.286h2.571c.711 0 1.286-.575 1.286-1.286v-2.571c0-.711-.575-1.286-1.286-1.286v-7.714c.711 0 1.286-.575 1.286-1.286V7.286C24 6.575 23.425 6 22.714 6h-2.571ZM9.857 11.143c.711 0 1.286-.575 1.286-1.286h7.714c0 .711.575 1.286 1.286 1.286v7.714c-.711 0-1.286.575-1.286 1.286h-7.714c0-.711-.575-1.286-1.286-1.286v-7.714ZM7.93 20.786h1.285v1.285H7.93v-1.285Zm12.857 1.285v-1.285h1.285v1.285h-1.285ZM7.929 9.214V7.93h1.285v1.285H7.93Z"/></symbol><symbol xmlns="http://www.w3.org/2000/svg" viewBox="0 0 30 30" id="astroke-one"><circle cx="15" cy="15" r="2"/></symbol><symbol xmlns="http://www.w3.org/2000/svg" viewBox="0 0 30 30" id="ashapes-connector"><path d="M20.225 10.489 10.488 20.2c.083.149.15.31.203.486a1.9 1.9 0 0 1 .078.545c0 .555-.191 1.027-.573 1.416-.383.39-.857.584-1.422.584a1.935 1.935 0 0 1-1.418-.584 1.926 1.926 0 0 1-.587-1.418c0-.567.194-1.041.584-1.424.388-.383.86-.574 1.416-.574.188 0 .37.026.545.078a2.4 2.4 0 0 1 .486.203l9.712-9.737a2.454 2.454 0 0 1-.203-.474 1.776 1.776 0 0 1-.078-.532c0-.567.194-1.042.584-1.425.389-.383.861-.575 1.417-.575.566 0 1.041.191 1.425.574.382.383.574.857.574 1.422 0 .554-.192 1.027-.575 1.418-.384.39-.859.586-1.425.586-.188 0-.365-.026-.532-.078a2.485 2.485 0 0 1-.474-.202Z"/></symbol><symbol xmlns="http://www.w3.org/2000/svg" viewBox="0 0 30 30" id="atext"><path d="M12 0H0v6h2l2-2h6v20l-4 2v2h12v-2l-4-2V4h6l2 2h2V0H12Z"/><path d="M16 10v6h2l2-2h2v10l-2 2v2h8v-2l-2-2V14h2l2 2h2v-6H16Z"/></symbol><symbol xmlns="http://www.w3.org/2000/svg" viewBox="0 0 40 40" id="acalendar"><g clip-path="url(#aclip0_788_4254)"><path d="M36 5h-3.5V2.5C32.5 1.167 31.333 0 30 0s-2.5 1.167-2.5 2.5V5h-15V2.5C12.5 1.167 11.333 0 10 0S7.5 1.167 7.5 2.5V5H4C1.833 5 0 6.667 0 8.667v27.666C0 38.333 1.833 40 4 40h32c2.167 0 4-1.667 4-3.667V8.667C40 6.667 38.167 5 36 5Zm-1 30H5V15h30v20Z"/><path d="M11.333 25a3.667 3.667 0 1 0 0-7.334 3.667 3.667 0 0 0 0 7.334Z"/></g><defs><clipPath id="aclip0_788_4254"><path d="M0 0h40v40H0z"/></clipPath></defs></symbol><symbol xmlns="http://www.w3.org/2000/svg" viewBox="0 0 40 30" id="aprint"><path fill-rule="evenodd" clip-rule="evenodd" d="M31.667 0H8.333C3.667 0 0 3.667 0 8.333V20c0 1 .667 1.667 1.667 1.667H7.5v6.666c0 1 .667 1.667 1.667 1.667h21.666c1 0 1.667-.667 1.667-1.667v-6.666h5.833C39.333 21.667 40 21 40 20V8.333C40 3.667 36.333 0 31.667 0ZM27.5 25h-15V15h15v10Zm0-16.667c0 1.334 1.167 2.5 2.5 2.5s2.5-1.166 2.5-2.5c0-1.333-1.167-2.5-2.5-2.5S27.5 7 27.5 8.333Z"/></symbol><symbol xmlns="http://www.w3.org/2000/svg" viewBox="0 0 30 30" id="astamp-three"><path d="M13.88 23.168v-7.535L7.158 11.81v7.535l6.722 3.823Zm2.24 0 6.723-3.823V11.81l-6.722 3.822v7.536ZM15 13.735l6.639-3.768L15 6.2 8.362 9.967 15 13.735ZM6.037 21.27a2.208 2.208 0 0 1-.826-.797 2.113 2.113 0 0 1-.294-1.1v-8.746c0-.403.098-.77.294-1.1.196-.33.472-.595.826-.797l7.843-4.428a2.234 2.234 0 0 1 2.24 0l7.843 4.428c.355.202.63.467.827.797.196.33.294.697.294 1.1v8.745c0 .404-.098.77-.294 1.1-.197.33-.472.596-.827.798l-7.842 4.428a2.234 2.234 0 0 1-2.241 0L6.037 21.27Z"/></symbol><symbol xmlns="http://www.w3.org/2000/svg" viewBox="0 0 30 30" id="atriangle-filled"><path d="m15 9 7.794 13.5H7.206L15 9Z" stroke-width="2"/></symbol><symbol xmlns="http://www.w3.org/2000/svg" viewBox="0 0 30 30" id="astamp-one"><path d="m13.145 7.434 1.097-1.442a2.524 2.524 0 0 1 4.422.805l.695 2.321a4.484 4.484 0 0 0 2.727 2.915l1.555.582A2.1 2.1 0 0 1 25 14.576c0 .66-.309 1.282-.84 1.676l-2.629 1.973a3.346 3.346 0 0 0-1.32 3.052l.098.886a2.555 2.555 0 0 1-4.133 2.278l-2.164-1.73a3.194 3.194 0 0 0-2.559-.645l-3.234.59a2.2 2.2 0 0 1-2.082-3.579l.437-.524a3.776 3.776 0 0 0 .266-4.497L5.344 11.78A2.109 2.109 0 0 1 7.46 8.544l2.004.34a3.82 3.82 0 0 0 3.68-1.45Z"/></symbol><symbol xmlns="http://www.w3.org/2000/svg" viewBox="0 0 30 30" id="astroke-three"><circle cx="15" cy="15" r="6"/></symbol><symbol xmlns="http://www.w3.org/2000/svg" viewBox="0 0 30 30" id="astamp-seven"><path d="M8 24c-.55 0-1.02-.196-1.412-.587A1.926 1.926 0 0 1 6 22v-6h2v6h6v2H8Zm8 0v-2h6v-6h2v6c0 .55-.196 1.02-.587 1.413A1.926 1.926 0 0 1 22 24h-6Zm-7-4 3-4 2.25 3 3-4L21 20H9Zm-3-6V8c0-.55.196-1.02.588-1.412A1.926 1.926 0 0 1 8 6h6v2H8v6H6Zm16 0V8h-6V6h6c.55 0 1.02.196 1.413.588.391.391.587.862.587 1.412v6h-2Zm-3.5-1c-.433 0-.792-.142-1.075-.425-.283-.283-.425-.642-.425-1.075 0-.433.142-.792.425-1.075.283-.283.642-.425 1.075-.425.433 0 .792.142 1.075.425.283.283.425.642.425 1.075 0 .433-.142.792-.425 1.075-.283.283-.642.425-1.075.425Z"/></symbol><symbol xmlns="http://www.w3.org/2000/svg" viewBox="0 0 30 30" id="astamp-five"><path fill-rule="evenodd" clip-rule="evenodd" d="M7 5.4a4 4 0 0 0-4 4v11.2a4 4 0 0 0 4 4h11.2a4 4 0 0 0 4-4V9.4a4 4 0 0 0-4-4H7Zm3.023 5c.956 0 1.874.455 2.475 1.17h.005a3.274 3.274 0 0 1 2.474-1.17c1.696 0 3.023 1.356 3.023 3.087 0 2.117-1.868 3.848-4.7 6.472l-.002.002-.244.226a.827.827 0 0 1-1.108 0l-.244-.226C8.869 17.339 7 15.607 7 13.487c0-1.731 1.327-3.087 3.023-3.087Z"/><path d="M23.8 10.4H25a2 2 0 0 1 2 2V18a2 2 0 0 1-2 2h-1.2v-9.6Z"/></symbol><symbol xmlns="http://www.w3.org/2000/svg" viewBox="0 0 30 30" id="astamp-six"><path d="M17.95 17.478c1.368 0 2.53-.472 3.485-1.417.955-.945 1.483-2.082 1.583-3.409-1.367 0-2.538.473-3.514 1.418-.975.945-1.493 2.081-1.553 3.408Zm0 0c-.06-1.327-.577-2.463-1.553-3.408-.975-.945-2.146-1.418-3.514-1.418.1 1.328.629 2.464 1.584 3.409.955.945 2.116 1.417 3.484 1.417Zm0-3.62c.343 0 .63-.115.86-.346.232-.231.347-.518.347-.86v-.301l.302.12c.302.121.608.151.92.09.312-.06.548-.23.709-.512a1.36 1.36 0 0 0 .18-.965c-.06-.342-.26-.583-.602-.724l-.302-.12.302-.121c.341-.141.537-.388.588-.74a1.449 1.449 0 0 0-.166-.95c-.181-.301-.422-.477-.724-.527a1.661 1.661 0 0 0-.905.105l-.302.12v-.3c0-.343-.115-.63-.346-.86a1.168 1.168 0 0 0-.86-.347c-.342 0-.629.115-.86.346a1.167 1.167 0 0 0-.347.86v.302l-.301-.12a1.661 1.661 0 0 0-.905-.106c-.302.05-.543.226-.724.527-.161.282-.216.599-.166.95.05.352.246.599.588.74l.302.12-.302.12c-.342.142-.543.383-.603.725-.06.342 0 .663.18.965.162.282.398.453.71.513.311.06.618.03.92-.09l.301-.121v.301c0 .342.116.629.347.86.231.231.518.347.86.347Zm0-2.412c-.341 0-.628-.116-.859-.347a1.167 1.167 0 0 1-.347-.86c0-.342.116-.628.347-.86.231-.23.518-.346.86-.346.342 0 .628.115.86.347.23.23.346.517.346.86 0 .341-.115.628-.346.859a1.168 1.168 0 0 1-.86.347ZM15.9 23.51h6.606c-.121.483-.362.9-.724 1.252a2.212 2.212 0 0 1-1.328.618L7.303 26.98a2.397 2.397 0 0 1-1.795-.483 2.268 2.268 0 0 1-.92-1.598L3.02 11.687a2.318 2.318 0 0 1 .497-1.78c.413-.522.95-.824 1.614-.904l1.358-.151v2.413l-1.086.12 1.629 13.212 8.868-1.086Zm-4.585-2.413a2.324 2.324 0 0 1-1.704-.709 2.324 2.324 0 0 1-.71-1.704V5.413c0-.664.237-1.232.71-1.704A2.324 2.324 0 0 1 11.315 3h13.272c.663 0 1.232.236 1.704.709.473.472.709 1.04.709 1.704v13.272c0 .664-.236 1.232-.709 1.704a2.323 2.323 0 0 1-1.704.709H11.315Zm0-2.413h13.272V5.413H11.315v13.272Z"/></symbol><symbol xmlns="http://www.w3.org/2000/svg" viewBox="0 0 30 30" id="astroke-two"><circle cx="15" cy="15" r="4"/></symbol><symbol xmlns="http://www.w3.org/2000/svg" viewBox="0 0 30 30" id="astamp-two"><path d="M23.991 15.859A.747.747 0 0 0 24 15.75v-4.5A5.256 5.256 0 0 0 18.75 6h-7.5A5.256 5.256 0 0 0 6 11.25v7.5A5.256 5.256 0 0 0 11.25 24h4.5a.761.761 0 0 0 .109-.009c.007 0 .013-.002.02-.003a.75.75 0 0 0 .104-.026h.004c2.46-.82 7.155-5.515 7.975-7.975v-.004a.75.75 0 0 0 .026-.104l.003-.02ZM7.5 18.75v-7.5a3.754 3.754 0 0 1 3.75-3.75h7.5a3.754 3.754 0 0 1 3.75 3.75V15h-2.25A5.256 5.256 0 0 0 15 20.25v2.25h-3.75a3.754 3.754 0 0 1-3.75-3.75Zm9 3.294V20.25a3.754 3.754 0 0 1 3.75-3.75h1.794c-1.14 1.828-3.716 4.404-5.544 5.544Z"/><path fill-rule="evenodd" clip-rule="evenodd" d="M24 15.75a.747.747 0 0 1-.009.109v.003l-.003.017a.75.75 0 0 1-.026.104v.004c-.82 2.46-5.515 7.155-7.975 7.975h-.004a.75.75 0 0 1-.104.026l-.015.003a.761.761 0 0 1-.114.01h-4.5A5.256 5.256 0 0 1 6 18.749v-7.5A5.256 5.256 0 0 1 11.25 6h7.5A5.256 5.256 0 0 1 24 11.25v4.5Zm-8.065 8.735c-.06.01-.12.015-.181.015H11.25a5.757 5.757 0 0 1-5.75-5.75v-7.5a5.757 5.757 0 0 1 5.75-5.75h7.5a5.757 5.757 0 0 1 5.75 5.75v4.504c0 .06-.005.119-.014.178m-8.551 8.553h.007a1.244 1.244 0 0 0 .18-.041m8.359-8.48.005-.032-.005.032Zm-.038.158c.016-.052.029-.104.038-.158l-.038.158Zm-.006.02.001-.005-.001.005ZM15 20.25A5.256 5.256 0 0 1 20.25 15h2.25v-3.75a3.754 3.754 0 0 0-3.75-3.75h-7.5a3.754 3.754 0 0 0-3.75 3.75v7.5a3.754 3.754 0 0 0 3.75 3.75H15v-2.25ZM14.5 22v-1.75a5.757 5.757 0 0 1 5.75-5.75H22v-3.25A3.254 3.254 0 0 0 18.75 8h-7.5A3.254 3.254 0 0 0 8 11.25v7.5A3.254 3.254 0 0 0 11.25 22h3.25Zm2 .044c.161-.1.328-.212.5-.334 1.6-1.133 3.577-3.11 4.71-4.71.122-.172.234-.339.334-.5H20.25a3.754 3.754 0 0 0-3.75 3.75v1.794Zm.5-.953a21.158 21.158 0 0 0 2.177-1.914A21.158 21.158 0 0 0 21.09 17h-.84A3.254 3.254 0 0 0 17 20.25v.841Z"/></symbol><symbol xmlns="http://www.w3.org/2000/svg" viewBox="0 0 30 30" id="atriange-outline"><path d="m15 9 7.794 13.5H7.206L15 9Z" stroke-width="2"/></symbol><symbol xmlns="http://www.w3.org/2000/svg" viewBox="0 0 30 30" id="aimage"><path d="M18.934 14.667 24 21.333H8l4-5.2 2.8 3.6 3.867-5.066h.267Zm-7.6 0c1.066 0 2-.934 2-2 0-1.067-.934-2-2-2-1.067 0-2 .933-2 2 0 1.066.933 2 2 2Zm18-6.667v16c0 1.467-1.2 2.667-2.667 2.667H5.334A2.675 2.675 0 0 1 2.667 24V8c0-1.467 1.2-2.667 2.667-2.667h21.333c1.467 0 2.667 1.2 2.667 2.667Zm-2.667 3.733V8H5.334v16h21.333V11.733Z"/></symbol><symbol xmlns="http://www.w3.org/2000/svg" viewBox="0 0 46 46" id="aclock"><path d="M18 36C8 36 0 28 0 18S8 0 18 0s18 8 18 18-8 18-18 18Zm0-32C10.2 4 4 10.2 4 18s6.2 14 14 14 14-6.2 14-14S25.8 4 18 4Z"/><path d="M26 20h-8c-1.2 0-2-.8-2-2v-8c0-1.2.8-2 2-2s2 .8 2 2v6h6c1.2 0 2 .8 2 2s-.8 2-2 2Z"/></symbol></defs></symbol></svg>