<svg xmlns="http://www.w3.org/2000/svg" xmlns:xlink="http://www.w3.org/1999/xlink"><symbol fill="none" viewBox="0 0 40 40" id="add" xmlns="http://www.w3.org/2000/svg"><path fill="var(--connect__icon-fill-color, #2d2d2d)" d="M18.278 21.055h-8.89c-.393 0-.722-.133-.989-.4A1.352 1.352 0 0 1 8 19.662c0-.395.133-.724.4-.988a1.35 1.35 0 0 1 .989-.396h8.889v-8.89c0-.393.133-.722.4-.989.268-.266.599-.399.994-.399.394 0 .724.133.988.4.264.266.395.595.395.989v8.889h8.89c.393 0 .723.133.99.4.265.268.398.599.398.994 0 .394-.133.724-.399.988a1.35 1.35 0 0 1-.99.395h-8.889v8.89c0 .393-.133.723-.4.99-.267.265-.598.398-.993.398s-.724-.133-.988-.399a1.35 1.35 0 0 1-.396-.99v-8.889Z"/></symbol><symbol fill="none" viewBox="0 0 40 40" id="arrowDown" xmlns="http://www.w3.org/2000/svg"><path fill="var(--connect__icon-fill-color, #2d2d2d)" d="M9.414 14.586a2 2 0 1 0-2.828 2.828l12 12a2 2 0 0 0 2.828 0l12-12a2 2 0 1 0-2.828-2.828L20 25.172 9.414 14.586Z"/></symbol><symbol fill="none" viewBox="0 0 40 40" id="arrowUp" xmlns="http://www.w3.org/2000/svg"><path fill="var(--connect__icon-fill-color, #2d2d2d)" d="M9.414 25.414a2 2 0 1 1-2.828-2.828l12-12a2 2 0 0 1 2.828 0l12 12a2 2 0 1 1-2.828 2.828L20 14.828 9.414 25.414Z"/></symbol><symbol fill="none" viewBox="0 0 40 40" id="check" xmlns="http://www.w3.org/2000/svg"><path fill="var(--connect__icon-fill-color, #2d2d2d)" d="m15.813 26.208 14.792-14.791a1.37 1.37 0 0 1 .99-.417c.377 0 .705.14.983.418.277.279.416.61.416.993s-.139.714-.416.992L16.786 29.207a1.333 1.333 0 0 1-.973.417c-.37 0-.694-.139-.972-.417l-7.444-7.444A1.29 1.29 0 0 1 7 20.77a1.43 1.43 0 0 1 .44-.992c.278-.278.609-.417.992-.417s.714.139.992.416l6.388 6.431Z"/></symbol><symbol fill="none" viewBox="0 0 40 40" id="close" xmlns="http://www.w3.org/2000/svg"><path fill="var(--connect__icon-fill-color, #2d2d2d)" d="m19.903 20.848-8.555 8.555a1.325 1.325 0 0 1-.973.403c-.38 0-.703-.134-.972-.403A1.325 1.325 0 0 1 9 28.43c0-.38.134-.704.403-.973l8.555-8.555-8.555-8.555A1.325 1.325 0 0 1 9 9.374c0-.38.134-.703.403-.972S9.996 8 10.375 8c.38 0 .704.134.973.403l8.555 8.555 8.555-8.555c.269-.269.593-.403.973-.403s.703.134.972.403.403.593.403.972c0 .38-.134.704-.403.973l-8.555 8.555 8.555 8.555c.269.269.403.593.403.973s-.134.703-.403.972a1.325 1.325 0 0 1-.972.403c-.38 0-.704-.134-.973-.403l-8.555-8.555Z"/></symbol><symbol fill="none" viewBox="0 0 40 40" id="collapse" xmlns="http://www.w3.org/2000/svg"><path fill="var(--connect__icon-fill-color, #2d2d2d)" fill-rule="evenodd" d="M6.5 23.429a1.5 1.5 0 0 1 1.5-1.5h8.571a1.5 1.5 0 0 1 1.5 1.5V32a1.5 1.5 0 1 1-3 0v-7.071H8a1.5 1.5 0 0 1-1.5-1.5Z" clip-rule="evenodd"/><path fill="var(--connect__icon-fill-color, #2d2d2d)" fill-rule="evenodd" d="M17.632 22.368a1.5 1.5 0 0 1 0 2.121l-8.571 8.572a1.5 1.5 0 0 1-2.122-2.122l8.572-8.571a1.5 1.5 0 0 1 2.121 0ZM23.429 6.5a1.5 1.5 0 0 1 1.5 1.5v7.071H32a1.5 1.5 0 0 1 0 3h-8.571a1.5 1.5 0 0 1-1.5-1.5V8a1.5 1.5 0 0 1 1.5-1.5Z" clip-rule="evenodd"/><path fill="var(--connect__icon-fill-color, #2d2d2d)" fill-rule="evenodd" d="M33.06 6.94a1.5 1.5 0 0 1 0 2.12l-8.57 8.572a1.5 1.5 0 1 1-2.122-2.121l8.571-8.572a1.5 1.5 0 0 1 2.122 0Z" clip-rule="evenodd"/></symbol><symbol fill="none" viewBox="0 0 30 30" id="color" xmlns="http://www.w3.org/2000/svg"><path fill="var(--connect__icon-fill-color, #2d2d2d)" d="M14.5 25C10.36 25 7 21.64 7 17.5c0-3.563 5.086-10.246 6.508-12.043.234-.293.582-.457.957-.457h.07c.375 0 .723.164.957.457C16.914 7.254 22 13.937 22 17.5c0 4.14-3.36 7.5-7.5 7.5Zm-3.75-6.875a.627.627 0 0 0-.625-.625.627.627 0 0 0-.625.625 4.373 4.373 0 0 0 4.375 4.375.627.627 0 0 0 .625-.625.627.627 0 0 0-.625-.625 3.124 3.124 0 0 1-3.125-3.125Z"/></symbol><symbol fill="none" viewBox="0 0 30 30" id="counter" xmlns="http://www.w3.org/2000/svg"><path fill="var(--connect__icon-fill-color, #2d2d2d)" fill-rule="evenodd" d="M15 4C8.925 4 4 8.925 4 15s4.925 11 11 11 11-4.925 11-11S21.075 4 15 4Zm5.496 11.23c0 .545.412.992.917.992.504 0 .916-.447.916-.993 0-3.842-2.87-6.951-6.417-6.951-.504 0-.916.447-.916.993s.412.993.916.993c2.533 0 4.584 2.222 4.584 4.965Z" clip-rule="evenodd"/></symbol><symbol fill="none" viewBox="0 0 40 40" id="desmos" xmlns="http://www.w3.org/2000/svg"><path fill="var(--connect__icon-fill-color, #2d2d2d)" fill-rule="evenodd" d="M10.98 3C8.786 3 7 4.842 7 7.08v25.84C7 35.158 8.8 37 10.98 37h18.942c2.195 0 3.98-1.842 3.98-4.08V7.08c0-2.238-1.799-4.08-3.98-4.08H10.98Zm.794 3.23h17.368c.879 0 1.616.75 1.616 1.657v4.846c0 .906-.737 1.657-1.616 1.657H11.774c-.878 0-1.615-.75-1.615-1.658V7.888c0-.907.737-1.658 1.615-1.658Zm.794 9.69c1.317 0 2.408 1.12 2.408 2.465 0 1.346-1.091 2.465-2.409 2.465-1.317 0-2.408-1.12-2.408-2.465 0-1.346 1.091-2.465 2.409-2.465Zm7.89 0c1.318 0 2.409 1.12 2.409 2.465 0 1.346-1.091 2.465-2.409 2.465-1.317 0-2.408-1.12-2.408-2.465 0-1.346 1.09-2.465 2.408-2.465Zm7.891 0c1.318 0 2.409 1.12 2.409 2.465 0 1.346-1.091 2.465-2.409 2.465-1.317 0-2.408-1.12-2.408-2.465 0-1.346 1.09-2.465 2.408-2.465Zm-15.781 6.46c1.317 0 2.408 1.12 2.408 2.465 0 1.346-1.091 2.465-2.409 2.465-1.317 0-2.408-1.12-2.408-2.465 0-1.346 1.091-2.465 2.409-2.465Zm7.89 0c1.318 0 2.409 1.12 2.409 2.465 0 1.346-1.091 2.465-2.409 2.465-1.317 0-2.408-1.12-2.408-2.465 0-1.346 1.09-2.465 2.408-2.465Zm7.891 0c1.318 0 2.409 1.12 2.409 2.465v6.46c0 1.36-1.091 2.465-2.409 2.465-1.317 0-2.408-1.12-2.408-2.465v-6.46c0-1.36 1.09-2.465 2.408-2.465Zm-15.781 6.46c1.317 0 2.408 1.12 2.408 2.465 0 1.346-1.091 2.465-2.409 2.465-1.317 0-2.408-1.12-2.408-2.465 0-1.346 1.091-2.465 2.409-2.465Zm7.89 0c1.318 0 2.409 1.12 2.409 2.465 0 1.346-1.091 2.465-2.409 2.465-1.317 0-2.408-1.12-2.408-2.465 0-1.346 1.09-2.465 2.408-2.465Z" clip-rule="evenodd"/><path fill="var(--connect__icon-fill-color, #2d2d2d)" fill-rule="evenodd" d="M18.98 7.924a.75.75 0 0 1 .096 1.056l-2.5 3a.75.75 0 0 1-1.106.05l-1.353-1.353-1.493 2.239a.75.75 0 1 1-1.248-.832l2-3a.75.75 0 0 1 1.154-.114l1.42 1.419 1.974-2.37a.75.75 0 0 1 1.056-.095Z" clip-rule="evenodd"/></symbol><symbol fill="none" viewBox="0 0 30 30" id="drawSizeLg" xmlns="http://www.w3.org/2000/svg"><circle cx="15" cy="15" r="6" fill="var(--connect__icon-fill-color, #2d2d2d)"/></symbol><symbol fill="none" viewBox="0 0 30 30" id="drawSizeMd" xmlns="http://www.w3.org/2000/svg"><circle cx="15" cy="15" r="4" fill="var(--connect__icon-fill-color, #2d2d2d)"/></symbol><symbol fill="none" viewBox="0 0 30 30" id="drawSizeXs" xmlns="http://www.w3.org/2000/svg"><circle cx="15" cy="15" r="2" fill="var(--connect__icon-fill-color, #2d2d2d)"/></symbol><symbol fill="none" viewBox="0 0 30 30" id="drawToolOutline" xmlns="http://www.w3.org/2000/svg"><path fill="var(--connect__icon-fill-color, #2d2d2d)" fill-rule="evenodd" d="M26.639 25.4c-3.068-2.05-7.112-2.295-12.018-.887-4.245 1.217-7.439.954-9.711-.626a1.375 1.375 0 0 0-1.57 2.258c3.07 2.135 7.124 2.42 12.04 1.011 4.252-1.22 7.457-.989 9.731.53A1.375 1.375 0 0 0 26.64 25.4Z" clip-rule="evenodd"/><path fill="var(--connect__icon-fill-color, #2d2d2d)" d="m6.573 20.515 1.542.196 11.382-8.81-1.333-1.732-11.397 8.823-.194 1.523ZM5.041 22.81a1.191 1.191 0 0 1-.825-.466 1.195 1.195 0 0 1-.244-.916l.351-2.756a2.443 2.443 0 0 1 .93-1.63L20.471 5.278c.25-.182.52-.311.808-.388a2.25 2.25 0 0 1 .881-.059c.296.038.578.13.846.279.268.148.495.348.681.6l1.534 1.99c.197.24.33.508.399.806a2.42 2.42 0 0 1-.22 1.72c-.14.262-.336.491-.589.687L9.62 22.674a2.44 2.44 0 0 1-1.812.49l-2.767-.353Zm13.778-11.77-.655-.872 1.333 1.731-.678-.86Z"/></symbol><symbol fill="none" viewBox="0 0 40 40" id="expand" xmlns="http://www.w3.org/2000/svg"><path fill="var(--connect__icon-fill-color, #2d2d2d)" fill-rule="evenodd" d="M8 21.929a1.5 1.5 0 0 1 1.5 1.5V30.5h7.071a1.5 1.5 0 1 1 0 3H8A1.5 1.5 0 0 1 6.5 32v-8.571a1.5 1.5 0 0 1 1.5-1.5Z" clip-rule="evenodd"/><path fill="var(--connect__icon-fill-color, #2d2d2d)" fill-rule="evenodd" d="M17.632 22.368a1.5 1.5 0 0 1 0 2.121l-8.571 8.572a1.5 1.5 0 0 1-2.122-2.122l8.572-8.571a1.5 1.5 0 0 1 2.121 0ZM21.929 8a1.5 1.5 0 0 1 1.5-1.5H32A1.5 1.5 0 0 1 33.5 8v8.571a1.5 1.5 0 1 1-3 0V9.5h-7.071a1.5 1.5 0 0 1-1.5-1.5Z" clip-rule="evenodd"/><path fill="var(--connect__icon-fill-color, #2d2d2d)" fill-rule="evenodd" d="M33.06 6.94a1.5 1.5 0 0 1 0 2.12l-8.57 8.572a1.5 1.5 0 1 1-2.122-2.121l8.571-8.572a1.5 1.5 0 0 1 2.122 0Z" clip-rule="evenodd"/></symbol><symbol fill="none" viewBox="0 0 40 40" id="flag" xmlns="http://www.w3.org/2000/svg"><path fill="var(--connect__icon-fill-color, #2d2d2d)" d="M9.778 19.333v13.945c0 .393-.134.723-.4.99-.268.266-.6.399-.994.399-.395 0-.724-.133-.988-.4a1.35 1.35 0 0 1-.396-.99V4.39c0-.394.133-.723.4-.99.266-.266.595-.399.989-.399h23.153c.255 0 .482.06.68.178.198.118.355.272.47.46.117.19.193.397.228.622.035.225-.004.458-.115.698l-2.777 6.209 2.777 6.208c.111.24.15.474.115.698-.035.225-.11.432-.227.622a1.354 1.354 0 0 1-.47.46 1.299 1.299 0 0 1-.681.178H9.778Zm0-2.778h19.61l-1.916-4.25a2.64 2.64 0 0 1-.25-1.138c0-.405.083-.785.25-1.14l1.917-4.25H9.778v10.778Z"/></symbol><symbol viewBox="0 0 280 234" fill="none" id="gotIt" xmlns="http://www.w3.org/2000/svg"><g clip-path="url(#apa)"><mask id="apb" style="mask-type:luminance" maskUnits="userSpaceOnUse" x="-1" y="0" width="282" height="234"><path d="M280.099 0H-.099v234H280.1V0Z" fill="#fff"/></mask><g mask="url(#apb)"><mask id="apc" style="mask-type:luminance" maskUnits="userSpaceOnUse" x="-1" y="0" width="282" height="176"><path d="M280.099 0H-.099v175.751H280.1V0Z" fill="#fff"/></mask><g mask="url(#apc)"><path d="M207.252 52.431c3.714 2.41 4.793 7.407 2.41 11.162-2.383 3.755-7.325 4.846-11.039 2.437-3.714-2.41-4.793-7.407-2.41-11.162 2.383-3.755 7.325-4.846 11.039-2.437Z" fill="#C16651"/><path d="m176.828 96.26 15.293-24.1 8.965-14.126" stroke="#C16651" stroke-width="11.65" stroke-linejoin="round"/><path d="m157.818 119.781 19.009-23.522 15.294-24.1" stroke="#FFF36A" stroke-width="11.809" stroke-linejoin="round"/><path d="M202.231 69.618c-.324.51-.986.657-1.491.33l-10.087-6.545a1.093 1.093 0 0 1-.325-1.506c.323-.51.986-.657 1.49-.33l10.087 6.544c.471.306.649.997.326 1.507Z" fill="url(#apd)"/><path d="M199.991 72.1a.526.526 0 0 1-.718.16l-10.087-6.545a.539.539 0 0 1-.157-.725.526.526 0 0 1 .718-.159l10.087 6.544a.538.538 0 0 1 .157.726Z" fill="url(#ape)"/><path d="M198.915 71.403a.754.754 0 0 1 1.049-.232.773.773 0 0 1 .229 1.06.754.754 0 0 1-1.049.232.773.773 0 0 1-.229-1.06Z" fill="url(#apf)"/><path d="M197.402 70.421a.754.754 0 0 1 1.049-.232.773.773 0 0 1 .229 1.06.754.754 0 0 1-1.049.232.773.773 0 0 1-.229-1.06Z" fill="url(#apg)"/><path d="M195.922 69.461a.754.754 0 0 1 1.049-.231.773.773 0 0 1 .229 1.06.754.754 0 0 1-1.049.232.773.773 0 0 1-.229-1.06Z" fill="url(#aph)"/><path d="M194.409 68.48a.754.754 0 0 1 1.049-.232.773.773 0 0 1 .229 1.06.754.754 0 0 1-1.049.232.773.773 0 0 1-.229-1.06Z" fill="url(#api)"/><path d="M192.93 67.52a.754.754 0 0 1 1.049-.231.772.772 0 0 1 .229 1.06.754.754 0 0 1-1.049.231.774.774 0 0 1-.229-1.06Z" fill="url(#apj)"/><path d="M191.417 66.538a.754.754 0 0 1 1.049-.231.773.773 0 0 1 .229 1.06.754.754 0 0 1-1.049.232.773.773 0 0 1-.229-1.06Z" fill="url(#apk)"/><path d="M189.937 65.579a.754.754 0 0 1 1.049-.232.773.773 0 0 1 .229 1.06.754.754 0 0 1-1.049.232.773.773 0 0 1-.229-1.06Z" fill="url(#apl)"/><path d="M188.424 64.597a.754.754 0 0 1 1.049-.231.773.773 0 0 1 .229 1.06.754.754 0 0 1-1.049.231.773.773 0 0 1-.229-1.06Z" fill="url(#apm)"/><path d="m196.963 75.301-9.684-6.282" stroke="#D3C208" stroke-width="4.496" stroke-linecap="round" stroke-linejoin="round"/><path d="M70.942 53.969c-3.688 2.45-4.712 7.46-2.288 11.188 2.424 3.728 7.379 4.764 11.066 2.313 3.687-2.45 4.712-7.46 2.288-11.188-2.424-3.728-7.379-4.764-11.066-2.313Z" fill="#C16651"/><path d="m101.826 97.427-15.539-23.9-9.118-14.024" stroke="#C16651" stroke-width="11.65" stroke-linejoin="round"/><path d="m122.192 119.757-20.366-22.33-15.539-23.9" stroke="#FFF36A" stroke-width="11.809" stroke-linejoin="round"/><path d="m81.48 76.722 9.614-6.39" stroke="#D3C208" stroke-width="4.496" stroke-linecap="round" stroke-linejoin="round"/><path d="M153.271 116.024a5.828 5.828 0 0 1 8.263-.841c2.512 2.075 2.884 5.816.832 8.355a5.83 5.83 0 0 1-8.264.841c-2.511-2.075-2.884-5.816-.831-8.355ZM126.532 115.755a5.828 5.828 0 0 0-8.299-.338c-2.384 2.223-2.534 5.98-.334 8.39a5.827 5.827 0 0 0 8.298.338c2.384-2.223 2.534-5.98.335-8.39Z" fill="#FFF36A"/><path d="m133.3 159.608.05 38.292-.082 42.527" stroke="#009CFE" stroke-width="12.473" stroke-linejoin="round"/><path d="M139.536 159.611c-.002 3.464-2.78 6.27-6.205 6.269-3.426-.001-6.201-2.81-6.2-6.274.001-3.463 2.779-6.269 6.205-6.268 3.425.001 6.201 2.81 6.2 6.273Z" fill="#009CFE"/><path d="m146.699 159.608.015 38.292.017 42.527" stroke="#009CFE" stroke-width="12.473" stroke-linejoin="round"/><path d="M152.901 159.608c.002 3.464-2.774 6.272-6.199 6.274-3.426.001-6.204-2.805-6.205-6.269-.002-3.463 2.774-6.272 6.2-6.273 3.425-.001 6.203 2.805 6.204 6.268Z" fill="#009CFE"/><path d="M117.349 134.807c0-5.008-5.486-17.615-8.845-21.296l4.64-4.328 12.355 10.154v15.47h-8.15ZM162.653 134.807c0-5.008 5.325-18.212 8.46-22.091l-4.888-4.038-11.722 10.659v15.47h8.15Z" fill="#FFF36A"/><path d="M140.08 105.239c12.488 0 22.612 3.527 22.612 7.877s-10.124 7.877-22.612 7.877c-12.488 0-22.612-3.527-22.612-7.877s10.124-7.877 22.612-7.877Z" fill="#FFF36A"/><path d="M119.785 146.239h40.47v1.777c0 11.31-9.069 20.479-20.255 20.479-11.186 0-20.255-9.169-20.255-20.479l.04-1.777Z" fill="#009CFE"/><path d="M160.295 155.327h-40.51v-29.083c0-8.927 7.191-16.197 16.02-16.197h8.43c8.829 0 16.02 7.27 16.02 16.197l.04 29.083Z" fill="#FFF7C7"/><path d="M148.31 117.52h-16.58c-4.314 0-7.79-3.515-7.79-7.877s3.476-7.877 7.79-7.877h16.58c4.314 0 7.79 3.515 7.79 7.877s-3.476 7.877-7.79 7.877Z" fill="#54B7FF"/><path d="M126.337 112.631c.72 2.908 8.67 8.094 9.149 9.871.799 3.117-3.436 7.069-.28 6.665 6.073-.808 12.825-6.947 19.017-21.383 0 0-6.113 7.566-13.543 8.616-9.509 1.373-14.343-3.769-14.343-3.769Z" fill="#26A8FF"/><path d="m142.318 158.186 17.618-.031c1.518 0 2.717-1.374 2.717-3.03v-42.21c0-1.131-.799-2.02-1.798-2.02h-4.594l-13.983 9.775v37.516h.04Z" fill="#FFF36A"/><path d="M142.717 120.063c.971 0 1.758.796 1.758 1.778 0 .981-.787 1.777-1.758 1.777a1.768 1.768 0 0 1-1.758-1.777c0-.982.787-1.778 1.758-1.778Z" fill="#FFF36A"/><path d="m142.757 121.841 2.112 10.983M142.757 157.579l-.04 1.737" stroke="#D3C208" stroke-width="2.852" stroke-linecap="round" stroke-linejoin="round"/><path d="M137.243 120.063c.971 0 1.758.796 1.758 1.778 0 .981-.787 1.777-1.758 1.777a1.768 1.768 0 0 1-1.758-1.777c0-.982.787-1.778 1.758-1.778Z" fill="#FFF36A"/><path d="M137.763 156.61a1.57 1.57 0 0 1-1.559 1.576l-16.06-.031c-1.518 0-2.716-1.374-2.716-3.03v-42.21c0-1.131.799-2.02 1.798-2.02h4.594l13.983 9.775v35.94h-.04Z" fill="#FFF36A"/><path d="m137.243 121.841-2.111 10.983" stroke="#D3C208" stroke-width="2.852" stroke-linecap="round" stroke-linejoin="round"/><path d="M140.04 27.624c-14.683 0-27.691 12.417-31.681 30.212-1.955 5.5-1.037 21.556.998 26.53 2.394 7.685 6.464 14.237 11.85 18.969 5.546 4.893 12.05 7.482 18.833 7.482 18.155 0 32.918-18.645 32.918-41.576 0-22.972-14.763-41.617-32.918-41.617Z" fill="#54B7FF"/><path d="M155.123 32.235s-26.853-6.35-37.946 7.078c0 0 7.382-11.244 21.227-12.053 9.856-.525 16.719 4.975 16.719 4.975Z" fill="#26A8FF"/><path d="M140.479 102.162c-15.521 0-28.09-12.74-28.09-28.472V60.424c0-15.732 12.569-28.472 28.09-28.472 15.521 0 28.09 12.74 28.09 28.472V73.69c0 15.732-12.569 28.472-28.09 28.472Z" fill="#C16651"/><path d="M129.51 58.282c5.32 0 9.633 4.372 9.633 9.765 0 5.392-4.313 9.764-9.633 9.764-5.32 0-9.633-4.372-9.633-9.764 0-5.393 4.313-9.764 9.633-9.764Z" fill="#fff"/><path d="M129.51 58.282c5.32 0 9.633 4.372 9.633 9.765 0 5.392-4.313 9.764-9.633 9.764-5.32 0-9.633-4.372-9.633-9.764 0-5.393 4.313-9.764 9.633-9.764Z" stroke="#C16651" stroke-width=".374"/><path d="M151.329 58.282c5.32 0 9.633 4.372 9.633 9.765 0 5.392-4.313 9.764-9.633 9.764-5.32 0-9.633-4.372-9.633-9.764 0-5.393 4.313-9.764 9.633-9.764Z" fill="#fff"/><path d="M151.329 58.282c5.32 0 9.633 4.372 9.633 9.765 0 5.392-4.313 9.764-9.633 9.764-5.32 0-9.633-4.372-9.633-9.764 0-5.393 4.313-9.764 9.633-9.764Z" stroke="#C16651" stroke-width=".374"/></g><mask id="apn" style="mask-type:luminance" maskUnits="userSpaceOnUse" x="119" y="58" width="21" height="20"><path d="M129.51 58.282c5.32 0 9.633 4.372 9.633 9.765 0 5.392-4.313 9.764-9.633 9.764-5.32 0-9.633-4.372-9.633-9.764 0-5.393 4.313-9.765 9.633-9.765Z" fill="#fff"/></mask><g mask="url(#apn)"><mask id="apo" style="mask-type:luminance" maskUnits="userSpaceOnUse" x="-1" y="0" width="282" height="176"><path d="M280.099 0H-.099v175.751H280.1V0Z" fill="#fff"/></mask><g mask="url(#apo)"><path d="M132.293 62.916c2.998 0 5.429 2.464 5.429 5.503 0 3.04-2.431 5.503-5.429 5.503s-5.429-2.464-5.429-5.503c0-3.04 2.431-5.503 5.429-5.503Z" fill="#784B00"/></g></g><mask id="app" style="mask-type:luminance" maskUnits="userSpaceOnUse" x="141" y="58" width="20" height="20"><path d="M151.329 58.282c5.32 0 9.633 4.372 9.633 9.765 0 5.392-4.313 9.764-9.633 9.764-5.32 0-9.633-4.372-9.633-9.764 0-5.393 4.313-9.765 9.633-9.765Z" fill="#fff"/></mask><g mask="url(#app)"><mask id="apq" style="mask-type:luminance" maskUnits="userSpaceOnUse" x="-1" y="0" width="282" height="176"><path d="M280.099 0H-.099v175.751H280.1V0Z" fill="#fff"/></mask><g mask="url(#apq)"><path d="M149.288 62.916c2.998 0 5.429 2.464 5.429 5.503 0 3.04-2.431 5.503-5.429 5.503s-5.429-2.464-5.429-5.503c0-3.04 2.431-5.503 5.429-5.503Z" fill="#784B00"/></g></g><mask id="apr" style="mask-type:luminance" maskUnits="userSpaceOnUse" x="119" y="58" width="21" height="20"><path d="M129.51 58.282c5.32 0 9.633 4.372 9.633 9.765 0 5.392-4.313 9.764-9.633 9.764-5.32 0-9.633-4.372-9.633-9.764 0-5.393 4.313-9.765 9.633-9.765Z" fill="#fff"/></mask><g mask="url(#apr)"><mask id="aps" style="mask-type:luminance" maskUnits="userSpaceOnUse" x="-1" y="0" width="282" height="176"><path d="M280.099 0H-.099v175.751H280.1V0Z" fill="#fff"/></mask><g mask="url(#aps)"><path fill-rule="evenodd" clip-rule="evenodd" d="M163.251 59.22a99.265 99.265 0 0 0-46.796.038c.052-4.39.108-8.783.16-13.172a99.267 99.267 0 0 1 46.796.038c-.052 4.366-.108 8.73-.16 13.096Z" fill="#9A483A"/></g></g><mask id="apt" style="mask-type:luminance" maskUnits="userSpaceOnUse" x="141" y="58" width="20" height="20"><path d="M151.329 58.282c5.32 0 9.633 4.372 9.633 9.765 0 5.392-4.313 9.764-9.633 9.764-5.32 0-9.633-4.372-9.633-9.764 0-5.393 4.313-9.765 9.633-9.765Z" fill="#fff"/></mask><g mask="url(#apt)"><mask id="apu" style="mask-type:luminance" maskUnits="userSpaceOnUse" x="-1" y="0" width="282" height="176"><path d="M280.099 0H-.099v175.751H280.1V0Z" fill="#fff"/></mask><g mask="url(#apu)"><path fill-rule="evenodd" clip-rule="evenodd" d="M163.251 59.22a99.265 99.265 0 0 0-46.796.038c.052-4.39.108-8.783.16-13.172a99.267 99.267 0 0 1 46.796.038c-.052 4.366-.108 8.73-.16 13.096Z" fill="#9A483A"/></g></g><mask id="apv" style="mask-type:luminance" maskUnits="userSpaceOnUse" x="119" y="58" width="21" height="20"><path d="M129.51 58.282c5.32 0 9.633 4.372 9.633 9.765 0 5.392-4.313 9.764-9.633 9.764-5.32 0-9.633-4.372-9.633-9.764 0-5.393 4.313-9.765 9.633-9.765Z" fill="#fff"/></mask><g mask="url(#apv)"><mask id="apw" style="mask-type:luminance" maskUnits="userSpaceOnUse" x="-1" y="0" width="282" height="176"><path d="M280.099 0H-.099v175.751H280.1V0Z" fill="#fff"/></mask><g mask="url(#apw)"><path fill-rule="evenodd" clip-rule="evenodd" d="M163.251 59.22a99.265 99.265 0 0 0-46.796.038c.052-4.39.108-8.783.16-13.172a99.267 99.267 0 0 1 46.796.038c-.052 4.366-.108 8.73-.16 13.096Z" fill="#C16651"/></g></g><mask id="apx" style="mask-type:luminance" maskUnits="userSpaceOnUse" x="141" y="58" width="20" height="20"><path d="M151.329 58.282c5.32 0 9.633 4.372 9.633 9.765 0 5.392-4.313 9.764-9.633 9.764-5.32 0-9.633-4.372-9.633-9.764 0-5.393 4.313-9.765 9.633-9.765Z" fill="#fff"/></mask><g mask="url(#apx)"><mask id="apy" style="mask-type:luminance" maskUnits="userSpaceOnUse" x="-1" y="0" width="282" height="176"><path d="M280.099 0H-.099v175.751H280.1V0Z" fill="#fff"/></mask><g mask="url(#apy)"><path fill-rule="evenodd" clip-rule="evenodd" d="M163.251 59.22a99.265 99.265 0 0 0-46.796.038c.052-4.39.108-8.783.16-13.172a99.267 99.267 0 0 1 46.796.038c-.052 4.366-.108 8.73-.16 13.096Z" fill="#C16651"/></g></g><mask id="apz" style="mask-type:luminance" maskUnits="userSpaceOnUse" x="-1" y="0" width="282" height="176"><path d="M280.099 0H-.099v175.751H280.1V0Z" fill="#fff"/></mask><g mask="url(#apz)"><path d="M151.329 57.906c5.525 0 10.004 4.54 10.004 10.14 0 5.601-4.479 10.141-10.004 10.141-5.525 0-10.004-4.54-10.004-10.14 0-5.6 4.479-10.14 10.004-10.14ZM129.51 57.906c5.525 0 10.004 4.54 10.004 10.14 0 5.601-4.479 10.141-10.004 10.141-5.525 0-10.004-4.54-10.004-10.14 0-5.6 4.479-10.14 10.004-10.14Z" stroke="#C16651" stroke-width=".747"/><path d="m138.932 80.662 5.266-.467c1.892-.169 3.291-1.857 3.124-3.776-.167-1.918-1.833-3.336-3.725-3.167l-5.266.467.601 6.943Z" fill="#9B483B"/><path d="m138.843 80.933 3.848-.771c1.788-.358 3.024-1.889 2.879-3.559-.144-1.673-1.625-2.96-3.447-2.997l-3.922-.083.642 7.41Z" fill="#C16651"/><path d="M138.936 89.804c-3.121-.515-5.236-3.498-4.728-6.661l.078-.489a.73.73 0 0 1 .961-.58c1.054.377 2.976 1.005 4.906 1.325 1.985.327 3.696.335 4.679.297.46-.019.82.395.746.857l-.074.46c-.505 3.162-3.448 5.306-6.568 4.791Z" fill="#000"/><path d="M139.848 89.586c-.289 0-.582-.022-.868-.071-1.996-.331-3.61-1.723-4.263-3.656a4.637 4.637 0 0 1 1.562-.516c.226-.034.452-.049.679-.049 2.293 0 4.278 1.704 4.672 3.984a5.243 5.243 0 0 1-1.782.308Z" fill="red"/><path d="M136.958 85.588c2.07 0 3.87 1.474 4.338 3.494a4.984 4.984 0 0 1-2.271.147c-1.808-.297-3.284-1.516-3.949-3.22a4.453 4.453 0 0 1 1.882-.421Zm0-.587c-.238 0-.479.019-.72.053a4.922 4.922 0 0 0-1.867.67c.605 2.068 2.323 3.712 4.561 4.08a5.635 5.635 0 0 0 3.017-.331c-.004-.026-.004-.056-.008-.083-.36-2.55-2.516-4.389-4.983-4.389Z" fill="#000"/><path d="M137.037 51.192h-13.305c-1.122 0-2.003.894-2.003 2.031s.881 2.031 2.003 2.031h13.305c1.123 0 2.004-.894 2.004-2.031 0-1.097-.881-2.031-2.004-2.031ZM143.842 51.192h13.306c1.122 0 2.003.894 2.003 2.031 0 1.138-.881 2.031-2.003 2.031h-13.306c-1.122 0-2.003-.893-2.003-2.03 0-1.098.921-2.032 2.003-2.032Z" fill="#682B00"/><path d="M176.346 60.305c-.034-2.83-1.389-6.09-2.502-9.03-5.318-14.414-19.116-23.792-34.277-23.607a36.054 36.054 0 0 0-33.088 22.81c-1.396 3.455-1.952 7.021-1.912 10.418" stroke="#FFE6B7" stroke-width="3.806" stroke-linecap="round" stroke-linejoin="round"/><path d="m102.128 84.021 7.182-.087c1.396-.017 2.5-1.163 2.483-2.579l-2.348-9.557 2.121-9.612c-.017-1.415-1.148-2.534-2.544-2.517l-7.182.088c-1.396.017-2.5 1.163-2.483 2.578l.227 19.128c.017 1.456 1.187 2.575 2.544 2.558Z" fill="#FFE6B7"/><path d="m107.354 83.957 1.955-.023c1.397-.017 2.501-1.163 2.484-2.579l-.186-2.222a100.74 100.74 0 0 1-.175-14.72l.134-2.227c-.017-1.415-1.148-2.534-2.544-2.517l-1.955.024.287 24.264Z" fill="#6E3400"/><path d="m106.949 59.775-4.509.055-.011-.97a.275.275 0 0 1 .276-.287l3.949-.048a.275.275 0 0 1 .283.28l.012.97Z" fill="#FF8686"/><path d="m178.412 83.092-7.182.088c-1.396.017-2.527-1.102-2.544-2.518l2.121-9.611-2.348-9.557c-.017-1.416 1.087-2.562 2.483-2.579l7.182-.087c1.396-.017 2.527 1.101 2.544 2.517l.226 19.128c.018 1.456-1.126 2.603-2.482 2.62Z" fill="#FFE6B7"/><path d="m173.185 83.156-1.955.024c-1.396.017-2.527-1.102-2.544-2.518l.134-2.226a100.74 100.74 0 0 0-.175-14.72l-.186-2.222c-.017-1.416 1.087-2.562 2.483-2.579l1.955-.024.288 24.265Z" fill="#6E3400"/><path d="m178.325 58.906-4.509.055-.011-.97a.274.274 0 0 1 .276-.287l3.949-.048a.275.275 0 0 1 .283.28l.012.97Z" fill="#FF8686"/><path d="M165.895 46.754c-1.476-2.062-8.059-11-13.925-13.346-6.623-2.629-16.997-3.074-23.142 0-11.411 5.743-14.085 13.791-14.085 13.791-1.875 2.75-4.429 9.545-4.548 10.596-.519 3.762-1.158 9.828-.599 13.63.439 2.912 1.317 5.864.998 8.776-.16 1.375-.599 2.67-.639 4.045-.04 1.617 5.985 9.827 7.861 12.254 5.985 7.765 14.044 12.093 22.663 12.093 8.618 0 16.678-4.287 22.663-12.093 2.195-2.831 7.382-12.335 7.302-13.913-.04-1.375-.479-2.669-.638-4.044-.359-2.952.758-5.824.997-8.776 1.077-13.347-4.868-22.972-4.908-23.013Zm-25.416 54.599c-13.526 0-24.539-14.762-24.539-32.88 0-19.818 12.688-26.855 24.539-26.855 11.85 0 24.539 7.078 24.539 26.854 0 18.12-11.013 32.881-24.539 32.881Z" fill="#54B7FF"/><path d="M126.155 95.124c2.314 2.184 4.589 4.207 7.302 5.218 0 0 15.88 8.21 27.092 1.496-7.9 15.814-30.803-1.294-34.394-6.713Z" fill="#26A8FF"/></g></g></g><defs><linearGradient id="apd" x1="202.215" y1="69.613" x2="190.243" y2="62.015" gradientUnits="userSpaceOnUse"><stop stop-color="#FF9EE3"/><stop offset=".509" stop-color="#FF9861"/><stop offset="1" stop-color="#B34FDB"/></linearGradient><linearGradient id="ape" x1="199.978" y1="72.092" x2="188.96" y2="65.1" gradientUnits="userSpaceOnUse"><stop stop-color="#fff"/><stop offset=".509" stop-color="#C2FFC2"/><stop offset="1" stop-color="#DBC48C"/></linearGradient><linearGradient id="apf" x1="199.133" y1="72.451" x2="199.961" y2="71.174" gradientUnits="userSpaceOnUse"><stop stop-color="#E493FF"/><stop offset=".492" stop-color="#B7A9FF"/><stop offset=".999" stop-color="#FFF2E2"/><stop offset="1" stop-color="#FFF2E2"/></linearGradient><linearGradient id="apg" x1="197.64" y1="71.482" x2="198.468" y2="70.206" gradientUnits="userSpaceOnUse"><stop stop-color="#E493FF"/><stop offset=".492" stop-color="#B7A9FF"/><stop offset=".999" stop-color="#FFF2E2"/><stop offset="1" stop-color="#FFF2E2"/></linearGradient><linearGradient id="aph" x1="196.143" y1="70.512" x2="196.972" y2="69.235" gradientUnits="userSpaceOnUse"><stop stop-color="#E493FF"/><stop offset=".492" stop-color="#B7A9FF"/><stop offset=".999" stop-color="#FFF2E2"/><stop offset="1" stop-color="#FFF2E2"/></linearGradient><linearGradient id="api" x1="194.647" y1="69.541" x2="195.475" y2="68.264" gradientUnits="userSpaceOnUse"><stop stop-color="#E493FF"/><stop offset=".492" stop-color="#B7A9FF"/><stop offset=".999" stop-color="#FFF2E2"/><stop offset="1" stop-color="#FFF2E2"/></linearGradient><linearGradient id="apj" x1="193.151" y1="68.57" x2="193.98" y2="67.294" gradientUnits="userSpaceOnUse"><stop stop-color="#E493FF"/><stop offset=".492" stop-color="#B7A9FF"/><stop offset=".999" stop-color="#FFF2E2"/><stop offset="1" stop-color="#FFF2E2"/></linearGradient><linearGradient id="apk" x1="191.655" y1="67.6" x2="192.483" y2="66.323" gradientUnits="userSpaceOnUse"><stop stop-color="#E493FF"/><stop offset=".492" stop-color="#B7A9FF"/><stop offset=".999" stop-color="#FFF2E2"/><stop offset="1" stop-color="#FFF2E2"/></linearGradient><linearGradient id="apl" x1="190.158" y1="66.629" x2="190.987" y2="65.352" gradientUnits="userSpaceOnUse"><stop stop-color="#E493FF"/><stop offset=".492" stop-color="#B7A9FF"/><stop offset=".999" stop-color="#FFF2E2"/><stop offset="1" stop-color="#FFF2E2"/></linearGradient><linearGradient id="apm" x1="188.662" y1="65.658" x2="189.49" y2="64.382" gradientUnits="userSpaceOnUse"><stop stop-color="#E493FF"/><stop offset=".492" stop-color="#B7A9FF"/><stop offset=".999" stop-color="#FFF2E2"/><stop offset="1" stop-color="#FFF2E2"/></linearGradient><clipPath id="apa"><path fill="#fff" d="M0 0h280v234H0z"/></clipPath></defs></symbol><symbol fill="none" viewBox="0 0 40 40" id="groupActivity" xmlns="http://www.w3.org/2000/svg"><path fill="var(--connect__icon-fill-color, #2d2d2d)" d="M1.611 27.972c0-.963.248-1.84.743-2.632a4.646 4.646 0 0 1 2.035-1.785c1.926-.88 3.727-1.52 5.403-1.923a21.971 21.971 0 0 1 5.153-.605c1.759 0 3.472.202 5.138.605 1.667.402 3.463 1.044 5.39 1.923a4.735 4.735 0 0 1 2.048 1.785c.505.792.757 1.669.757 2.632v1.389c0 .764-.272 1.418-.816 1.962a2.675 2.675 0 0 1-1.962.816H4.389a2.675 2.675 0 0 1-1.962-.816 2.676 2.676 0 0 1-.816-1.962v-1.389Zm34 4.167h-5.25c.195-.445.359-.896.493-1.354.134-.459.201-.933.201-1.424v-1.5c0-1.574-.381-2.905-1.145-3.993s-1.892-2.007-3.382-2.757a37.7 37.7 0 0 1 4.944.896c1.547.393 2.852.872 3.917 1.437.944.537 1.68 1.179 2.208 1.924.528.745.792 1.576.792 2.493v1.5c0 .764-.272 1.418-.816 1.962a2.675 2.675 0 0 1-1.962.816ZM14.945 18.777c-1.834 0-3.357-.606-4.57-1.819s-1.82-2.736-1.82-4.57c0-1.833.607-3.356 1.82-4.569S13.111 6 14.945 6c1.833 0 3.356.606 4.569 1.82 1.213 1.212 1.82 2.735 1.82 4.569 0 1.833-.607 3.356-1.82 4.57-1.213 1.212-2.736 1.819-4.57 1.819ZM30.5 12.39c0 1.833-.607 3.356-1.82 4.57-1.212 1.212-2.735 1.819-4.569 1.819-.305 0-.662-.026-1.07-.077a5.591 5.591 0 0 1-1.069-.229 7.769 7.769 0 0 0 1.59-2.695c.366-1.036.55-2.166.55-3.388 0-1.223-.184-2.334-.55-3.334a9.213 9.213 0 0 0-1.59-2.75c.333-.102.69-.178 1.07-.229.38-.05.736-.076 1.07-.076 1.833 0 3.356.606 4.568 1.82 1.213 1.212 1.82 2.735 1.82 4.569ZM4.389 29.36H25.5v-1.389c0-.398-.113-.778-.34-1.139a1.986 1.986 0 0 0-.855-.778c-1.833-.842-3.458-1.428-4.875-1.757a19.801 19.801 0 0 0-4.485-.493c-1.575 0-3.075.165-4.5.493-1.427.33-3.056.915-4.89 1.757a1.907 1.907 0 0 0-.84.778 2.18 2.18 0 0 0-.326 1.14v1.388ZM14.945 16c1.027 0 1.886-.345 2.576-1.035.69-.69 1.034-1.549 1.034-2.576 0-1.028-.344-1.887-1.034-2.576-.69-.69-1.549-1.036-2.576-1.036-1.028 0-1.887.346-2.577 1.036-.69.69-1.035 1.548-1.035 2.576 0 1.027.345 1.886 1.035 2.576.69.69 1.549 1.035 2.577 1.035Z"/></symbol><symbol fill="none" viewBox="0 0 40 40" id="groupActivityVariant" xmlns="http://www.w3.org/2000/svg"><path fill="var(--connect__icon-fill-color, #2d2d2d)" d="M1.389 30c-.394 0-.723-.133-.99-.4A1.345 1.345 0 0 1 0 28.612v-.958c0-1.113.588-2.018 1.764-2.716 1.176-.699 2.721-1.048 4.635-1.048.346 0 .678.007.997.02.32.015.632.046.937.095a7.003 7.003 0 0 0-.625 1.588 6.833 6.833 0 0 0-.208 1.7V30H1.389Zm10 0c-.394 0-.723-.133-.99-.4a1.345 1.345 0 0 1-.399-.989v-1.32c0-.888.243-1.7.73-2.437.485-.736 1.173-1.382 2.062-1.937.889-.556 1.951-.973 3.187-1.25 1.236-.278 2.577-.417 4.021-.417 1.472 0 2.826.139 4.063.417 1.236.277 2.298.694 3.187 1.25.889.555 1.57 1.201 2.042 1.937.472.736.708 1.549.708 2.438v1.32c0 .393-.133.722-.4.989a1.342 1.342 0 0 1-.989.399H11.39ZM32.5 30v-2.708c0-.609-.063-1.182-.188-1.72a6.409 6.409 0 0 0-.59-1.566 7.79 7.79 0 0 1 .928-.096c.314-.014.634-.021.961-.021 1.917 0 3.46.343 4.632 1.028 1.171.686 1.757 1.598 1.757 2.736v.958c0 .394-.133.723-.4.99a1.342 1.342 0 0 1-.989.399H32.5Zm-19.653-2.778h14.32v-.167c-.093-.87-.817-1.592-2.174-2.166-1.356-.574-3.02-.861-4.993-.861-1.972 0-3.637.287-4.993.86-1.357.575-2.077 1.306-2.16 2.195v.14ZM6.377 22.5c-.835 0-1.55-.3-2.148-.898a2.945 2.945 0 0 1-.896-2.157c0-.852.3-1.575.898-2.167a2.956 2.956 0 0 1 2.158-.89c.852 0 1.574.297 2.166.89.593.592.89 1.319.89 2.179a2.94 2.94 0 0 1-.89 2.147c-.592.597-1.318.896-2.178.896Zm27.222 0c-.835 0-1.55-.3-2.148-.898a2.945 2.945 0 0 1-.896-2.157c0-.852.3-1.575.898-2.167a2.956 2.956 0 0 1 2.158-.89c.852 0 1.574.297 2.167.89.592.592.889 1.319.889 2.179a2.94 2.94 0 0 1-.89 2.147c-.592.597-1.318.896-2.178.896ZM20 20c-1.389 0-2.57-.486-3.542-1.458C15.486 17.569 15 16.389 15 15c0-1.417.486-2.604 1.458-3.563C17.431 10.48 18.611 10 20 10c1.417 0 2.604.48 3.563 1.438C24.52 12.396 25 13.582 25 15c0 1.389-.48 2.57-1.438 3.542S21.418 20 20 20Zm.01-2.778c.632 0 1.159-.214 1.58-.642.422-.427.632-.957.632-1.59 0-.632-.212-1.159-.636-1.58-.424-.421-.95-.632-1.576-.632-.627 0-1.156.212-1.586.636-.43.424-.646.95-.646 1.576 0 .627.214 1.156.642 1.586.427.43.957.646 1.59.646Z"/></symbol><symbol fill="none" viewBox="0 0 40 40" id="info" xmlns="http://www.w3.org/2000/svg"><path fill="var(--connect__icon-fill-color, #2d2d2d)" d="M19.755 28c.395 0 .724-.133.988-.4a1.35 1.35 0 0 0 .396-.989V19.39c0-.394-.134-.723-.4-.99a1.352 1.352 0 0 0-.994-.399c-.395 0-.724.133-.988.4a1.35 1.35 0 0 0-.396.989v7.222c0 .394.134.723.4.99.268.266.599.399.994.399Zm-.089-13.167a1.44 1.44 0 0 0 1.05-.415c.282-.277.423-.62.423-1.03 0-.424-.141-.78-.423-1.068a1.41 1.41 0 0 0-1.049-.431c-.417 0-.767.144-1.05.431a1.466 1.466 0 0 0-.422 1.069c0 .41.14.752.422 1.029a1.44 1.44 0 0 0 1.05.415Zm.008 21.5c-2.3 0-4.463-.437-6.486-1.312a16.905 16.905 0 0 1-5.3-3.576 16.9 16.9 0 0 1-3.575-5.302C3.438 24.12 3 21.955 3 19.653c0-2.302.438-4.466 1.313-6.49.875-2.026 2.067-3.788 3.576-5.288a17.021 17.021 0 0 1 5.301-3.563C15.215 3.438 17.378 3 19.68 3c2.303 0 4.466.438 6.491 1.313 2.025.875 3.787 2.062 5.287 3.562s2.688 3.264 3.563 5.292c.875 2.027 1.312 4.192 1.312 6.492 0 2.301-.437 4.463-1.312 6.486-.875 2.024-2.063 3.788-3.563 5.294-1.5 1.506-3.264 2.698-5.291 3.577-2.028.878-4.192 1.317-6.493 1.317Zm.006-2.778c3.861 0 7.14-1.351 9.834-4.055 2.694-2.704 4.041-5.986 4.041-9.847 0-3.861-1.345-7.139-4.036-9.833-2.69-2.695-5.975-4.042-9.852-4.042-3.852 0-7.13 1.345-9.834 4.036-2.703 2.691-4.055 5.975-4.055 9.853 0 3.852 1.352 7.13 4.055 9.833 2.704 2.704 5.986 4.055 9.847 4.055Z"/></symbol><symbol fill="none" viewBox="0 0 30 30" id="lineArrow" xmlns="http://www.w3.org/2000/svg"><g clip-path="url(#ata)"><path fill="var(--connect__icon-fill-color, #2d2d2d)" d="M23.395 21.276 10.88 8.76l8.698-.495c.848 0 1.485-.778 1.414-1.555 0-.849-.778-1.485-1.556-1.415l-12.02.708c-.142 0-.354.07-.495.07l-.071.071c-.212.07-.283.141-.424.283-.142.141-.213.212-.283.424l-.07.07C6 7.135 5.93 7.206 6 7.418l-.707 12.02c0 .425.142.85.425 1.132.282.283.565.424.99.424.848 0 1.555-.566 1.555-1.414l.495-8.697 12.516 12.515c.566.566 1.555.566 2.121 0 .566-.565.566-1.555 0-2.12Z"/></g><defs><clipPath id="ata"><path fill="#fff" d="M0 0h30v30H0z"/></clipPath></defs></symbol><symbol fill="none" viewBox="0 0 30 30" id="lineDashed" xmlns="http://www.w3.org/2000/svg"><path fill="var(--connect__icon-fill-color, #2d2d2d)" fill-rule="evenodd" d="M6.975 5.905a1.5 1.5 0 0 1 2.12.07l1.931 2.064-2.19 2.05-1.931-2.064a1.5 1.5 0 0 1 .07-2.12Zm5.023 3.173 3.862 4.128-2.191 2.05-3.862-4.129 2.19-2.05Zm4.833 5.166 3.862 4.129-2.19 2.05-3.863-4.13 2.191-2.049Zm4.833 5.167 1.931 2.064a1.5 1.5 0 1 1-2.19 2.05l-1.931-2.064 2.19-2.05Z" clip-rule="evenodd"/></symbol><symbol fill="none" viewBox="0 0 30 30" id="lineSolid" xmlns="http://www.w3.org/2000/svg"><path fill="var(--connect__icon-fill-color, #2d2d2d)" fill-rule="evenodd" d="M6.975 5.905a1.5 1.5 0 0 1 2.12.07l14.5 15.5a1.5 1.5 0 1 1-2.19 2.05l-14.5-15.5a1.5 1.5 0 0 1 .07-2.12Z" clip-rule="evenodd"/></symbol><symbol fill="none" viewBox="0 0 40 40" id="loader" xmlns="http://www.w3.org/2000/svg"><path fill-rule="evenodd" clip-rule="evenodd" d="M27 15c0-6.627-5.373-12-12-12S3 8.373 3 15s5.373 12 12 12 12-5.373 12-12ZM6 15a9 9 0 1 1 18 0 9 9 0 0 1-18 0Z" fill="var(--connect__button-bg)"/><circle cx="15" cy="15" r="10" stroke="var(--active-color)" stroke-width="2" stroke-linecap="round" stroke-dasharray="31.4 31.4"><animateTransform attributeName="transform" type="rotate" from="0 15 15" to="360 15 15" dur="1s" repeatCount="indefinite"/></circle></symbol><symbol viewBox="0 0 20 32" fill="none" id="mic" xmlns="http://www.w3.org/2000/svg"><g clip-path="url(#axa)" fill="var(--connect__icon-fill-color, #2d2d2d)"><path d="M10 19.621c-2.8 0-5-1.848-5-4.724V4.832C5.2 1.957 7.2.108 10 .108s5 1.849 5 4.724v10.065c-.2 2.876-2.2 4.724-5 4.724Zm2 4.109H8v8.216h4V23.73Z"/><path d="M10 24.757c-5.6 0-10-4.109-10-9.244 0-.616.4-1.027 1-1.027s1 .411 1 1.027c0 3.903 3.6 7.19 8 7.19s8-3.287 8-7.19c0-.616.4-1.027 1-1.027s1 .411 1 1.027c0 5.135-4.4 9.244-10 9.244Zm7 8.216H3c-.6 0-1-.41-1-1.027 0-.616.4-1.027 1-1.027h14c.6 0 1 .41 1 1.027 0 .616-.4 1.027-1 1.027Z"/></g><defs><clipPath id="axa"><path d="M0 .108h20v32.865H0z"/></clipPath></defs></symbol><symbol fill="none" viewBox="0 0 40 40" id="pause" xmlns="http://www.w3.org/2000/svg"><path fill="var(--connect__icon-fill-color, #2d2d2d)" d="M24.25 31.333a2.675 2.675 0 0 1-1.962-.816 2.676 2.676 0 0 1-.816-1.962V10.778c0-.764.272-1.418.816-1.962A2.675 2.675 0 0 1 24.25 8h4.305c.764 0 1.418.272 1.962.816.544.544.816 1.198.816 1.962v17.777c0 .764-.272 1.418-.816 1.962a2.676 2.676 0 0 1-1.962.816H24.25Zm-13.472 0a2.676 2.676 0 0 1-1.962-.816A2.676 2.676 0 0 1 8 28.555V10.778c0-.764.272-1.418.816-1.962A2.676 2.676 0 0 1 10.778 8h4.305c.764 0 1.418.272 1.962.816.544.544.816 1.198.816 1.962v17.777c0 .764-.272 1.418-.816 1.962a2.675 2.675 0 0 1-1.962.816h-4.305Zm13.472-2.778h4.305V10.778H24.25v17.777Zm-13.472 0h4.305V10.778h-4.305v17.777Z"/></symbol><symbol fill="none" viewBox="0 0 30 30" id="placeholder" xmlns="http://www.w3.org/2000/svg"><path d="M7.698 24.127H22.27l-2.738-2.738c-.63.456-1.331.81-2.102 1.06a7.832 7.832 0 0 1-2.429.374c-.848 0-1.657-.13-2.428-.39a7.842 7.842 0 0 1-2.103-1.076l-2.77 2.77Zm-1.732-1.951 2.645-2.645a7.498 7.498 0 0 1-1.06-2.102A7.831 7.831 0 0 1 7.178 15c0-.848.13-1.657.39-2.428a7.84 7.84 0 0 1 1.077-2.103L5.966 7.792v14.384Zm4.536-4.536L13.175 15l-2.673-2.64c-.24.39-.419.804-.538 1.238-.12.435-.18.902-.18 1.402 0 .5.06.967.18 1.402.12.434.298.847.538 1.238ZM15 20.215c.5 0 .967-.06 1.402-.179.434-.12.847-.299 1.238-.538L15 16.825l-2.673 2.673c.391.24.81.419 1.255.538.445.12.918.18 1.418.18Zm0-7.073 2.64-2.64a4.813 4.813 0 0 0-1.238-.538A5.269 5.269 0 0 0 15 9.784c-.5 0-.967.06-1.402.18-.434.12-.847.298-1.238.538l2.64 2.64Zm4.498 4.498c.24-.39.419-.804.538-1.238.12-.435.18-.902.18-1.402 0-.5-.06-.973-.18-1.418a4.76 4.76 0 0 0-.538-1.255l-2.64 2.64 2.64 2.673Zm4.536 4.536V7.792l-2.677 2.677c.456.63.814 1.331 1.075 2.103.26.771.391 1.58.391 2.428 0 .848-.125 1.657-.375 2.428a7.499 7.499 0 0 1-1.059 2.103l2.645 2.645ZM19.53 8.644l2.77-2.771H7.732l2.738 2.738a7.498 7.498 0 0 1 2.103-1.06A7.831 7.831 0 0 1 15 7.178c.848 0 1.657.13 2.428.39a7.84 7.84 0 0 1 2.103 1.077ZM5.966 27c-.82 0-1.52-.29-2.099-.867a2.86 2.86 0 0 1-.867-2.1V5.967c0-.82.29-1.52.867-2.099A2.86 2.86 0 0 1 5.967 3h18.067c.82 0 1.52.29 2.099.867.578.579.867 1.278.867 2.1v18.067c0 .82-.29 1.52-.867 2.099a2.859 2.859 0 0 1-2.1.867H5.967Z" fill="#2D2D2D"/></symbol><symbol fill="none" viewBox="0 0 40 40" id="play" xmlns="http://www.w3.org/2000/svg"><path fill="var(--connect__icon-fill-color, #2d2d2d)" d="M11 28.639v-18.25c0-.417.14-.753.418-1.007.28-.255.605-.382.977-.382a1.512 1.512 0 0 1 .73.194l14.361 9.153c.213.148.373.32.48.514.106.194.159.412.159.653 0 .24-.053.458-.16.653a1.524 1.524 0 0 1-.479.513l-14.361 9.153a1.518 1.518 0 0 1-.733.195c-.372 0-.698-.128-.975-.382-.278-.255-.417-.59-.417-1.007Zm2.778-2.514 10.389-6.611-10.39-6.611v13.222Z"/></symbol><symbol fill="none" viewBox="0 0 30 30" id="redo" xmlns="http://www.w3.org/2000/svg"><path fill="var(--connect__icon-fill-color, #2d2d2d)" d="M19.814 5.318c.42 0 .776.145 1.065.435.29.29.434.644.434 1.065 0 .421-.144.776-.434 1.066a1.45 1.45 0 0 1-1.066.434h-7.932c-1.32 0-2.465.428-3.432 1.283C7.483 10.456 7 11.52 7 12.79s.484 2.335 1.45 3.193c.967.858 2.111 1.287 3.432 1.287h8.047l-2.214-2.213a1.426 1.426 0 0 1-.418-1.05c0-.42.14-.77.418-1.048.279-.279.628-.418 1.05-.418.42 0 .77.14 1.048.418l4.762 4.754c.148.148.256.312.324.492s.102.368.102.565c0 .197-.034.385-.102.565-.068.18-.176.344-.323.492l-4.763 4.754c-.278.279-.628.418-1.049.418a1.427 1.427 0 0 1-1.467-1.467c0-.42.14-.77.418-1.049l2.214-2.213H11.88c-2.163 0-4.017-.717-5.563-2.152C4.774 16.685 4 14.911 4 12.8c0-2.113.773-3.888 2.319-5.325 1.545-1.437 3.4-2.156 5.562-2.156h7.933Z"/></symbol><symbol fill="none" viewBox="0 0 40 40" id="reduce" xmlns="http://www.w3.org/2000/svg"><path fill="var(--connect__icon-fill-color, #2d2d2d)" d="M9.389 20.777c-.394 0-.723-.133-.99-.4A1.352 1.352 0 0 1 8 19.384c0-.395.133-.724.4-.988A1.35 1.35 0 0 1 9.388 18h20.556c.393 0 .723.134.99.4.265.268.398.599.398.994s-.133.724-.399.988a1.35 1.35 0 0 1-.99.395H9.39Z"/></symbol><symbol fill="none" viewBox="0 0 40 40" id="renew" xmlns="http://www.w3.org/2000/svg"><path fill="var(--connect__icon-fill-color, #2d2d2d)" d="M9.778 19.764c0 .518.032 1.025.097 1.52.065.496.166.97.305 1.424.102.38.084.752-.055 1.118-.139.366-.38.628-.722.785a1.238 1.238 0 0 1-1.063.02 1.23 1.23 0 0 1-.715-.77 11.913 11.913 0 0 1-.48-2.028A14.522 14.522 0 0 1 7 19.763c0-3.666 1.306-6.81 3.917-9.43 2.61-2.62 5.75-3.93 9.416-3.93h1.292L19.43 4.207a1.247 1.247 0 0 1-.375-.916c0-.361.125-.667.375-.917S19.99 2 20.361 2c.37 0 .68.125.93.375l4.473 4.444c.277.278.416.602.416.973 0 .37-.139.694-.416.972l-4.444 4.444a1.28 1.28 0 0 1-.945.375 1.28 1.28 0 0 1-1.32-1.32c0-.379.125-.694.375-.944l2.14-2.139h-1.237c-2.907 0-5.393 1.035-7.458 3.105-2.065 2.069-3.097 4.562-3.097 7.479Zm21.11-.084c0-.518-.032-1.025-.096-1.52a9.506 9.506 0 0 0-.306-1.452c-.12-.38-.111-.752.028-1.118a1.36 1.36 0 0 1 .722-.785 1.208 1.208 0 0 1 1.049-.02c.347.152.58.41.701.77.24.676.414 1.357.521 2.042.107.685.16 1.38.16 2.083 0 3.667-1.306 6.81-3.917 9.43-2.611 2.621-5.75 3.932-9.417 3.932h-1.347l2.194 2.194c.25.25.375.555.375.917 0 .36-.125.666-.375.916s-.56.375-.93.375-.68-.125-.93-.375l-4.473-4.444a1.333 1.333 0 0 1-.417-.973c0-.37.14-.694.417-.972l4.473-4.472c.25-.25.56-.375.93-.375s.68.125.93.375.375.56.375.93c0 .371-.125.681-.375.931l-2.194 2.195h1.347c2.908 0 5.394-1.035 7.459-3.104 2.064-2.07 3.097-4.563 3.097-7.48Z"/></symbol><symbol fill="none" viewBox="0 0 30 30" id="shapes" xmlns="http://www.w3.org/2000/svg"><path fill="var(--connect__icon-fill-color, #2d2d2d)" d="m9.169 11.603 4.253-6.998c.124-.209.282-.362.473-.46a1.312 1.312 0 0 1 1.207 0c.19.098.348.251.472.46l4.253 6.998c.129.212.193.434.193.666a1.263 1.263 0 0 1-.6 1.096c-.19.118-.41.177-.662.177h-8.52c-.252 0-.473-.058-.662-.176a1.239 1.239 0 0 1-.441-.463c-.106-.19-.159-.4-.159-.632 0-.232.064-.455.193-.668ZM20.786 26c-1.448 0-2.68-.51-3.695-1.532-1.015-1.021-1.523-2.262-1.523-3.72 0-1.46.508-2.7 1.522-3.723 1.015-1.023 2.247-1.534 3.697-1.534 1.449 0 2.68.51 3.694 1.533C25.492 18.046 26 19.288 26 20.748c0 1.46-.507 2.7-1.52 3.721C23.464 25.49 22.233 26 20.785 26ZM4 24.17v-6.85c0-.357.122-.658.365-.903.244-.246.543-.368.897-.368h6.804c.355 0 .653.122.897.368.244.245.366.546.366.903v6.848c0 .357-.122.658-.366.904a1.214 1.214 0 0 1-.896.368H5.261c-.354 0-.653-.123-.897-.368A1.233 1.233 0 0 1 4 24.169Zm16.787-.713c.75 0 1.386-.263 1.907-.788.52-.524.781-1.165.781-1.92 0-.756-.26-1.398-.781-1.924a2.579 2.579 0 0 0-1.907-.79 2.59 2.59 0 0 0-1.91.79 2.629 2.629 0 0 0-.784 1.924c0 .756.261 1.396.784 1.92.523.525 1.16.788 1.91.788Zm-14.262-.56h4.28v-4.304h-4.28v4.305ZM12.487 11h4.022L14.5 7.71 12.486 11Z"/></symbol><symbol fill="none" viewBox="0 0 30 30" id="shapesCircleOutline" xmlns="http://www.w3.org/2000/svg"><path fill="var(--connect__icon-fill-color, #2d2d2d)" fill-rule="evenodd" d="M27 15c0-6.627-5.373-12-12-12S3 8.373 3 15s5.373 12 12 12 12-5.373 12-12ZM6 15a9 9 0 1 1 18 0 9 9 0 0 1-18 0Z" clip-rule="evenodd"/></symbol><symbol fill="none" viewBox="0 0 30 30" id="shapesCircleSolid" xmlns="http://www.w3.org/2000/svg"><circle cx="15" cy="15" r="11" fill="var(--connect__icon-fill-color, #2d2d2d)"/></symbol><symbol fill="none" viewBox="0 0 30 30" id="shapesRectangleOutline" xmlns="http://www.w3.org/2000/svg"><path fill="var(--connect__icon-fill-color, #2d2d2d)" fill-rule="evenodd" d="M27 3H3v24h24V3ZM6 24V6h18v18H6Z" clip-rule="evenodd"/></symbol><symbol fill="none" viewBox="0 0 30 30" id="shapesRectangleSolid" xmlns="http://www.w3.org/2000/svg"><path fill="var(--connect__icon-fill-color, #2d2d2d)" d="M5 5h20v20H5z"/></symbol><symbol fill="none" viewBox="0 0 30 30" id="shapesTriangleOutline" xmlns="http://www.w3.org/2000/svg"><path fill="var(--connect__icon-fill-color, #2d2d2d)" fill-rule="evenodd" d="m15 3 12.99 22.5H2.01L15 3ZM7.206 22.5h15.588L15 9 7.206 22.5Z" clip-rule="evenodd"/></symbol><symbol fill="none" viewBox="0 0 30 30" id="shapesTriangleSolid" xmlns="http://www.w3.org/2000/svg"><path fill="var(--connect__icon-fill-color, #2d2d2d)" d="m15 6 10.392 18H4.608L15 6Z"/></symbol><symbol fill="none" viewBox="0 0 40 40" id="soundMeter" xmlns="http://www.w3.org/2000/svg"><path fill="var(--connect__icon-fill-color, #2d2d2d)" d="m20.333 28.407-5.125 5.125c-.527.528-1.183.792-1.965.792-.783 0-1.438-.264-1.966-.792L5.792 28.02C5.264 27.49 5 26.838 5 26.06c0-.777.264-1.43.792-1.958l5.083-5.111v-6.07c0-.62.285-1.046.854-1.277.57-.232 1.072-.13 1.507.305l14.139 14.098c.435.434.53.937.285 1.506-.246.57-.679.854-1.3.854h-6.027Zm2.64-2.777-9.32-9.264v3.778L7.736 26.06l5.486 5.487 5.917-5.917h3.833Zm5.888-15.25c-1.768-1.769-3.85-2.88-6.243-3.333-2.394-.454-4.73-.218-7.007.708a1.427 1.427 0 0 1-1.063.007c-.365-.135-.608-.373-.729-.715a1.482 1.482 0 0 1 .028-1.16c.167-.375.45-.637.847-.785 2.75-1.111 5.588-1.382 8.514-.813 2.926.57 5.472 1.938 7.64 4.105 2.147 2.148 3.51 4.668 4.09 7.562.578 2.894.335 5.71-.73 8.451a1.663 1.663 0 0 1-.805.924 1.372 1.372 0 0 1-1.195.076c-.36-.13-.6-.374-.715-.735-.116-.362-.1-.737.049-1.125a12.039 12.039 0 0 0 .652-6.966c-.472-2.384-1.583-4.451-3.333-6.201Zm-3.111 3.152a7.278 7.278 0 0 1 1.444 2.05c.361.763.593 1.566.695 2.409.046.38-.072.704-.354.972a1.299 1.299 0 0 1-.993.375 1.44 1.44 0 0 1-.966-.43 1.815 1.815 0 0 1-.52-.959 5.66 5.66 0 0 0-.438-1.292 4.12 4.12 0 0 0-.813-1.138 4.652 4.652 0 0 0-1.138-.84 4.943 4.943 0 0 0-1.306-.466 1.86 1.86 0 0 1-.98-.5 1.422 1.422 0 0 1-.423-.986c-.018-.398.12-.736.417-1.014.296-.278.652-.384 1.07-.32.805.12 1.578.362 2.319.723.74.36 1.403.833 1.986 1.416Z"/></symbol><symbol viewBox="0 0 30 30" fill="none" id="specialShapesHexagon" xmlns="http://www.w3.org/2000/svg"><path d="M9.7 24.73 4 14.866 9.7 5h11.4l5.7 9.865-5.7 9.866H9.7Z" fill="var(--connect__icon-fill-color, #2d2d2d)"/></symbol><symbol viewBox="0 0 30 30" fill="none" id="specialShapesPentagon" xmlns="http://www.w3.org/2000/svg"><path d="M8.4 25.9 4 12.7 15 5l11 7.7-4.4 13.2H8.4Z" fill="var(--connect__icon-fill-color, #2d2d2d)"/></symbol><symbol fill="none" viewBox="0 0 30 30" id="stampsCounterOutline" xmlns="http://www.w3.org/2000/svg"><path fill="var(--connect__icon-fill-color, #2d2d2d)" fill-rule="evenodd" d="M18.253 7.5H7A1.5 1.5 0 0 0 5.5 9v11.253a1.5 1.5 0 0 0 1.5 1.5h11.253a1.5 1.5 0 0 0 1.5-1.5V9a1.5 1.5 0 0 0-1.5-1.5ZM7 5a4 4 0 0 0-4 4v11.253a4 4 0 0 0 4 4h11.253a4 4 0 0 0 4-4V9a4 4 0 0 0-4-4H7Zm5.526 11.539a2.012 2.012 0 1 0 0-4.025 2.012 2.012 0 0 0 0 4.025Zm0 2.5a4.512 4.512 0 1 0 0-9.025 4.512 4.512 0 0 0 0 9.025Z" clip-rule="evenodd"/><path fill="var(--connect__icon-fill-color, #2d2d2d)" d="M23.791 10H25a2 2 0 0 1 2 2v5.626a2 2 0 0 1-2 2h-1.209V10Z"/></symbol><symbol fill="none" viewBox="0 0 30 30" id="stampsMeasureOutline" xmlns="http://www.w3.org/2000/svg"><path fill="var(--connect__icon-fill-color, #2d2d2d)" d="m11.487 13.03 2.538-2.572-1.543-1.568-.5.492c-.23.232-.514.35-.85.356a1.168 1.168 0 0 1-.874-.363 1.2 1.2 0 0 1-.37-.878 1.2 1.2 0 0 1 .37-.878l.469-.47-1.29-1.283-2.562 2.571 4.612 4.592Zm10.07 10.1 2.561-2.564-1.297-1.298-.5.469c-.247.247-.534.37-.862.367a1.195 1.195 0 0 1-.862-.374 1.188 1.188 0 0 1-.37-.867c0-.33.123-.62.37-.867l.469-.492-1.574-1.552-2.546 2.548 4.61 4.63ZM5.73 25.647a1.33 1.33 0 0 1-.98-.4 1.333 1.333 0 0 1-.398-.979v-3.526a1.36 1.36 0 0 1 .407-.987l4.848-4.853-5.014-5.018A1.979 1.979 0 0 1 4 8.43c0-.573.198-1.058.594-1.454l3.39-3.392c.396-.397.88-.591 1.453-.584.572.008 1.056.21 1.453.607l5.044 5.025 4.514-4.541a2.526 2.526 0 0 1 1.815-.757c.332 0 .655.062.967.186.313.124.595.311.847.564l1.814 1.839c.252.252.441.536.567.85.126.316.19.64.19.973a2.485 2.485 0 0 1-.757 1.793l-4.514 4.534 5.029 5.032c.396.397.594.881.594 1.454s-.198 1.057-.594 1.454l-3.39 3.392c-.396.397-.88.595-1.453.595a1.976 1.976 0 0 1-1.453-.595l-5.035-5.032-4.849 4.86a1.364 1.364 0 0 1-.987.414H5.731ZM7 22.998h1.703L20.26 11.453l-1.726-1.735L7 21.28v1.719Zm12.413-12.4-.878-.88 1.726 1.735-.848-.856Z"/></symbol><symbol fill="none" viewBox="0 0 30 30" id="stampsSpecialShapesOutline" xmlns="http://www.w3.org/2000/svg"><path stroke="#2D2D2D" stroke-width="2.5" d="m11.743 7.555 1.043-1.37a3.647 3.647 0 0 1 6.392 1.163l.66 2.205a3.01 3.01 0 0 0 1.831 1.957h.001l1.477.553.004.002a3.245 3.245 0 0 1 2.099 3.032 3.23 3.23 0 0 1-1.3 2.594l-.002.002-2.493 1.87v.001a1.929 1.929 0 0 0-.762 1.759v.003l.092.841-9.042-14.612Zm0 0a2.378 2.378 0 0 1-2.292.902l-1.903-.323h-.001a3.254 3.254 0 0 0-3.27 4.985l.005.007 1.419 2.16v.002a2.337 2.337 0 0 1-.164 2.785v.001l-.416.498-.006.007a3.34 3.34 0 0 0 3.167 5.424l3.069-.56h.002c.38-.068.77-.013 1.11.159l.01.004.008.004c.1.048.198.11.3.191M11.742 7.555l1.037 16.246m0 0 2.056 1.644a3.677 3.677 0 0 0 5.95-3.277l-8.006 1.633Z"/></symbol><symbol fill="none" viewBox="0 0 40 40" id="stop" xmlns="http://www.w3.org/2000/svg"><path fill="var(--connect__icon-fill-color, #2d2d2d)" d="M10 26.222V11.778c0-.764.272-1.418.816-1.962A2.676 2.676 0 0 1 12.778 9h14.444c.764 0 1.418.272 1.962.816.544.544.816 1.198.816 1.962v14.444c0 .764-.272 1.418-.816 1.962a2.676 2.676 0 0 1-1.962.816H12.778a2.676 2.676 0 0 1-1.962-.816A2.676 2.676 0 0 1 10 26.222Zm2.778 0h14.444V11.778H12.778v14.444Z"/></symbol><symbol fill="none" viewBox="0 0 40 40" id="stopwatch" xmlns="http://www.w3.org/2000/svg"><path fill="var(--connect__icon-fill-color, #2d2d2d)" d="M16.389 4.778c-.394 0-.723-.134-.99-.4A1.351 1.351 0 0 1 15 3.383c0-.395.133-.724.4-.988A1.35 1.35 0 0 1 16.388 2h7.222c.394 0 .723.134.99.4.266.268.399.599.399.994s-.133.724-.4.988a1.35 1.35 0 0 1-.989.396h-7.22Zm3.616 18.527c.395 0 .724-.133.988-.399a1.35 1.35 0 0 0 .396-.99v-6.944c0-.393-.134-.723-.4-.99a1.352 1.352 0 0 0-.994-.399c-.395 0-.724.133-.988.4a1.35 1.35 0 0 0-.396.99v6.944c0 .393.134.723.4.99.268.265.599.398.994.398ZM20 36.972c-2.056 0-3.993-.396-5.813-1.187a15.323 15.323 0 0 1-4.77-3.23 15.322 15.322 0 0 1-3.23-4.77C5.396 25.965 5 24.028 5 21.972c0-2.056.396-3.993 1.188-5.812a15.32 15.32 0 0 1 3.229-4.771 15.321 15.321 0 0 1 4.77-3.23c1.82-.791 3.757-1.187 5.813-1.187 1.815 0 3.532.301 5.153.903a15.02 15.02 0 0 1 4.402 2.542l1.223-1.222c.268-.269.592-.403.972-.403s.704.134.972.403c.269.268.403.592.403.972s-.134.703-.403.972L31.5 12.36c1.019 1.204 1.856 2.597 2.514 4.18.657 1.584.986 3.394.986 5.431 0 2.056-.396 3.993-1.188 5.813a15.323 15.323 0 0 1-3.229 4.77 15.323 15.323 0 0 1-4.77 3.23c-1.82.791-3.757 1.187-5.813 1.187Zm0-2.777c3.389 0 6.273-1.19 8.653-3.57 2.38-2.38 3.57-5.264 3.57-8.653 0-3.389-1.19-6.273-3.57-8.652-2.38-2.38-5.264-3.57-8.653-3.57-3.389 0-6.273 1.19-8.653 3.57-2.38 2.379-3.57 5.263-3.57 8.652 0 3.389 1.19 6.273 3.57 8.653 2.38 2.38 5.264 3.57 8.653 3.57Z"/></symbol><symbol fill="none" viewBox="0 0 40 40" id="studentPicker" xmlns="http://www.w3.org/2000/svg"><path fill="var(--connect__icon-fill-color, #2d2d2d)" d="M20.333 18.777c-1.833 0-3.356-.606-4.57-1.819-1.212-1.213-1.818-2.736-1.818-4.57 0-1.833.606-3.356 1.819-4.569S18.5 6 20.334 6c1.833 0 3.356.606 4.569 1.82 1.213 1.212 1.82 2.735 1.82 4.569 0 1.833-.607 3.356-1.82 4.57-1.213 1.212-2.736 1.819-4.57 1.819ZM7 29.361v-1.389c0-1.019.257-1.91.77-2.674a5 5 0 0 1 2.008-1.743c1.815-.842 3.588-1.474 5.32-1.895a22.07 22.07 0 0 1 5.235-.633c1.76 0 3.5.216 5.222.646 1.723.43 3.49 1.06 5.304 1.888a4.96 4.96 0 0 1 2.04 1.742c.512.76.768 1.65.768 2.67v1.388c0 .764-.272 1.418-.816 1.962a2.676 2.676 0 0 1-1.962.816H9.778a2.676 2.676 0 0 1-1.962-.816A2.676 2.676 0 0 1 7 29.36Zm2.778 0h21.11v-1.389a2.04 2.04 0 0 0-.34-1.125 2.214 2.214 0 0 0-.853-.792c-1.686-.824-3.274-1.405-4.765-1.742a20.716 20.716 0 0 0-4.597-.508c-1.574 0-3.115.17-4.625.508-1.509.337-3.097.918-4.763 1.742a2.11 2.11 0 0 0-.84.792 2.104 2.104 0 0 0-.327 1.125v1.389ZM20.333 16c1.028 0 1.887-.345 2.577-1.035s1.035-1.549 1.035-2.576c0-1.028-.345-1.887-1.035-2.576-.69-.69-1.549-1.036-2.577-1.036-1.027 0-1.886.346-2.576 1.036-.69.69-1.035 1.548-1.035 2.576 0 1.027.345 1.886 1.035 2.576.69.69 1.549 1.035 2.576 1.035Z"/></symbol><symbol fill="none" viewBox="0 0 40 40" id="timer" xmlns="http://www.w3.org/2000/svg"><path fill="var(--connect__icon-fill-color, #2d2d2d)" d="M21.139 19.111v-6.75c0-.398-.132-.73-.396-.993a1.347 1.347 0 0 0-.993-.396c-.398 0-.729.132-.993.396a1.347 1.347 0 0 0-.396.993v7.292c0 .185.033.359.097.52.065.163.162.318.292.466l5.833 5.972a1.29 1.29 0 0 0 1.014.417c.408-.01.746-.148 1.014-.417.269-.268.403-.602.403-1s-.134-.731-.403-1l-5.472-5.5Zm-1.472 17.222c-2.287 0-4.445-.437-6.472-1.312-2.028-.875-3.797-2.067-5.306-3.576-1.51-1.51-2.702-3.279-3.577-5.306C3.438 24.11 3 21.954 3 19.667c0-2.287.438-4.445 1.313-6.472.875-2.028 2.067-3.797 3.576-5.306 1.51-1.51 3.278-2.702 5.306-3.577C15.222 3.438 17.38 3 19.667 3c2.287 0 4.444.438 6.472 1.313 2.027.875 3.796 2.067 5.306 3.576 1.509 1.51 2.7 3.278 3.576 5.306.875 2.027 1.312 4.185 1.312 6.472 0 2.287-.437 4.444-1.312 6.472-.875 2.027-2.067 3.796-3.576 5.306-1.51 1.509-3.279 2.7-5.306 3.576-2.028.875-4.185 1.312-6.472 1.312Zm0-2.778c3.824 0 7.095-1.358 9.812-4.076 2.718-2.717 4.076-5.988 4.076-9.812 0-3.825-1.358-7.095-4.076-9.813-2.717-2.717-5.988-4.076-9.812-4.076-3.825 0-7.095 1.359-9.813 4.076-2.717 2.718-4.076 5.989-4.076 9.813 0 3.824 1.359 7.095 4.076 9.812 2.718 2.718 5.989 4.076 9.813 4.076Z"/></symbol><symbol fill="none" viewBox="0 0 30 30" id="undo" xmlns="http://www.w3.org/2000/svg"><path d="M9.072 17.271h8.047c1.32 0 2.465-.427 3.431-1.283.967-.855 1.45-1.918 1.45-3.19 0-1.27-.483-2.335-1.45-3.193-.966-.858-2.11-1.287-3.431-1.287H9.186a1.45 1.45 0 0 1-1.065-.434 1.45 1.45 0 0 1-.434-1.066c0-.42.144-.776.434-1.065a1.45 1.45 0 0 1 1.065-.435h7.933c2.163 0 4.017.718 5.563 2.152C24.227 8.904 25 10.678 25 12.79c0 2.114-.773 3.889-2.319 5.325-1.545 1.437-3.4 2.156-5.562 2.156H9.072l2.214 2.213c.279.279.418.628.418 1.05 0 .42-.14.77-.418 1.048-.278.279-.628.418-1.05.418-.42 0-.77-.14-1.048-.418l-4.762-4.754a1.387 1.387 0 0 1-.324-.492A1.584 1.584 0 0 1 4 18.771c0-.197.034-.385.102-.565.068-.18.176-.344.324-.492l4.762-4.754c.278-.279.628-.418 1.049-.418.42 0 .77.14 1.05.418.277.278.417.628.417 1.049 0 .42-.14.77-.418 1.049L9.072 17.27Z" fill="#2D2D2D"/></symbol></svg>